<svg width="28" height="28" viewBox="0 0 28 28" fill="none" xmlns="http://www.w3.org/2000/svg">
<path d="M23.3333 7.00001H19.8333V4.66668C19.8333 3.37984 18.7868 2.33334 17.5 2.33334H10.5C9.21315 2.33334 8.16665 3.37984 8.16665 4.66668V7.00001H4.66665C3.37981 7.00001 2.33331 8.04651 2.33331 9.33334V12.8333H25.6666V9.33334C25.6666 8.04651 24.6201 7.00001 23.3333 7.00001ZM10.5 4.66668H17.5V7.00001H10.5V4.66668ZM16.3333 16.3333H11.6666V14H2.33331V22.1667C2.33331 23.4535 3.37981 24.5 4.66665 24.5H23.3333C24.6201 24.5 25.6666 23.4535 25.6666 22.1667V14H16.3333V16.3333Z" fill="#434242"/>
</svg>
