<svg width="24" height="24" viewBox="0 0 24 24" fill="none" xmlns="http://www.w3.org/2000/svg">
<path d="M5.57442 16.2825C5.65532 16.3898 5.7154 16.5143 5.8056 16.6142C6.2355 17.0903 7.54397 16.7196 8.16181 16.7574C8.33716 16.7681 8.49731 16.8207 8.64101 16.9222C8.99424 17.1717 9.45256 17.901 9.76876 18.2515C10.0093 18.5182 10.2435 18.623 10.598 18.6412C10.598 18.6506 10.5983 18.6654 10.5964 18.6753C10.5689 18.8153 8.39761 22.801 8.15769 23.2105C8.1349 23.2497 8.10642 23.2783 8.07097 23.3066C8.07413 23.2935 8.07825 23.2801 8.07888 23.2665C8.08489 23.1509 7.98013 22.8475 7.90037 22.7643C7.9029 22.751 7.9048 22.7376 7.90606 22.7241C7.91619 22.6142 6.97962 19.7409 6.89796 19.6409C6.64918 19.7573 6.10328 19.8642 5.8163 19.9428L3.2085 20.6537L5.57442 16.2825Z" fill="#434242"/>
<path d="M17.4154 15.6438C17.435 15.6418 17.4559 15.639 17.4762 15.6398C17.5338 15.6421 17.5635 15.6548 17.5993 15.7017C17.6705 15.7952 17.7186 15.9393 17.7749 16.0447L18.3165 17.0453C18.9375 18.1906 19.5864 19.3276 20.1798 20.4868C20.2105 20.5465 20.2314 20.5873 20.2238 20.6556C19.9712 20.5197 19.3787 20.4056 19.0834 20.3247C18.2288 20.0904 17.3749 19.8396 16.5143 19.629C16.519 19.6435 16.525 19.6583 16.5263 19.6738C16.5355 19.7791 15.5394 22.84 15.4387 23.1232C15.4217 23.1712 15.4039 23.2056 15.3704 23.2443C15.2837 23.2079 13.1405 19.1642 12.9031 18.7255C12.7768 18.4919 12.4223 17.7405 12.266 17.5937C12.391 17.5343 12.517 17.4687 12.6556 17.4503C13.413 17.3496 14.3477 18.2228 15.0735 18.0951C15.2438 18.0651 15.3935 17.9935 15.5166 17.871C15.8961 17.4939 16.1341 16.5546 16.4756 16.0735C16.7162 15.7348 17.0359 15.7072 17.4154 15.6438Z" fill="#434242"/>
<path d="M12.6915 0.518802C12.833 0.500436 12.9732 0.486534 13.1128 0.52599C13.7689 0.711712 14.1326 1.83583 14.7346 2.15166C15.3657 2.48276 16.5485 1.89789 17.155 2.27193C17.6538 2.57963 17.6231 3.74184 17.7541 4.27886C17.7947 4.44539 17.8633 4.6092 17.9824 4.73523C18.3077 5.08039 19.1642 5.31726 19.5997 5.59338C20.5939 6.22382 19.3991 7.43527 19.3753 8.25555C19.3573 8.88061 20.335 9.6348 20.4683 10.2795C20.6468 11.1441 19.1984 11.5875 18.8404 12.2449C18.4815 12.9037 19.1072 14.094 18.6904 14.7108C18.4068 15.1304 17.3034 15.161 16.8097 15.2524C16.6346 15.2848 16.4561 15.3324 16.3124 15.4425C15.9199 15.7438 15.6832 16.7097 15.372 17.154C14.727 18.0752 13.5581 16.931 12.7475 16.8993C12.0812 16.8733 11.3574 17.8717 10.712 17.9848C9.95931 18.2079 9.35192 16.7204 8.79169 16.3717C8.23683 16.0261 7.15562 16.4991 6.51752 16.3115C5.639 16.0533 5.99122 14.5697 5.61722 13.921C5.26903 13.3171 3.89326 13.2027 3.56339 12.5794C3.49701 12.454 3.46869 12.3064 3.4803 12.1654C3.51607 11.7306 3.89684 11.0195 4.03876 10.5671C4.08545 10.4183 4.11577 10.2705 4.09076 10.1149C4.00768 9.59731 3.34828 8.95591 3.10026 8.46337C2.58586 7.44192 4.19692 6.98333 4.62593 6.29979C4.98454 5.72838 4.4741 4.61455 4.70098 3.97287C4.87126 3.49126 5.31989 3.46517 5.75481 3.4032C6.07203 3.35801 6.84891 3.26026 7.09959 3.10788C7.70477 2.73992 7.79055 1.34589 8.45903 1.04785C8.92462 0.840308 9.77763 1.30821 10.2445 1.4837C10.4354 1.55549 10.6344 1.62572 10.8414 1.6052C11.3244 1.55742 12.1721 0.754587 12.6915 0.518802ZM11.5466 3.09436C9.83207 3.19503 8.29286 3.8634 7.13947 5.15817C6.07288 6.35559 5.49207 7.97771 5.58744 9.5823C5.68524 11.2283 6.42193 12.7677 7.65603 13.8638C8.81511 14.8931 10.3138 15.4387 11.8609 15.4044C13.4673 15.3766 15.0308 14.7145 16.1488 13.5555C17.2908 12.3716 17.9358 10.7694 17.9004 9.1195C17.8652 7.49655 17.1844 5.92996 16.0082 4.81022C14.8254 3.6843 13.2416 3.04243 11.6004 3.09202C11.5824 3.09256 11.5644 3.09335 11.5466 3.09436Z" fill="#434242"/>
<path d="M11.2064 3.87714C11.2722 3.87252 11.3377 3.86837 11.4035 3.86505C12.8636 3.79139 14.2756 4.26065 15.3628 5.24961C16.4263 6.2173 17.0625 7.57663 17.1293 9.01306C17.1939 10.4064 16.6992 11.8347 15.7528 12.8652C14.8539 13.8438 13.535 14.5689 12.1891 14.6244C12.1727 14.627 12.1562 14.6295 12.1398 14.6319C10.9285 14.8019 9.44874 14.2831 8.49128 13.5555C7.35658 12.6933 6.58649 11.4023 6.39911 9.98644C6.20623 8.52971 6.59219 7.09283 7.48824 5.92898C8.4131 4.72763 9.72253 4.07252 11.2064 3.87714ZM14.8697 7.41215C14.7121 7.56947 10.4863 10.2494 10.3635 10.2904C10.315 10.1625 8.72962 8.59402 8.58719 8.52452C8.52199 8.67075 8.20294 8.97636 8.05956 9.06446C8.15768 9.1193 8.46913 9.39378 8.50046 9.49673C8.50141 9.50062 8.50173 9.50477 8.50236 9.50879C8.65492 9.60129 10.2315 11.1796 10.2559 11.2629C10.4977 11.1602 15.21 8.14848 15.3021 8.03436C15.2957 7.90364 15.0517 7.54439 14.9526 7.44467C14.9308 7.42254 14.9001 7.41402 14.8697 7.41215Z" fill="#434242"/>
</svg>
