<svg width="32" height="32" viewBox="0 0 32 32" fill="none" xmlns="http://www.w3.org/2000/svg">
<path d="M4 4H27.9348C27.9655 4.04869 27.9757 4.08911 27.9783 4.14595C28.0239 5.14426 27.982 6.16103 27.9822 7.16172L27.9826 13.1878L27.9823 15.7425C27.9823 16.0364 28.0279 16.5071 27.9727 16.7774C27.9668 16.8066 27.9573 16.8344 27.9477 16.8625C27.972 16.9182 27.9784 16.9648 27.98 17.0257C27.9996 17.777 27.9824 18.5334 27.9826 19.2851V23.6796C27.9824 24.118 28.026 27.7798 27.9617 27.947C27.9545 27.9656 27.9451 27.983 27.9348 28H16.7582H8.56976H4V27.9673V4ZM9.17044 9.09319L14.2926 21.8429L15.8681 25.7987C16.1575 26.5269 16.4264 27.2918 16.7582 28H27.9348C27.9451 27.983 27.9545 27.9656 27.9617 27.947C28.026 27.7798 27.9824 24.118 27.9826 23.6796V19.2851C27.9824 18.5334 27.9996 17.777 27.98 17.0257C27.9784 16.9648 27.972 16.9182 27.9477 16.8625C27.4063 16.6166 26.8444 16.4042 26.2944 16.178L23.2547 14.9255L14.162 11.1731L10.8766 9.82003C10.3143 9.58776 9.70598 9.37826 9.17044 9.09319Z" fill="#07414C" fill-opacity="0.8"/>
<path d="M11.0273 10.9721C11.4173 11.0755 12.0986 11.4185 12.5074 11.5936L15.6993 12.9512L27.2443 17.8702C25.8459 18.3576 24.4691 18.9516 23.0901 19.4944L21.542 20.1041C21.2119 20.2344 20.8636 20.3517 20.5534 20.5253C20.2978 20.9155 19.9502 21.8993 19.7529 22.3767L18.58 25.2082C18.2972 25.8941 18.0268 26.5884 17.7092 27.2589C17.5356 26.6634 17.2401 26.0737 17.0038 25.498L15.5891 22.0558L11.0273 10.9721Z" fill="#BA6331" fill-opacity="0.8"/>
</svg>
