<svg width="32" height="32" viewBox="0 0 32 32" fill="none" xmlns="http://www.w3.org/2000/svg">
<path d="M2 2H29.9239C29.9597 2.0568 29.9717 2.10397 29.9747 2.17028C30.0279 3.33497 29.979 4.5212 29.9793 5.68868L29.9796 12.7191L29.9794 15.6996C29.9794 16.0425 30.0325 16.5916 29.9682 16.907C29.9612 16.941 29.9502 16.9735 29.939 17.0062C29.9673 17.0712 29.9748 17.1256 29.9767 17.1966C29.9995 18.0731 29.9795 18.9556 29.9796 19.8326V24.9595C29.9795 25.471 30.0304 29.7431 29.9553 29.9381C29.9469 29.9599 29.936 29.9801 29.9239 30H16.8845H7.33139H2V29.9619V2ZM8.03218 7.94205L14.008 22.8167L15.8461 27.4319C16.1838 28.2814 16.4974 29.1738 16.8845 30H29.9239C29.936 29.9801 29.9469 29.9599 29.9553 29.9381C30.0304 29.7431 29.9795 25.471 29.9796 24.9595V19.8326C29.9795 18.9556 29.9995 18.0731 29.9767 17.1966C29.9748 17.1256 29.9673 17.0712 29.939 17.0062C29.3073 16.7194 28.6519 16.4716 28.0101 16.2076L24.4638 14.7464L13.8557 10.3686L10.0227 8.79004C9.36668 8.51905 8.65698 8.27464 8.03218 7.94205Z" fill="#06505D" fill-opacity="0.8"/>
<path d="M10.1985 10.1341C10.6535 10.2547 11.4484 10.655 11.9253 10.8592L15.6492 12.4431L29.1184 18.1819C27.4869 18.7505 25.8806 19.4435 24.2718 20.0768L22.4656 20.7881C22.0805 20.9401 21.6741 21.077 21.3123 21.2795C21.0141 21.7348 20.6086 22.8825 20.3784 23.4395L19.01 26.7429C18.6801 27.5431 18.3646 28.3531 17.994 29.1354C17.7915 28.4406 17.4468 27.7526 17.1711 27.081L15.5206 23.0651L10.1985 10.1341Z" fill="#BA6331" fill-opacity="0.8"/>
</svg>
