<?xml version="1.0" encoding="utf-8" ?>
<svg xmlns="http://www.w3.org/2000/svg" xmlns:xlink="http://www.w3.org/1999/xlink" width="170" height="170">
	<clipPath id="cl_3">
		<rect x="9.5367432e-06" y="-2.9087067e-05" width="170" height="170.00002"/>
	</clipPath>
	<g clip-path="url(#cl_3)">
		<path fill="#4B77CF" transform="matrix(0.84543 0 0 0.84543 -31.0975 5.10443)" d="M63.9167 42.7077Q69.4664 42.7575 75.0158 42.6881L75.3357 42.6988C75.3236 43.3098 75.0189 43.5686 74.6296 44.0257C73.0746 45.8518 71.3133 47.5112 69.7424 49.3329C66.5189 53.0711 63.5895 56.9875 60.6924 60.9781C60.4574 60.9789 60.4693 60.9186 60.3073 60.7629C61.6081 54.7032 63.0799 48.8817 63.9167 42.7077Z"/>
		<path fill="#2288DA" transform="matrix(0.84543 0 0 0.84543 -31.0975 5.10443)" d="M82.3491 42.6596C86.9148 42.6001 91.5338 42.4753 96.0772 42.9953C94.0854 45.1372 91.6216 46.6913 89.5819 48.7414C88.8514 48.0522 87.9159 47.6708 87.0598 47.1628C85.0267 45.9561 83.7418 44.5371 82.3491 42.6596Z"/>
		<defs>
			<linearGradient id="gradient_0" gradientUnits="userSpaceOnUse" x1="95.185905" y1="71.058327" x2="102.41811" y2="39.66082">
				<stop offset="0" stop-color="#4B69C4"/>
				<stop offset="1" stop-color="#1694E4"/>
			</linearGradient>
		</defs>
		<path fill="url(#gradient_0)" transform="matrix(0.84543 0 0 0.84543 -31.0975 5.10443)" d="M78.6981 67.1428C82.6934 61.3125 96.9064 44.1973 103.528 42.9603C108.2 42.0876 115.884 42.7379 120.998 42.585C106.316 50.4496 97.6972 57.4485 87.4772 70.7293C84.946 68.4209 81.9622 67.7349 78.6981 67.1428Z"/>
		<path fill="#4B77CF" transform="matrix(0.84543 0 0 0.84543 -31.0975 5.10443)" d="M70.0614 54.4834Q70.2243 54.2668 70.3919 54.0537C72.5258 51.3429 79.305 43.0116 82.3491 42.6596C83.7418 44.5371 85.0267 45.9561 87.0598 47.1628C87.9159 47.6708 88.8514 48.0522 89.5819 48.7414Q84.2567 53.8893 79.5902 59.641C76.9501 57.4008 75.4082 59.2904 74.3273 58.6936C74.2874 58.6716 74.251 58.6436 74.2126 58.6189C72.2784 57.37 72.7963 55.3915 70.0614 54.4834Z"/>
		<defs>
			<linearGradient id="gradient_1" gradientUnits="userSpaceOnUse" x1="114.81817" y1="70.960167" x2="120.56208" y2="39.721844">
				<stop offset="0" stop-color="#4B7CD1"/>
				<stop offset="1" stop-color="#1E90E2"/>
			</linearGradient>
		</defs>
		<path fill="url(#gradient_1)" transform="matrix(0.84543 0 0 0.84543 -31.0975 5.10443)" d="M93.8065 68.2991C103.828 57.2271 118.03 44.1579 133.63 42.851C136.006 42.6031 138.509 42.7422 140.902 42.7438C140.492 44.6291 140.17 46.5271 139.846 48.4285C130.254 49.0236 118.464 55.2346 111.069 61.1501C108.667 63.0714 106.635 65.4887 104.184 67.33C103.47 67.8664 102.839 68.1671 101.938 68.1629C99.2556 67.9704 96.4886 68.1529 93.8065 68.2991Z"/>
		<path fill="#4B77CF" transform="matrix(0.84543 0 0 0.84543 -31.0975 5.10443)" d="M171.345 44.8269C169.241 46.2001 166.144 49.6014 165.613 52.0539C162.261 50.6182 158.927 49.4505 155.352 48.7061L156.338 42.7433C161.715 42.7027 166.293 42.6909 171.345 44.8269Z"/>
		<path fill="#9B53B8" transform="matrix(0.84543 0 0 0.84543 -31.0975 5.10443)" d="M196.204 68.2491C196.725 63.4147 186.981 51.7172 183.342 48.452C182.34 47.5528 176.89 43.6128 176.699 43.3475C176.633 43.2556 176.591 42.9594 176.556 42.8379C182.515 42.9364 188.627 42.3664 194.561 42.8819C194.646 42.9179 194.732 42.9542 194.815 42.9951L194.949 43.0626C195.041 43.1079 195.133 43.1504 195.224 43.1993C199.598 45.5685 206.463 59.7012 207.923 64.5155C208.283 65.7036 208.652 66.7786 208.041 67.9131L207.835 68.1187C204.64 68.921 199.596 68.3323 196.204 68.2491Z"/>
		<path fill="#9B53B8" transform="matrix(0.84543 0 0 0.84543 -31.0975 5.10443)" d="M212.103 68.2559C213.717 64.677 206.319 51.6634 204.282 48.4428C203.229 46.7775 201.222 44.6569 200.598 42.8744C205.706 42.3881 211.439 42.5601 216.566 42.8413C217.23 43.2048 217.657 43.7552 218.076 44.3714C220.357 47.7247 226.219 64.0213 225.527 67.3899C225.462 67.7061 225.067 67.868 224.802 68.0439C223.089 68.9007 214.238 68.3066 212.103 68.2559Z"/>
		<path fill="#9B53B8" transform="matrix(0.84543 0 0 0.84543 -31.0975 5.10443)" d="M228.229 57.1254C228.311 57.3162 228.385 57.5187 228.411 57.7261C228.494 58.3875 228.347 59.2209 227.941 59.7207L227.593 59.594C227.457 57.1312 226.749 54.9197 225.909 52.6205C225.32 51.0106 221.601 43.8665 221.866 42.8751C224.928 42.7841 228.079 42.6205 231.134 42.8854C231.262 43.1456 231.358 43.4128 231.38 43.7036C231.547 45.8394 229.505 55.6883 228.229 57.1254Z"/>
		<path fill="#9B53B8" transform="matrix(0.84543 0 0 0.84543 -31.0975 5.10443)" d="M165.613 52.0539C166.144 49.6014 169.241 46.2001 171.345 44.8269C179.582 49.0171 189.284 58.1912 192.219 67.1619C192.329 67.4994 192.377 67.711 192.287 68.0649C190.933 68.0777 189.128 67.828 187.942 68.5511C187.084 69.4673 186.661 74.6266 186.285 76.3331C181.888 65.5252 176.455 57.329 165.613 52.0539Z"/>
		<defs>
			<linearGradient id="gradient_2" gradientUnits="userSpaceOnUse" x1="169.87463" y1="66.32209" x2="154.22247" y2="53.388412">
				<stop offset="0" stop-color="#A159BA"/>
				<stop offset="1" stop-color="#6C6ECB"/>
			</linearGradient>
		</defs>
		<path fill="url(#gradient_2)" transform="matrix(0.84543 0 0 0.84543 -31.0975 5.10443)" d="M174.068 62.7924C173.308 63.3699 172.771 64.1276 172.03 64.7276C170.719 65.789 169.129 66.6991 167.908 67.8231C167.65 68.0598 167.465 68.3688 167.312 68.6797C163.073 64.7074 158.72 61.6611 152.976 60.2797C153.594 57.6136 153.916 54.8245 154.35 52.1197C161.917 53.9417 168.654 57.0246 174.068 62.7924Z"/>
		<path fill="#4B77CF" transform="matrix(0.84543 0 0 0.84543 -31.0975 5.10443)" d="M110.453 68.1756C109.976 68.0817 109.817 68.1166 109.514 67.7123C109.55 67.4875 109.614 67.2764 109.735 67.0817C110.486 65.8725 112.543 64.6456 113.71 63.7822C121.484 58.0323 128.354 54.8941 137.671 52.5462C138.164 52.5375 138.215 52.5035 138.596 52.806C139.142 54.7463 138.112 57.709 137.666 59.6413C134.225 60.9125 130.658 61.7571 127.274 63.2013C118.18 67.0828 121.624 68.512 110.453 68.1756Z"/>
		<path fill="#682AA9" transform="matrix(0.84543 0 0 0.84543 -31.0975 5.10443)" d="M55.8978 152.331C52.2535 145.232 48.4281 137.055 47.5322 129.029C47.2986 126.936 47.5143 124.785 47.8208 122.711C49.077 114.208 51.2878 105.695 53.0146 97.2667C54.5136 89.9511 56.2406 77.7261 58.9283 71.3254C61.5104 65.1763 65.941 59.6625 70.0614 54.4834C72.7963 55.3915 72.2784 57.37 74.2126 58.6189C74.251 58.6436 74.2874 58.6716 74.3273 58.6936C75.4082 59.2904 76.9501 57.4008 79.5902 59.641C70.1437 71.4774 62.8239 86.1018 60.1932 101.075C57.5749 115.978 59.6127 131.223 67.0064 144.515C68.555 147.299 70.4315 149.886 72.2602 152.49C66.895 152.016 61.294 152.357 55.8978 152.331Z"/>
		<path fill="#D141AF" transform="matrix(0.84543 0 0 0.84543 -31.0975 5.10443)" d="M167.312 68.6797C167.465 68.3688 167.65 68.0598 167.908 67.8231C169.129 66.6991 170.719 65.789 172.03 64.7276C172.771 64.1276 173.308 63.3699 174.068 62.7924C180.904 70.5118 184.641 79.5676 184 89.9743C183.061 105.242 174.891 119.607 163.551 129.616C157.924 134.583 151.475 138.617 144.39 141.135C141.536 142.149 138.327 142.87 135.594 144.136C136.087 141.661 136.488 139.079 137.202 136.66C151.589 132.016 163.801 123.366 170.814 109.662C175.256 100.982 177.192 89.6221 174.134 80.2031C172.685 75.7397 170.34 72.197 167.312 68.6797Z"/>
		<path fill="#9B53B8" transform="matrix(0.84543 0 0 0.84543 -31.0975 5.10443)" d="M160.577 67.8084C158.87 69.5725 156.381 70.7148 155.408 73.071C153.96 72.1049 152.386 71.2446 150.712 70.7536C151.155 68.3826 151.7 66.024 152.206 63.6653C155.07 65.0632 157.946 65.9177 160.577 67.8084Z"/>
		<path fill="#4B77CF" transform="matrix(0.84543 0 0 0.84543 -31.0975 5.10443)" d="M126.938 68.1898C126.541 68.1891 126.494 68.1428 126.162 67.9161L126.292 67.6409C129.281 65.7405 132.343 64.8242 135.764 64.0602L136.222 64.1134L136.524 64.6001C136.632 65.7934 136.176 67.0167 135.867 68.1584L126.938 68.1898Z"/>
		<path fill="#682AA9" transform="matrix(0.84543 0 0 0.84543 -31.0975 5.10443)" d="M76.8799 152.317C70.2781 143.716 65.4145 135.004 63.6673 124.157C60.3989 103.867 66.8446 83.557 78.6981 67.1428C81.9622 67.7349 84.946 68.4209 87.4772 70.7293Q86.1962 72.5523 84.9823 74.4206C76.3103 87.7981 71.7237 105.474 75.1157 121.268Q75.3611 122.465 75.6661 123.648Q75.971 124.83 76.3347 125.997Q76.6984 127.163 77.12 128.309Q77.5416 129.456 78.02 130.58Q78.4984 131.704 79.0324 132.803Q79.5665 133.901 80.1548 134.972Q80.7431 136.042 81.3842 137.082Q82.0253 138.122 82.7176 139.128Q83.4099 140.135 84.1516 141.105Q84.8934 142.076 85.6828 143.008Q86.4722 143.941 87.3072 144.832Q88.1422 145.724 89.0208 146.573Q89.8994 147.421 90.8193 148.225Q91.7392 149.029 92.6982 149.785Q93.6571 150.542 94.6527 151.25Q95.6483 151.958 96.6781 152.615C90.708 151.607 83.0036 152.221 76.8799 152.317Z"/>
		<path fill="#D141AF" transform="matrix(0.84543 0 0 0.84543 -31.0975 5.10443)" d="M155.408 73.071C156.381 70.7148 158.87 69.5725 160.577 67.8084C166.472 72.2283 170.489 77.9124 171.56 85.2911C173.128 96.0879 169.693 106.388 163.247 114.992C156.418 124.108 148.401 128.746 138.005 132.777C138.398 130.482 138.821 128.221 139.394 125.963C150.486 120.926 159.413 114.737 163.9 102.844C166.311 96.4526 166.857 89.4044 163.955 83.0816C161.989 78.7994 159.319 75.6721 155.408 73.071Z"/>
		<defs>
			<linearGradient id="gradient_3" gradientUnits="userSpaceOnUse" x1="75.861656" y1="122.86438" x2="93.147263" y2="73.845352">
				<stop offset="0" stop-color="#780FA4"/>
				<stop offset="1" stop-color="#5765C3"/>
			</linearGradient>
		</defs>
		<path fill="url(#gradient_3)" transform="matrix(0.84543 0 0 0.84543 -31.0975 5.10443)" d="M81.3447 125.762L81.0659 126.121Q80.4821 125.77 79.8925 125.428C79.1233 123.347 78.6862 120.928 78.3399 118.737C75.4065 100.182 82.513 83.7395 93.2373 69.0038C92.6589 71.3091 89.6418 82.2845 90.3384 83.912L91.4605 83.9882L91.6787 84.3609C90.8931 88.2675 88.5248 91.8475 87.5983 95.7758C86.723 99.487 86.4082 103.292 85.6954 107.031C85.0007 110.675 83.9147 114.265 83.1281 117.898C82.567 120.49 82.1707 123.25 81.3447 125.762Z"/>
		<path fill="#D141AF" transform="matrix(0.84543 0 0 0.84543 -31.0975 5.10443)" d="M148.463 80.4633C149.066 78.4528 149.485 76.3411 149.982 74.299C153.612 75.4199 157.408 79.0131 159.321 82.2147C162.343 87.2717 163.007 93.0412 161.557 98.7191C159.075 108.438 151.742 115.363 143.42 120.332C142.37 120.928 141.207 121.385 140.104 121.879C140.418 120.009 140.859 118.201 141.34 116.369C142.406 115.467 143.704 114.73 144.861 113.942C148.561 111.422 151.763 108.651 153.969 104.681C156.406 100.294 157.456 94.6972 156.028 89.8167C154.841 85.7619 152.155 82.4834 148.463 80.4633Z"/>
		<defs>
			<linearGradient id="gradient_4" gradientUnits="userSpaceOnUse" x1="94.289917" y1="109.55631" x2="98.0783" y2="83.747734">
				<stop offset="0" stop-color="#782EAE"/>
				<stop offset="1" stop-color="#6250BE"/>
			</linearGradient>
		</defs>
		<path fill="url(#gradient_4)" transform="matrix(0.84543 0 0 0.84543 -31.0975 5.10443)" d="M89.5081 109.657C90.1191 99.883 92.1983 92.5781 96.3093 83.7144C98.8572 83.8629 101.385 83.9623 103.937 83.8968C101.054 89.4103 98.581 95.6905 98.0383 101.934C97.8253 104.385 98.0177 106.911 97.6963 109.339L97.2878 109.501Q93.3958 109.469 89.5081 109.657Z"/>
		<path fill="#682AA9" transform="matrix(0.84543 0 0 0.84543 -31.0975 5.10443)" d="M101.302 109.51C101.182 99.8065 103.634 92.0657 108.405 83.6764C110.578 84.1251 112.581 84.0585 114.764 83.7075C109.706 92.1162 106.361 99.5405 108.023 109.639C105.835 109.772 103.502 109.557 101.302 109.51Z"/>
		<path fill="#9B53B8" transform="matrix(0.84543 0 0 0.84543 -31.0975 5.10443)" d="M120.028 84.031L123.419 83.8632L126.125 83.7223Q124.612 85.1121 123.258 86.6577C119.542 90.9529 116.287 96.9996 116.758 102.868C116.903 104.665 117.628 106.419 117.73 108.198C117.769 108.873 117.742 109.157 117.292 109.654L115.812 109.68C114.472 109.688 113.127 109.607 111.787 109.553C110.965 105.819 111.094 101.845 111.914 98.1213C112.971 93.3197 115.722 86.7811 120.028 84.031Z"/>
		<path fill="#D141AF" transform="matrix(0.84543 0 0 0.84543 -31.0975 5.10443)" d="M142.062 111.71C144.294 102.625 145.829 93.3968 147.99 84.3049C148.574 84.5653 149.13 85.1969 149.579 85.65C152.003 88.0955 153.009 91.2437 152.977 94.651C152.921 100.689 149.639 105.129 145.507 109.177C144.485 110.194 143.327 111.025 142.062 111.71Z"/>
		<path fill="#9B53B8" transform="matrix(0.84543 0 0 0.84543 -31.0975 5.10443)" d="M122.147 109.296C120.714 106.016 120.02 102.692 120.665 99.1254C121.703 93.3888 125.739 88.7112 130.398 85.4644L130.944 85.5441C131.367 86.7138 127.043 106.307 126.372 109.696C124.905 109.81 123.505 109.997 122.147 109.296Z"/>
		<path fill="#D141AF" transform="matrix(0.84543 0 0 0.84543 -31.0975 5.10443)" d="M180.676 113.98C185.062 106.384 187.781 96.8773 187.808 88.1062C190.379 87.9563 193.012 88.0691 195.593 88.0293C195.612 88.0645 195.632 88.099 195.648 88.1351C196.626 90.253 193.845 101.14 193.015 103.751C192.273 106.085 190.467 112.44 188.296 113.565C187.213 114.455 182.279 113.992 180.676 113.98Z"/>
		<path fill="#D141AF" transform="matrix(0.84543 0 0 0.84543 -31.0975 5.10443)" d="M192.242 113.973C192.332 113.902 192.415 113.83 192.498 113.751L192.622 113.631C195.572 110.804 198.28 98.5058 198.984 94.2324C199.322 92.1799 199.396 90.171 199.649 88.124C202.218 87.8514 207.468 87.5334 209.914 88.246C210.141 88.3123 210.175 88.3118 210.279 88.5276C211.3 90.6588 207.381 105.154 206.454 107.963C205.824 109.871 205.052 112.677 203.17 113.627C201.718 114.204 194.287 113.932 192.242 113.973Z"/>
		<path fill="#D141AF" transform="matrix(0.84543 0 0 0.84543 -31.0975 5.10443)" d="M207.509 113.868C207.553 113.832 207.598 113.797 207.641 113.761C210.985 110.96 213.827 92.8788 214.157 88.1239C216.375 87.9218 218.757 88.0914 220.99 88.1182C221 88.1662 221.009 88.2142 221.02 88.262C221.033 88.3158 221.047 88.3691 221.059 88.423C221.416 90.0279 217.05 112.422 216.278 113.416C215.954 113.833 215.554 113.791 215.062 113.878C212.565 113.693 210.012 113.825 207.509 113.868Z"/>
		<path fill="#D141AF" transform="matrix(0.84543 0 0 0.84543 -31.0975 5.10443)" d="M134.934 147.634C138.296 146.547 141.761 145.828 145.096 144.624C159.04 139.592 167.533 131.306 176.884 120.2C177.046 120.396 177.155 120.602 177.15 120.865C177.103 123.06 175.162 131.57 174.18 133.508C173.476 134.896 172.278 136.15 171.165 137.217C164.897 143.224 154.083 150.63 145.426 152.164C141.843 152.8 138 152.503 134.369 152.432C134.351 152.404 134.331 152.377 134.315 152.348C133.681 151.252 134.615 148.765 134.934 147.634Z"/>
		<path fill="#682AA9" transform="matrix(0.84543 0 0 0.84543 -31.0975 5.10443)" d="M79.8925 125.428Q80.4821 125.77 81.0659 126.121L81.3447 125.762C81.7128 126.21 81.745 126.17 82.3254 126.227C84.774 126.466 87.4198 126.286 89.8858 126.232C94.8241 135.478 103.094 143.213 113.261 146.328C115.36 146.971 117.514 147.404 119.663 147.846C119.266 149.298 118.943 150.842 118.416 152.248C109 153.093 101.761 152.892 94.1455 146.538C87.7163 141.174 82.5094 133.375 79.8925 125.428Z"/>
		<path fill="#682AA9" transform="matrix(0.84543 0 0 0.84543 -31.0975 5.10443)" d="M122.73 131.825C122.602 132.123 122.373 132.363 122.167 132.611C121.823 132.696 121.485 132.734 121.13 132.685C117.602 132.192 112.281 129.186 110.187 126.304C114.665 125.915 119.403 126.22 123.908 126.264C123.658 128.14 123.166 129.985 122.73 131.825Z"/>
		<path fill="#682AA9" transform="matrix(0.84543 0 0 0.84543 -31.0975 5.10443)" d="M120.38 142.935C120.213 143.466 120.148 143.551 119.732 143.925C118.19 144.279 116.666 143.854 115.2 143.362C106.87 140.565 98.221 134.421 94.2515 126.488Q99.4641 126.526 104.676 126.432C109.863 131.353 114.738 135.188 121.942 136.658C121.313 138.703 120.883 140.853 120.38 142.935Z"/>
		<path fill="#682AA9" transform="matrix(0.84543 0 0 0.84543 -31.0975 5.10443)" d="M41.7638 152.346C42.8252 147.044 43.7866 141.606 45.1151 136.371C45.7691 136.806 46.0794 138.353 46.33 139.104C47.8737 143.733 49.5752 148.012 51.7182 152.399Q50.2649 152.363 48.8125 152.301Q45.2884 152.362 41.7638 152.346Z"/>
		<path fill="#D141AF" transform="matrix(0.84543 0 0 0.84543 -31.0975 5.10443)" d="M156.591 152.367L156.35 152.005C156.934 150.8 161.906 148.501 163.41 147.502C166.665 145.339 169.635 142.763 172.94 140.686C173.329 142.295 171.055 150.308 170.579 152.368C165.956 152.08 161.222 152.314 156.591 152.367Z"/>
	</g>
</svg>
