<?xml version="1.0" encoding="utf-8" ?>
<svg xmlns="http://www.w3.org/2000/svg" xmlns:xlink="http://www.w3.org/1999/xlink" width="346" height="341">
	<clipPath id="cl_4">
		<rect y="-1.5258789e-05" width="346.00006" height="341"/>
	</clipPath>
	<g clip-path="url(#cl_4)">
		<path fill="#DB0010" transform="matrix(0.712996 0 0 0.71176 -896.435 -229.478)" d="M1534.57 331.765C1560.02 331.922 1604.63 352.946 1625.45 367.489C1628.03 369.287 1632.45 371.878 1634.36 374.299C1634.79 374.849 1634.8 375.056 1634.97 375.647C1623.85 376.922 1611.67 376.019 1600.46 376.001Q1567.49 375.835 1534.53 376.075C1536.93 370.398 1536.78 337.614 1534.57 331.765Z"/>
		<path fill="#ACB2B9" transform="matrix(0.712996 0 0 0.71176 -896.435 -229.478)" d="M1296.74 447.136C1304.18 439.016 1311.11 424.544 1318.33 415.147C1344.22 381.454 1381.86 354.889 1421.82 340.813Q1427.37 338.89 1433.01 337.249Q1438.65 335.608 1444.36 334.254Q1450.08 332.899 1455.86 331.835Q1461.63 330.77 1467.45 329.997Q1473.28 329.225 1479.13 328.747Q1484.98 328.269 1490.86 328.087Q1496.73 327.905 1502.6 328.019Q1508.47 328.132 1514.33 328.542C1520.4 328.909 1529.07 329.142 1534.57 331.765C1536.78 337.614 1536.93 370.398 1534.53 376.075Q1567.49 375.835 1600.46 376.001C1611.67 376.019 1623.85 376.922 1634.97 375.647C1643.32 379.948 1666.42 399.806 1672.1 407.516L1672.32 408.725C1689.29 416.285 1717.21 466.965 1724.01 484.603C1746.6 543.197 1746.09 606.12 1720.3 663.741Q1719.15 666.273 1717.93 668.776Q1716.72 671.279 1715.44 673.752Q1714.16 676.225 1712.83 678.666Q1711.49 681.107 1710.1 683.515Q1708.7 685.923 1707.25 688.297Q1705.8 690.67 1704.29 693.007Q1702.78 695.344 1701.21 697.644Q1699.65 699.944 1698.03 702.205Q1696.4 704.466 1694.73 706.687Q1693.05 708.907 1691.32 711.087Q1689.59 713.266 1687.81 715.403Q1686.03 717.54 1684.19 719.632Q1682.36 721.725 1680.47 723.772Q1678.59 725.82 1676.66 727.821Q1674.72 729.822 1672.74 731.775Q1670.76 733.728 1668.73 735.633Q1666.7 737.537 1664.63 739.392Q1662.55 741.247 1660.43 743.05Q1658.31 744.854 1656.15 746.605Q1653.99 748.357 1651.79 750.055Q1649.58 751.753 1647.34 753.398Q1645.09 755.042 1642.81 756.631Q1640.52 758.22 1638.2 759.753Q1635.88 761.286 1633.52 762.762Q1631.16 764.238 1628.77 765.657Q1626.37 767.075 1623.95 768.435Q1621.52 769.794 1619.06 771.094Q1616.6 772.394 1614.11 773.634Q1611.62 774.874 1609.1 776.053Q1606.58 777.232 1604.03 778.349Q1601.48 779.466 1598.9 780.521Q1596.33 781.576 1593.73 782.568C1539.16 803.165 1474.67 801.919 1421.38 777.775C1399.43 767.825 1375.12 753.198 1358.16 735.899C1339.55 721.508 1325.93 701.933 1310.59 684.421L1309.69 683.358C1307.8 677.478 1300.08 666.974 1296.9 660.903C1292.06 651.661 1288.91 640.59 1283.4 631.939C1284.1 629.477 1273.7 587.042 1271.86 582.258L1271.26 580.279C1272.84 573.612 1270.59 560.196 1270.53 552.816Q1270.52 543.139 1271.35 533.497Q1272.18 523.856 1273.83 514.321C1276.32 500.737 1280.5 486.969 1285.48 474.09C1288.38 466.592 1294.5 456.891 1295.53 449.186L1296.74 447.136Z"/>
		<path fill="#F4F5F7" transform="matrix(0.712996 0 0 0.71176 -896.435 -229.478)" d="M1534.53 376.075Q1567.49 375.835 1600.46 376.001C1611.67 376.019 1623.85 376.922 1634.97 375.647C1643.32 379.948 1666.42 399.806 1672.1 407.516L1672.32 408.725C1675.21 412.811 1683.46 421.934 1683.6 426.536L1584.64 426.598C1568.43 426.595 1551.72 427.53 1535.6 426.41C1536.02 416.953 1537.93 383.816 1534.53 376.075Z"/>
		<path fill="#DB0010" transform="matrix(0.712996 0 0 0.71176 -896.435 -229.478)" d="M1535.64 427.391C1585.14 427.389 1634.7 427.896 1684.2 427.353C1691.99 432.865 1708 465.534 1709.87 475.105C1710.07 476.167 1710.03 477.025 1709.87 478.085C1705.47 478.152 1701.04 478.095 1696.64 478.31L1581.26 478.187C1571.27 478.184 1543.29 476.525 1534.88 478.928C1537.6 469.993 1535.72 438.734 1535.64 427.391Z"/>
		<path fill="#DB0010" transform="matrix(0.712996 0 0 0.71176 -896.435 -229.478)" d="M1359.06 735.509C1360.3 734.554 1361.09 734.406 1362.63 734.319C1392.5 732.626 1423.36 734.182 1453.36 734.194L1633.76 734.225L1633.79 736.259C1626.69 743.188 1616.78 748.709 1608.07 753.444C1572.6 772.739 1534.62 782.726 1494.17 782.196C1441.53 781.506 1401.94 764.464 1359.06 735.509Z"/>
		<path fill="#F4F5F7" transform="matrix(0.712996 0 0 0.71176 -896.435 -229.478)" d="M1534.88 478.928C1543.29 476.525 1571.27 478.184 1581.26 478.187L1696.64 478.31C1701.07 478.52 1705.46 478.723 1709.9 478.593C1715.81 484.127 1722.48 516.596 1722.69 525.531C1722.74 527.661 1722.26 528.137 1720.9 529.584L1588.4 529.627C1574.91 529.63 1546.53 531.51 1534.91 528.888C1537.05 521.022 1536.97 486.789 1534.88 478.928Z"/>
		<path fill="#DB0010" transform="matrix(0.712996 0 0 0.71176 -896.435 -229.478)" d="M1534.91 528.888C1546.53 531.51 1574.91 529.63 1588.4 529.627L1720.9 529.584C1726.85 536.137 1724.96 556.172 1724.53 564.912C1724.29 569.792 1724.58 576.159 1721.8 580.325L1602.43 580.343C1579.68 580.343 1556.81 580.816 1534.07 580.071C1534.15 579.926 1534.23 579.78 1534.31 579.636C1537.5 573.923 1536.54 535.917 1534.91 528.888Z"/>
		<path fill="#F4F5F7" transform="matrix(0.712996 0 0 0.71176 -896.435 -229.478)" d="M1310.59 684.421C1320.88 681.433 1394.05 683.506 1410.79 683.519L1683.48 683.538C1683.54 689.809 1664.66 709.112 1660.03 713.837C1654.47 719.518 1641.9 733.7 1633.76 734.225L1453.36 734.194C1423.36 734.182 1392.5 732.626 1362.63 734.319C1361.09 734.406 1360.3 734.554 1359.06 735.509L1358.16 735.899C1339.55 721.508 1325.93 701.933 1310.59 684.421Z"/>
		<path fill="#DB0010" transform="matrix(0.712996 0 0 0.71176 -896.435 -229.478)" d="M1283.4 631.939L1566.54 631.849L1661.5 631.853C1677.3 631.855 1693.51 631.116 1709.27 631.943C1710.5 634.509 1709.73 635.677 1708.81 638.256C1705.59 647.329 1692.04 677.974 1684.27 682.73L1408.57 682.667C1393.86 682.655 1319.23 680.699 1309.69 683.358C1307.8 677.478 1300.08 666.974 1296.9 660.903C1292.06 651.661 1288.91 640.59 1283.4 631.939Z"/>
		<path fill="#F4F5F7" transform="matrix(0.712996 0 0 0.71176 -896.435 -229.478)" d="M1271.86 582.258C1281.66 579.356 1373.77 581.328 1390.22 581.336L1721.64 581.094C1725.11 588.716 1715.89 618.863 1712.79 627.232C1712.16 628.911 1711.51 630.74 1709.88 631.689C1709.69 631.8 1709.47 631.858 1709.27 631.943C1693.51 631.116 1677.3 631.855 1661.5 631.853L1566.54 631.849L1283.4 631.939C1284.1 629.477 1273.7 587.042 1271.86 582.258Z"/>
		<path fill="#2A3660" transform="matrix(0.712996 0 0 0.71176 -896.435 -229.478)" d="M1296.74 447.136C1304.18 439.016 1311.11 424.544 1318.33 415.147C1344.22 381.454 1381.86 354.889 1421.82 340.813Q1427.37 338.89 1433.01 337.249Q1438.65 335.608 1444.36 334.254Q1450.08 332.899 1455.86 331.835Q1461.63 330.77 1467.45 329.997Q1473.28 329.225 1479.13 328.747Q1484.98 328.269 1490.86 328.087Q1496.73 327.905 1502.6 328.019Q1508.47 328.132 1514.33 328.542C1520.4 328.909 1529.07 329.142 1534.57 331.765C1536.78 337.614 1536.93 370.398 1534.53 376.075C1537.93 383.816 1536.02 416.953 1535.6 426.41L1535.64 427.391C1535.72 438.734 1537.6 469.993 1534.88 478.928C1536.97 486.789 1537.05 521.022 1534.91 528.888C1536.54 535.917 1537.5 573.923 1534.31 579.636C1534.23 579.78 1534.15 579.926 1534.07 580.071C1526.05 581.375 1516.5 580.475 1508.31 580.453L1455.99 580.328L1271.26 580.279C1272.84 573.612 1270.59 560.196 1270.53 552.816Q1270.52 543.139 1271.35 533.497Q1272.18 523.856 1273.83 514.321C1276.32 500.737 1280.5 486.969 1285.48 474.09C1288.38 466.592 1294.5 456.891 1295.53 449.186L1296.74 447.136Z"/>
		<path fill="#F4F5F7" transform="matrix(0.712996 0 0 0.71176 -896.435 -229.478)" d="M1396.74 435.462C1397.75 435.602 1399.15 435.511 1399.84 436.273C1402.22 438.89 1404.01 442.445 1403.86 446.028C1408.54 446.541 1413.12 447.069 1417.73 448.126C1416.43 452.5 1411.49 455.843 1407.75 458.136C1408.11 458.585 1408.2 458.66 1408.48 459.115C1410.82 462.987 1410.97 468.048 1409.8 472.298C1408.07 469.341 1402.08 467.372 1399.03 466.196C1395.7 466.249 1387.91 471.097 1384.38 472.398C1384.51 472.182 1384.65 471.969 1384.79 471.75C1387.28 467.582 1388.48 463.044 1387.3 458.271C1386.16 454.261 1380.72 450.45 1377.37 448.119C1382.1 447.608 1386.71 446.94 1391.37 446.019C1394.31 443.478 1396.36 439.321 1396.74 435.462Z"/>
		<path fill="#F4F5F7" transform="matrix(0.712996 0 0 0.71176 -896.435 -229.478)" d="M1481.78 434.53L1483.21 434.977C1485.6 437.72 1488.21 442.315 1488.13 445.997C1492.83 446.554 1497.43 447.214 1502.06 448.161C1502.01 448.4 1502 448.65 1501.92 448.878C1500.55 452.489 1495.03 456.278 1491.78 458.218C1491.89 458.375 1492.01 458.527 1492.11 458.69C1494.83 463.044 1495.14 467.472 1494.18 472.38C1492.46 469.475 1486.47 467.571 1483.49 466.392C1480.34 466.003 1472.09 471.044 1468.63 472.223C1469.12 471.576 1469.57 470.972 1469.94 470.244C1471.67 466.811 1472.62 461.832 1471.54 458.114C1470.24 454.021 1464.33 450.281 1460.77 448.189C1465.69 447.677 1470.47 447.024 1475.33 446.052C1478.77 443.261 1480.43 438.612 1481.78 434.53Z"/>
		<path fill="#F4F5F7" transform="matrix(0.712996 0 0 0.71176 -896.435 -229.478)" d="M1397.45 516.091L1399.25 516.589C1401.91 519.431 1403.68 523.715 1404.15 527.552C1408.71 527.716 1413.34 528.645 1417.85 529.318C1416.84 533.459 1411.37 537.347 1407.86 539.504C1410.72 543.538 1410.84 548.727 1410.11 553.421C1407.48 550.558 1402.46 548.942 1398.93 547.556C1395.18 547.777 1388.38 552.314 1384.48 553.694C1387.25 549.357 1388.35 544.628 1387.38 539.561C1386.11 535.424 1380.32 531.588 1376.76 529.424C1381.55 529.022 1386.31 528.243 1391.06 527.557C1394.45 524.902 1396.22 520.099 1397.45 516.091Z"/>
		<path fill="#F4F5F7" transform="matrix(0.712996 0 0 0.71176 -896.435 -229.478)" d="M1481.53 516.091L1483.46 516.62C1485.8 519.43 1488.3 523.811 1488.17 527.534C1492.84 527.74 1497.45 528.621 1502.06 529.368C1501.99 529.642 1501.96 529.928 1501.87 530.192C1500.49 533.902 1495.14 537.558 1491.86 539.573C1494.61 544.239 1495.03 548.357 1494.46 553.682C1492.06 550.758 1486.8 548.99 1483.35 547.625C1479.38 547.671 1473.26 552.127 1469.06 553.394C1471.13 549.034 1472.73 544.296 1471.58 539.462C1470.4 535.464 1464.23 531.399 1460.76 529.343C1465.61 529.059 1470.4 528.26 1475.21 527.526C1478.64 524.777 1480.35 520.197 1481.53 516.091Z"/>
		<path fill="#F4F5F7" transform="matrix(0.712996 0 0 0.71176 -896.435 -229.478)" d="M1438.58 475.776C1439.57 476 1440.87 476.032 1441.54 476.807C1443.78 479.405 1445.87 483.283 1445.63 486.777C1450.27 487.189 1454.72 487.892 1459.28 488.826C1458.01 493.187 1453.28 496.428 1449.58 498.706C1449.75 499.023 1449.92 499.335 1450.08 499.656C1452.13 503.921 1453.16 508.446 1451.56 513.013C1449.51 509.897 1443.73 507.96 1440.35 506.68C1435.97 507.86 1430.71 511.242 1426.38 513.038C1426.54 512.841 1426.71 512.65 1426.86 512.449C1429.55 508.935 1429.75 502.962 1429.01 498.777C1427.76 494.569 1421.83 490.922 1418.25 488.793C1423.27 488.278 1428.24 487.807 1433.18 486.737C1435.74 483.881 1438.65 479.749 1438.58 475.776Z"/>
		<path fill="#F4F5F7" transform="matrix(0.712996 0 0 0.71176 -896.435 -229.478)" d="M1355.82 475.776C1357.5 476.031 1358.05 475.837 1359.17 477.216C1361.18 479.683 1363.04 483.516 1362.71 486.738C1367.44 487.179 1372.02 487.906 1376.68 488.808C1375.73 492.874 1370.37 496.504 1367.08 498.802C1367.45 499.234 1367.53 499.277 1367.83 499.869C1369.78 503.695 1369.69 508.801 1368.58 512.816C1366.8 509.845 1360.58 507.881 1357.48 506.717C1353.1 507.598 1347.35 511.57 1342.88 513.175C1343.28 512.653 1343.67 512.129 1344.03 511.575C1346.57 507.645 1347.2 503.338 1346.31 498.806C1345.34 494.928 1339.31 491.048 1336.14 488.873C1340.88 488.302 1345.57 487.727 1350.25 486.747Q1350.83 486.215 1351.36 485.633Q1351.89 485.051 1352.36 484.424Q1352.83 483.798 1353.25 483.131Q1353.67 482.465 1354.02 481.764Q1354.38 481.063 1354.67 480.333Q1354.96 479.603 1355.19 478.85Q1355.42 478.097 1355.57 477.327Q1355.73 476.557 1355.82 475.776Z"/>
		<path fill="#F4F5F7" transform="matrix(0.712996 0 0 0.71176 -896.435 -229.478)" d="M1481.11 353.901L1483.56 354.461C1485.97 357.105 1488.2 361.131 1488.22 364.784C1492.89 365.256 1497.41 365.986 1502.01 366.921C1500.75 371.075 1495.39 374.703 1491.78 376.809C1492.19 377.352 1492.55 377.836 1492.85 378.453C1494.91 382.665 1495.24 386.649 1493.88 391.104C1491.87 387.887 1486.32 386.159 1482.96 384.842C1479.14 385.291 1472.57 389.548 1468.64 390.994C1471.09 386.911 1472.77 381.661 1471.65 376.916C1470.43 372.934 1464.19 368.954 1460.74 366.916C1465.68 366.364 1470.57 365.834 1475.43 364.748C1478.4 362.114 1480.62 357.833 1481.11 353.901Z"/>
		<path fill="#F4F5F7" transform="matrix(0.712996 0 0 0.71176 -896.435 -229.478)" d="M1313.3 433.1C1316.1 435.707 1319.45 440.624 1319.68 444.561C1319.73 445.355 1319.69 445.359 1319.57 446.023C1324.01 446.566 1329.29 446.67 1333.49 448.197C1332.26 452.428 1327.76 455.731 1324.06 457.822C1323.94 457.89 1323.81 457.95 1323.69 458.015C1325.55 461.331 1327.63 467.525 1326.58 471.327C1326.49 471.627 1326.36 471.911 1326.25 472.203C1322.42 469.439 1318.09 467.042 1313.59 465.568C1309.69 468.607 1304.93 471.047 1300.21 472.509C1302.51 468.742 1304.58 463.901 1303.44 459.378C1303.31 458.877 1303.24 458.752 1303.03 458.232C1301.91 454.78 1298.08 451.724 1295.53 449.186L1296.74 447.136C1300.42 447.046 1303.86 446.886 1307.46 446.105C1310.06 442.572 1313.65 437.717 1313.3 433.1Z"/>
		<path fill="#F4F5F7" transform="matrix(0.712996 0 0 0.71176 -896.435 -229.478)" d="M1439.51 396.092L1440.93 396.688C1443.24 399.491 1445.72 403.988 1445.8 407.638C1450.4 408.215 1454.91 408.818 1459.42 409.892C1458.15 414.198 1453.14 417.576 1449.45 419.781C1449.85 420.347 1449.88 420.353 1450.24 421.078C1452.21 424.957 1453.19 429.825 1451.64 433.972C1449.46 430.86 1443.64 428.952 1440.22 427.623C1435.65 429.956 1431.12 432.15 1426.36 434.069C1426.74 433.633 1426.85 433.538 1427.14 433.085C1429.53 429.372 1429.84 424.019 1428.84 419.84C1427.59 415.596 1422.11 412.075 1418.5 409.914C1423.44 409.343 1428.31 408.808 1433.15 407.613C1436.44 404.898 1438.05 399.949 1439.51 396.092Z"/>
		<path fill="#F4F5F7" transform="matrix(0.712996 0 0 0.71176 -896.435 -229.478)" d="M1312.94 516.088L1314.66 516.516C1317.68 518.774 1319.32 523.85 1321.19 527.173L1333.5 529.337L1333.38 529.708C1332.04 533.917 1327.47 537.036 1323.95 539.4C1324.38 539.883 1324.41 539.865 1324.78 540.542C1326.4 543.545 1327.24 550.214 1326.22 553.442C1322.89 550.617 1318.5 548.966 1314.47 547.437C1309.83 548.605 1305.03 552.074 1300.25 553.651C1300.71 553.063 1300.83 552.94 1301.19 552.37C1303.6 548.617 1304.13 543.817 1303.14 539.54C1301.77 535.475 1296.53 531.671 1292.98 529.362C1297.72 528.986 1302.45 528.193 1307.15 527.532C1307.37 527.336 1307.59 527.148 1307.8 526.945C1310.29 524.52 1312.94 519.572 1312.94 516.088Z"/>
		<path fill="#F4F5F7" transform="matrix(0.712996 0 0 0.71176 -896.435 -229.478)" d="M1397.01 353.901C1398.65 354.206 1399.25 354.059 1400.34 355.396C1402.34 357.832 1404.11 361.497 1403.78 364.685C1408.54 365.207 1413.12 365.879 1417.79 366.938C1416.56 371.137 1411.57 374.593 1408 376.833C1408.09 376.976 1408.19 377.113 1408.27 377.26C1410.67 381.494 1410.95 386.346 1409.83 390.977C1408.05 387.977 1401.81 386.008 1398.7 384.841C1394.59 385.413 1388.48 389.627 1384.19 391.075C1387.38 386.626 1388.17 382.233 1387.52 376.898C1386.3 372.961 1380.15 368.92 1376.69 366.897C1381.58 366.356 1386.39 365.807 1391.21 364.769C1394.46 362.149 1396.2 357.904 1397.01 353.901Z"/>
		<path fill="#F4F5F7" transform="matrix(0.712996 0 0 0.71176 -896.435 -229.478)" d="M1357.02 396.091C1357.63 396.365 1358.02 396.657 1358.45 397.167C1360.64 399.742 1363.03 404.222 1362.7 407.61C1367.42 408.197 1372.04 408.822 1376.68 409.913C1375.52 414.112 1370.5 417.513 1366.99 419.83C1367.4 420.306 1367.48 420.346 1367.81 420.996C1369.77 424.804 1369.78 429.894 1368.58 433.887C1366.45 430.633 1360.27 428.7 1356.72 427.49C1353.04 430.502 1347.52 432.534 1343.07 434.089C1343.28 433.802 1343.5 433.52 1343.71 433.23C1346.55 429.248 1347.13 424.611 1346.31 419.912C1344.68 415.69 1339.77 412.21 1335.99 409.895C1340.83 409.311 1345.57 408.667 1350.34 407.653C1353.62 404.839 1355.24 399.965 1357.02 396.091Z"/>
	</g>
</svg>
