<svg width="16" height="16" viewBox="0 0 16 16" fill="none" xmlns="http://www.w3.org/2000/svg">
<path d="M12.6667 2.00001C11.564 2.00001 10.6667 2.89734 10.6667 4.00001C10.6667 4.33468 10.7573 4.64534 10.9027 4.92334L10.1587 5.79134C9.71857 5.4924 9.19869 5.33282 8.66667 5.33334C8.174 5.33334 7.71667 5.47734 7.32 5.71068L6.37733 4.76801C6.56459 4.43096 6.66409 4.05224 6.66667 3.66668C6.66667 2.38001 5.62 1.33334 4.33333 1.33334C3.04667 1.33334 2 2.38001 2 3.66668C2 4.95334 3.04667 6.00001 4.33333 6.00001C4.734 6.00001 5.10533 5.88934 5.43467 5.71068L6.37733 6.65334C6.13315 7.06031 6.00282 7.52542 6 8.00001C6 8.66468 6.25333 9.26601 6.65667 9.73401L5.52867 10.862L5.54533 10.8787C5.27277 10.741 4.97201 10.6685 4.66667 10.6667C3.564 10.6667 2.66667 11.564 2.66667 12.6667C2.66667 13.7693 3.564 14.6667 4.66667 14.6667C5.76933 14.6667 6.66667 13.7693 6.66667 12.6667C6.66667 12.3493 6.586 12.054 6.45467 11.788L6.47133 11.8047L7.774 10.502C8.05467 10.602 8.352 10.6667 8.66667 10.6667C10.1373 10.6667 11.3333 9.47068 11.3333 8.00001C11.3305 7.58588 11.2302 7.17823 11.0407 6.81001L11.876 5.83534C12.1187 5.94068 12.3853 6.00001 12.6667 6.00001C13.7693 6.00001 14.6667 5.10268 14.6667 4.00001C14.6667 2.89734 13.7693 2.00001 12.6667 2.00001ZM4.66667 13.3333C4.48986 13.3333 4.32029 13.2631 4.19526 13.1381C4.07024 13.0131 4 12.8435 4 12.6667C4 12.4899 4.07024 12.3203 4.19526 12.1953C4.32029 12.0702 4.48986 12 4.66667 12C4.84348 12 5.01305 12.0702 5.13807 12.1953C5.2631 12.3203 5.33333 12.4899 5.33333 12.6667C5.33333 12.8435 5.2631 13.0131 5.13807 13.1381C5.01305 13.2631 4.84348 13.3333 4.66667 13.3333ZM3.33333 3.66668C3.33333 3.11534 3.782 2.66668 4.33333 2.66668C4.88467 2.66668 5.33333 3.11534 5.33333 3.66668C5.33333 4.21801 4.88467 4.66668 4.33333 4.66668C3.782 4.66668 3.33333 4.21801 3.33333 3.66668ZM8.66667 9.33334C7.93133 9.33334 7.33333 8.73534 7.33333 8.00001C7.33333 7.26468 7.93133 6.66668 8.66667 6.66668C9.402 6.66668 10 7.26468 10 8.00001C10 8.73534 9.402 9.33334 8.66667 9.33334ZM12.6667 4.66668C12.4899 4.66668 12.3203 4.59644 12.1953 4.47141C12.0702 4.34639 12 4.17682 12 4.00001C12 3.8232 12.0702 3.65363 12.1953 3.52861C12.3203 3.40358 12.4899 3.33334 12.6667 3.33334C12.8435 3.33334 13.013 3.40358 13.1381 3.52861C13.2631 3.65363 13.3333 3.8232 13.3333 4.00001C13.3333 4.17682 13.2631 4.34639 13.1381 4.47141C13.013 4.59644 12.8435 4.66668 12.6667 4.66668Z" fill="#333232"/>
</svg>
