<?xml version="1.0" encoding="utf-8" ?>
<svg xmlns="http://www.w3.org/2000/svg" xmlns:xlink="http://www.w3.org/1999/xlink" width="275" height="273">
	<path transform="scale(0.954861 0.954545)" d="M142.73 3.7911C147.246 3.40421 152.039 4.65364 156.526 5.23211C182.222 8.54456 204.44 16.2187 225.575 31.5286Q226.895 32.5041 228.191 33.5112Q229.487 34.5182 230.758 35.5562Q232.03 36.5941 233.276 37.6624Q234.522 38.7307 235.742 39.8286Q236.962 40.9266 238.155 42.0537Q239.348 43.1807 240.514 44.3361Q241.68 45.4916 242.817 46.6748Q243.955 47.8579 245.063 49.0682Q246.172 50.2784 247.251 51.515Q248.331 52.7516 249.38 54.0138Q250.429 55.276 251.447 56.5631Q252.466 57.8502 253.453 59.1615Q254.44 60.4728 255.395 61.8074Q256.351 63.1421 257.274 64.4994Q258.196 65.8566 259.086 67.2357Q259.976 68.6149 260.833 70.015Q261.689 71.4151 262.512 72.8355Q263.334 74.2559 264.122 75.6956Q264.91 77.1354 265.663 78.5937Q266.416 80.052 267.134 81.528Q267.852 83.0041 268.534 84.4969Q269.216 85.9898 269.862 87.4987Q270.508 89.0076 271.117 90.5316Q271.726 92.0556 272.299 93.5938Q272.871 95.1321 273.407 96.6836Q273.942 98.2352 274.44 99.7992Q274.937 101.363 275.397 102.939Q275.857 104.514 276.279 106.1Q276.701 107.687 277.085 109.283Q277.468 110.878 277.813 112.483Q278.158 114.088 278.464 115.7Q278.771 117.313 279.038 118.932C284.823 155.544 276.766 192.425 254.856 222.46C235.589 248.871 210.318 266.061 178.513 273.74C168.04 276.269 157.525 277.56 146.912 279.22C140.659 279.41 134.309 278.707 128.129 277.778C108.801 274.872 90.4011 268.659 73.5988 258.619Q72.1791 257.754 70.781 256.854Q69.3828 255.955 68.0069 255.021Q66.631 254.088 65.2782 253.122Q63.9255 252.155 62.5966 251.156Q61.2677 250.157 59.9636 249.126Q58.6594 248.095 57.3807 247.032Q56.102 245.97 54.8495 244.877Q53.5971 243.783 52.3716 242.66Q51.1461 241.536 49.9483 240.383Q48.7505 239.23 47.5811 238.049Q46.4117 236.867 45.2714 235.657Q44.1311 234.447 43.0206 233.21Q41.91 231.973 40.8299 230.709Q39.7498 229.445 38.7008 228.155Q37.6518 226.865 36.6344 225.55Q35.6171 224.235 34.632 222.896Q33.647 221.557 32.6948 220.194Q31.7426 218.831 30.8239 217.446Q29.9051 216.06 29.0204 214.652Q28.1356 213.245 27.2854 211.816Q26.4351 210.387 25.6199 208.939Q24.8046 207.49 24.0249 206.021Q23.2451 204.553 22.5013 203.066Q21.7575 201.579 21.0501 200.075Q20.3427 198.57 19.6721 197.049Q19.0015 195.528 18.3681 193.99Q17.7347 192.453 17.1389 190.901Q16.5431 189.349 15.9853 187.783Q15.4274 186.217 14.9078 184.637Q14.3882 183.058 13.9072 181.467Q13.4262 179.875 12.984 178.273Q12.5418 176.67 12.1388 175.057Q11.7276 173.396 11.3576 171.726Q10.9877 170.055 10.6592 168.376Q10.3308 166.697 10.044 165.011Q9.75731 163.324 9.51247 161.631Q9.26762 159.937 9.06481 158.238Q8.86199 156.54 8.70134 154.836Q8.54069 153.133 8.4223 151.426Q8.3039 149.719 8.22784 148.01Q8.15178 146.301 8.1181 144.59Q8.08442 142.88 8.09313 141.169Q8.10185 139.458 8.15296 137.748Q8.20407 136.038 8.29754 134.329Q8.39101 132.621 8.52679 130.915Q8.66257 129.21 8.84057 127.508Q9.01857 125.807 9.23868 124.11Q9.45879 122.413 9.72088 120.723Q9.98297 119.032 10.2869 117.348Q10.5908 115.664 10.9363 113.989Q11.2818 112.313 11.6688 110.647Q12.0557 108.98 12.4839 107.324Q12.912 105.667 13.3811 104.022Q13.8501 102.376 14.3598 100.743Q14.8695 99.1099 15.4194 97.4898Q15.9694 95.8697 16.5594 94.2637Q17.1494 92.6578 17.779 91.0669Q18.4085 89.476 19.0774 87.9013Q19.7462 86.3265 20.4538 84.7688Q21.1614 83.2111 21.9075 81.6714Q22.6535 80.1317 23.4374 78.611Q24.2213 77.0902 25.0427 75.5894Q25.8641 74.0885 26.7224 72.6085Q27.5808 71.1285 28.4755 69.6702C46.5675 39.5419 77.6511 17.3172 111.652 8.90402C121.844 6.38226 132.493 6.34064 142.73 3.7911ZM107.071 109.106C104.918 109.26 102.774 109.426 100.631 109.684C101.509 119.721 99.457 129.612 99.4599 139.617C99.4631 150.581 101.643 163.788 100.574 174.317C106.652 174.025 112.861 174.431 118.951 174.477Q140.955 174.801 162.961 174.683C169.264 174.615 175.723 174.745 181.996 174.084C183.467 173.958 184.906 173.824 186.355 173.531C187.929 170.38 188.704 166.997 189.199 163.522C190.744 152.671 190.517 120.89 187.219 111.024Q186.942 110.199 186.646 109.38C169.015 108.855 151.277 109.308 133.633 109.288C124.895 109.278 115.768 108.309 107.071 109.106ZM213.654 108.614C209.169 108.816 204.753 109.276 200.285 109.589C202.684 123.799 206.163 162.236 199.181 174.27C208.986 174.118 218.792 174.511 228.594 174.695C236.244 174.838 243.927 174.78 251.579 174.731C255.145 174.551 259.129 174.688 262.61 173.881C263.654 170.273 265.603 167.137 266.384 163.401C268.933 151.209 268.712 127.694 265.39 115.481C264.79 113.276 263.939 111.321 262.887 109.297C255.429 108.981 247.964 108.968 240.502 108.8C231.565 108.598 222.591 108.272 213.654 108.614ZM35.3277 108.857C31.7938 109.071 27.9426 109.719 24.4356 109.571C24.5936 119.925 20.5747 129.494 20.5711 139.762C20.5691 145.76 21.49 151.936 22.5004 157.844C23.4248 163.249 24.7464 168.66 24.2724 174.183C31.9107 174.444 39.5982 174.238 47.2424 174.232C56.6754 174.225 66.1336 174.368 75.5626 174.209C79.8762 174.271 83.8672 174.961 87.6965 172.631C87.8797 168.887 87.8649 165.208 87.5008 161.473C86.9633 155.959 85.9491 150.516 85.8949 144.959C85.7743 132.597 89.0817 122.305 86.8764 109.455C79.9757 109.026 72.9867 109.13 66.0718 108.971C55.8555 108.736 45.5348 108.308 35.3277 108.857ZM104.683 187.482C104.791 191.253 105.082 194.918 105.952 198.597C109.937 215.448 122.492 235.11 132.785 248.968C135.921 253.19 141.248 258.262 143.529 262.661C149.466 258.085 155.469 252.818 159.426 246.366C160.571 244.499 161.269 242.416 162.365 240.56C164.926 237.223 167.485 233.981 169.606 230.335C175.299 220.551 184.68 198.72 184.266 187.546C157.747 187.244 131.205 187.531 104.683 187.482ZM143.485 21.3991C132.691 32.516 118.807 51.824 113.604 66.224C109.909 76.4488 107.893 86.8214 102.154 96.2495C106.929 95.7581 111.994 96.0561 116.804 96.0564L143.125 96.0712C156.796 96.0662 170.541 95.7548 184.204 96.1079C184.764 77.9401 164.18 40.9858 151.546 27.5675C149.319 25.2029 146.659 22.4033 143.485 21.3991ZM30.9847 187.442C31.0816 189.32 31.3054 190.976 31.9222 192.769C34.9034 201.437 45.3073 216.06 51.5698 223.262Q56.6683 229.035 62.4115 234.166Q65.217 236.675 68.1697 239.008Q71.1225 241.342 74.2115 243.492Q77.3006 245.642 80.5146 247.6Q83.7286 249.558 87.0557 251.318Q90.3828 253.077 93.8106 254.631Q97.2384 256.185 100.754 257.528Q104.27 258.87 107.861 259.997Q111.452 261.124 115.105 262.03C118.029 262.73 121.758 263.936 124.742 263.765C125.091 263.745 125.428 263.671 125.762 263.573C125.794 263.114 125.792 262.656 125.61 262.225C124.729 260.139 123.034 258.024 121.752 256.142Q117.764 250.309 113.713 244.519C109.45 238.368 105.491 231.871 102.603 224.952C100.021 218.765 98.173 212.246 96.1462 205.863C94.1971 199.725 92.4744 193.381 89.5699 187.608L49.8938 187.513C43.6446 187.507 37.2049 187.841 30.9847 187.442ZM199.464 187.449C195.484 193.358 194.431 202.358 192.455 209.232C188.209 224.004 177.321 246.218 167.241 257.619C164.853 260.321 162.112 262.546 159.278 264.755C171.998 262.403 194.633 258.58 204.216 249.996C204.277 249.943 204.337 249.889 204.398 249.837C206.311 248.22 209.048 247.191 211.263 246.01Q215.466 243.762 219.288 240.914C232.637 230.812 255.747 203.999 258.528 187.459C238.868 187.546 219.113 187.858 199.464 187.449ZM161.322 19.7372C165.078 23.7349 168.355 26.8422 171.651 31.3479C183.001 46.8637 197.278 77.0473 197.622 96.2022C203.471 95.9455 209.453 96.3584 215.308 96.4557C229.186 96.6864 243.214 96.933 257.047 95.6511C257.238 95.5427 257.607 95.4125 257.666 95.2027C258.566 91.9715 253.64 82.9822 251.939 80.1508C235.357 52.539 207.899 29.6305 176.311 21.7452C171.646 20.5807 166.167 19.2948 161.322 19.7372ZM122.49 19.8003C87.2687 27.8674 58.6024 46.339 39.2724 77.1617C37.2513 80.3844 29.9332 91.424 30.9317 95.066C31.0223 95.3966 31.0756 95.5491 31.38 95.7162C32.2275 96.1817 33.9319 96.0491 34.8981 96.0551L72.055 96.0713C77.9115 96.0797 83.7491 96.2366 89.6078 96.1328C93.5009 87.4611 94.6484 80.2174 97.4443 71.4378C100.831 60.8032 108.723 44.0192 115.142 34.8942C117.412 31.6674 120.27 28.8837 122.696 25.7788C123.643 24.567 126.045 21.6219 125.677 20.1047C124.819 19.5898 123.455 19.6943 122.49 19.8003ZM279.75 133.648C279.292 135.008 279.491 148.977 279.515 151.545C280.178 149.132 280.614 135.48 279.75 133.648Z"/>
	<path transform="scale(0.954861 0.954545)" d="M279.75 133.648C280.614 135.48 280.178 149.132 279.515 151.545C279.491 148.977 279.292 135.008 279.75 133.648Z"/>
</svg>
