<svg width="24" height="24" viewBox="0 0 24 24" fill="none" xmlns="http://www.w3.org/2000/svg">
<path d="M4.22202 19.778C4.6859 20.2425 5.23699 20.6108 5.84364 20.8617C6.45029 21.1126 7.10054 21.2412 7.75702 21.24C8.41365 21.2411 9.06404 21.1126 9.67085 20.8617C10.2777 20.6108 10.8289 20.2425 11.293 19.778L14.121 16.949L12.707 15.535L9.87902 18.364C9.31549 18.925 8.55269 19.24 7.75752 19.24C6.96235 19.24 6.19955 18.925 5.63602 18.364C5.07453 17.8007 4.75923 17.0378 4.75923 16.2425C4.75923 15.4472 5.07453 14.6843 5.63602 14.121L8.46502 11.293L7.05102 9.87899L4.22202 12.707C3.28583 13.6454 2.76007 14.9169 2.76007 16.2425C2.76007 17.5681 3.28583 18.8395 4.22202 19.778ZM19.778 11.293C20.7137 10.3543 21.2392 9.08291 21.2392 7.75749C21.2392 6.43207 20.7137 5.16071 19.778 4.22199C18.8396 3.2858 17.5681 2.76004 16.2425 2.76004C14.9169 2.76004 13.6455 3.2858 12.707 4.22199L9.87902 7.05099L11.293 8.46499L14.121 5.63599C14.6846 5.07498 15.4474 4.76002 16.2425 4.76002C17.0377 4.76002 17.8005 5.07498 18.364 5.63599C18.9255 6.19926 19.2408 6.96216 19.2408 7.75749C19.2408 8.55282 18.9255 9.31572 18.364 9.87899L15.535 12.707L16.949 14.121L19.778 11.293Z" fill="#434242"/>
<path d="M8.46401 16.95L7.04901 15.536L15.536 7.05L16.95 8.465L8.46401 16.95Z" fill="#434242"/>
</svg>
