<?xml version="1.0" encoding="utf-8" ?>
<svg xmlns="http://www.w3.org/2000/svg" xmlns:xlink="http://www.w3.org/1999/xlink" width="227" height="225">
	<path fill="#DCDBDB" d="M1.973 0L226.562 0C227.264 1.12746 227.198 3.6964 226.913 4.98782C226.855 5.24958 226.728 5.48645 226.58 5.70676L54.1807 5.66188L16.8405 5.64697C13.849 5.64454 4.11933 5.15521 1.94541 5.81916L1.973 0Z"/>
	<path fill="#FEFEFE" d="M1.94541 5.81916C4.11933 5.15521 13.849 5.64454 16.8405 5.64697L54.1807 5.66188L226.58 5.70676C226.797 6.08245 226.927 6.43104 226.957 6.86894C227.374 12.9087 227.001 19.2531 227.002 25.3207L227.006 62.3975L227.007 172.028L227.005 197.145C227.005 199.484 227.441 204.295 226.899 206.351C226.845 206.553 226.767 206.749 226.683 206.94C225.628 206.516 184.638 206.895 180.645 206.896L1.88417 206.9C2.15385 199.13 1.93855 191.279 1.93906 183.498L1.93995 139.429L1.94541 5.81916ZM17.0806 72.6674C17.4102 86.2864 17.1801 99.9519 17.1766 113.578C17.1732 126.578 17.4072 139.624 17.1087 152.618C22.5707 152.79 28.0459 152.706 33.5102 152.693C33.5384 151.167 34.0374 146.714 33.146 145.711C33.036 145.587 32.2665 145.606 32.0625 145.596L24.609 145.54L24.607 79.7002Q29.0687 79.5833 33.5318 79.5492L33.5285 72.6932C28.0659 72.6971 22.5352 72.8814 17.0806 72.6674ZM135.09 72.8464C128.609 88.0723 121.72 103.148 115.007 118.275C110.431 128.588 106.107 139.117 101.212 149.278C103.693 149.402 106.445 149.708 108.908 149.397C114.863 137.192 120.055 124.478 125.572 112.065C131.369 99.0198 137.585 86.0232 142.933 72.7967C140.323 72.9625 137.703 72.882 135.09 72.8464ZM194.61 72.6327Q194.661 76.1637 194.553 79.6934L203.745 79.743C203.744 101.71 203.536 123.699 203.771 145.663Q199.254 145.715 194.736 145.683C194.686 148.029 194.581 150.389 194.661 152.734L201.875 152.768L211.013 152.754L211.025 72.6968C205.811 72.6912 199.715 73.0955 194.61 72.6327ZM99.7072 76.055C96.8476 76.6359 94.4007 77.8926 92.7455 80.3925C91.2914 82.5888 90.8232 85.3931 91.3801 87.9584Q91.4812 88.43 91.6281 88.8893Q91.7751 89.3486 91.9666 89.7912Q92.1581 90.2339 92.3922 90.6555Q92.6264 91.0771 92.9008 91.4736Q93.1754 91.8702 93.4876 92.2377Q93.7998 92.6053 94.1466 92.9404Q94.4935 93.2754 94.8716 93.5747Q95.2498 93.874 95.6556 94.1346C98.3029 95.8488 100.915 95.9251 103.944 95.7117C106.856 95.0485 109.444 93.5939 111.048 90.9804Q111.3 90.569 111.511 90.1347Q111.721 89.7003 111.888 89.2472Q112.054 88.794 112.174 88.3266Q112.295 87.8593 112.369 87.3822Q112.442 86.9052 112.468 86.4232Q112.494 85.9412 112.472 85.4591Q112.45 84.9769 112.38 84.4993Q112.31 84.0217 112.193 83.5534Q112.077 83.0784 111.915 82.6171Q111.753 82.1559 111.546 81.713Q111.339 81.2701 111.089 80.85Q110.839 80.4298 110.549 80.0366Q110.258 79.6433 109.93 79.2808Q109.602 78.9184 109.24 78.5902Q108.877 78.2621 108.484 77.9715Q108.091 77.681 107.671 77.4309C105.144 75.9463 102.542 75.9082 99.7072 76.055ZM50.2525 106.073C46.0199 106.862 43.1192 108.771 40.6821 112.347C39.6941 113.797 38.896 115.398 38.13 116.973C40.1797 117.775 42.1392 118.84 44.1045 119.828C44.8378 117.475 46.2032 115.127 48.4685 113.959C50.3988 112.964 52.533 113.022 54.5554 113.693C61.2684 115.923 65.2929 121.141 72.9624 121.54C76.4053 121.258 79.0423 120.188 81.3179 117.485C82.9884 115.501 83.9993 113.108 85.2886 110.886Q81.9794 109.555 78.6552 108.261C78.0327 110.375 77.1389 112.712 75.0818 113.824C73.6058 114.621 71.989 114.479 70.4396 113.987C63.2766 111.714 58.4513 105.472 50.2525 106.073ZM154.988 106.077C150.768 106.856 147.82 108.761 145.366 112.309C144.402 113.701 143.629 115.26 142.828 116.752C144.81 117.834 146.79 118.85 148.847 119.785C149.513 117.478 150.813 115.198 152.995 114.019C154.902 112.988 157.027 112.998 159.058 113.639C165.936 115.808 169.782 121.163 177.736 121.54C181.223 121.21 183.81 120.142 186.064 117.397C187.703 115.401 188.565 113.029 189.943 110.896Q186.684 109.551 183.41 108.241C182.709 110.394 181.776 112.749 179.652 113.87C178.201 114.636 176.588 114.492 175.075 113.993C167.979 111.653 163.113 105.52 154.988 106.077Z"/>
	<path fill="#232122" d="M17.1087 152.618C17.4072 139.624 17.1732 126.578 17.1766 113.578C17.1801 99.9519 17.4102 86.2864 17.0806 72.6674C22.5352 72.8814 28.0659 72.6971 33.5285 72.6932L33.5318 79.5492Q29.0687 79.5833 24.607 79.7002L24.609 145.54L32.0625 145.596C32.2665 145.606 33.036 145.587 33.146 145.711C34.0374 146.714 33.5384 151.167 33.5102 152.693C28.0459 152.706 22.5707 152.79 17.1087 152.618Z"/>
	<path fill="#232122" d="M101.212 149.278C106.107 139.117 110.431 128.588 115.007 118.275C121.72 103.148 128.609 88.0723 135.09 72.8464C137.703 72.882 140.323 72.9625 142.933 72.7967C137.585 86.0232 131.369 99.0198 125.572 112.065C120.055 124.478 114.863 137.192 108.908 149.397C106.445 149.708 103.693 149.402 101.212 149.278Z"/>
	<path fill="#232122" d="M194.553 79.6934Q194.661 76.1637 194.61 72.6327C199.715 73.0955 205.811 72.6912 211.025 72.6968L211.013 152.754L201.875 152.768L194.661 152.734C194.581 150.389 194.686 148.029 194.736 145.683Q199.254 145.715 203.771 145.663C203.536 123.699 203.744 101.71 203.745 79.743L194.553 79.6934Z"/>
	<path fill="#232122" d="M103.944 95.7117C100.915 95.9251 98.3029 95.8488 95.6556 94.1346Q95.2498 93.874 94.8717 93.5747Q94.4935 93.2754 94.1466 92.9404Q93.7998 92.6053 93.4876 92.2377Q93.1754 91.8702 92.9009 91.4736Q92.6264 91.0771 92.3922 90.6555Q92.1581 90.2339 91.9666 89.7912Q91.7751 89.3486 91.6281 88.8893Q91.4812 88.43 91.3801 87.9584C90.8232 85.3931 91.2914 82.5888 92.7455 80.3925C94.4007 77.8926 96.8476 76.6359 99.7072 76.055C102.542 75.9082 105.144 75.9463 107.671 77.4309Q108.091 77.681 108.484 77.9715Q108.877 78.2621 109.24 78.5902Q109.602 78.9184 109.93 79.2808Q110.258 79.6433 110.549 80.0366Q110.839 80.4298 111.089 80.85Q111.339 81.2701 111.546 81.713Q111.753 82.1559 111.915 82.6171Q112.077 83.0784 112.193 83.5534Q112.31 84.0217 112.38 84.4993Q112.45 84.9769 112.472 85.4591Q112.494 85.9412 112.468 86.4232Q112.442 86.9052 112.369 87.3822Q112.295 87.8593 112.174 88.3266Q112.054 88.794 111.888 89.2471Q111.721 89.7003 111.511 90.1347Q111.3 90.569 111.048 90.9804C109.444 93.5939 106.856 95.0485 103.944 95.7117ZM101.154 82.0218C99.8622 82.3893 98.8415 83.0169 98.1897 84.2332Q98.0307 84.528 97.9327 84.8483Q97.8348 85.1685 97.8017 85.5018Q97.7686 85.8351 97.8016 86.1684Q97.8347 86.5017 97.9326 86.822C98.253 87.8767 99.034 88.7426 100.007 89.2428C100.795 89.6481 101.767 89.561 102.63 89.5428C103.581 89.3146 104.166 89.1393 104.689 88.2775C105.156 87.5096 105.444 86.5887 105.748 85.7448C105.317 84.697 104.916 83.6297 104.313 82.6664C103.26 82.391 102.241 82.1266 101.154 82.0218Z"/>
	<path fill="#FEFEFE" d="M102.63 89.5428C101.767 89.561 100.795 89.6481 100.007 89.2428C99.034 88.7426 98.253 87.8767 97.9326 86.822Q97.8347 86.5017 97.8016 86.1684Q97.7686 85.8351 97.8017 85.5018Q97.8348 85.1685 97.9327 84.8483Q98.0307 84.528 98.1897 84.2332C98.8415 83.0169 99.8622 82.3893 101.154 82.0218C102.241 82.1266 103.26 82.391 104.313 82.6664C104.916 83.6297 105.317 84.697 105.748 85.7448C105.444 86.5887 105.156 87.5096 104.689 88.2775C104.166 89.1393 103.581 89.3146 102.63 89.5428Z"/>
	<path fill="#232122" d="M38.13 116.973C38.896 115.398 39.6941 113.797 40.6821 112.347C43.1192 108.771 46.0199 106.862 50.2525 106.073C58.4513 105.472 63.2766 111.714 70.4396 113.987C71.989 114.479 73.6058 114.621 75.0818 113.824C77.1389 112.712 78.0327 110.375 78.6552 108.261Q81.9793 109.555 85.2886 110.886C83.9993 113.108 82.9884 115.501 81.3179 117.485C79.0423 120.188 76.4053 121.258 72.9624 121.54C65.2929 121.141 61.2684 115.923 54.5554 113.693C52.533 113.022 50.3988 112.964 48.4685 113.959C46.2032 115.127 44.8378 117.475 44.1045 119.828C42.1392 118.84 40.1797 117.775 38.13 116.973Z"/>
	<path fill="#232122" d="M142.828 116.752C143.629 115.26 144.402 113.701 145.366 112.309C147.82 108.761 150.768 106.856 154.988 106.077C163.113 105.52 167.979 111.653 175.075 113.993C176.588 114.492 178.201 114.636 179.652 113.87C181.776 112.749 182.709 110.394 183.41 108.241Q186.684 109.551 189.943 110.896C188.565 113.029 187.703 115.401 186.064 117.397C183.81 120.142 181.223 121.21 177.736 121.54C169.782 121.163 165.936 115.808 159.058 113.639C157.027 112.998 154.902 112.988 152.995 114.019C150.813 115.198 149.513 117.478 148.847 119.785C146.79 118.85 144.81 117.834 142.828 116.752Z"/>
	<path fill="#29D3C5" d="M2.00711 225L1.88417 206.9L180.645 206.896C184.638 206.895 225.628 206.516 226.683 206.94C227.176 208.205 227.323 223.28 226.795 224.562C226.731 224.716 226.651 224.859 226.562 225L2.00711 225Z"/>
</svg>
