<svg width="16" height="16" viewBox="0 0 16 16" fill="none" xmlns="http://www.w3.org/2000/svg">
<path d="M14 1.33334H3.99998C3.64636 1.33334 3.30722 1.47382 3.05717 1.72387C2.80712 1.97392 2.66665 2.31305 2.66665 2.66668V4.66668H1.33331V6.00001H2.66665V7.33334H1.33331V8.66668H2.66665V10H1.33331V11.3333H2.66665V13.3333C2.66665 13.687 2.80712 14.0261 3.05717 14.2762C3.30722 14.5262 3.64636 14.6667 3.99998 14.6667H14C14.1768 14.6667 14.3464 14.5964 14.4714 14.4714C14.5964 14.3464 14.6666 14.1768 14.6666 14V2.00001C14.6666 1.8232 14.5964 1.65363 14.4714 1.52861C14.3464 1.40358 14.1768 1.33334 14 1.33334ZM8.66665 3.33268C9.76531 3.33268 10.6666 4.23334 10.6666 5.33268C10.6647 5.86258 10.4534 6.37023 10.0788 6.74499C9.70413 7.11975 9.19655 7.33124 8.66665 7.33334C7.56865 7.33334 6.66665 6.43134 6.66665 5.33268C6.66665 4.23334 7.56865 3.33268 8.66665 3.33268ZM12.6666 12H4.66665V11.5C4.66665 10.0207 6.46998 8.50001 8.66665 8.50001C10.8633 8.50001 12.6666 10.0207 12.6666 11.5V12Z" fill="#ACA9A9"/>
</svg>
