<svg width="24" height="24" viewBox="0 0 24 24" fill="none" xmlns="http://www.w3.org/2000/svg">
<path d="M8.00635 24C10.2143 24 12.0063 22.208 12.0063 20V16H8.00635C5.79835 16 4.00635 17.792 4.00635 20C4.00635 22.208 5.79835 24 8.00635 24Z" fill="#0ACF83"/>
<path d="M4.00635 12C4.00635 9.792 5.79835 8 8.00635 8H12.0063V16H8.00635C5.79835 16 4.00635 14.208 4.00635 12Z" fill="#A259FF"/>
<path d="M4.00635 4C4.00635 1.792 5.79835 0 8.00635 0H12.0063V8H8.00635C5.79835 8 4.00635 6.208 4.00635 4Z" fill="#F24E1E"/>
<path d="M12.0063 0H16.0063C18.2143 0 20.0063 1.792 20.0063 4C20.0063 6.208 18.2143 8 16.0063 8H12.0063V0Z" fill="#FF7262"/>
<path d="M20.0063 12C20.0063 14.208 18.2143 16 16.0063 16C13.7983 16 12.0063 14.208 12.0063 12C12.0063 9.792 13.7983 8 16.0063 8C18.2143 8 20.0063 9.792 20.0063 12Z" fill="#1ABCFE"/>
</svg>
