<svg width="33" height="33" viewBox="0 0 33 33" fill="none" xmlns="http://www.w3.org/2000/svg">
<path d="M33 0H0V33H33V0Z" fill="#F0DB4F"/>
<path d="M18 26.0966C18 29.4633 16.1729 31 13.5106 31C11.1055 31 9.7138 29.6564 9 28.0272L11.448 26.4287C11.9191 27.3321 12.3473 28.0965 13.3822 28.0965C14.3671 28.0965 14.9953 27.6796 14.9953 26.0503V15H18V26.0966Z" fill="#323330"/>
<path d="M25.7631 31C22.8252 31 20.9242 29.5801 20 27.7176L22.5773 26.206C23.2535 27.3282 24.1401 28.1602 25.6955 28.1602C27.0029 28.1602 27.8443 27.4962 27.8443 26.5726C27.8443 25.4732 26.9878 25.0841 25.5377 24.4352L24.7488 24.0917C22.4646 23.1069 20.9542 21.8626 20.9542 19.2444C20.9542 16.8321 22.765 15 25.5826 15C27.5963 15 29.039 15.7099 30.0759 17.5726L27.6113 19.1756C27.0704 18.1908 26.4843 17.8016 25.5752 17.8016C24.6509 17.8016 24.0648 18.3971 24.0648 19.1756C24.0648 20.1375 24.6509 20.5269 26.0109 21.1298L26.7998 21.4733C29.4898 22.6413 31 23.8399 31 26.5269C31.0001 29.4122 28.761 31 25.7631 31Z" fill="#323330"/>
</svg>
