<svg width="16" height="16" viewBox="0 0 16 16" fill="none" xmlns="http://www.w3.org/2000/svg">
<g clip-path="url(#clip0_325_4535)">
<path d="M13.6326 13.6329H11.2619V9.92021C11.2619 9.03488 11.2461 7.89519 10.0289 7.89519C8.79419 7.89519 8.60527 8.85979 8.60527 9.85576V13.6327H6.23457V5.99785H8.51044V7.04123H8.5423C9.00636 6.24776 9.86923 5.77385 10.7878 5.80795C13.1906 5.80795 13.6336 7.38845 13.6336 9.44458L13.6326 13.6329ZM3.55963 4.95423C2.79983 4.95436 2.18377 4.33852 2.18364 3.5787C2.1835 2.81888 2.79933 2.20281 3.55914 2.20267C4.31894 2.20254 4.93499 2.81838 4.93513 3.5782C4.9352 3.94308 4.79032 4.29304 4.53236 4.5511C4.2744 4.80915 3.9245 4.95416 3.55963 4.95423ZM4.74498 13.6329H2.37181V5.99785H4.74498V13.6329ZM14.8145 0.00108624H1.18054C0.536165 -0.00618564 0.00774212 0.50998 -0.00012207 1.15436V14.8452C0.00747287 15.4899 0.535853 16.0066 1.18054 15.9998H14.8145C15.4605 16.0078 15.9909 15.4912 15.9999 14.8452V1.15337C15.9907 0.50772 15.4602 -0.00841692 14.8145 -5.44416e-06" fill="#0A66C2"/>
</g>
<defs>
<clipPath id="clip0_325_4535">
<rect width="16" height="16" fill="white"/>
</clipPath>
</defs>
</svg>
