<svg width="24" height="24" viewBox="0 0 24 24" fill="none" xmlns="http://www.w3.org/2000/svg">
<path d="M4.22196 19.778C4.68584 20.2425 5.23693 20.6108 5.84358 20.8617C6.45023 21.1126 7.10048 21.2412 7.75696 21.24C8.41359 21.2411 9.06398 21.1126 9.67079 20.8617C10.2776 20.6108 10.8289 20.2425 11.293 19.778L14.121 16.949L12.707 15.535L9.87896 18.364C9.31543 18.925 8.55263 19.24 7.75746 19.24C6.96229 19.24 6.19949 18.925 5.63596 18.364C5.07447 17.8007 4.75917 17.0378 4.75917 16.2425C4.75917 15.4472 5.07447 14.6843 5.63596 14.121L8.46496 11.293L7.05096 9.87899L4.22196 12.707C3.28577 13.6454 2.76001 14.9169 2.76001 16.2425C2.76001 17.5681 3.28577 18.8395 4.22196 19.778ZM19.778 11.293C20.7137 10.3543 21.2391 9.08291 21.2391 7.75749C21.2391 6.43207 20.7137 5.16071 19.778 4.22199C18.8395 3.2858 17.568 2.76004 16.2425 2.76004C14.9169 2.76004 13.6454 3.2858 12.707 4.22199L9.87896 7.05099L11.293 8.46499L14.121 5.63599C14.6845 5.07498 15.4473 4.76002 16.2425 4.76002C17.0376 4.76002 17.8004 5.07498 18.364 5.63599C18.9255 6.19926 19.2408 6.96216 19.2408 7.75749C19.2408 8.55282 18.9255 9.31572 18.364 9.87899L15.535 12.707L16.949 14.121L19.778 11.293Z" fill="#434242"/>
<path d="M8.46395 16.95L7.04895 15.536L15.536 7.04999L16.95 8.46499L8.46395 16.95Z" fill="#434242"/>
</svg>
