<svg width="30" height="30" viewBox="0 0 30 30" fill="none" xmlns="http://www.w3.org/2000/svg">
<g clip-path="url(#clip0_195_601)">
<path d="M0.689165 16.5076C-0.143459 15.675 -0.143459 14.325 0.689165 13.4924L13.4924 0.689135C14.3251 -0.143489 15.675 -0.143489 16.5077 0.689135L29.3109 13.4924C30.1435 14.325 30.1435 15.675 29.3109 16.5076L16.5077 29.3108C15.675 30.1435 14.3251 30.1435 13.4924 29.3108L0.689165 16.5076Z" fill="#EE513B"/>
<path d="M10.8916 3.33072L9.59509 4.62726L12.9437 7.97588C12.8082 8.2665 12.7326 8.59062 12.7326 8.93241C12.7326 9.90278 13.3423 10.7307 14.1994 11.0541V19.2457C13.3423 19.569 12.7326 20.397 12.7326 21.3674C12.7326 22.6194 13.7475 23.6343 14.9996 23.6343C16.2516 23.6343 17.2665 22.6194 17.2665 21.3674C17.2665 20.4877 16.7654 19.7249 16.0331 19.3492V11.0653L19.234 14.2663C19.1052 14.551 19.0335 14.8671 19.0335 15.1999C19.0335 16.4519 20.0484 17.4669 21.3005 17.4669C22.5525 17.4669 23.5674 16.4519 23.5674 15.1999C23.5674 13.9479 22.5525 12.933 21.3005 12.933C21.0571 12.933 20.8228 12.9712 20.6031 13.0422L17.1653 9.6044C17.2311 9.3921 17.2665 9.16636 17.2665 8.93241C17.2665 7.68038 16.2516 6.66542 14.9996 6.66542C14.7656 6.66542 14.54 6.70087 14.3276 6.76668L10.8916 3.33072Z" fill="#FEFEFE"/>
</g>
<defs>
<clipPath id="clip0_195_601">
<rect width="30" height="30" fill="white"/>
</clipPath>
</defs>
</svg>
