<svg width="33" height="33" viewBox="0 0 33 33" fill="none" xmlns="http://www.w3.org/2000/svg">
<path d="M16.5 33C25.6127 33 33 25.6127 33 16.5C33 7.3873 25.6127 0 16.5 0C7.3873 0 0 7.3873 0 16.5C0 25.6127 7.3873 33 16.5 33Z" fill="#0769AD"/>
<path d="M7.524 11.847C5.808 14.322 6.006 17.556 7.326 20.196C7.359 20.262 7.392 20.328 7.425 20.394C7.458 20.427 7.458 20.46 7.491 20.526C7.491 20.559 7.524 20.559 7.524 20.592C7.557 20.625 7.557 20.658 7.59 20.724C7.623 20.79 7.689 20.856 7.722 20.955C7.755 20.988 7.755 21.021 7.788 21.087C7.821 21.153 7.887 21.252 7.92 21.318C7.953 21.351 7.953 21.384 7.986 21.417C8.052 21.516 8.118 21.615 8.184 21.714L8.217 21.747C8.283 21.846 8.349 21.912 8.415 22.011C8.448 22.044 8.448 22.077 8.481 22.11C8.547 22.176 8.613 22.242 8.646 22.341C8.679 22.374 8.679 22.407 8.712 22.407C8.778 22.506 8.877 22.605 8.976 22.704C9.075 22.803 9.141 22.869 9.24 22.968C9.273 23.001 9.306 23.034 9.306 23.034C9.372 23.1 9.438 23.166 9.504 23.232C9.537 23.265 9.57 23.298 9.603 23.298C9.702 23.397 9.801 23.463 9.867 23.562L9.9 23.595C9.999 23.661 10.065 23.727 10.164 23.793C10.197 23.826 10.23 23.859 10.263 23.892C10.329 23.958 10.395 23.991 10.461 24.057C10.494 24.09 10.527 24.123 10.56 24.156C10.626 24.222 10.725 24.255 10.791 24.321C10.824 24.354 10.857 24.354 10.89 24.387C10.89 24.387 10.89 24.387 10.923 24.42C10.989 24.486 11.088 24.519 11.154 24.585C11.187 24.618 11.22 24.618 11.253 24.651C11.385 24.717 11.484 24.783 11.616 24.882C11.649 24.915 11.682 24.915 11.715 24.948C11.814 25.014 11.88 25.047 11.979 25.113C12.012 25.146 12.078 25.179 12.111 25.179C12.177 25.212 12.243 25.245 12.309 25.278C12.309 25.278 12.342 25.278 12.342 25.311C12.375 25.311 12.408 25.344 12.408 25.344C12.507 25.377 12.606 25.443 12.705 25.476C12.738 25.476 12.738 25.509 12.771 25.509C12.903 25.575 13.002 25.608 13.134 25.641C13.167 25.641 13.2 25.674 13.233 25.674C13.332 25.707 13.464 25.773 13.563 25.806H13.596C13.728 25.839 13.86 25.905 13.959 25.938C13.992 25.938 14.025 25.971 14.058 25.971C14.19 26.004 14.322 26.07 14.454 26.07C22.803 27.588 25.245 21.054 25.245 21.054C23.199 23.727 19.569 24.42 16.17 23.628C16.038 23.595 15.906 23.562 15.774 23.529C15.741 23.529 15.708 23.496 15.675 23.496C15.543 23.463 15.444 23.43 15.312 23.364C15.279 23.364 15.279 23.364 15.246 23.331C15.147 23.298 15.015 23.265 14.916 23.199C14.883 23.199 14.85 23.166 14.817 23.166C14.685 23.133 14.586 23.067 14.454 23.034C14.421 23.034 14.421 23.001 14.388 23.001C14.289 22.968 14.19 22.902 14.091 22.869C14.058 22.869 14.025 22.836 13.992 22.836C13.926 22.803 13.827 22.77 13.761 22.704C13.695 22.671 13.662 22.638 13.596 22.638C13.497 22.572 13.398 22.539 13.332 22.473C13.299 22.44 13.266 22.44 13.233 22.407C13.101 22.341 13.002 22.275 12.87 22.176C12.837 22.143 12.804 22.143 12.771 22.11C12.672 22.044 12.606 22.011 12.507 21.945C12.474 21.912 12.441 21.912 12.441 21.879C12.375 21.813 12.276 21.78 12.21 21.714C12.177 21.681 12.144 21.648 12.111 21.648C12.045 21.582 11.979 21.549 11.88 21.483C11.847 21.45 11.814 21.417 11.781 21.417C11.682 21.351 11.616 21.252 11.517 21.186C11.517 21.186 11.484 21.186 11.484 21.153C11.385 21.054 11.286 20.988 11.187 20.889C11.154 20.856 11.121 20.823 11.121 20.823C11.055 20.757 10.989 20.691 10.923 20.625C10.89 20.592 10.857 20.559 10.857 20.559C10.758 20.46 10.692 20.394 10.593 20.295C10.494 20.196 10.428 20.097 10.329 19.998C10.296 19.965 10.296 19.932 10.263 19.932C10.197 19.866 10.131 19.767 10.065 19.701C10.032 19.668 10.032 19.635 9.999 19.602C9.933 19.503 9.867 19.404 9.801 19.305C7.887 16.698 7.227 13.134 8.745 10.197" fill="#78CFF5"/>
<path d="M12.87 9.73501C11.616 11.55 11.682 13.926 12.672 15.84C12.837 16.17 13.035 16.467 13.233 16.764C13.431 17.028 13.629 17.358 13.86 17.556C13.959 17.655 14.058 17.754 14.157 17.853C14.19 17.886 14.19 17.886 14.223 17.919C14.322 18.018 14.421 18.084 14.52 18.183C14.619 18.282 14.751 18.381 14.85 18.447C14.883 18.48 14.916 18.48 14.916 18.513C15.015 18.612 15.147 18.678 15.279 18.777C15.345 18.81 15.378 18.843 15.444 18.876C15.477 18.909 15.51 18.909 15.51 18.942C15.609 19.008 15.675 19.041 15.774 19.107C15.774 19.107 15.807 19.107 15.807 19.14C15.873 19.173 15.972 19.239 16.038 19.272C16.071 19.272 16.104 19.305 16.104 19.305C16.17 19.338 16.203 19.371 16.269 19.404C16.269 19.404 16.269 19.404 16.302 19.404C16.401 19.47 16.533 19.503 16.632 19.569C16.665 19.569 16.665 19.602 16.698 19.602C16.797 19.635 16.896 19.668 16.962 19.701C16.995 19.701 17.028 19.734 17.094 19.734C17.193 19.767 17.259 19.8 17.358 19.833C17.391 19.833 17.424 19.866 17.457 19.866C17.589 19.899 17.688 19.965 17.82 19.965C24.288 21.021 25.773 16.071 25.773 16.071C24.42 18.018 21.813 18.942 19.041 18.216C18.909 18.183 18.81 18.15 18.678 18.117C18.645 18.117 18.612 18.084 18.579 18.084C18.48 18.051 18.414 18.018 18.315 17.985C18.282 17.985 18.249 17.952 18.216 17.952C18.117 17.919 18.018 17.886 17.952 17.853C17.919 17.853 17.886 17.82 17.886 17.82C17.787 17.754 17.655 17.721 17.556 17.655C17.49 17.622 17.457 17.589 17.391 17.556C17.358 17.523 17.325 17.523 17.292 17.49C17.226 17.457 17.16 17.424 17.094 17.358C17.061 17.358 17.061 17.325 17.028 17.325C16.929 17.259 16.863 17.226 16.764 17.16C16.731 17.127 16.698 17.127 16.698 17.094C16.632 17.061 16.599 17.028 16.533 16.995C16.401 16.929 16.302 16.83 16.17 16.731C16.137 16.698 16.104 16.698 16.104 16.665C14.883 15.708 13.926 14.388 13.464 12.903C12.969 11.352 13.101 9.63601 13.926 8.21701" fill="#78CFF5"/>
<path d="M17.391 8.18401C16.665 9.27301 16.566 10.626 17.094 11.814C17.622 13.101 18.744 14.091 20.031 14.553C20.097 14.586 20.13 14.586 20.196 14.619C20.229 14.619 20.229 14.619 20.262 14.652C20.328 14.685 20.427 14.718 20.493 14.718C24.057 15.411 25.014 12.903 25.278 12.507C24.42 13.728 23.001 14.025 21.252 13.596C21.12 13.563 20.955 13.497 20.823 13.464C20.658 13.398 20.493 13.332 20.328 13.266C20.031 13.101 19.734 12.936 19.437 12.738C17.886 11.55 16.896 9.30601 17.919 7.45801" fill="#78CFF5"/>
</svg>
