<svg width="16" height="16" viewBox="0 0 16 16" fill="none" xmlns="http://www.w3.org/2000/svg">
<g clip-path="url(#clip0_355_289)">
<path d="M14.4239 10.048C14.297 9.98489 14.1623 9.93653 14.0228 9.904V6.096C14.1666 6.06843 14.3048 6.01983 14.4324 5.952C14.7821 5.76317 15.0374 5.45185 15.1422 5.08652C15.2471 4.7212 15.1928 4.33181 14.9914 4.004C14.7899 3.67619 14.4579 3.43683 14.0682 3.33856C13.6785 3.24029 13.2632 3.29117 12.9135 3.48C12.7829 3.54711 12.6648 3.63356 12.5636 3.736L9.05644 1.832C9.09833 1.69963 9.11847 1.56205 9.11617 1.424C9.11617 1.04633 8.95614 0.684132 8.67129 0.41708C8.38643 0.150028 8.00009 0 7.59724 0C7.19439 0 6.80805 0.150028 6.52319 0.41708C6.23834 0.684132 6.07831 1.04633 6.07831 1.424C6.07601 1.56205 6.09615 1.69963 6.13804 1.832L2.63084 3.728C2.52944 3.62798 2.41125 3.54421 2.28097 3.48C1.93131 3.29117 1.51596 3.24029 1.12628 3.33856C0.736605 3.43683 0.404529 3.67619 0.203106 4.004C0.00168269 4.33181 -0.0525882 4.7212 0.0522321 5.08652C0.157052 5.45185 0.412378 5.76317 0.762039 5.952C0.889677 6.01983 1.0279 6.06843 1.17164 6.096V9.904C1.0322 9.93653 0.897516 9.98489 0.770572 10.048C0.420911 10.2368 0.165586 10.5482 0.0607655 10.9135C-0.0440549 11.2788 0.010216 11.6682 0.211639 11.996C0.413062 12.3238 0.745138 12.5632 1.13481 12.6614C1.52449 12.7597 1.93984 12.7088 2.28951 12.52C2.4157 12.4536 2.53073 12.37 2.63084 12.272L6.13804 14.168C6.09615 14.3004 6.07601 14.4379 6.07831 14.576C6.07831 14.9537 6.23834 15.3159 6.52319 15.5829C6.80805 15.85 7.19439 16 7.59724 16C8.00009 16 8.38643 15.85 8.67129 15.5829C8.95614 15.3159 9.11617 14.9537 9.11617 14.576C9.11768 14.4237 9.09171 14.2722 9.03937 14.128L12.5295 12.24C12.6372 12.3522 12.7641 12.4469 12.905 12.52C13.0781 12.6135 13.2692 12.6741 13.4673 12.6984C13.6654 12.7227 13.8667 12.7101 14.0597 12.6614C14.2526 12.6128 14.4334 12.529 14.5918 12.4148C14.7502 12.3006 14.8831 12.1583 14.9828 11.996C15.0826 11.8337 15.1472 11.6545 15.1731 11.4688C15.199 11.2831 15.1856 11.0944 15.1337 10.9135C15.0818 10.7326 14.9924 10.5631 14.8706 10.4146C14.7488 10.2661 14.597 10.1415 14.4239 10.048ZM3.00631 10.952C2.97237 10.8198 2.91773 10.6931 2.84417 10.576C2.77555 10.4563 2.68615 10.3482 2.57964 10.256L7.17057 2.792C7.44944 2.8667 7.74504 2.8667 8.02391 2.792L12.6319 10.256C12.5254 10.3482 12.436 10.4563 12.3674 10.576C12.2938 10.6931 12.2392 10.8198 12.2052 10.952H3.00631ZM12.2052 4.32C12.1506 4.5039 12.1353 4.69611 12.1602 4.88558C12.1851 5.07505 12.2497 5.25803 12.3503 5.424C12.4517 5.59165 12.5889 5.73787 12.7534 5.8535C12.9178 5.96914 13.106 6.05169 13.306 6.096V9.904H13.2463L8.64684 2.456L8.68951 2.4L12.2052 4.32ZM6.50497 2.4C6.50198 2.41319 6.50198 2.42681 6.50497 2.44L1.94817 9.92H1.88844V6.096C2.0885 6.05169 2.27665 5.96914 2.44111 5.8535C2.60556 5.73787 2.74278 5.59165 2.84417 5.424C2.94478 5.25803 3.0094 5.07505 3.03429 4.88558C3.05919 4.69611 3.04388 4.5039 2.98924 4.32L6.50497 2.4ZM8.72364 13.6C8.58079 13.4533 8.40678 13.3362 8.21279 13.2563C8.0188 13.1764 7.80913 13.1354 7.59724 13.136C7.39336 13.1343 7.19127 13.1717 7.00342 13.246C6.81557 13.3203 6.64594 13.4299 6.50497 13.568L2.98924 11.68V11.632H12.1882V11.72L8.72364 13.6Z" fill="#333232"/>
</g>
<defs>
<clipPath id="clip0_355_289">
<rect width="16" height="16" fill="white"/>
</clipPath>
</defs>
</svg>
