<svg width="33" height="33" viewBox="0 0 33 33" fill="none" xmlns="http://www.w3.org/2000/svg">
<path d="M16.5769 0C18.7975 0 20.9081 0.44 22.8867 1.32C24.8654 2.2 26.6023 3.41 28.0973 4.906C29.5923 6.402 30.7795 8.162 31.6809 10.164C32.5603 12.166 33 14.3 33 16.566C33 18.832 32.5603 20.966 31.7029 22.946C30.8454 24.926 29.6582 26.664 28.1852 28.16C26.7122 29.656 24.9754 30.844 22.9747 31.702C20.974 32.56 18.8195 33 16.489 33C14.2245 33 12.07 32.582 10.0913 31.768C8.09061 30.954 6.33178 29.81 4.83678 28.314C3.34177 26.84 2.15456 25.102 1.29714 23.1C0.439707 21.098 0 18.92 0 16.544C0 14.278 0.417722 12.144 1.25316 10.164C2.08861 8.184 3.25383 6.468 4.77082 4.972C6.26582 3.498 8.02465 2.31 10.0473 1.43C12.0919 0.594 14.2685 0.088 16.5769 0ZM16.511 6.754C15.1919 6.754 13.9387 6.996 12.7295 7.502C11.5203 8.008 10.487 8.69 9.58561 9.592C8.7062 10.472 8.00267 11.506 7.47502 12.694C6.94737 13.882 6.68355 15.18 6.68355 16.588C6.68355 17.908 6.94737 19.162 7.47502 20.372C8.00267 21.582 8.7062 22.638 9.58561 23.54C10.465 24.442 11.5203 25.168 12.7295 25.696C13.9387 26.224 15.1919 26.488 16.511 26.488C17.8301 26.488 19.0833 26.224 20.2925 25.696C21.5017 25.168 22.535 24.464 23.4364 23.54C24.3158 22.638 25.0193 21.582 25.547 20.372C26.0746 19.162 26.3384 17.908 26.3384 16.588C26.2065 13.904 25.2392 11.638 23.4803 9.79C21.6995 7.942 19.4131 6.93 16.5989 6.754H16.511Z" fill="#A24689"/>
</svg>
