<svg width="32" height="32" viewBox="0 0 32 32" fill="none" xmlns="http://www.w3.org/2000/svg">
<g clip-path="url(#clip0_417_816)">
<path d="M0 0H31.9377C31.9786 0.0649185 31.9923 0.11882 31.9957 0.194604C32.0566 1.52569 32.0007 2.88137 32.001 4.21563L32.0014 12.2505L32.0011 15.6567C32.0011 16.0486 32.0618 16.6762 31.9883 17.0366C31.9803 17.0754 31.9677 17.1126 31.9549 17.15C31.9873 17.2243 31.9958 17.2864 31.998 17.3676C32.0241 18.3693 32.0012 19.3779 32.0014 20.3802V26.2394C32.0012 26.824 32.0594 31.7065 31.9735 31.9293C31.964 31.9542 31.9515 31.9773 31.9377 32H17.024H6.09771H0V31.9565V0ZM6.89923 6.79092L13.734 23.7906L15.8363 29.065C16.2226 30.0359 16.5812 31.0557 17.024 32H31.9377C31.9515 31.9773 31.964 31.9542 31.9735 31.9293C32.0594 31.7065 32.0012 26.824 32.0014 26.2394V20.3802C32.0012 19.3779 32.0241 18.3693 31.998 17.3676C31.9958 17.2864 31.9873 17.2243 31.9549 17.15C31.2324 16.8222 30.4827 16.539 29.7487 16.2373L25.6927 14.5673L13.5598 9.56409L9.17587 7.76005C8.42555 7.45035 7.61384 7.17102 6.89923 6.79092Z" fill="#396067"/>
<path d="M9.37695 9.2961C9.89734 9.43395 10.8065 9.89138 11.352 10.1248L15.6111 11.935L31.0164 18.4936C29.1504 19.1434 27.3132 19.9354 25.4731 20.6592L23.4073 21.4722C22.9669 21.6459 22.5021 21.8023 22.0882 22.0337C21.7472 22.554 21.2834 23.8657 21.0201 24.5023L19.455 28.2776C19.0777 29.1922 18.7168 30.1179 18.293 31.0119C18.0613 30.2179 17.6671 29.4316 17.3518 28.664L15.4641 24.0745L9.37695 9.2961Z" fill="#AC6F4C"/>
</g>
<defs>
<clipPath id="clip0_417_816">
<rect width="32" height="32" fill="white"/>
</clipPath>
</defs>
</svg>
