<svg width="16" height="16" viewBox="0 0 16 16" fill="none" xmlns="http://www.w3.org/2000/svg">
<g clip-path="url(#clip0_325_4534)">
<path d="M13.6685 2.32513C12.1644 0.826621 10.1644 0.000914274 8.03356 0C3.6426 0 0.0692478 3.5565 0.0674899 7.92794C0.0669782 9.32529 0.4337 10.6893 1.13074 11.8917L0.000610352 16L4.22352 14.8976C5.38701 15.5293 6.69702 15.8622 8.03014 15.8627H8.03352H8.03356C12.4238 15.8627 15.9977 12.3056 15.9996 7.93437C16.0003 5.81576 15.1724 3.82374 13.6685 2.32513ZM8.03356 14.5237H8.03098C6.84271 14.523 5.67744 14.2054 4.66105 13.605L4.41917 13.4622L1.91321 14.1163L2.58227 11.6847L2.42467 11.4354C1.76184 10.3861 1.41193 9.17355 1.41243 7.92845C1.41388 4.29505 4.38392 1.33911 8.03607 1.33911C9.80464 1.33984 11.4669 2.02617 12.717 3.27169C13.9671 4.51719 14.655 6.17292 14.6545 7.93381C14.653 11.5673 11.6828 14.5237 8.03356 14.5237Z" fill="#E0E0E0"/>
<path d="M0.366211 15.5442L1.44472 11.6235C0.779347 10.476 0.429443 9.17424 0.429863 7.84098C0.431608 3.6693 3.84177 0.27536 8.03179 0.27536C10.0654 0.276274 11.9741 1.06422 13.4091 2.49432C14.8445 3.9244 15.6345 5.82529 15.6337 7.84689C15.632 12.0187 12.2216 15.4129 8.03209 15.4129C8.0323 15.4129 8.03179 15.4129 8.03209 15.4129H8.0287C6.75649 15.4125 5.50641 15.0945 4.39614 14.4921L0.366211 15.5442Z" fill="url(#paint0_linear_325_4534)"/>
<path fill-rule="evenodd" clip-rule="evenodd" d="M6.065 4.56215C5.91762 4.23592 5.76245 4.22939 5.62224 4.22369C5.50756 4.21879 5.37626 4.21909 5.24518 4.21909C5.11399 4.21909 4.90081 4.26817 4.72054 4.46419C4.54015 4.66021 4.0318 5.13408 4.0318 6.09784C4.0318 7.06171 4.73693 7.99303 4.83522 8.12384C4.93361 8.25445 6.1964 10.2954 8.19629 11.0806C9.85837 11.7332 10.1966 11.6034 10.5574 11.5707C10.9181 11.5381 11.7215 11.097 11.8854 10.6395C12.0494 10.1822 12.0494 9.79014 12.0002 9.70819C11.951 9.62656 11.8198 9.57758 11.6231 9.47962C11.4263 9.38167 10.459 8.90769 10.2786 8.84239C10.0982 8.77708 9.96702 8.74443 9.83584 8.94056C9.70465 9.13647 9.32779 9.57758 9.213 9.70819C9.09821 9.8391 8.98342 9.85543 8.78664 9.75747C8.58985 9.65921 7.95615 9.45258 7.20439 8.78523C6.61948 8.26606 6.22458 7.62484 6.10979 7.42873C5.995 7.23281 6.09748 7.12669 6.19619 7.02903C6.28453 6.94127 6.39297 6.80036 6.49136 6.68597C6.58954 6.57158 6.62234 6.48995 6.68793 6.35934C6.75353 6.22852 6.72073 6.11414 6.67153 6.01619C6.62234 5.91823 6.23995 4.94949 6.065 4.56215Z" fill="#FEFEFE"/>
<path d="M13.6033 2.29994C12.1165 0.818634 10.1395 0.0024227 8.0331 0.00149536C3.69253 0.00149536 0.160197 3.51717 0.158452 7.83843C0.15794 9.21975 0.520451 10.5681 1.20949 11.7567L0.0923462 15.8178L4.26678 14.728C5.41693 15.3525 6.7119 15.6816 8.02972 15.6821H8.03306H8.0331C12.373 15.6821 15.9058 12.1658 15.9076 7.84475C15.9084 5.7505 15.09 3.78135 13.6033 2.29994ZM8.0331 14.3585H8.03054C6.8559 14.3578 5.70401 14.0439 4.69929 13.4503L4.46018 13.3092L1.98299 13.9558L2.64436 11.5521L2.48857 11.3056C1.83335 10.2684 1.48745 9.06975 1.48796 7.83895C1.48939 4.24726 4.42533 1.32526 8.03557 1.32526C9.78386 1.32598 11.427 2.00443 12.6628 3.23565C13.8985 4.46686 14.5786 6.10357 14.578 7.84427C14.5765 11.436 11.6405 14.3585 8.0331 14.3585Z" fill="#FEFEFE"/>
</g>
<defs>
<linearGradient id="paint0_linear_325_4534" x1="7.99996" y1="15.5442" x2="7.99996" y2="0.275386" gradientUnits="userSpaceOnUse">
<stop stop-color="#20B038"/>
<stop offset="1" stop-color="#60D66A"/>
</linearGradient>
<clipPath id="clip0_325_4534">
<rect width="16" height="16" fill="white"/>
</clipPath>
</defs>
</svg>
