<svg width="33" height="33" viewBox="0 0 33 33" fill="none" xmlns="http://www.w3.org/2000/svg">
<path d="M12.1838 15.4097H19.4973C21.5312 15.4097 23.1541 13.741 23.1541 11.7116V4.77181C23.1541 2.79689 21.4832 1.319 19.4973 0.98529C17.0458 0.583451 14.3819 0.603875 12.1838 0.992005C9.08854 1.53688 8.52709 2.67427 8.52709 4.77866V6.26396H15.8474V8.47663H5.78101C3.65138 8.47663 1.78859 9.75014 1.2066 12.1679C0.535503 14.9397 0.508213 16.6695 1.2066 19.564C1.72712 21.7161 2.9665 23.2551 5.0962 23.2551H7.60941V19.9318C7.60941 17.5278 9.69803 15.4097 12.1838 15.4097Z" fill="#347AB4"/>
<path d="M7.6094 23.9475H5.09619C2.80986 23.9475 1.18815 22.4482 0.529718 19.7258C-0.176607 16.7988 -0.176538 14.923 0.529718 12.0058C0.844453 10.6983 1.52126 9.61311 2.48677 8.86849C3.4064 8.15918 4.54553 7.78427 5.78093 7.78427H15.1512V6.9563H8.52708C8.14259 6.9563 7.83092 6.64633 7.83092 6.26395V4.77865C7.83092 3.81255 7.92998 2.7093 8.66485 1.85155C9.32286 1.08346 10.3707 0.608089 12.0625 0.31031C13.212 0.107314 14.5079 0 15.8099 0C17.1086 0 18.3873 0.101706 19.6105 0.30221C20.7484 0.493436 21.7953 1.01526 22.5612 1.772C23.3925 2.59347 23.8504 3.65885 23.8504 4.77187V11.7116C23.8504 14.1326 21.8976 16.1021 19.4974 16.1021H12.1838C10.1178 16.1021 8.30556 17.8917 8.30556 19.9319V23.2552C8.30556 23.6375 7.99389 23.9475 7.6094 23.9475ZM5.781 9.16897C3.81692 9.16897 2.35993 10.3503 1.88361 12.3291C1.22045 15.0682 1.22052 16.6545 1.88354 19.4024C2.23218 20.844 3.07266 22.5628 5.09619 22.5628H6.91324V19.9318C6.91324 18.5981 7.48124 17.2672 8.47167 16.2801C9.48298 15.2723 10.8013 14.7173 12.1838 14.7173H19.4973C21.1298 14.7173 22.458 13.3689 22.458 11.7115V4.7718C22.458 3.07354 20.9102 1.92487 19.3813 1.66794C18.2354 1.4801 17.0329 1.38463 15.8098 1.38463C14.5881 1.38463 13.3763 1.4846 12.3056 1.67368C9.52733 2.16276 9.22331 3.03685 9.22331 4.77865V5.5716H15.8474C16.2319 5.5716 16.5436 5.88156 16.5436 6.26395V8.47662C16.5436 8.85901 16.2319 9.16897 15.8474 9.16897H5.781Z" fill="#275C87"/>
<path d="M31.7438 13.2717C31.2165 11.1673 30.2168 9.58044 28.0871 9.58044H25.3412V12.8086C25.3412 15.3148 23.2046 17.4259 20.7668 17.4259H13.4532C11.4536 17.4259 9.79645 19.1287 9.79645 21.124V28.0571C9.79645 30.0319 11.5221 31.1897 13.4532 31.7551C15.7678 32.4292 17.9933 32.5519 20.7667 31.7551C22.6089 31.2237 24.4236 30.1547 24.4236 28.0571V26.6033H17.1169V24.359H28.087C30.2168 24.359 31.0042 22.8811 31.7438 20.6678C32.5108 18.3862 32.4766 16.1933 31.7438 13.2717Z" fill="#FFCA1D"/>
<path d="M17.0866 33C15.8511 33 14.5986 32.8101 13.2576 32.4195C10.5764 31.6344 9.10028 30.0852 9.10028 28.057V21.124C9.10028 18.7441 11.0937 16.7336 13.4532 16.7336H20.7667C22.8328 16.7336 24.645 14.8995 24.645 12.8086V9.58044C24.645 9.19806 24.9568 8.88809 25.3412 8.88809H28.087C29.2897 8.88809 30.2832 9.32282 31.0396 10.1803C31.6476 10.8695 32.099 11.826 32.4193 13.1042C33.1983 16.2103 33.1938 18.538 32.404 20.8872C31.7002 22.9936 30.7868 25.0513 28.087 25.0513H17.813V25.911H24.4235C24.8079 25.911 25.1197 26.221 25.1197 26.6033V28.0571C25.1197 29.5002 24.3981 31.4285 20.9605 32.4201C19.6019 32.8104 18.335 33 17.0866 33ZM13.4532 18.1183C11.8484 18.1183 10.4926 19.4947 10.4926 21.124V28.0571C10.4926 29.8925 12.4707 30.7457 13.6499 31.0909C14.8779 31.4486 15.9702 31.6153 17.0866 31.6153C18.2024 31.6153 19.343 31.4435 20.5735 31.0899C22.6661 30.4863 23.7275 29.4658 23.7275 28.057V27.2956H17.117C16.7326 27.2956 16.4208 26.9856 16.4208 26.6033V24.3589C16.4208 23.9766 16.7326 23.6665 17.117 23.6665H28.0871C29.5594 23.6665 30.2594 22.9149 31.0832 20.4493C31.7925 18.3393 31.7881 16.3087 31.0684 13.4392C30.5196 11.2492 29.6001 10.2727 28.0871 10.2727H26.0374V12.8085C26.0374 15.6867 23.6237 18.1182 20.7668 18.1182H13.4532V18.1183Z" fill="#BF9816"/>
<path d="M11.725 4.97887C10.9955 4.97887 10.404 4.38408 10.404 3.65206C10.4105 2.91346 10.9955 2.31866 11.725 2.31866C12.448 2.31866 13.046 2.91997 13.046 3.65206C13.046 4.38408 12.4545 4.97887 11.725 4.97887Z" fill="#FEFEFE"/>
<path d="M20.6006 30.6291C19.8711 30.6291 19.2796 30.0343 19.2796 29.3023C19.2862 28.5637 19.8711 27.9689 20.6006 27.9689C21.3236 27.9689 21.9217 28.5702 21.9217 29.3023C21.9217 30.0343 21.3302 30.6291 20.6006 30.6291Z" fill="#FEFEFE"/>
</svg>
