<svg width="33" height="33" viewBox="0 0 33 33" fill="none" xmlns="http://www.w3.org/2000/svg">
<g clip-path="url(#clip0_190_481)">
<path d="M23.3439 21.3865C24.7269 22.4926 26.0183 23.8261 26.9153 25.36C27.3219 26.0555 27.6528 26.7727 28.0164 27.4889C27.6976 27.0785 27.3883 26.6569 27.0376 26.2729C26.1815 25.3355 25.1803 24.5764 24.1138 23.8952C23.7554 23.6662 23.3731 23.4778 23.0155 23.2495C23.0719 23.254 23.1229 23.2561 23.1761 23.2771L23.217 23.295C23.3468 23.345 23.4346 23.4204 23.5556 23.4793L23.8266 23.6325C23.9001 23.6916 23.8535 23.6695 23.9204 23.6993L23.9612 23.7166C24.041 23.7573 24.1427 23.7977 24.2061 23.8608C24.2638 23.9182 24.3127 23.951 24.3931 23.9708L24.4362 23.9791C24.4992 24.046 24.5585 24.1179 24.6406 24.1616C24.7153 24.2012 24.6607 24.1623 24.7256 24.2098L24.9024 24.3376L24.9562 24.3711L25.0369 24.4338L25.1174 24.4784C25.2254 24.5599 25.361 24.6303 25.4582 24.7208C25.5059 24.7652 25.5269 24.7957 25.5863 24.8261C25.7192 24.8942 25.8036 25.0274 25.9333 25.0881C26.0001 25.1193 25.9854 25.0993 26.0232 25.1448C26.1245 25.2667 26.2449 25.4276 26.3765 25.5176C26.506 25.6064 26.5928 25.6949 26.6952 25.8143L26.7313 25.8148L26.6274 25.6708L26.6505 25.6111L26.7605 25.6831L26.8327 25.6578C26.9246 25.6448 26.9187 25.6662 26.9804 25.72L27.0269 25.689L26.7671 25.2494L26.5625 24.9217L26.273 24.5063L26.1936 24.3977L26.0803 24.2374C26.0036 24.1413 25.9378 24.0213 25.8494 23.9373C25.779 23.8704 25.7631 23.8034 25.6977 23.7431L24.7592 22.775L24.0136 22.0739C23.8481 21.9498 23.7219 21.7961 23.5591 21.6658C23.4595 21.5859 23.4144 21.5383 23.3589 21.4197L23.3439 21.3865Z" fill="#0D62AC"/>
<path d="M23.0155 23.2495C22.7289 23.1709 22.4153 22.9611 22.1442 22.8309C21.7281 22.6311 21.2995 22.4511 20.8684 22.2869C19.9912 21.9528 19.0914 21.6748 18.198 21.388C16.7642 20.9276 15.2744 20.5684 14.3699 19.252C13.9254 18.6051 13.7777 17.808 13.9284 17.0397C14.0612 16.3625 14.5876 15.6508 15.1576 15.2731C15.8257 14.8302 16.5835 14.7508 17.3601 14.8967C17.7412 14.9683 18.0593 15.1229 18.376 15.3425C18.7814 15.6236 19.1063 16.0023 19.3175 16.4497C19.5397 16.9205 19.6268 17.445 19.8151 17.9294C19.9435 18.2595 20.168 18.6244 20.3989 18.8916C20.7217 19.2651 21.1008 19.5556 21.4844 19.8601C22.1126 20.3587 22.7511 20.8456 23.3439 21.3865L23.3588 21.4197C23.4144 21.5383 23.4595 21.5859 23.5591 21.6658C23.7219 21.7962 23.8481 21.9498 24.0135 22.0739L24.7592 22.775L25.6977 23.7431C25.7631 23.8035 25.7789 23.8704 25.8493 23.9374C25.9378 24.0213 26.0035 24.1413 26.0803 24.2374L26.1936 24.3978L26.2729 24.5063L26.5624 24.9218L26.7671 25.2495L27.0268 25.689L26.9804 25.72C26.9187 25.6662 26.9246 25.6448 26.8327 25.6578L26.7604 25.6831L26.6505 25.6111L26.6273 25.6708L26.7313 25.8148L26.6952 25.8143C26.5928 25.6949 26.506 25.6064 26.3764 25.5176C26.2449 25.4276 26.1244 25.2667 26.0232 25.1448C25.9854 25.0993 26 25.1194 25.9333 25.0881C25.8036 25.0274 25.7192 24.8942 25.5863 24.8262C25.5269 24.7957 25.5059 24.7653 25.4582 24.7209C25.3609 24.6303 25.2253 24.5599 25.1173 24.4784L25.0369 24.4338L24.9562 24.3711L24.9024 24.3376L24.7256 24.2098C24.6607 24.1624 24.7153 24.2012 24.6406 24.1616C24.5585 24.1179 24.4992 24.046 24.4361 23.9791L24.3931 23.9708C24.3126 23.9511 24.2637 23.9182 24.206 23.8608C24.1426 23.7977 24.041 23.7573 23.9612 23.7166L23.9203 23.6993C23.8535 23.6695 23.9001 23.6916 23.8266 23.6325L23.5555 23.4793C23.4345 23.4205 23.3468 23.345 23.217 23.295L23.1761 23.2771C23.1228 23.2561 23.0718 23.2541 23.0155 23.2495Z" fill="#10A1E1"/>
<path d="M16.3747 0.0463422C19.0306 0.0133498 21.5396 0.608002 23.8346 1.96801C27.0105 3.85008 29.259 6.86264 30.1674 10.4347C30.8927 13.2865 30.701 16.3538 29.6296 19.0963C29.3146 19.9027 28.8874 20.6983 28.4413 21.4395C28.2338 21.7844 28.0059 22.098 27.7484 22.4072C27.6443 22.5324 27.5733 22.6611 27.4123 22.7011C27.3487 22.6866 27.3025 22.6751 27.2554 22.627C27.076 22.4434 26.9213 22.2271 26.7471 22.0368C26.3755 21.6304 25.9735 21.2366 25.574 20.8571C25.0328 20.3428 24.4454 19.8816 23.8603 19.4198C23.4192 19.0716 22.9855 18.7079 22.5206 18.3918L23.1867 17.048C23.9627 15.1307 23.9282 12.8323 23.1214 10.932C22.3578 9.13374 21.0006 7.79145 19.1845 7.07458C17.569 6.4369 15.686 6.47979 14.0963 7.18131C12.3816 7.93798 11.062 9.35457 10.3945 11.1039C9.58198 13.2331 9.6633 15.547 10.6017 17.6233C11.593 19.8167 13.5386 21.2275 15.7326 22.0576C16.9613 22.4931 18.2224 22.826 19.4553 23.2469C21.0185 23.7805 22.5163 24.4809 23.9194 25.3519C26.2218 26.7812 28.5972 28.9582 29.2742 31.6776C29.3848 32.1219 29.3533 32.5919 29.3264 33.045C28.7851 32.2403 28.161 31.4229 27.4405 30.7704C25.6891 29.1846 23.4446 28.1717 21.081 28.0131C20.3086 27.9613 19.5184 28.0032 18.7462 28.0399C17.8415 28.0829 16.9208 28.1347 16.0165 28.0624C12.9104 27.8139 9.86402 26.486 7.56489 24.3802C4.85965 21.9024 3.17917 18.4066 3.01983 14.7288C2.97515 13.6962 2.99975 12.6713 3.15787 11.649C3.57645 8.94303 4.79683 6.46731 6.64326 4.45735C9.13658 1.74308 12.7119 0.19574 16.3747 0.0463422Z" fill="url(#paint0_linear_190_481)"/>
</g>
<defs>
<linearGradient id="paint0_linear_190_481" x1="14.4764" y1="29.0148" x2="21.4693" y2="0.822768" gradientUnits="userSpaceOnUse">
<stop stop-color="#0E1D2A"/>
<stop offset="1" stop-color="#324756"/>
</linearGradient>
<clipPath id="clip0_190_481">
<rect width="33" height="33" fill="white"/>
</clipPath>
</defs>
</svg>
