<svg width="28" height="26" viewBox="0 0 28 26" fill="none" xmlns="http://www.w3.org/2000/svg">
<path d="M25.9483 11.3448H23.2931V3.37932H24.6207V0.724152H3.37929V3.37932H4.70688V11.3448H2.05171C1.69961 11.3448 1.36193 11.4847 1.11296 11.7337C0.863991 11.9827 0.724121 12.3203 0.724121 12.6724V24.6207H27.2758V12.6724C27.2758 12.3203 27.136 11.9827 26.887 11.7337C26.638 11.4847 26.3004 11.3448 25.9483 11.3448ZM16.6552 21.9655V16.6552H11.3448V21.9655H7.36205V3.37932H20.6379V21.9655H16.6552Z" fill="#434242"/>
<path d="M10.0172 6.03448H12.6724V8.68966H10.0172V6.03448ZM15.3276 6.03448H17.9827V8.68966H15.3276V6.03448ZM10.0172 11.3448H12.6724V14H10.0172V11.3448ZM15.3276 11.3448H17.9827V14H15.3276V11.3448Z" fill="#434242"/>
</svg>
