<svg width="32" height="32" viewBox="0 0 32 32" fill="none" xmlns="http://www.w3.org/2000/svg">
<path d="M20.785 8.245C23.785 8.245 26.485 9.565 28.315 11.635C28.945 12.325 30.085 11.845 29.995 10.915C29.935 10.315 29.815 9.685 29.635 9.085C28.705 5.785 26.065 3.23501 22.735 2.36501C16.075 0.625016 10.075 5.575 10.075 11.935C10.075 12.355 10.105 12.745 10.135 13.135C10.255 14.065 11.485 14.305 11.935 13.465C13.645 10.375 16.975 8.245 20.785 8.245Z" fill="#BA7A25" fill-opacity="0.8"/>
<path d="M8.27505 11.185C8.27505 8.18502 9.59504 5.51502 11.695 3.68503C12.385 3.05503 11.905 1.91503 10.975 2.00503C10.345 2.06503 9.74504 2.18503 9.11505 2.33503C5.81505 3.26503 3.23506 5.90502 2.36506 9.20501C0.625062 15.865 5.60505 21.835 11.995 21.835C12.415 21.835 12.805 21.805 13.225 21.775C14.155 21.655 14.395 20.425 13.555 19.975C10.405 18.295 8.27505 14.995 8.27505 11.185Z" fill="#0A65A3" fill-opacity="0.8"/>
<path d="M11.215 23.635C8.21502 23.635 5.51502 22.315 3.68502 20.245C3.05503 19.555 1.91503 20.035 2.00503 20.965C2.06503 21.565 2.18503 22.195 2.36503 22.795C3.29503 26.095 5.93502 28.645 9.26501 29.515C15.955 31.255 21.955 26.275 21.955 19.915C21.955 19.495 21.925 19.105 21.895 18.715C21.775 17.785 20.545 17.545 20.095 18.385C18.355 21.535 15.055 23.635 11.215 23.635Z" fill="#820D33" fill-opacity="0.8"/>
<path d="M23.725 20.725C23.725 23.725 22.405 26.395 20.305 28.225C19.615 28.855 20.095 29.995 21.025 29.905C21.625 29.845 22.255 29.725 22.885 29.545C26.185 28.615 28.765 25.975 29.635 22.675C31.375 16.015 26.395 10.045 20.005 10.045C19.585 10.045 19.195 10.075 18.775 10.105C17.845 10.225 17.605 11.455 18.445 11.905C21.595 13.615 23.725 16.915 23.725 20.725Z" fill="#260A79" fill-opacity="0.8"/>
</svg>
