<svg width="32" height="32" viewBox="0 0 32 32" fill="none" xmlns="http://www.w3.org/2000/svg">
<path d="M20.1014 9.35285C22.6729 9.35285 24.9871 10.4843 26.5557 12.2586C27.0957 12.85 28.0728 12.4386 27.9957 11.6414C27.9443 11.1271 27.8414 10.5871 27.6871 10.0728C26.89 7.24428 24.6271 5.05857 21.7729 4.31286C16.0643 2.82144 10.9214 7.06428 10.9214 12.5157C10.9214 12.8757 10.9472 13.21 10.9729 13.5443C11.0757 14.3414 12.13 14.5471 12.5157 13.8271C13.9814 11.1786 16.8357 9.35285 20.1014 9.35285Z" fill="#BA7A25" fill-opacity="0.8"/>
<path d="M9.37863 11.8729C9.37863 9.30144 10.5101 7.01288 12.3101 5.44431C12.9015 4.90431 12.4901 3.92717 11.6929 4.00431C11.1529 4.05574 10.6386 4.1586 10.0986 4.28717C7.27006 5.08431 5.05864 7.34716 4.31293 10.1757C2.8215 15.8843 7.09006 21.0014 12.5672 21.0014C12.9272 21.0014 13.2615 20.9757 13.6215 20.95C14.4186 20.8471 14.6243 19.7929 13.9043 19.4071C11.2043 17.9671 9.37863 15.1386 9.37863 11.8729Z" fill="#0A65A3" fill-opacity="0.8"/>
<path d="M11.8986 22.5443C9.32716 22.5443 7.01288 21.4128 5.44431 19.6385C4.90431 19.0471 3.92717 19.4586 4.00431 20.2557C4.05574 20.77 4.1586 21.31 4.31288 21.8243C5.11002 24.6528 7.37288 26.8385 10.2272 27.5842C15.9614 29.0757 21.1043 24.8071 21.1043 19.3557C21.1043 18.9957 21.0786 18.6614 21.0528 18.3271C20.95 17.53 19.8957 17.3243 19.51 18.0443C18.0186 20.7443 15.19 22.5443 11.8986 22.5443Z" fill="#820D33" fill-opacity="0.8"/>
<path d="M22.6214 20.05C22.6214 22.6214 21.49 24.91 19.69 26.4785C19.0986 27.0185 19.51 27.9957 20.3071 27.9185C20.8214 27.8671 21.3614 27.7643 21.9014 27.61C24.73 26.8128 26.9414 24.55 27.6871 21.7214C29.1785 16.0129 24.91 10.8957 19.4328 10.8957C19.0728 10.8957 18.7386 10.9214 18.3786 10.9471C17.5814 11.05 17.3757 12.1043 18.0957 12.49C20.7957 13.9557 22.6214 16.7843 22.6214 20.05Z" fill="#260A79" fill-opacity="0.8"/>
</svg>
