<svg width="28" height="28" viewBox="0 0 28 28" fill="none" xmlns="http://www.w3.org/2000/svg">
<g clip-path="url(#clip0_1637_99659)">
<path d="M18.8255 6.46383C21.8042 6.46383 24.4851 7.77447 26.3021 9.82978C26.9276 10.5149 28.0596 10.0383 27.9702 9.11489C27.9106 8.51915 27.7915 7.89362 27.6127 7.29787C26.6893 4.02127 24.0681 1.48936 20.7617 0.625532C14.1489 -1.10213 8.19147 3.81276 8.19147 10.1277C8.19147 10.5447 8.22125 10.9319 8.25104 11.3191C8.37019 12.2426 9.59147 12.4809 10.0383 11.6468C11.7361 8.57872 15.0425 6.46383 18.8255 6.46383Z" fill="#905B15"/>
<path d="M6.40424 9.38298C6.40424 6.40426 7.71488 3.75319 9.79999 1.93617C10.4851 1.31064 10.0085 0.178722 9.08509 0.268084C8.45956 0.327659 7.86382 0.446809 7.23829 0.595745C3.96169 1.51915 1.39999 4.14042 0.536158 7.41702C-1.1915 14.0298 3.75318 19.9574 10.0979 19.9574C10.5149 19.9574 10.9021 19.9277 11.3191 19.8979C12.2425 19.7787 12.4808 18.5574 11.6468 18.1106C8.51914 16.4426 6.40424 13.166 6.40424 9.38298Z" fill="#136094"/>
<path d="M9.32338 21.7447C6.34466 21.7447 3.66381 20.434 1.84678 18.3787C1.22125 17.6936 0.0893364 18.1702 0.178698 19.0936C0.238273 19.6894 0.357422 20.3149 0.536145 20.9106C1.45955 24.1872 4.08083 26.7191 7.38721 27.583C14.0298 29.3106 19.9872 24.366 19.9872 18.0511C19.9872 17.634 19.9574 17.2468 19.9276 16.8596C19.8085 15.9362 18.5872 15.6979 18.1404 16.5319C16.4127 19.6596 13.1361 21.7447 9.32338 21.7447Z" fill="#A51343"/>
<path d="M21.7447 18.8553C21.7447 21.834 20.4341 24.4851 18.349 26.3021C17.6639 26.9277 18.1405 28.0596 19.0639 27.9702C19.6596 27.9106 20.2851 27.7915 20.9107 27.6128C24.1873 26.6894 26.749 24.0681 27.6128 20.7915C29.3404 14.1787 24.3958 8.25107 18.0511 8.25107C17.6341 8.25107 17.2468 8.28085 16.8298 8.31064C15.9064 8.42979 15.6681 9.65107 16.5022 10.0979C19.6298 11.7957 21.7447 15.0723 21.7447 18.8553Z" fill="#311682"/>
</g>
<defs>
<clipPath id="clip0_1637_99659">
<rect width="28" height="28" fill="white"/>
</clipPath>
</defs>
</svg>
