<?xml version="1.0" encoding="utf-8" ?>
<svg xmlns="http://www.w3.org/2000/svg" xmlns:xlink="http://www.w3.org/1999/xlink" width="361" height="355">
	<path fill="#B7B6B6" transform="scale(0.952507 0.951743)" d="M331.236 80.9722C340.696 90.4118 346.66 101.449 352.536 113.332C354.301 116.902 356.647 120.189 358.272 123.817C360.116 127.935 362.851 134.209 364.085 138.427C364.86 141.078 365.252 143.842 366.014 146.501C367.29 150.952 368.889 155.277 369.929 159.801C373.075 173.498 373.816 188.256 373.828 202.269C373.835 210.089 372.505 217.175 371.19 224.841C370.327 229.869 369.644 234.919 368.415 239.877C366.949 245.791 364.607 251.513 362.501 257.225C360.127 263.663 357.788 270.124 354.833 276.326C347.02 292.73 335.382 307.977 322.582 320.815C318.225 325.185 313.33 329.031 308.495 332.855C303.272 336.986 298.017 341.168 292.391 344.741C288.976 346.911 285.331 348.784 281.787 350.742C278.403 352.612 275.041 354.535 271.484 356.063C266.862 358.048 262.045 359.506 257.308 361.185C251.279 363.322 245.275 365.518 239.052 367.044Q232.792 368.58 226.435 369.646C222.518 370.27 207.093 371.018 204.634 373L192.091 373C189.701 371.076 178.229 370.659 174.461 370.026C170.688 369.391 166.969 368.404 163.209 367.691C159.737 367.033 156.037 366.732 152.66 365.689C143.205 362.769 133.482 359.593 124.477 355.499C116.986 352.094 109.994 346.916 103.041 342.529C98.1795 339.462 92.9836 336.776 88.4397 333.242C86.5247 331.753 84.5525 330.064 83.3974 327.898C89.7993 329.152 96.1241 334.879 101.754 338.044C105.665 340.243 109.8 342.043 113.845 343.974C117.229 345.589 120.606 347.401 124.097 348.77C126.595 349.75 129.209 350.401 131.723 351.334C134.799 352.476 137.744 353.945 140.93 354.787C147.345 356.481 154.335 356.996 160.907 357.807C183.709 360.622 199.246 361.426 222.069 356.662C226.226 355.795 230.401 354.964 234.492 353.817C238.28 352.755 241.997 351.332 245.705 350.022C250.349 348.382 255.009 346.824 259.478 344.734C282.422 334.008 307.196 315.76 323.014 295.959C325.281 293.121 327.164 290.073 329.154 287.043C333.015 281.162 336.604 275.361 340.044 269.215C343.222 266.482 345.372 259.371 346.932 255.479C348.954 250.437 351.774 245.8 353.609 240.658C355.573 235.152 356.238 229.803 357.313 224.106C357.805 221.499 358.571 218.95 359.085 216.348C359.569 213.893 359.635 211.377 359.983 208.901C360.308 206.589 360.909 204.321 361.215 202.01C361.594 199.147 361.287 196.188 361.421 193.305C361.534 190.903 361.927 188.493 361.958 186.091C361.994 183.288 361.43 180.451 361.29 177.645C361.156 174.975 361.417 172.296 361.305 169.626C361.192 166.945 360.477 164.277 360.119 161.62C359.764 158.985 359.746 156.258 359.243 153.653C358.696 150.823 357.472 148.123 356.887 145.296C356.005 141.03 355.828 136.904 354.507 132.689C352.793 127.224 350.391 122.242 348.117 117.015C345.355 110.668 343.781 106.553 339.538 100.952C337.666 94.4684 333.75 89.4953 330.435 83.7435C330.938 83.0192 331.049 81.8258 331.236 80.9722Z"/>
	<path fill="#CB0019" transform="scale(0.952507 0.951743)" d="M32.2873 100.883C34.3609 96.3642 37.3023 92.3089 40.0583 88.1896C44.3378 81.7933 48.655 75.2906 53.7266 69.4894C58.7724 63.7177 65.3032 57.9812 71.1266 52.9896C77.7747 47.291 85.5855 42.4241 93.0532 37.8648Q105.856 30.1153 119.649 24.3071C148.88 11.7795 173.941 8.58505 205.383 11.1159C212.509 11.6894 219.708 12.6031 226.673 14.2181C256.661 21.1715 286.876 38.3472 309.322 59.2851C315.621 65.161 321.172 71.5468 326.744 78.0987C328.766 78.4133 329.813 79.6013 331.236 80.9722C331.049 81.8258 330.938 83.0192 330.435 83.7435C333.75 89.4953 337.666 94.4684 339.538 100.952L130.276 102.024L87.9229 101.998Q71.4816 102.134 55.0437 101.769C47.5485 101.546 39.6916 101.99 32.2873 100.883Z"/>
	<path fill="#D8D8D9" transform="scale(0.952507 0.951743)" d="M326.744 78.0987C328.766 78.4133 329.813 79.6013 331.236 80.9722C331.049 81.8258 330.938 83.0192 330.435 83.7435Q328.549 80.9472 326.744 78.0987Z"/>
	<path fill="#CB0019" transform="scale(0.952507 0.951743)" d="M32.5336 269.069Q143.408 267.491 254.291 268.161L305.129 268.499C316.665 268.513 328.565 267.948 340.044 269.215C336.604 275.361 333.015 281.162 329.154 287.043C327.164 290.073 325.281 293.121 323.014 295.959C307.196 315.76 282.422 334.008 259.478 344.734C255.009 346.824 250.349 348.382 245.705 350.022C241.997 351.332 238.28 352.755 234.492 353.817C230.401 354.964 226.226 355.795 222.069 356.662C199.246 361.426 183.709 360.622 160.907 357.807C154.335 356.996 147.345 356.481 140.93 354.787C137.744 353.945 134.799 352.476 131.723 351.334C129.209 350.401 126.595 349.75 124.097 348.77C120.606 347.401 117.229 345.589 113.845 343.974C109.8 342.043 105.665 340.243 101.754 338.044C96.1241 334.879 89.7993 329.152 83.3974 327.898C77.4437 323.079 72.2745 317.777 66.9367 312.309C62.2421 307.501 57.4254 302.762 53.0459 297.66C45.5204 288.893 38.6607 278.867 32.5336 269.069Z"/>
	<path fill="#FECE36" transform="scale(0.952507 0.951743)" d="M339.538 100.952C343.781 106.553 345.355 110.668 348.117 117.015C350.391 122.242 352.793 127.224 354.507 132.689C355.828 136.904 356.005 141.03 356.887 145.296C357.472 148.123 358.696 150.823 359.243 153.653C359.746 156.258 359.764 158.985 360.119 161.62C360.477 164.277 361.192 166.945 361.305 169.626C361.417 172.296 361.156 174.975 361.29 177.645C361.43 180.451 361.994 183.288 361.958 186.091C361.927 188.493 361.534 190.903 361.421 193.305C361.287 196.188 361.594 199.147 361.215 202.01C360.909 204.321 360.308 206.589 359.983 208.901C359.635 211.377 359.569 213.893 359.085 216.348C358.571 218.95 357.805 221.499 357.313 224.106C356.238 229.803 355.573 235.152 353.609 240.658C351.774 245.8 348.954 250.437 346.932 255.479C345.372 259.371 343.222 266.482 340.044 269.215C328.565 267.948 316.665 268.513 305.129 268.499L254.291 268.161Q143.408 267.491 32.5336 269.069C30.6828 265.449 29.0111 261.722 27.3101 258.029C24.0322 250.914 21.6527 243.464 19.1526 236.052C17.8515 232.195 16.3202 228.385 15.3804 224.419C14.7239 221.649 14.5917 218.79 14.1494 215.983C13.7137 213.218 12.8474 210.537 12.4206 207.768C12.0371 205.28 12.0587 202.759 11.81 200.259C11.5716 197.862 10.8553 195.477 10.7528 193.074C10.6476 190.609 11.1518 188.098 11.1989 185.624C11.2493 182.973 11.0612 180.319 11.1133 177.667C11.204 173.057 11.649 168.172 12.2835 163.609C12.6707 160.824 13.5271 158.111 14.0471 155.351C14.6159 152.332 14.2294 149.186 15.0423 146.196C16.0087 142.64 17.6679 139.192 18.8471 135.688C21.1549 128.831 23.0806 121.641 25.8969 114.982C26.8799 112.658 28.2447 110.498 29.3524 108.231C30.5098 105.862 31.3752 103.354 32.2873 100.883C39.6916 101.99 47.5485 101.546 55.0437 101.769Q71.4816 102.134 87.9229 101.998L130.276 102.024L339.538 100.952Z"/>
</svg>
