<svg width="32" height="32" viewBox="0 0 32 32" fill="none" xmlns="http://www.w3.org/2000/svg">
<path d="M26.7816 14.8728C27.0663 14.8392 27.3762 14.8637 27.6636 14.8635C28.364 14.8629 29.0659 14.8772 29.7661 14.8648C29.788 14.9057 29.7942 14.9422 29.798 14.9875C29.8215 15.2668 29.8299 17.6414 29.7902 17.7636C29.7865 17.7751 29.7586 17.8008 29.7495 17.8114C29.5964 17.7724 29.1441 17.8025 28.9665 17.8024L26.7753 17.8031C26.7783 17.7974 26.7813 17.7918 26.7842 17.7861C26.8429 17.6675 26.7874 17.23 26.7853 17.0696C26.7787 16.556 26.7841 16.0365 26.7878 15.5228C26.7892 15.3341 26.8093 15.1403 26.8014 14.9522C26.8002 14.9249 26.7913 14.8982 26.7816 14.8728Z" fill="#1F62AE"/>
<path d="M27.2262 15.3067C27.9202 15.2773 28.6237 15.3032 29.319 15.3011C29.3293 15.3176 29.3368 15.3325 29.3414 15.3516C29.3761 15.498 29.3661 17.0608 29.3474 17.2709C29.3445 17.3035 29.3345 17.3295 29.3177 17.3579C29.2247 17.399 27.4232 17.3707 27.201 17.3709C27.2184 17.3436 27.2306 17.3153 27.2341 17.2832C27.2672 16.9845 27.2389 16.6504 27.2386 16.3478C27.2382 16.0131 27.2727 15.6365 27.2262 15.3067Z" fill="#010514" fill-opacity="0.98"/>
<path d="M27.4421 15.4842C28.0066 15.4818 28.5726 15.471 29.137 15.484C29.1491 15.5032 29.1579 15.5214 29.1625 15.5438C29.1885 15.6699 29.1866 17.0317 29.1603 17.13C29.1568 17.143 29.1344 17.168 29.126 17.1803C28.954 17.2298 27.7021 17.1882 27.4082 17.188C27.4849 17.0679 27.4416 15.7303 27.4421 15.4842Z" fill="#1F62AE"/>
<path d="M26.7993 18.6595C27.147 18.635 27.5034 18.6511 27.8524 18.6511H29.7642C29.7989 18.7197 29.7988 18.779 29.8005 18.8537C29.8126 19.4153 29.8006 19.9792 29.8001 20.5411L29.8002 23.6835L29.8007 25.2788C29.8007 25.5423 29.8261 25.8356 29.7869 26.0952C29.7832 26.1199 29.7567 26.13 29.7367 26.1442C29.422 26.1122 29.0802 26.1354 28.7634 26.135L26.7775 26.139C26.8036 26.1 26.8077 26.0707 26.809 26.0247C26.8243 25.4854 26.8111 24.9427 26.8113 24.403L26.8119 21.1767L26.8136 19.4972C26.8131 19.2271 26.8376 18.9259 26.7993 18.6595Z" fill="#1F62AE"/>
<path d="M22.9488 5.01186C24.1977 4.97498 25.4742 5.01536 26.702 5.25821C28.3999 5.59405 30.2059 6.26219 31.2035 7.74351C31.9256 8.81567 32.1581 10.1599 31.8954 11.4164C31.798 11.882 31.3569 13.2613 30.9585 13.5202C30.9805 13.4858 31.0003 13.45 31.0132 13.4114C31.0666 13.2503 31.0906 13.0676 31.1225 12.9007C31.347 11.7296 31.2699 10.3788 30.7026 9.30589C29.9692 7.91872 28.5205 7.09666 27.0501 6.64206C25.7649 6.2447 24.4177 6.12248 23.0758 6.12096C18.4146 6.11569 13.4404 7.68479 9.33462 9.78808C6.62416 11.1914 4.06256 12.8804 1.86041 14.9831C1.43176 15.3923 1.02776 15.8233 0.644533 16.2739C0.461617 16.4889 0.226727 16.8382 0.0289807 17.0123L0 17.0012C0.00383812 16.7192 1.3479 15.1791 1.60848 14.8834C2.40834 13.9758 3.31072 13.1452 4.24515 12.3734C8.36904 8.96743 13.6597 6.52002 18.9369 5.48514C19.9072 5.29487 20.8892 5.15376 21.8753 5.07153C22.2324 5.04175 22.5914 5.03713 22.9488 5.01186Z" fill="#1F62AE"/>
<path d="M21.5533 14.8728C22.595 14.822 23.6464 14.9066 24.6888 14.8615C24.6989 14.8785 24.7073 14.8928 24.7121 14.9121C24.7485 15.0582 24.7336 16.9372 24.7162 17.1605C24.7128 17.2041 24.7038 17.2381 24.6823 17.2767C24.6651 17.2745 24.6488 17.274 24.6315 17.2735C24.0943 17.2562 23.5528 17.268 23.015 17.2681C21.8558 17.2685 20.7517 17.2135 19.8433 18.0552C19.1704 18.6785 18.9308 19.5251 18.9083 20.4104C18.8863 21.2732 19.1259 22.1866 19.7443 22.8224C20.6233 23.726 21.6804 23.7 22.8508 23.6986C23.4639 23.698 24.0782 23.6888 24.6911 23.7012C24.6966 23.7113 24.6995 23.7163 24.7045 23.7274C24.7463 23.821 24.7433 26.003 24.6962 26.1145C24.6887 26.126 24.6667 26.1383 24.6553 26.1466L24.6504 26.1308L24.593 26.1198L24.5864 26.1589C24.5617 26.1302 24.3295 26.1382 24.2758 26.1372C21.8834 26.0955 19.4272 26.4412 17.4749 24.7407C16.3869 23.7929 15.8755 22.4259 15.7908 21.0248C15.6996 19.5152 16.1152 17.9301 17.1534 16.7863C18.2726 15.5535 19.9041 14.9655 21.5533 14.8728Z" fill="#1F62AE"/>
<path d="M4.79614 15.0645L7.77819 15.0653C7.74266 15.6333 7.76936 16.2178 7.76895 16.7878L7.76749 19.9875C7.76749 20.7301 7.7129 21.5287 7.85941 22.2592C7.94423 22.6822 8.09936 23.1258 8.41809 23.435C8.72681 23.7344 9.11006 23.8498 9.53545 23.8483C9.96251 23.8467 10.3645 23.7343 10.6713 23.4269C10.9909 23.1066 11.1439 22.6464 11.2195 22.2133C11.3465 21.4857 11.2897 20.3816 11.2906 19.616L11.2873 15.069L14.2609 15.0677C14.2358 15.8542 14.2537 16.645 14.2597 17.4318L14.2612 20.003C14.2609 20.6733 14.2875 21.3614 14.2239 22.029C14.1241 23.0756 13.7479 24.1668 12.9856 24.9276C12.0639 25.8477 10.7874 26.1413 9.51501 26.1483C8.28535 26.155 7.03129 25.9309 6.12495 25.0452C4.8923 23.8406 4.80365 22.0764 4.80212 20.4722L4.8015 18.8911L4.79614 15.0645Z" fill="#1F62AE"/>
</svg>
