<svg width="33" height="33" viewBox="0 0 33 33" fill="none" xmlns="http://www.w3.org/2000/svg">
<g clip-path="url(#clip0_194_553)">
<mask id="mask0_194_553" style="mask-type:luminance" maskUnits="userSpaceOnUse" x="0" y="0" width="33" height="33">
<path d="M23.3098 32.6913C23.8275 32.893 24.4179 32.88 24.9406 32.6286L31.7082 29.3722C32.4194 29.03 32.8716 28.3101 32.8716 27.5206V5.43946C32.8716 4.64987 32.4194 3.93015 31.7082 3.58795L24.9406 0.331356C24.2547 0.00136358 23.4521 0.0821913 22.8503 0.519773C22.7642 0.582283 22.6823 0.652076 22.6055 0.728991L9.64948 12.549L4.00612 8.26521C3.48078 7.86644 2.74597 7.8991 2.25806 8.34293L0.44805 9.9894C-0.148761 10.5323 -0.149445 11.4712 0.446572 12.015L5.34068 16.4799L0.446572 20.945C-0.149445 21.4887 -0.148761 22.4276 0.44805 22.9705L2.25806 24.6169C2.74597 25.0608 3.48078 25.0935 4.00612 24.6948L9.64948 20.4109L22.6055 32.231C22.8104 32.436 23.0511 32.5905 23.3098 32.6913ZM24.6587 9.01774L14.828 16.4799L24.6587 23.9422V9.01774Z" fill="white"/>
</mask>
<g mask="url(#mask0_194_553)">
<path d="M31.7283 3.59306L24.9553 0.331978C24.1714 -0.0454912 23.2345 0.113734 22.6192 0.728997L0.446843 20.945C-0.149537 21.4888 -0.148851 22.4277 0.448322 22.9706L2.25943 24.617C2.74765 25.0609 3.48291 25.0935 4.00856 24.6948L30.7092 4.43907C31.6049 3.75952 32.8915 4.39842 32.8915 5.52278V5.44414C32.8915 4.6549 32.4394 3.93544 31.7283 3.59306Z" fill="#0065A9"/>
</g>
<mask id="mask1_194_553" style="mask-type:luminance" maskUnits="userSpaceOnUse" x="0" y="0" width="33" height="33">
<path d="M23.3098 32.6913C23.8275 32.893 24.4179 32.88 24.9406 32.6286L31.7082 29.3722C32.4194 29.03 32.8716 28.3101 32.8716 27.5206V5.43946C32.8716 4.64987 32.4194 3.93015 31.7082 3.58795L24.9406 0.331356C24.2547 0.00136358 23.4521 0.0821913 22.8503 0.519773C22.7642 0.582283 22.6823 0.652076 22.6055 0.728991L9.64948 12.549L4.00612 8.26521C3.48078 7.86644 2.74597 7.8991 2.25806 8.34293L0.44805 9.9894C-0.148761 10.5323 -0.149445 11.4712 0.446572 12.015L5.34068 16.4799L0.446572 20.945C-0.149445 21.4887 -0.148761 22.4276 0.44805 22.9705L2.25806 24.6169C2.74597 25.0608 3.48078 25.0935 4.00612 24.6948L9.64948 20.4109L22.6055 32.231C22.8104 32.436 23.0511 32.5905 23.3098 32.6913ZM24.6587 9.01774L14.828 16.4799L24.6587 23.9422V9.01774Z" fill="white"/>
</mask>
<g mask="url(#mask1_194_553)">
<path d="M31.7283 29.3669L24.9553 32.628C24.1714 33.0054 23.2345 32.8462 22.6192 32.231L0.446843 12.015C-0.149537 11.4712 -0.148851 10.5323 0.448322 9.98939L2.25943 8.34292C2.74765 7.89909 3.48291 7.86641 4.00856 8.2652L30.7092 28.5208C31.6049 29.2004 32.8915 28.5615 32.8915 27.4371V27.5158C32.8915 28.305 32.4394 29.0244 31.7283 29.3669Z" fill="#007ACC"/>
</g>
<mask id="mask2_194_553" style="mask-type:luminance" maskUnits="userSpaceOnUse" x="0" y="0" width="33" height="33">
<path d="M23.3098 32.6913C23.8275 32.893 24.4179 32.88 24.9406 32.6286L31.7082 29.3722C32.4194 29.03 32.8716 28.3101 32.8716 27.5206V5.43946C32.8716 4.64987 32.4194 3.93015 31.7082 3.58795L24.9406 0.331356C24.2547 0.00136358 23.4521 0.0821913 22.8503 0.519773C22.7642 0.582283 22.6823 0.652076 22.6055 0.728991L9.64948 12.549L4.00612 8.26521C3.48078 7.86644 2.74597 7.8991 2.25806 8.34293L0.44805 9.9894C-0.148761 10.5323 -0.149445 11.4712 0.446572 12.015L5.34068 16.4799L0.446572 20.945C-0.149445 21.4887 -0.148761 22.4276 0.44805 22.9705L2.25806 24.6169C2.74597 25.0608 3.48078 25.0935 4.00612 24.6948L9.64948 20.4109L22.6055 32.231C22.8104 32.436 23.0511 32.5905 23.3098 32.6913ZM24.6587 9.01774L14.828 16.4799L24.6587 23.9422V9.01774Z" fill="white"/>
</mask>
<g mask="url(#mask2_194_553)">
<path d="M24.9341 32.6306C24.1499 33.0077 23.213 32.8484 22.5977 32.2331C23.3558 32.9912 24.6521 32.4542 24.6521 31.382V1.58205C24.6521 0.509871 23.3558 -0.0270841 22.5977 0.731066C23.213 0.115746 24.1499 -0.0437039 24.9341 0.333432L31.7059 3.59003C32.4175 3.93223 32.87 4.65195 32.87 5.44154V27.5227C32.87 28.3122 32.4175 29.0319 31.7059 29.3741L24.9341 32.6306Z" fill="#1F9CF0"/>
</g>
<mask id="mask3_194_553" style="mask-type:luminance" maskUnits="userSpaceOnUse" x="0" y="0" width="33" height="33">
<path d="M23.3098 32.6913C23.8275 32.893 24.4179 32.88 24.9406 32.6286L31.7082 29.3722C32.4194 29.03 32.8716 28.3101 32.8716 27.5206V5.43946C32.8716 4.64987 32.4194 3.93015 31.7082 3.58795L24.9406 0.331356C24.2547 0.00136358 23.4521 0.0821913 22.8503 0.519773C22.7642 0.582283 22.6823 0.652076 22.6055 0.728991L9.64948 12.549L4.00612 8.26521C3.48078 7.86644 2.74597 7.8991 2.25806 8.34293L0.44805 9.9894C-0.148761 10.5323 -0.149445 11.4712 0.446572 12.015L5.34068 16.4799L0.446572 20.945C-0.149445 21.4887 -0.148761 22.4276 0.44805 22.9705L2.25806 24.6169C2.74597 25.0608 3.48078 25.0935 4.00612 24.6948L9.64948 20.4109L22.6055 32.231C22.8104 32.436 23.0511 32.5905 23.3098 32.6913ZM24.6587 9.01774L14.828 16.4799L24.6587 23.9422V9.01774Z" fill="white"/>
</mask>
<g mask="url(#mask3_194_553)">
<path d="M23.3098 32.6913C23.8276 32.8929 24.418 32.8801 24.9405 32.6286L31.7082 29.372C32.4194 29.0298 32.8716 28.3101 32.8716 27.5206V5.43946C32.8716 4.64987 32.4194 3.93015 31.7083 3.58795L24.9405 0.331357C24.2548 0.00136344 23.4521 0.0821911 22.8502 0.519773C22.7643 0.582283 22.6823 0.652076 22.6054 0.72899L9.64948 12.549L4.00612 8.26521C3.48079 7.86643 2.74597 7.89911 2.25805 8.34293L0.44805 9.9894C-0.148761 10.5323 -0.149445 11.4712 0.446572 12.015L5.34069 16.48L0.446572 20.945C-0.149445 21.4888 -0.148761 22.4277 0.44805 22.9706L2.25805 24.617C2.74597 25.0609 3.48079 25.0935 4.00612 24.6948L9.64948 20.4109L22.6054 32.231C22.8104 32.436 23.0511 32.5905 23.3098 32.6913ZM24.6587 9.01773L14.8281 16.48L24.6587 23.9422V9.01773Z" fill="url(#paint0_linear_194_553)" fill-opacity="0.25"/>
</g>
</g>
<defs>
<linearGradient id="paint0_linear_194_553" x1="1643.58" y1="0.128893" x2="1643.58" y2="3270.34" gradientUnits="userSpaceOnUse">
<stop stop-color="white"/>
<stop offset="1" stop-color="white" stop-opacity="0"/>
</linearGradient>
<clipPath id="clip0_194_553">
<rect width="33" height="33" fill="white"/>
</clipPath>
</defs>
</svg>
