<svg width="507" height="637" viewBox="0 0 507 637" fill="none" xmlns="http://www.w3.org/2000/svg">
<path d="M173.853 172.132L173.902 171.185L175.463 170.821L176.143 169.591C177.176 169.97 178.661 170.366 179.525 171.041C180.578 171.864 183.258 176.169 183.845 177.409C184.016 177.772 184.117 178.17 184.195 178.561L183.828 179.293C182.483 179.713 181.048 179.102 179.843 178.475C178.432 177.742 174.896 175.802 174.364 174.301C174.12 173.611 173.984 172.85 173.853 172.132Z" fill="#043CA5"/>
<path d="M141.925 128.909C142.901 128.233 143.525 127.742 144.091 126.653C145.536 126.67 146.976 126.534 148.226 127.395C149.275 128.745 149.308 130.537 149.33 132.178C154.178 137.067 159.959 142.067 164.109 147.515C165.418 148.49 183.647 165.983 184.433 167.207C184.919 167.964 184.87 169.862 184.673 170.715C184.453 171.667 184.342 171.961 183.525 172.45C182.403 171.56 182.392 170.506 182.016 169.152C170.839 158.934 160.352 147.433 149.781 136.559C146.905 134.311 143.69 132.175 141.925 128.909Z" fill="#0251C0"/>
<path d="M84.1769 82.2358C72.3192 70.7791 61.0926 58.6296 49.0655 47.3559C47.7838 46.1542 46.4357 44.8675 44.9545 43.9159C43.1426 42.7519 40.8437 43.078 39.7158 40.8838C39.4565 40.3796 39.3216 39.836 39.3183 39.2724C39.31 37.9062 40.0638 36.3886 41.0814 35.5034C41.6198 35.035 42.2917 34.8197 42.9667 34.6159C44.2581 34.8244 45.0693 34.9531 45.8824 36.1091C46.8631 37.5036 47.0633 38.9748 47.4042 40.5834L47.4708 40.9058C60.5047 53.9641 73.9962 66.72 86.4815 80.3022C85.2067 79.7438 83.9269 79.2027 82.6404 78.6736L82.3941 79.0797C82.9169 80.2121 83.4779 81.2004 84.1769 82.2358Z" fill="#1FC4F8"/>
<path d="M141.925 128.909C135.856 122.45 129.313 116.382 123.016 110.144C110.129 97.3758 97.2399 84.5257 84.781 71.3401C82.6236 69.0573 80.5157 66.6609 78.1191 64.6245C76.1188 62.9247 69.955 59.8049 69.2465 57.7494C69.2918 56.3607 69.3911 56.0743 70.1107 54.8922C71.3002 54.2256 71.4638 54.1692 72.8296 54.2806C76.7638 58.2008 79.9734 62.895 84.2505 67.0908L126.398 108.573C132.095 114.202 139.686 120.016 144.091 126.653C143.525 127.742 142.901 128.233 141.925 128.909Z" fill="#0D84E2"/>
<path d="M84.1769 82.2358C83.4779 81.2004 82.9169 80.2121 82.3941 79.0797L82.6404 78.6736C83.9269 79.2027 85.2067 79.7438 86.4815 80.3022C108.939 101.375 130.103 123.82 151.905 145.564L167.914 161.413C170.606 164.106 173.177 167.231 176.143 169.591L175.463 170.821L173.902 171.185L173.853 172.132C166.148 166.92 151.701 149.999 144.119 142.383C124.174 122.346 103.211 103.148 84.1769 82.2358Z" fill="#0D70D7"/>
<path d="M87.2065 19.6405C85.7277 19.7486 84.2101 19.8793 82.7247 19.8017C79.831 19.6507 77.3263 18.7579 75.3663 16.5344C73.6541 14.5926 72.4536 12.0176 72.6261 9.40834C72.7906 6.91642 74.1274 4.61443 76.0016 3.02691C78.2358 1.1343 81.2899 0.158815 84.236 0.50804C86.4622 0.77183 88.5474 1.73066 89.9568 3.53027C92.4805 6.75305 92.1408 10.8325 91.6484 14.5885C115.365 38.9858 139.749 62.7451 163.921 86.6895L163.845 90.7395C164.759 101.705 164.706 112.789 164.12 123.748C173.077 131.283 180.833 139.974 189.094 148.233C197.257 156.394 205.878 164.103 213.5 172.79C214.644 178.346 213.667 183.94 214.303 189.51C213.618 189.022 212.752 188.83 211.957 188.586C212.132 185.098 211.811 181.499 211.665 178.001L210.284 178.932C210.298 183.173 210.405 187.439 210.266 191.675L245.183 226.68C250.372 231.823 262.007 242.373 265.782 248.002C263.764 246.139 261.474 243.507 259.085 242.223C260.663 244.194 262.408 246.897 264.373 248.446C269.429 253.937 274.972 259.371 279.391 265.379C282.42 269.23 286.353 272.674 289.811 276.171C294.412 280.825 298.853 285.631 303.432 290.305C305.998 292.925 309.056 295.402 311.222 298.352L311.136 298.894L310.102 298.676C288.127 277.074 266.594 255.022 244.833 233.205C232.434 220.775 219.232 208.739 207.432 195.762C206.479 194.714 205.798 194.191 205.652 192.787C204.049 188.047 205.029 180.753 205.111 175.765L157.287 127.737L157.053 89.5492L87.2065 19.6405Z" fill="#0137A0" fill-opacity="0.5"/>
<path d="M123.341 146.294C121.931 146.13 121.195 145.997 120.091 145.017C119.383 143.669 119.526 142.798 119.729 141.359C121.279 142.004 122.121 143.281 122.767 144.785C122.98 145.28 123.162 145.786 123.341 146.294Z" fill="#0251C0"/>
<path d="M172.884 178.193C174.067 178.517 175.171 178.685 175.999 179.666L175.879 180.42C174.359 181.399 173.145 181.398 171.373 181C171.285 180.98 171.198 180.958 171.111 180.937C171.444 179.923 172.254 179.041 172.884 178.193Z" fill="#0137A0" fill-opacity="0.5"/>
<path d="M286.098 435.351C287.379 435.57 288.814 436.006 290.013 435.379C290.43 436.69 290.822 437.344 290.148 438.654C289.404 438.983 288.272 438.62 287.483 438.481L287.744 437.901L286.098 435.351Z" fill="#0D84E2"/>
<path d="M104.765 141.25C106.198 141.424 107.665 141.675 109.104 141.746L110.438 142.604C110.317 143.295 110.138 143.504 109.682 143.996C108.003 144.696 105.945 144.224 104.167 144.012C104.519 143.17 104.606 142.151 104.765 141.25Z" fill="#0251C0"/>
<path d="M281.213 435.571C282.783 435.716 284.649 436.111 286.098 435.351L287.744 437.901L287.483 438.481C285.463 439.734 283.175 438.566 280.871 439.708C281.489 439.343 282 438.799 282.524 438.315C282.575 436.925 282.062 436.646 281.213 435.571Z" fill="#0D70D7"/>
<path d="M129.961 315.124C128.515 314.347 126.621 314.585 125.022 314.517C123.468 314.45 122.37 314.291 121.298 313.133L121.611 312.419C123.824 311.413 126.662 311.769 129.082 311.477C128.645 312.712 128.664 312.846 129.302 314.07C129.492 314.435 129.73 314.782 129.961 315.124Z" fill="#0D70D7"/>
<path d="M129.573 311.343C129.609 311.259 129.648 311.176 129.683 311.091C130.699 308.577 129.876 304.162 132.07 302.487C133.184 303.194 133.681 304.42 133.98 305.665C134.528 307.952 134.597 308.271 136.153 310.107C135.419 309.548 134.675 309.003 133.932 308.456C132.285 308.572 131.269 310.187 129.881 311.135L129.573 311.343Z" fill="#0D70D7"/>
<path d="M54.0943 84.3327C52.7924 84.3522 51.0453 84.5195 49.995 83.5664C49.0369 82.6972 49.0914 82.1159 49.0212 80.9239C49.5062 79.6729 50.1802 78.5086 51.4682 77.9442C52.5647 77.4635 53.0152 77.5762 54.1377 77.8231C55.1456 78.5354 55.7717 79.5664 55.9638 80.7813C56.0485 81.3151 56.0666 81.8583 56.0801 82.3963C55.0846 82.863 54.68 83.4222 54.0943 84.3327Z" fill="#05A0F5"/>
<path d="M138.273 147.636C136.403 145.87 134.354 146.147 132.294 144.866C131.49 143.835 131.604 142.82 131.615 141.596L134.358 138.858C138.425 140.835 140.224 145.647 143.155 148.952C141.081 148.051 139.834 145.676 137.505 144.797C137.486 146.174 137.586 146.424 138.273 147.636Z" fill="#0251C0"/>
<path d="M54.0943 84.3327C54.68 83.4222 55.0846 82.863 56.0801 82.3963C61.0883 87.6117 66.1675 92.9378 71.6034 97.7079L69.6206 100.025C65.9917 94.0815 59.3413 88.9253 54.0943 84.3327Z" fill="#09AEF5"/>
<path d="M233.168 250.248C227.501 250.008 214.755 250.972 210.162 249.44C209.28 249.146 209.27 248.998 208.832 248.221L209.48 247.542C215.464 246.143 224.239 247.384 230.418 248.092C231.332 248.551 232.17 248.685 233.172 248.821L233.168 250.248Z" fill="#0137A0" fill-opacity="0.5"/>
<path d="M202.206 322.178L203.003 321.887C210.252 322.21 217.415 322.321 224.65 321.834L225.168 324.846C217.078 324.54 208.98 324.606 200.889 324.604C201.158 323.749 201.747 322.943 202.206 322.178Z" fill="#0137A0" fill-opacity="0.5"/>
<path d="M197.957 420.882C199.05 419.127 200.378 417.327 202.516 416.848C202.981 416.743 203.608 417.029 204.073 417.157C205.447 418.311 206.021 419.758 206.207 421.509C206.398 423.311 206.144 424.609 205.099 426.081C204.104 426.616 203.573 426.955 202.392 426.606C200.609 426.08 199.154 424.95 197.85 423.663C198.255 422.721 198.075 421.876 197.957 420.882Z" fill="#043CA5"/>
<path d="M69.2553 77.9031C67.8633 76.316 66.4124 74.4468 64.6819 73.2287C63.0817 72.1018 60.4952 71.035 59.1512 69.6961C58.8666 69.4122 58.7125 68.4406 58.7354 68.0676C58.8031 66.9584 59.3078 66.2407 59.9497 65.3968C61.1262 64.7945 61.1743 64.7575 62.473 65.0361C63.8251 66.1771 64.2677 67.0552 64.4393 68.8292C64.4666 69.111 64.4849 69.3929 64.5036 69.675L71.0809 76.2581C72.8932 76.3914 74.4297 76.3762 75.7265 77.8559C75.825 77.9685 75.9159 78.0874 76.0109 78.2029C75.1549 77.7135 73.8606 77.3 72.8739 77.4793C71.9229 77.6521 71.3194 78.047 70.8109 78.8881C70.0523 80.143 70.306 81.6101 70.5271 82.9845C69.1847 81.3146 69.2019 79.954 69.2553 77.9031Z" fill="#09AEF5"/>
<path d="M190.28 326.56L189.878 325.269L191.746 325.986L191.563 324.923C192.946 323.867 195.757 324.493 197.538 323.675C198.653 323.163 199.594 322.4 199.964 321.18C200.84 318.297 198.687 314.222 197.26 311.812L197.761 310.581C199.686 311.682 201.73 313.07 202.34 315.336C202.867 317.294 202.886 319.186 202.884 321.185C202.884 321.559 202.888 321.442 203.003 321.887L202.206 322.178C201.747 322.943 201.158 323.749 200.889 324.604C199.072 325.903 197.67 326.812 195.456 327.322C193.765 327.828 191.866 327.156 190.28 326.56Z" fill="#045AC6"/>
<path d="M69.0737 109.263C67.9657 109.138 66.3008 109.073 65.3763 108.415C64.3428 107.679 64.1631 107.039 63.8404 105.902C64.0636 104.918 64.3187 104.232 65.1239 103.584C66.1905 102.725 67.2141 102.568 68.5484 102.729C69.289 103.235 69.5783 103.296 69.8878 104.152C70.0288 104.542 70.1832 104.921 70.2476 105.332C70.8354 109.066 80.8226 117.45 84.0067 120.598C83.0515 120.021 82.1019 119.248 80.9556 119.344C81.3687 120.715 82.1325 121.959 82.8165 123.213C78.2286 118.585 74.0231 113.507 69.0737 109.263Z" fill="#05A0F5"/>
<path d="M68.5007 119.594L70.7249 118.227C72.261 118.066 73.4184 117.92 74.89 118.543C75.9448 119.413 76.458 120.345 76.5899 121.69C76.6624 122.428 76.6762 123.174 76.6839 123.915C78.5891 126.14 80.4589 128.41 82.4934 130.52C79.9156 128.713 77.6582 126.5 74.9792 124.855C79.7995 131.082 85.811 136.469 91.4133 141.996C93.6065 144.161 96.3322 146.471 98.0988 148.989C94.4882 146.943 78.7378 129.942 74.4096 125.761C74.0406 125.805 73.6716 125.846 73.3009 125.877C72.0374 125.986 70.7348 126 69.7319 125.049C68.3377 123.726 68.553 121.355 68.5007 119.594Z" fill="#0D70D7"/>
<path d="M111.57 131.537C109.729 127.169 104.063 124.371 102.773 119.59C104.734 121.539 106.796 123.446 108.678 125.468C110.596 127.389 115.79 133.524 117.994 134.299C120.642 136.391 125.665 139.272 126.176 142.777C125.985 144.177 125.292 144.93 124.201 145.728C123.923 145.931 123.634 146.114 123.341 146.294C123.162 145.786 122.98 145.28 122.767 144.785C122.121 143.281 121.279 142.004 119.729 141.359C119.781 141.141 119.81 141.077 119.793 140.822C119.677 139.148 116.626 136.68 115.47 135.454C114.075 134.223 112.823 132.91 111.57 131.537Z" fill="#043CA5"/>
<path d="M82.8165 123.213C82.1325 121.959 81.3687 120.715 80.9556 119.344C82.1019 119.248 83.0515 120.021 84.0067 120.598C91.3271 127.164 97.5609 134.659 104.765 141.25C104.606 142.151 104.519 143.17 104.167 144.012C101.701 143.598 85.2785 125.806 82.8165 123.213Z" fill="#0D70D7"/>
<path d="M51.419 102.723C50.0685 102.593 47.8628 102.635 46.8845 101.533C46.1309 100.685 45.74 99.8664 45.911 98.7243C46.0713 97.6539 46.9791 96.6383 47.8956 96.1343C48.6674 95.71 49.6618 95.5204 50.5214 95.812C51.5389 96.158 52.3911 97.0422 52.8491 97.9952C53.2513 98.8324 53.297 100.026 53.393 100.941C58.6956 107.173 64.9416 112.463 70.7249 118.227L68.5007 119.594C62.5826 114.193 57.5764 107.855 51.419 102.723Z" fill="#09AEF5"/>
<path d="M72.1219 293.885C72.8409 293.007 73.7044 292.187 74.4853 291.361C76.2223 293.214 77.9328 295.107 79.7207 296.91C90.077 297.858 100.658 297.816 111.032 297.464L111.272 297.555L110.138 300.915C102.518 298.835 87.3446 300.546 78.6724 300.087C76.5913 297.873 74.5887 295.681 72.1219 293.885Z" fill="#09AEF5"/>
<path d="M64.28 83.6735C60.0912 78.4203 54.5592 71.826 49.0777 67.9486C47.2882 66.6823 43.7889 66.5673 43.2494 64.3251C43.1661 63.9796 43.1545 63.8426 43.1868 63.4873C43.3152 62.0786 44.0903 60.7539 45.2151 59.9259C46.0044 59.3452 46.4328 59.3059 47.4062 59.1946C48.6942 59.9619 49.2632 60.8545 49.6528 62.3053C49.9176 63.2903 49.8741 64.2427 49.8158 65.2455C55.3348 70.6827 68.4838 81.6544 71.7274 87.5845L71.8657 87.8334C71.9442 87.9771 72.0152 88.1249 72.086 88.2724C70.2251 86.6553 69.3696 85.1671 66.8851 84.4262L66.4551 84.9186C66.9757 86.7216 68.3601 88.2052 69.511 89.6612C67.8715 89.0284 65.428 88.4123 64.6698 86.687C64.2574 85.7482 64.2781 84.6745 64.28 83.6735Z" fill="#09AEF5"/>
<path d="M164.982 272.595C166.422 271.979 167.7 271.471 169.267 271.271C169.688 274.477 190.886 294.486 194.49 297.316C195.139 297.825 195.829 298.167 196.649 298.246L196.923 300.571L193.269 300.628C183.909 291.211 174.541 281.812 164.982 272.595Z" fill="#05A0F5"/>
<path d="M73.7135 278.297C82.2626 278.515 90.8323 278.313 99.3741 278.622C103.659 283.276 108.856 290.282 114.479 293.303L113.796 294.665L112.216 295.969C107.654 291.122 102.832 286.5 98.0968 281.822C90.6184 281.283 83.0311 281.365 75.5424 281.243C74.8863 280.296 74.3125 279.28 73.7135 278.297Z" fill="#09AEF5"/>
<path d="M138.273 147.636C137.586 146.424 137.486 146.174 137.505 144.797C139.834 145.676 141.081 148.051 143.155 148.952C148.185 153.087 152.712 158.012 157.35 162.594C162.543 167.724 168.019 172.754 172.884 178.193C172.254 179.041 171.444 179.923 171.111 180.937C168.912 179.112 166.977 176.336 164.887 174.286C155.917 165.494 147.279 156.386 138.273 147.636Z" fill="#043CA5"/>
<path d="M69.511 89.6612C68.3601 88.2052 66.9757 86.7216 66.4551 84.9186L66.8851 84.4262C69.3696 85.1671 70.2251 86.6553 72.086 88.2724C82.8352 99.5007 94.2119 110.226 105.196 121.24C109.407 125.462 114.301 129.661 117.994 134.299C115.79 133.524 110.596 127.389 108.678 125.468C106.796 123.446 104.734 121.539 102.773 119.59C104.063 124.371 109.729 127.169 111.57 131.537C108.551 128.645 105.574 125.754 102.746 122.671C101.164 121.269 99.7341 119.726 98.2848 118.191C96.9034 116.972 95.6536 115.606 94.3822 114.274C86.9016 107.588 77.1766 94.4837 69.511 89.6612Z" fill="#0D70D7"/>
<path d="M85.7513 102.832C87.8944 104.813 89.9785 106.836 92.0321 108.91C93.1935 112.482 96.8059 114.832 98.2848 118.191C96.9034 116.972 95.6536 115.606 94.3822 114.274C92.6442 110.752 88.1443 106.535 85.7513 102.832Z" fill="#045AC6"/>
<path d="M98.2848 118.191C96.8059 114.832 93.1935 112.482 92.0321 108.91C93.5312 110.343 95.3905 111.807 96.628 113.457C98.64 115.37 101.136 117.367 102.773 119.59C104.063 124.371 109.729 127.169 111.57 131.537C108.551 128.645 105.574 125.754 102.746 122.671C101.164 121.269 99.7341 119.726 98.2848 118.191Z" fill="#045AC6"/>
<path d="M134.238 369.99C131.979 369.836 129.14 369.283 127.242 367.957C126.081 367.147 125.278 366.008 125.069 364.592C124.76 362.491 125.75 360.258 127.035 358.673C128.594 356.751 131.005 355.243 133.522 355.034C134.933 354.917 136.297 355.26 137.388 356.22C139.614 358.177 139.885 361.405 140.065 364.138C138.427 366.661 137.015 368.612 134.238 369.99Z" fill="#0137A0" fill-opacity="0.5"/>
<path d="M120.479 241.154C123.423 241.066 126.727 240.978 129.046 243.212C130.507 244.618 130.938 246.598 131.043 248.536C131.044 248.57 131.039 248.604 131.038 248.637C130.823 249.392 130.478 250.245 130.38 251.018C129.45 252.849 128.22 254.171 126.506 255.274C125.219 255.475 123.983 255.879 122.737 256.246C121.067 255.692 119.2 254.929 117.986 253.604C115.993 251.428 116.245 248.616 116.357 245.911C117.761 244.351 119.118 242.751 120.479 241.154Z" fill="#0D70D7"/>
<path d="M71.6034 97.7079C72.8404 97.798 73.8818 97.7648 74.8518 98.6664C75.7359 101.086 76.7148 102.934 78.3728 104.945C80.5669 107.607 105.799 132.729 107.943 133.768C109.427 134.486 111.695 135.101 112.591 136.559C112.873 137.861 112.985 138.55 112.229 139.721C111.632 140.645 110.732 141.533 110.438 142.604L109.104 141.746C108.656 141.242 107.94 140.867 107.408 140.429C106.02 139.284 106.036 137.794 105.88 136.135C97.6811 127.094 88.7859 117.81 79.705 109.676C76.5167 106.82 71.0217 104.114 69.6206 100.025L71.6034 97.7079Z" fill="#0D70D7"/>
<path d="M189.123 310.559C191.765 309.601 194.683 309.024 197.37 310.369C197.502 310.436 197.63 310.51 197.761 310.581L197.26 311.812C198.687 314.222 200.84 318.297 199.964 321.18C199.594 322.4 198.653 323.163 197.538 323.675C195.757 324.493 192.946 323.867 191.563 324.923L191.746 325.986L189.878 325.269L190.28 326.56C189.013 325.9 187.974 325.131 187.025 324.049C185.184 321.954 184.89 319.533 185.011 316.875C186.148 314.364 187.235 312.617 189.123 310.559Z" fill="#0D70D7"/>
<path d="M189.178 316.27C190.491 314.87 191.533 313.809 193.533 313.639C194.762 313.535 195.862 313.899 196.772 314.754C198.485 316.362 198.558 318.349 198.564 320.539C197.126 321.976 195.947 323.145 193.776 323.134C192.528 323.127 191.485 322.627 190.641 321.7C189.11 320.017 189.15 318.406 189.178 316.27Z" fill="#0137A0" fill-opacity="0.5"/>
<path d="M126.559 390.998C127.583 390.469 127.998 390.045 129.201 390.291C137.219 396.833 144.774 405.66 152.124 413.036C154.421 415.341 156.946 418.447 159.626 420.25C170.793 421.886 186.111 420.387 197.957 420.882C198.075 421.876 198.255 422.721 197.85 423.663C184.978 422.911 171.794 423.325 158.902 423.294C148.016 412.64 137.37 401.73 126.559 390.998Z" fill="#0137A0" fill-opacity="0.5"/>
<path d="M257.745 499.783C259.52 495.676 258.225 465.18 257.274 459.439C261.668 456.604 278.984 439.802 281.213 435.571C282.062 436.646 282.575 436.925 282.524 438.315C282 438.799 281.489 439.343 280.871 439.708C280.231 443.271 265.169 457.222 261.639 459.647C261.217 459.933 260.879 460.043 260.387 460.152C261.387 464.232 262.391 497.599 260.899 499.962C260.781 500.151 260.643 500.308 260.504 500.48C260.138 501.047 260.125 501.054 259.485 501.272L257.745 499.783Z" fill="#0137A0" fill-opacity="0.5"/>
<path d="M114.479 293.303C117.154 292.171 119.571 291.417 122.408 292.599C124.696 293.552 126.836 295.264 127.769 297.614C128.572 299.638 128.355 301.946 127.493 303.887C126.418 306.31 124.293 308.31 121.795 309.214C119.845 309.921 117.749 309.927 115.849 308.976C113.157 307.629 111.531 304.938 110.626 302.168C110.526 301.865 110.436 301.559 110.346 301.253L110.138 300.915L111.272 297.555L111.032 297.464L112.216 295.969L113.796 294.665L114.479 293.303Z" fill="#0D84E2"/>
<path d="M112.216 295.969L113.796 294.665L115.222 294.962C117.751 294.487 120.815 294.465 123.09 295.933C123.989 296.513 124.297 297.263 124.63 298.237L124.435 299.538C123.192 298.314 121.978 296.926 120.206 296.551C119.012 296.299 117.55 296.435 116.552 297.156C115.757 297.731 115.286 298.686 115.123 299.64C114.693 302.156 115.838 303.793 117.238 305.802C114.742 305.187 112.44 302.745 110.346 301.253L110.138 300.915L111.272 297.555L111.032 297.464L112.216 295.969Z" fill="#0D70D7"/>
<path d="M112.216 295.969L113.796 294.665L115.222 294.962C114.654 295.817 114.191 296.492 113.322 297.084C112.535 297.01 112.18 297.093 111.477 297.447C111.408 297.482 111.341 297.519 111.272 297.555L111.032 297.464L112.216 295.969Z" fill="#097CDE"/>
<path d="M117.238 305.802C115.838 303.793 114.693 302.156 115.123 299.64C115.286 298.686 115.757 297.731 116.552 297.156C117.55 296.435 119.012 296.299 120.206 296.551C121.978 296.926 123.192 298.314 124.435 299.538C124.124 300.76 123.847 302.363 123.093 303.388C121.709 305.271 119.388 305.402 117.238 305.802Z" fill="#0137A0" fill-opacity="0.5"/>
<path d="M74.9792 124.855C77.6582 126.5 79.9156 128.713 82.4934 130.52C88.2593 135.536 93.5977 141.115 99.0155 146.505C109.862 146.823 121.426 147.873 132.204 147.104C143.791 158.524 155.458 169.868 166.648 181.679C165.519 181.002 164.702 180.142 163.393 180.408L163.45 181.264L131.997 149.757C120.774 149.842 109.273 150.448 98.0988 148.989C96.3322 146.471 93.6065 144.161 91.4133 141.996C85.811 136.469 79.7995 131.082 74.9792 124.855Z" fill="#0137A0" fill-opacity="0.5"/>
<path d="M203.295 443.695C201.039 446.584 202.851 449.304 201.935 452.525C201.538 453.922 200.585 455.059 199.312 455.738C197.844 456.52 196.037 456.513 194.457 456.037C192.244 455.371 190.189 453.901 189.106 451.818C188.342 450.35 188.173 448.328 188.716 446.782C189.244 445.281 190.437 444.226 191.864 443.593C194.888 442.251 196.782 442.507 199.849 443.64L221.839 421.773L225.272 418.128C226.47 416.867 227.695 415.255 229.433 414.796C230.366 414.899 230.978 414.96 231.759 415.514C224.995 422.604 210.543 438.4 203.295 443.695Z" fill="#0137A0" fill-opacity="0.5"/>
<path d="M52.6613 158.395C49.3652 159.603 46.5503 159.887 43.2282 158.387C41.2272 157.484 39.6572 155.977 38.8681 153.914C37.8631 151.287 38.2521 148.25 39.4407 145.784C40.6489 143.277 42.7765 141.179 45.4403 140.279C47.5339 139.572 49.7592 139.813 51.7316 140.84C54.0138 142.027 56.2774 144.287 57.0871 146.765C57.9392 149.375 57.401 151.959 56.4742 154.431C55.1082 155.657 53.8955 157.039 52.6613 158.395Z" fill="#0137A0" fill-opacity="0.5"/>
<path d="M41.4959 146.65C42.1601 145.898 42.842 145.11 43.6079 144.46C44.962 143.311 47.1012 142.705 48.8748 142.928C50.6582 143.152 52.1184 144.145 53.1863 145.58C54.9313 147.924 54.7743 150.287 54.4335 153.022C53.7123 153.858 52.9034 154.695 52.0193 155.362C50.5781 156.448 48.4621 156.927 46.6702 156.637C45.0361 156.372 43.5672 155.43 42.5938 154.087C40.8548 151.688 41.038 149.41 41.4959 146.65Z" fill="#FBF7F5"/>
<path d="M44.8745 148.701C45.1407 148.491 45.4114 148.277 45.6975 148.094C46.8404 147.366 47.5945 147.434 48.8366 147.721C50.0917 148.66 50.4037 149.827 50.8962 151.247C50.6728 151.443 50.4426 151.643 50.1951 151.808C49.0812 152.553 48.1567 152.568 46.8948 152.266C45.6349 151.252 45.342 150.184 44.8745 148.701Z" fill="#05A0F5"/>
<path d="M70.5271 82.9845C70.306 81.6101 70.0523 80.143 70.8109 78.8881C71.3194 78.047 71.9229 77.6521 72.8739 77.4793C73.8606 77.3 75.1549 77.7135 76.0109 78.2029C76.1767 79.6352 76.0671 80.8452 76.9785 82.0125C78.8441 84.4019 81.5293 86.6029 83.6988 88.7365L98.2153 103.061L121.191 126.019C125.384 130.236 129.549 135.069 134.21 138.747C134.258 138.786 134.309 138.821 134.358 138.858L131.615 141.596C119.34 128.383 106.108 115.911 93.4326 103.069C88.3756 97.9451 79.7538 87.7581 74.5082 83.889C73.3335 83.0226 71.9434 83.1376 70.5271 82.9845Z" fill="#0D70D7"/>
<path d="M130.38 251.018C130.478 250.245 130.823 249.392 131.038 248.637C133.092 251.224 134.858 253.421 134.465 256.913C134.324 258.167 134.086 259.433 133.753 260.648L168.015 294.957C173.133 300.148 180.144 309.064 186.024 312.752C187.254 312.255 188.14 311.42 189.123 310.559C187.235 312.617 186.148 314.364 185.011 316.875C179.182 310.621 172.873 304.692 166.822 298.645L131.217 263.059C130.518 263.164 129.754 263.314 129.046 263.291C127.935 263.255 127.498 262.928 126.787 262.165L127.11 261.169C128.222 260.07 129.581 260.075 131.067 259.917C131.599 256.472 131.932 254.322 130.38 251.018Z" fill="#09AEF5"/>
<path d="M57.2409 279.328L59.5551 277.1C62.5372 275.473 65.4926 274.644 68.8852 275.625C70.6256 276.128 72.3212 277.134 73.7135 278.297C74.3125 279.28 74.8863 280.296 75.5424 281.243C76.1243 284.967 76.1637 287.887 74.4853 291.361C73.7044 292.187 72.8409 293.007 72.1219 293.885C71.7803 294.064 71.4378 294.24 71.0904 294.408C68.401 295.71 65.199 296.158 62.3089 295.097C59.8263 294.186 57.8176 292.293 56.7482 289.873C55.1071 286.159 55.8228 282.905 57.2409 279.328Z" fill="#0137A0" fill-opacity="0.5"/>
<path d="M58.7484 282.056C59.5192 281.166 60.3087 280.228 61.2458 279.507C62.9694 278.183 65.3679 277.557 67.5408 277.933C69.3971 278.254 70.9343 279.24 72.023 280.787C73.8323 283.359 73.5597 285.992 73.0136 288.888C72.3032 289.792 71.5741 290.732 70.6516 291.43C68.963 292.706 66.8005 293.422 64.6599 293.088C62.7812 292.796 61.0839 291.643 59.988 290.096C58.1326 287.474 58.299 285.071 58.7484 282.056Z" fill="#EEFDFB"/>
<path d="M61.4173 282.555C61.5108 282.473 61.6023 282.388 61.6977 282.308C63.0375 281.185 64.846 280.371 66.6359 280.576C67.8933 280.72 68.9769 281.352 69.7429 282.373C71.1337 284.227 70.8348 285.953 70.4845 288.044C70.2282 288.285 69.9713 288.522 69.701 288.748C68.3286 289.894 66.5483 290.646 64.7148 290.359C63.5183 290.172 62.4997 289.479 61.8148 288.482C60.4862 286.547 60.9388 284.651 61.4173 282.555Z" fill="#0137A0" fill-opacity="0.5"/>
<path d="M19.4701 241.509C16.6772 242.519 13.3298 243.257 10.4582 241.927C9.23333 241.36 8.34891 240.354 7.88858 239.091C7.12137 236.988 7.36892 234.454 8.3221 232.479C9.30162 230.451 11.0412 228.763 13.2312 228.104C14.8855 227.606 16.5146 227.813 18.0359 228.648C19.7312 229.578 21.2859 231.073 21.8092 232.978C22.3647 235 21.9659 237.189 21.4297 239.157L45.0408 262.863C49.8061 267.644 54.4874 272.645 59.5551 277.1L57.2409 279.328C45.4562 266.146 31.9957 254.023 19.4701 241.509Z" fill="#05A0F5"/>
<path d="M74.2964 245.617C72.3802 247.871 70.0776 250.181 66.998 250.625C65.6523 250.819 64.4021 250.518 63.3236 249.665C61.7952 248.456 61.0117 246.281 60.8193 244.414C60.597 242.254 61.1098 239.854 62.5272 238.186C63.4231 237.131 64.6643 236.471 66.0607 236.384C69.2312 236.189 71.7462 238.46 73.9775 240.429C89.4838 240.437 104.973 240.601 120.479 241.154C119.118 242.751 117.761 244.351 116.357 245.911L74.2964 245.617Z" fill="#09AEF5"/>
<path d="M126.559 390.998C123.92 389.996 121.573 389.134 120.344 386.395C119.427 384.349 119.289 382.124 120.109 380.049C120.817 378.257 122.137 376.732 123.953 376.026C125.421 375.454 127.03 375.53 128.472 376.202C130.71 377.245 159.54 407.32 163.919 411.705C168.836 411.696 173.923 411.409 178.824 411.828C178.74 411.876 178.657 411.927 178.571 411.971C176.16 413.204 167.783 411.927 166.661 413.318C169.174 414.29 173.935 413.69 176.744 413.688C184.893 413.685 217.619 412.718 223.071 414.574C216.498 415.617 208.97 415.093 202.3 415.062C189.087 415.003 175.815 414.875 162.606 414.289C152.648 404.817 143 394.996 133.263 385.297L129.034 389.441C139.036 399.408 150.442 409.607 159.626 420.25C156.946 418.447 154.421 415.341 152.124 413.036C144.774 405.66 137.219 396.833 129.201 390.291C127.998 390.045 127.583 390.469 126.559 390.998Z" fill="#0D70D7"/>
<path d="M122.889 380.567C123.808 380.036 125.173 379.379 126.287 379.49C127.357 379.596 128.111 379.962 128.776 380.836C129.696 382.043 129.47 383.61 129.333 385.002C128.513 385.438 127.218 385.982 126.274 385.949C125.177 385.91 124.441 385.574 123.711 384.735C122.76 383.644 122.892 381.908 122.889 380.567Z" fill="#FBF7F5"/>
<path d="M185.117 370.175C210.041 369.824 234.987 370.183 259.921 370.715C271.837 370.97 284.192 370.568 296.036 371.75C299.028 374.714 301.529 377.5 301.53 381.975C301.526 384.597 300.479 387.047 298.617 388.864C296.354 391.081 293.122 392.046 289.979 391.961C288.533 391.919 287.147 391.642 285.741 391.307L282.317 388.059C261.043 387.087 239.48 388.496 218.254 386.513L217.167 384.519C238.846 384.888 260.836 384.532 282.475 385.908C284.681 387.923 286.688 389.574 289.759 389.816C292.336 390.02 294.743 389.217 296.651 387.504C298.467 385.876 299.724 383.404 299.825 380.939C299.899 379.111 299.327 377.26 298.057 375.892C296.366 374.069 293.899 373.272 291.508 372.965C287.409 372.439 283.072 372.835 278.943 372.839C272.769 372.845 266.581 372.681 260.405 372.587C235.204 372.201 209.991 371.942 184.793 371.162L185.117 370.175Z" fill="#0137A0" fill-opacity="0.5"/>
<path d="M224.65 321.834C225.27 318.099 225.967 315.324 229.243 313.029C231.442 311.488 234.282 310.9 236.948 311.384C239.615 311.868 242.027 313.374 243.54 315.651C245.492 318.587 245.361 321.117 245.068 324.46L245.049 324.658C254.733 325.037 264.442 324.945 274.116 325.421C271.957 323.131 269.543 320.862 267.62 318.381C270.855 321.195 273.687 324.267 276.214 327.731C273.599 327.264 270.347 327.598 267.652 327.544C259.92 327.388 252.129 327.416 244.42 326.656C243.403 327.847 242.385 329.097 241.036 329.925C238.552 331.451 235.354 332.145 232.478 331.349C229.026 330.394 226.871 327.853 225.168 324.846L224.65 321.834Z" fill="#0D70D7"/>
<path d="M229.489 319.483C230.906 317.989 232.76 315.905 235.018 315.934C237.266 315.961 238.693 317.747 240.129 319.245L240.164 323.762C238.548 325.53 237.269 326.628 234.756 326.751C233.416 326.816 232.154 326.268 231.209 325.316C229.621 323.715 229.505 321.588 229.489 319.483Z" fill="#043CA5"/>
<path d="M150.365 343.027C149.063 346.092 147.038 348.724 143.879 350.021C141.169 351.134 138.094 350.933 135.388 349.806C132.299 348.52 129.763 346.043 128.464 342.952C127.368 340.344 127.262 337.409 128.371 334.823C132.268 325.738 137.81 329.727 142.354 327.752C142.415 327.726 142.474 327.694 142.533 327.665L151.555 336.62C151.328 339.023 151.662 340.224 153.065 342.198C152.19 341.735 152.047 341.509 151.06 341.713L150.365 343.027Z" fill="#05A0F5"/>
<path d="M131.952 334.864C132.942 333.796 133.981 332.782 135.276 332.083C137.284 330.999 139.929 330.786 142.114 331.512C144.216 332.211 145.91 333.724 146.883 335.714C148.21 338.428 147.709 340.798 146.793 343.513C145.83 344.513 144.786 345.511 143.564 346.19C141.618 347.27 139.026 347.663 136.849 347.045C134.749 346.448 133.07 345.071 132.048 343.142C130.545 340.301 131.057 337.762 131.952 334.864Z" fill="#FBF7F5"/>
<path d="M133.625 337.072C133.976 336.679 134.329 336.29 134.697 335.913C136.039 334.538 137.673 333.598 139.669 333.641C140.934 333.669 142.108 334.198 142.981 335.13C144.765 337.037 144.793 339.091 144.74 341.551C144.27 342.102 143.793 342.648 143.286 343.165C142.148 344.327 140.615 345.026 138.958 344.991C137.506 344.961 136.237 344.341 135.268 343.26C133.615 341.419 133.557 339.41 133.625 337.072Z" fill="#1FC4F8"/>
<path d="M150.365 343.027L151.06 341.713C152.047 341.509 152.19 341.735 153.065 342.198C156.418 345.969 170.416 358.224 171.676 361.397C172.633 362.271 173.391 362.779 174.69 362.95C185.076 364.313 196.342 363.506 206.827 363.683L264.777 364.726C276.372 364.939 288.105 364.778 299.672 365.7C303.713 369.665 308.419 374.755 308.496 380.759C308.515 382.181 308.342 383.284 307.377 384.372C307.024 386.439 306.868 388.499 305.003 389.76C304.694 389.972 304.199 389.986 303.818 389.925C303.55 389.881 303.443 389.832 303.206 389.744C303.492 389.563 303.756 389.357 304.005 389.128C305.687 387.556 306.577 384.529 306.593 382.258C306.633 376.456 302.954 371.937 299.143 367.979C276.754 366.594 254.112 366.915 231.7 366.593C212.396 366.316 192.802 365.299 173.524 365.819C169.536 363.368 154.724 347.398 150.365 343.027Z" fill="#043CA5"/>
<path d="M75.5424 281.243C83.0311 281.365 90.6184 281.283 98.0968 281.822C102.832 286.5 107.654 291.122 112.216 295.969L111.032 297.464C100.658 297.816 90.077 297.858 79.7207 296.91C77.9328 295.107 76.2223 293.214 74.4853 291.361C76.1637 287.887 76.1243 284.967 75.5424 281.243Z" fill="#FBF7F5"/>
<path d="M163.45 181.264L163.393 180.408C164.702 180.142 165.519 181.002 166.648 181.679L169.701 184.531C175.88 184.524 182.066 184.581 188.242 184.498C188.49 177.953 189.227 170.682 187.153 164.331C186.144 162.953 185.525 162.603 185.682 160.878C187.17 162.269 188.695 163.635 190.112 165.099C190.312 171.995 190.554 178.895 190.627 185.792C209.595 204.758 402.92 397.216 403.749 399.317C401.664 398.498 400.162 396.732 398.223 395.58C390.463 388.457 383.174 380.564 375.721 373.096L190.037 187.022C182.853 186.671 175.66 186.558 168.473 186.4L163.45 181.264Z" fill="#043CA5"/>
<path d="M215.044 469.013C216.687 468.916 221.946 466.652 223.218 465.536C225.164 466.761 227.366 467.546 229.591 468.037C229.864 467.978 230.128 467.902 230.385 467.795C234.089 466.248 272.588 426.884 273.631 423.679C277.298 425.013 281.392 424.102 285.21 424.559C287.07 424.784 289.805 425.629 290.903 427.311C291.283 427.893 291.427 428.528 291.315 429.192C291.024 430.945 289.554 432.116 288.215 433.11C287.578 433.215 287.032 433.456 286.445 433.113C284.794 432.146 284.237 429.644 283.725 427.967L282.259 427.237L281.77 427.622C279.458 428.134 277.158 427.544 274.962 426.765C274.802 427.334 274.566 427.934 274.246 428.429C271.4 432.873 234.696 469.779 231.595 470.372C232.483 472.303 232.997 474.589 232.836 476.699C232.632 479.404 231.27 481.903 229.164 483.574C226.913 485.351 223.943 486.099 221.089 485.679C218.741 485.331 216.68 484.124 215.293 482.172C212.102 477.678 214.312 473.988 215 469.323L215.044 469.013Z" fill="#0137A0" fill-opacity="0.5"/>
<path d="M215.904 472.622C219.198 471.518 220.787 468.954 224.871 469.112C226.127 469.162 227.206 469.649 228.047 470.601C229.082 471.775 230.206 474.269 230.094 475.842C230.006 477.093 229.669 477.313 228.797 478.087C228.974 479.138 228.844 480.067 228.209 480.943C227.29 482.212 226.053 482.975 224.481 483.19C222.767 483.422 220.982 482.68 219.673 481.587C216.603 479.024 216.211 476.356 215.904 472.622Z" fill="#FBF7F5"/>
<path d="M153.065 342.198C151.662 340.224 151.328 339.023 151.555 336.62L175.21 360.152C204.671 361.216 234.122 360.944 263.583 361.47C278.269 361.732 293.137 361.743 307.775 363.187C311.599 366.462 314.881 370.508 318.523 374.005C317.98 377.375 312.873 382.553 310.09 384.433C309.57 384.784 308.997 385.045 308.411 385.267C307.957 384.994 307.673 384.817 307.377 384.372C308.342 383.284 308.515 382.181 308.496 380.759C308.419 374.755 303.713 369.665 299.672 365.7C288.105 364.778 276.372 364.939 264.777 364.726L206.827 363.683C196.342 363.506 185.076 364.313 174.69 362.95C173.391 362.779 172.633 362.271 171.676 361.397C170.416 358.224 156.418 345.969 153.065 342.198Z" fill="#FBF7F5"/>
<path d="M129.082 311.477L129.573 311.343L129.881 311.135C131.269 310.187 132.285 308.572 133.932 308.456C134.675 309.003 135.419 309.548 136.153 310.107L178.037 352.01C183.783 352.939 189.752 352.663 195.546 352.661L218.875 352.744L298.372 354.323C299.665 354.599 300.379 354.857 301.417 355.738L301.855 356.694L301.487 357.352C294.731 356.642 287.719 356.781 280.928 356.589C267.986 356.223 255.058 355.911 242.115 355.843L241.814 358.072L176.281 357.467L171.864 353.132C168.592 351.41 165.378 347.389 162.713 344.744C159.422 341.477 133.004 314.107 131.537 313.567C131.299 313.48 130.738 313.532 130.464 313.52L130.189 314.126C130.796 315.132 131.481 316.032 132.209 316.952L129.961 315.124C129.73 314.782 129.492 314.435 129.302 314.07C128.664 312.846 128.645 312.712 129.082 311.477Z" fill="#0137A0" fill-opacity="0.5"/>
<path d="M171.864 353.132C166.923 348.031 132.626 315.285 132.141 312.002C132.703 311.775 132.99 311.564 133.608 311.819C136.885 313.17 171.39 349.124 177.243 355.062L217.615 355.448C225.81 355.508 233.924 355.216 242.115 355.843L241.814 358.072L176.281 357.467L171.864 353.132Z" fill="#05A0F5"/>
<path d="M291.648 460.111C292.099 461.915 291.675 463.618 290.835 465.206C289.637 467.475 287.839 469.215 285.332 469.942C282.971 470.621 280.447 470.254 278.31 469C275.825 467.542 274.026 465.034 273.359 462.252C272.784 459.858 273.084 457.388 274.398 455.32C278.128 449.434 281.433 452.982 286.141 451.873C286.206 451.86 286.267 451.838 286.33 451.82C286.588 451.744 286.842 451.659 287.081 451.537C291.327 449.37 333.599 406.052 338.826 399.877C339.598 398.961 340.153 398.14 340.475 396.973C341.747 397.923 343.17 398.846 344.196 400.054L344.834 400.689L348.061 403.952C347.58 404.128 298.587 454.056 291.648 460.111Z" fill="#09AEF5"/>
<path d="M276.15 457.258C277.733 456.929 279.225 455.547 280.136 454.272C283.269 455.115 284.75 454.609 287.561 456.845C288.65 457.711 289.325 458.771 289.52 460.154C289.199 461.404 289.005 462.189 287.955 463.038C287.96 463.104 287.97 463.173 287.978 463.243C288.074 464.387 287.639 465.167 286.91 466.013C286.101 466.958 285.123 467.468 283.849 467.521C281.924 467.594 280.246 466.622 278.877 465.334C276.323 462.932 276.241 460.519 276.15 457.258Z" fill="#FBF7F5"/>
<path d="M132.209 316.952C131.481 316.032 130.796 315.132 130.189 314.126L130.464 313.52C130.738 313.532 131.299 313.48 131.537 313.567C133.004 314.107 159.422 341.477 162.713 344.744C165.378 347.389 168.592 351.41 171.864 353.132L176.281 357.467L241.814 358.072L242.115 355.843C255.058 355.911 267.986 356.223 280.928 356.589C287.719 356.781 294.731 356.642 301.487 357.352L301.528 359.434C303.262 359.656 305.492 359.662 306.704 361.082C307.242 361.712 307.581 362.393 307.775 363.187C293.137 361.743 278.269 361.732 263.583 361.47C234.122 360.944 204.671 361.216 175.21 360.152L151.555 336.62L142.533 327.665L136.241 321.406L119.232 338.445C119.317 345.385 121.052 370.557 117.121 375.359C116.346 376.307 115.283 376.97 114.026 377.026C112.833 377.079 111.272 376.591 110.435 375.703C106.195 371.198 107.902 351.258 108.125 345.125C116.552 336.989 125.941 328.754 133.39 319.745C133.519 318.506 132.878 317.972 132.209 316.952Z" fill="#043CA5"/>
<path d="M242.115 355.843C255.058 355.911 267.986 356.223 280.928 356.589C287.719 356.781 294.731 356.642 301.487 357.352L301.528 359.434C281.621 359.099 261.718 358.746 241.814 358.072L242.115 355.843Z" fill="#09AEF5"/>
<path d="M114.745 342.643C115.292 342.031 115.366 341.925 116.195 341.691C117.006 343.453 116.637 371.208 115.938 373.795C115.491 373.881 115.007 373.991 114.55 373.985C113.625 373.973 113.024 373.783 112.412 373.079C109.35 369.553 110.666 351.516 111.126 346.327L114.745 342.643Z" fill="#FBF7F5"/>
<path d="M16.3541 162.836C14.6159 163.245 12.854 163.577 11.0518 163.469C8.66 163.326 6.5343 162.426 4.92584 160.604C3.25949 158.716 2.0856 156.165 2.26675 153.63C2.44443 151.145 3.76036 148.942 5.63227 147.368C7.83911 145.511 10.8613 144.531 13.7659 144.83C15.9934 145.058 18.0394 146.033 19.4351 147.84C21.7644 150.856 21.5055 154.798 21.0754 158.314L67.6916 205.261C85.7301 205.637 103.78 205.662 121.817 205.669C129.19 205.672 142.166 204.733 148.972 206.2C148.109 206.771 147.273 207.365 146.44 207.979L145.369 209.898L145.075 209.934L144.233 211.374C137.78 212.825 118.024 211.516 110.373 211.471L85.5153 211.41C78.7458 211.435 71.3454 212.131 64.6999 210.694C57.7824 204.915 51.457 198.159 45.0952 191.771L16.3541 162.836Z" fill="#0137A0" fill-opacity="0.5"/>
<path d="M5.76139 151.222C6.31028 150.56 6.87257 149.881 7.50555 149.299C8.82752 148.084 10.9603 147.36 12.7641 147.514C14.382 147.651 15.8511 148.493 16.884 149.742C18.7163 151.959 18.6431 154.151 18.4033 156.857C17.8054 157.514 17.1985 158.182 16.5204 158.758C14.9393 160.101 12.8006 160.854 10.7002 160.59C9.12233 160.393 7.764 159.575 6.82387 158.283C5.21104 156.065 5.39957 153.775 5.76139 151.222Z" fill="#FBF7F5"/>
<path d="M9.05303 153.274C9.27905 153.078 9.50638 152.887 9.749 152.711C10.7935 151.953 11.6234 151.584 12.9256 151.814C14.3173 152.563 14.8157 153.717 15.5249 155.06C14.1743 156.167 13.1841 156.68 11.4309 156.562C10.0979 155.725 9.68025 154.653 9.05303 153.274Z" fill="#05A0F5"/>
<path d="M66.1894 209.088L28.951 171.94C26.1792 169.142 22.9932 166.746 20.2992 163.876C19.5957 163.127 18.8574 162.305 18.5512 161.307C18.3885 160.776 18.4741 160.717 18.7095 160.237C22.1036 160.86 61.0028 201.68 67.1345 207.565L120.777 207.595C129.162 207.654 138.124 207.136 146.44 207.979L145.369 209.898L145.075 209.934L66.1894 209.088Z" fill="#0D70D7"/>
<path d="M52.6613 158.395C53.8955 157.039 55.1082 155.657 56.4742 154.431L90.5235 188.539C106.471 189.352 122.431 189.09 138.383 189.698L121.866 173.136C114.2 172.999 106.283 172.486 98.65 173.008C95.6211 173.215 92.1307 175.21 89.2583 174.942C87.7238 174.8 86.3521 174.132 85.2821 173.009C84.0613 171.728 83.3263 170.039 83.3852 168.272C83.4489 166.351 84.3885 164.531 85.8026 163.268C86.9673 162.228 88.7184 161.486 90.3166 161.614C93.3906 161.861 94.081 165.074 96.7679 165.404C105.885 166.524 115.599 165.817 124.793 165.896L177.851 219.214C182.457 219.117 192.794 217.851 196.342 221.115C196.739 221.48 197.203 222.03 197.441 222.508C197.144 222.501 196.902 222.494 196.619 222.59C195.446 222.985 195.026 223.909 194.539 224.937C187.509 225.088 180.486 224.947 173.452 224.81L142.344 193.672C123.928 192.914 105.379 192.974 86.9514 192.634C75.6524 181.125 64.4843 169.369 52.6613 158.395Z" fill="#09AEF5"/>
<path d="M146.44 207.979C147.273 207.365 148.109 206.771 148.972 206.2C152.681 208.338 162.047 219.024 165.624 222.607L211.317 268.281C221.588 268.784 231.939 268.937 242.214 268.837L364.592 391.663L394.959 422.067C400.309 427.396 407.069 432.829 411.285 439.053C411.961 440.234 412.558 440.865 412.483 442.233C411.499 442.509 411.245 442.457 410.234 442.222C405.867 438.344 402.15 433.695 397.52 430.127C391.181 424.37 385.261 418.006 379.211 411.941L346.211 378.908L242.056 274.901C231.005 276.378 219.221 275.197 208.074 274.706L167.086 233.696C159.861 226.383 152.656 217.242 144.233 211.374L145.075 209.934L145.369 209.898L146.44 207.979Z" fill="url(#paint0_linear_491_1600)"/>
<path d="M18.7008 87.6076C17.0697 87.8577 15.4533 88.0878 13.7934 87.997C11.0451 87.8468 8.05631 87.1581 6.15312 84.985C4.65607 83.2756 4.11349 80.9235 4.25769 78.7145C4.46308 75.567 5.98709 72.5548 8.3796 70.5358C10.1675 69.0271 12.5911 68.0511 14.975 68.3262C17.6844 68.6389 20.2108 70.3901 21.8582 72.5351C24.1776 75.5555 23.7599 79.0491 23.2944 82.5301L94.5696 153.549C106.837 154.089 119.16 153.821 131.426 153.768L179.197 201.638C185.266 201.902 191.281 201.912 197.349 201.823C199.442 205.007 204.989 208.697 206.171 211.67L205.853 212.296C207.357 213.881 208.961 215.443 210.133 217.295L210.327 217.608L210.198 217.356L209.578 218.004L209.832 217.371C205.258 213.527 201.058 209.153 196.786 204.974C191.591 205.804 181.11 206.937 176.411 204.553L176.849 206.383L176.169 206.383C176.491 207.017 176.804 207.653 177.178 208.259C181.803 208.379 186.442 208.424 191.064 208.651L192.312 210.693C186.916 210.705 181.561 210.56 176.168 210.275L126.287 160.278C114.651 160.006 103.003 160.061 91.3678 160.01L18.7008 87.6076Z" fill="#0137A0" fill-opacity="0.5"/>
<path d="M52.6909 117.979C47.3934 113.104 23.7062 90.9308 21.6558 85.9739L22.0961 85.6493C24.9665 87.165 80.8341 141.829 82.9889 145.193C81.3494 144.446 47.7307 111.128 43.3002 107.141L43.198 107.382C46.1746 111.12 49.5393 114.405 52.6909 117.979Z" fill="#0D70D7"/>
<path d="M8.0421 74.2312C8.77788 73.5521 9.65376 72.8731 10.525 72.3794C12.0235 71.5304 14.0099 71.2577 15.6913 71.7148C17.3811 72.174 18.7606 73.3143 19.6174 74.8376C21.0334 77.355 20.5932 79.6518 19.882 82.2813C19.0522 82.9617 18.2099 83.6884 17.2882 84.2417C15.8014 85.1355 13.5833 85.3755 11.9058 84.9139C10.3093 84.4745 9.01722 83.3916 8.21802 81.9451C6.75593 79.2984 7.24613 76.9678 8.0421 74.2312Z" fill="#FBF7F5"/>
<path d="M10.8837 77.4137C11.1227 77.2241 11.3633 77.0381 11.6195 76.8715C12.6456 76.2026 13.5574 75.8755 14.7773 76.166C16.046 76.8513 16.4675 78.0097 17.0501 79.2479C15.8503 80.0904 14.6357 80.7788 13.1177 80.5247C11.8365 79.8863 11.435 78.6436 10.8837 77.4137Z" fill="#045AC6"/>
<path d="M126.845 157.853C127.584 157.591 128.661 156.99 129.404 157.326C132.924 158.917 174.493 200.829 176.411 204.553L176.849 206.383L176.169 206.383C176.491 207.017 176.804 207.653 177.178 208.259C170.756 203.346 165.326 196.724 159.642 190.965L126.845 157.853Z" fill="#0D84E2"/>
<path d="M52.6909 117.979C49.5393 114.405 46.1746 111.12 43.198 107.382L43.3002 107.141C47.7307 111.128 81.3494 144.446 82.9889 145.193L93.6552 155.779C105.951 156.434 118.473 155.965 130.783 155.863L178.544 203.803C184.668 203.605 190.905 204.016 196.995 203.564L205.853 212.296C207.357 213.881 208.961 215.443 210.133 217.295L210.327 217.608L210.198 217.356L209.578 218.004L209.832 217.371C205.258 213.527 201.058 209.153 196.786 204.974C191.591 205.804 181.11 206.937 176.411 204.553C174.493 200.829 132.924 158.917 129.404 157.326C128.661 156.99 127.584 157.591 126.845 157.853C117.802 159.069 102.089 157.929 92.4118 157.739L52.6909 117.979Z" fill="#05A0F5"/>
<path d="M146.625 235.192C146.589 234.309 147.044 233.352 147.327 232.527L160.161 245.365C164.966 245.61 169.019 246.055 172.492 249.842C174.936 252.507 176.437 255.902 178.838 258.591C186.832 267.546 195.96 275.894 204.443 284.416C216.166 284.268 228.002 284.113 239.724 284.718L267.154 312.158C270.936 315.94 275.433 319.657 278.864 323.726C279.746 324.771 280.013 325.23 280.185 326.583C279.57 327.635 279.32 327.725 278.22 328.289C277.521 328.159 276.852 328.069 276.214 327.731C273.687 324.267 270.855 321.195 267.62 318.381C261.564 313.419 256.019 307.025 250.431 301.49C235.984 300.718 221.505 300.629 207.051 300.497C203.743 300.771 200.254 300.564 196.923 300.571L196.649 298.246C195.829 298.167 195.139 297.825 194.49 297.316C190.886 294.486 169.688 274.477 169.267 271.271C167.7 271.471 166.422 271.979 164.982 272.595C163.405 272.79 161.812 272.795 160.234 272.521C156.747 271.915 153.529 269.803 151.547 266.859C149.048 263.148 148.907 259.216 149.739 255.004C150.407 253.854 150.969 252.65 151.544 251.45C153.436 249.369 155.432 247.779 157.803 246.282C154.114 242.548 150.364 238.876 146.625 235.192Z" fill="#0137A0" fill-opacity="0.5"/>
<path d="M176.684 260.883L177.243 260.542C178.987 260.992 198.602 281.566 200.911 284.193L200.82 284.719L199.281 284.845L194.985 285.25C188.59 278.532 181.925 272.067 175.33 265.546L176.684 260.883Z" fill="#FBF7F5"/>
<path d="M153.248 253.261C154.815 251.521 156.264 249.947 158.467 249.027C161.387 247.808 164.626 247.758 167.575 249.037C170.244 250.193 172.434 252.43 173.473 255.152C174.849 258.754 174 261.843 172.514 265.179C171.277 266.519 169.825 267.862 168.194 268.7C165.395 270.138 162.075 270.517 159.047 269.459C156.427 268.544 154.184 266.587 152.992 264.068C151.194 260.27 151.926 256.975 153.248 253.261Z" fill="#FBF7F5"/>
<path d="M155.396 254.891C156.333 253.845 157.336 252.798 158.558 252.083C160.554 250.915 163.04 250.506 165.307 251.115C167.324 251.656 169.037 253.041 170.077 254.85C171.79 257.826 171.281 260.432 170.396 263.538C169.517 264.44 168.5 265.383 167.428 266.048C165.472 267.261 162.707 267.709 160.459 267.091C158.508 266.555 156.886 265.259 155.866 263.513C154.167 260.607 154.627 257.978 155.396 254.891Z" fill="#043CA5"/>
<path d="M157.526 255.935C158.032 255.451 158.576 255.016 159.151 254.615C160.688 253.543 162.518 253.051 164.397 253.452C165.754 253.742 166.918 254.628 167.674 255.785C169.03 257.857 168.714 259.908 168.218 262.173C167.941 262.443 167.661 262.689 167.357 262.928C165.66 264.263 163.909 265.184 161.665 264.806C160.335 264.582 159.182 263.711 158.404 262.625C156.857 260.464 157.169 258.407 157.526 255.935Z" fill="#05A0F5"/>
<path d="M169.267 271.271C170.691 270.323 172.1 269.377 173.448 268.324L193.579 288.459C208.46 288.47 223.368 288.23 238.24 289.237L248.355 299.234C234.797 298.598 221.088 297.857 207.538 298.34L207.051 300.497C203.743 300.771 200.254 300.564 196.923 300.571L196.649 298.246C195.829 298.167 195.139 297.825 194.49 297.316C190.886 294.486 169.688 274.477 169.267 271.271Z" fill="#FBF7F5"/>
<path d="M196.649 298.246C200.275 298.185 203.914 298.059 207.538 298.34L207.051 300.497C203.743 300.771 200.254 300.564 196.923 300.571L196.649 298.246Z" fill="#043CA5"/>
<path d="M143.379 356.721L151.45 348.614C158.44 355.273 165.281 361.821 171.516 369.212C175.927 370.109 180.639 370.015 185.117 370.175L184.793 371.162C209.991 371.942 235.204 372.201 260.405 372.587C266.581 372.681 272.769 372.845 278.943 372.839C283.072 372.835 287.409 372.439 291.508 372.965C293.899 373.272 296.366 374.069 298.057 375.892C299.327 377.26 299.899 379.111 299.825 380.939C299.724 383.404 298.467 385.876 296.651 387.504C294.743 389.217 292.336 390.02 289.759 389.816C286.688 389.574 284.681 387.923 282.475 385.908C260.836 384.532 238.846 384.888 217.167 384.519L218.254 386.513C203.031 386.572 187.805 386.227 172.58 385.933C162.713 376.327 153.049 366.524 143.379 356.721Z" fill="#043CA5"/>
<path d="M287.282 380.303C288.295 379.255 288.934 378.663 290.384 378.271C291.507 378.493 292.11 378.585 292.77 379.659C293.213 380.38 293.253 381.541 293.281 382.364C292.144 383.293 291.552 383.709 290.02 383.747C289.044 383.366 288.268 383.005 287.787 382.018C287.535 381.503 287.41 380.849 287.282 380.303Z" fill="#FBF7F5"/>
<path d="M150.126 352.18C150.621 352.063 151.427 351.705 151.862 351.973C156.241 354.671 170.884 370.739 175.348 375.46L250.773 376.773C261.853 376.942 273.369 376.409 284.394 377.22C285.309 377.287 285.955 377.444 286.676 378.076C286.977 378.841 287.194 379.486 287.282 380.303C286.762 380.775 286.288 381.051 285.581 381.126C281.653 381.54 277.389 381.183 273.422 381.133L247.772 380.68C223.473 380.212 199.161 380.059 174.868 379.153C170.978 375.316 151.39 357.207 150.068 353.66L150.126 352.18Z" fill="#FBF7F5"/>
<path d="M172.541 383.614C168.002 379.158 147.124 360.113 146.89 355.98L147.874 355.603C148.811 355.641 149.485 355.869 150.234 356.43C153.756 359.07 156.763 362.892 159.828 366.05C164.646 371.017 169.611 375.853 174.521 380.729C186.382 381.725 198.334 381.612 210.216 381.779L261.045 382.713C268.898 382.906 277.304 381.785 285.044 383.059C286.974 383.377 287.571 384.631 289.173 385.38C290.218 385.869 291.539 385.788 292.579 385.359C293.692 384.896 294.494 383.866 294.91 382.755C295.327 381.63 295.317 380.166 294.794 379.065C294.099 377.609 292.594 376.873 291.107 376.516C280.747 374.027 264.901 375.046 253.878 374.936L202.404 374.274C193.064 374.183 182.224 374.994 173.206 372.117C177.032 371.151 180.861 371.181 184.793 371.162C209.991 371.942 235.204 372.201 260.405 372.587C266.581 372.681 272.769 372.845 278.943 372.839C283.072 372.835 287.409 372.439 291.508 372.965C293.899 373.272 296.366 374.069 298.057 375.892C299.327 377.26 299.899 379.111 299.825 380.939C299.724 383.404 298.467 385.876 296.651 387.504C294.743 389.217 292.336 390.02 289.759 389.816C286.688 389.574 284.681 387.923 282.475 385.908C260.836 384.532 238.846 384.888 217.167 384.519C202.281 384.454 187.417 384.52 172.541 383.614Z" fill="#EEFDFB"/>
<path d="M16.7778 198.579C16.3962 198.738 16.0142 198.894 15.6263 199.039C12.5711 200.173 8.95811 200.409 5.92167 198.932C3.42938 197.721 2.13914 195.581 1.24202 193.06C0.272101 190.335 0.00880264 187.382 1.31856 184.757C2.48805 182.413 4.70557 180.814 7.17346 180.039C10.1889 179.092 13.6426 179.474 16.4397 181.01C18.6209 182.208 20.4431 184.17 21.0953 186.602C22.0803 190.277 20.5143 193.486 18.6943 196.517L45.4054 223.293C46.9793 222.361 48.7747 221.225 50.6278 220.967C53.9016 220.51 57.7861 221.706 61.1663 221.678L109.005 221.67C116.125 221.731 123.726 222.543 130.769 222.036C132.393 221.919 133.93 221.171 135.463 220.685C137.87 219.921 140.109 219.885 142.41 221.135C144.834 222.452 146.847 225.022 147.631 227.649C148.123 229.299 148.157 231.009 147.327 232.527C147.044 233.352 146.589 234.309 146.625 235.192C150.364 238.876 154.114 242.548 157.803 246.282C155.432 247.779 153.436 249.369 151.544 251.45C150.969 252.65 150.407 253.854 149.739 255.004C143.361 248.176 137.051 242.232 129.492 236.726C114.636 236.281 99.7871 236.811 84.9372 236.471C77.1403 236.292 69.2979 234.691 61.5217 235.559C59.6092 237.18 57.7625 238.897 55.8894 240.564C53.4727 241.199 51.18 241.34 48.7545 240.513C46.3914 239.708 44.4838 238.088 43.3687 235.838C41.5902 232.249 42.306 228.878 43.5003 225.327L16.7778 198.579Z" fill="#09AEF5"/>
<path d="M139.86 240.438C142.933 239.283 144.779 237.91 146.625 235.192C150.364 238.876 154.114 242.548 157.803 246.282C155.432 247.779 153.436 249.369 151.544 251.45C147.575 250.469 142.585 243.529 139.86 240.438Z" fill="#FBF7F5"/>
<path d="M45.8237 227.451C46.5949 226.53 47.3964 225.608 48.4644 225.021C50.1756 224.081 52.4397 223.797 54.3393 224.346C56.1824 224.879 57.7553 226.187 58.6455 227.89C59.8745 230.24 59.4013 232.273 58.6596 234.661C57.986 235.418 57.2255 236.177 56.3901 236.759C54.9207 237.782 52.7605 238.175 50.9931 237.843C49.1569 237.498 47.6613 236.388 46.6181 234.851C44.9923 232.455 45.2926 230.124 45.8237 227.451Z" fill="#FBF7F5"/>
<path d="M47.8627 228.646C47.9135 228.59 47.964 228.533 48.0155 228.477C49.2396 227.154 50.8968 225.985 52.8 226.038C54.0539 226.072 55.198 226.525 56.0709 227.458C57.5915 229.084 57.5959 230.99 57.4928 233.067C56.8922 233.669 56.2748 234.308 55.5757 234.797C54.2595 235.718 52.6049 236.056 51.0129 235.737C49.794 235.492 48.7572 234.823 48.1183 233.73C47.0843 231.961 47.2863 230.5 47.8627 228.646Z" fill="#0D84E2"/>
<path d="M4.58005 185.581C5.34731 184.692 6.12953 183.863 7.15657 183.269C8.79516 182.322 10.9556 182.09 12.7849 182.628C14.6878 183.188 16.1843 184.451 17.1488 186.183C18.5274 188.659 18.1279 190.885 17.3733 193.452C16.622 194.308 15.8589 195.195 14.8815 195.801C13.2342 196.821 11.0178 197.195 9.11579 196.715C7.18117 196.225 5.66267 194.908 4.68922 193.185C3.22529 190.592 3.79534 188.252 4.58005 185.581Z" fill="#FBF7F5"/>
<path d="M6.30807 187.026C6.80414 186.494 7.32278 185.92 7.9281 185.511C9.16341 184.676 10.7141 184.399 12.1782 184.736C13.4309 185.023 14.4985 185.791 15.1815 186.885C16.1945 188.507 16.1338 190.038 15.6918 191.805C14.9593 192.61 14.1458 193.605 13.1527 194.085C11.8828 194.699 10.1349 194.801 8.80551 194.27C7.67562 193.819 6.72788 192.877 6.23074 191.772C5.44107 190.017 5.72342 188.771 6.30807 187.026Z" fill="#05A0F5"/>
<path d="M131.446 226.238C132.563 225.156 133.629 224.081 135.134 223.562C137.149 222.867 139.453 222.995 141.391 223.94C142.99 224.719 144.293 226.086 144.861 227.78C145.686 230.241 145.196 232.082 144.063 234.3C143.303 235.213 142.462 236.357 141.382 236.9C139.534 237.829 136.947 237.91 135.007 237.155C133.12 236.42 131.601 234.917 130.828 233.044C129.822 230.607 130.49 228.528 131.446 226.238Z" fill="#FBF7F5"/>
<path d="M132.91 227.934C133.117 227.724 133.327 227.519 133.552 227.327C134.905 226.171 136.692 225.19 138.555 225.464C139.801 225.648 140.887 226.301 141.639 227.327C142.944 229.107 142.747 230.92 142.543 232.985C142.374 233.152 142.205 233.321 142.023 233.476C140.567 234.718 138.945 235.658 136.941 235.41C135.723 235.258 134.735 234.649 133.979 233.687C132.53 231.844 132.703 230.111 132.91 227.934Z" fill="#0D84E2"/>
<path d="M61.4757 227.163C65.8298 226.42 76.5374 227.236 81.5907 227.252L109.476 227.3C115.153 227.301 121.108 226.936 126.748 227.702C127.891 228.476 127.854 229.063 128.222 230.341C126.215 231.734 70.6629 230.831 63.4434 230.266C62.2505 229.587 61.9569 228.375 61.4757 227.163Z" fill="#FBF7F5"/>
<path d="M176.849 206.383L176.411 204.553C181.11 206.937 191.591 205.804 196.786 204.974C201.058 209.153 205.258 213.527 209.832 217.371L209.578 218.004L210.198 217.356L210.327 217.608L210.133 217.295C208.961 215.443 207.357 213.881 205.853 212.296L206.171 211.67C204.989 208.697 199.442 205.007 197.349 201.823C205.917 208.283 212.858 216.796 220.396 224.369L371.532 375.479C376.315 380.258 381.34 384.938 385.885 389.943C394.941 398.517 403.562 407.63 412.388 416.447C420.086 424.138 428.178 431.663 435.542 439.663L501.873 505.845C503.091 509.019 503.845 522.381 502.515 525.614C502.134 525.71 501.894 526.839 501.414 527.286L501.128 525.241L499.855 524.889C500.179 527.644 500.96 539.68 500.027 541.659C500.487 545.201 501.466 568.823 500.622 570.992C501.579 576.148 502.427 608.37 501.178 612.666C500.835 612.951 500.485 613.301 500.093 613.511L499.529 613.296C496.845 607.567 500.073 593.121 497.734 587.385C497.839 587.247 498.042 587.018 498.118 586.838C498.889 585.067 497.541 551.401 496.773 549.337C496.307 548.348 496.855 547.54 496.014 546.666L494.609 547.135C494.629 547.07 494.651 547.003 494.662 546.933C495.099 544.573 494.768 538.973 493.435 536.915C493.238 536.612 491.929 536.44 491.523 536.353C489.558 537.421 486.868 536.935 484.668 536.607C485.797 540.461 485.635 545.235 485.536 549.232L485.125 549.935C483.791 548.086 484.185 542.229 484.062 539.831C483.454 542.316 483.818 544.87 483.247 547.383L482.217 547.686C482.882 542.902 483.406 536.258 482.266 531.513C482.221 531.571 482.183 531.635 482.137 531.694C480.994 533.155 478.388 533.312 477.808 535.14C476.812 538.26 477.98 546.842 478.111 550.453C478.691 566.457 478.93 582.491 478.866 598.497C478.849 602.463 479.527 607.534 478.841 611.325C486.218 618.961 493.799 626.393 501.327 633.877C502.838 634.256 504.345 634.438 505.844 633.913L506.105 635.458C505.911 635.613 505.703 635.75 505.482 635.867C503.956 636.698 502.108 636.162 500.535 635.688L476.445 611.616C476.522 611.5 476.61 611.393 476.679 611.272C477.583 609.758 476.408 537.611 474.991 532.708C477.607 532.327 479.33 531.993 481.169 530.05L482.542 529.976L483.134 529.21L484.13 530.974L484.944 531.148L485.405 530.843C485.396 531.949 485.155 532.788 485.96 533.666C486.925 534.721 488.147 534.804 489.47 534.82C490.216 534.827 490.806 534.763 491.514 534.517C492.7 534.493 492.831 534.57 493.711 533.813C495.216 529.229 494.41 514.257 492.779 509.729L242.783 260.148C240.395 257.758 235.564 251.478 233.168 250.248L233.172 248.821C232.17 248.685 231.332 248.551 230.418 248.092C229.709 245.039 221.602 238.236 219.085 235.814C211.107 235.363 203.122 235.108 195.139 234.822L194.539 224.937C195.026 223.909 195.446 222.985 196.619 222.59C196.902 222.494 197.144 222.501 197.441 222.508C197.455 222.579 197.471 222.649 197.484 222.719C198.099 225.97 198.094 229.151 198.129 232.439C204.213 232.967 210.326 233.043 216.423 233.213C212.42 229.236 197.56 212.71 193.855 210.951C193.499 210.782 192.725 210.762 192.312 210.693L191.064 208.651C186.442 208.424 181.803 208.379 177.178 208.259C176.804 207.653 176.491 207.017 176.169 206.383L176.849 206.383Z" fill="#043CA5"/>
<path d="M177.178 208.259C176.804 207.653 176.491 207.017 176.169 206.383L176.849 206.383C183.136 206.554 189.433 206.815 195.715 206.598C205.5 216.372 215.121 226.424 225.139 235.95C231.578 242.072 237.911 248.281 244.226 254.53C246.776 257.053 249.973 259.662 252.137 262.498C253.312 263.573 254.923 265.494 256.33 266.13C265.369 276.144 275.775 284.992 285.344 294.497L308.912 318.017C312.985 322.091 316.978 326.455 321.28 330.277C336.017 345.416 351.16 360.155 366.048 375.149C371.12 380.257 378.667 386.715 383.003 392.201C386.747 395.888 406.307 416.936 409 418.004C424.323 434.219 440.312 449.665 456.171 465.344L498.733 507.887C499.781 510.692 500.698 521.832 499.855 524.889C500.179 527.644 500.96 539.68 500.027 541.659C500.487 545.201 501.466 568.823 500.622 570.992C501.579 576.148 502.427 608.37 501.178 612.666C500.835 612.951 500.485 613.301 500.093 613.511L499.529 613.296C496.845 607.567 500.073 593.121 497.734 587.385C497.839 587.247 498.042 587.018 498.118 586.838C498.889 585.067 497.541 551.401 496.773 549.337C496.844 549.247 496.919 549.158 496.979 549.06C497.57 548.046 496.593 515.666 496.298 512.109C496.164 510.482 495.907 508.992 495.277 507.471L451.193 463.528C444.936 457.22 438.915 450.652 432.578 444.426L365.896 378.166C351.829 364.15 337.504 350.386 323.781 336.026C313.811 326.955 304.591 317.041 295.106 307.472L252.997 265.34C250.362 263.629 248.073 261.055 245.816 258.863C239.603 251.812 232.578 245.34 225.869 238.767L195.244 208.722L191.064 208.651C186.442 208.424 181.803 208.379 177.178 208.259Z" fill="#1FC4F8"/>
<path d="M177.178 208.259C176.804 207.653 176.491 207.017 176.169 206.383L176.849 206.383C183.136 206.554 189.433 206.815 195.715 206.598C205.5 216.372 215.121 226.424 225.139 235.95C231.578 242.072 237.911 248.281 244.226 254.53C246.776 257.053 249.973 259.662 252.137 262.498C253.312 263.573 254.923 265.494 256.33 266.13C265.369 276.144 275.775 284.992 285.344 294.497L308.912 318.017C312.985 322.091 316.978 326.455 321.28 330.277C336.017 345.416 351.16 360.155 366.048 375.149C371.12 380.257 378.667 386.715 383.003 392.201C380.541 391.577 371.113 381.108 368.645 378.626C345.481 353.94 320.758 330.473 296.516 306.843C291.522 301.975 280.443 289.589 275.51 286.676C280.453 292.932 287.053 298.609 292.711 304.259C302.05 313.583 311.223 323.11 320.613 332.371C321.662 333.562 322.848 334.748 323.781 336.026C313.811 326.955 304.591 317.041 295.106 307.472L252.997 265.34C250.362 263.629 248.073 261.055 245.816 258.863C239.603 251.812 232.578 245.34 225.869 238.767L195.244 208.722L191.064 208.651C186.442 208.424 181.803 208.379 177.178 208.259Z" fill="#05A0F5"/>
<path d="M176.849 206.383L176.411 204.553C181.11 206.937 191.591 205.804 196.786 204.974C201.058 209.153 205.258 213.527 209.832 217.371L209.578 218.004L210.198 217.356L210.327 217.608L210.133 217.295C208.961 215.443 207.357 213.881 205.853 212.296L206.171 211.67C204.989 208.697 199.442 205.007 197.349 201.823C205.917 208.283 212.858 216.796 220.396 224.369L371.532 375.479C376.315 380.258 381.34 384.938 385.885 389.943C394.941 398.517 403.562 407.63 412.388 416.447C420.086 424.138 428.178 431.663 435.542 439.663L501.873 505.845C503.091 509.019 503.845 522.381 502.515 525.614C502.134 525.71 501.894 526.839 501.414 527.286L501.128 525.241L499.855 524.889C500.698 521.832 499.781 510.692 498.733 507.887L456.171 465.344C440.312 449.665 424.323 434.219 409 418.004C406.307 416.936 386.747 395.888 383.003 392.201C378.667 386.715 371.12 380.257 366.048 375.149C351.16 360.155 336.017 345.416 321.28 330.277C316.978 326.455 312.985 322.091 308.912 318.017L285.344 294.497C275.775 284.992 265.369 276.144 256.33 266.13C254.923 265.494 253.312 263.573 252.137 262.498C249.973 259.662 246.776 257.053 244.226 254.53C237.911 248.281 231.578 242.072 225.139 235.95C215.121 226.424 205.5 216.372 195.715 206.598C189.433 206.815 183.136 206.554 176.849 206.383Z" fill="#0251C0"/>
<path d="M321.28 330.277C310.801 318.029 298.559 306.852 287.117 295.484C283.39 291.78 275.164 284.886 272.887 280.597C282.121 288.439 290.389 297.683 299.122 306.113C325.581 331.652 351.33 357.958 377.282 384.007L404.874 411.678C408.428 415.223 414.477 420.179 417.148 424.244C415.255 424.429 411.13 419.206 409 418.004C406.307 416.936 386.747 395.888 383.003 392.201C378.667 386.715 371.12 380.257 366.048 375.149C351.16 360.155 336.017 345.416 321.28 330.277Z" fill="#043CA5"/>
<path d="M176.849 206.383L176.411 204.553C181.11 206.937 191.591 205.804 196.786 204.974C201.058 209.153 205.258 213.527 209.832 217.371L209.578 218.004L210.198 217.356L210.327 217.608L210.133 217.295C208.961 215.443 207.357 213.881 205.853 212.296L206.171 211.67C204.989 208.697 199.442 205.007 197.349 201.823C205.917 208.283 212.858 216.796 220.396 224.369L371.532 375.479C376.315 380.258 381.34 384.938 385.885 389.943C385.029 389.876 384.72 389.49 384.105 388.922C372.986 378.656 362.505 367.317 351.795 356.603L286.175 290.976C279.488 284.291 270.717 274.404 263.779 268.82C263.416 269.478 263.382 269.431 262.662 269.684C263.255 270.447 263.91 271.115 264.589 271.8C260.547 271.347 234.065 240.391 226.8 235.512L226.68 235.821C228.112 238.309 230.602 240.26 232.623 242.282C237.965 247.625 252.716 260.787 256.174 265.89C256.227 265.969 256.278 266.05 256.33 266.13C254.923 265.494 253.312 263.573 252.137 262.498C249.973 259.662 246.776 257.053 244.226 254.53C237.911 248.281 231.578 242.072 225.139 235.95C215.121 226.424 205.5 216.372 195.715 206.598C189.433 206.815 183.136 206.554 176.849 206.383Z" fill="#045AC6"/>
<path d="M123.102 276.162C120.571 276.755 118.314 277.024 115.823 275.978C113.997 275.212 112.389 273.984 111.647 272.096C109.14 265.718 114.961 264.461 115.575 261.592C115.899 260.078 115.451 257.933 116.202 256.557C116.608 255.815 117.038 255.8 117.793 255.561L118.474 256.227C118.876 257.924 118.536 259.653 118.317 261.347L122.571 261.872C122.793 259.961 122.852 258.172 122.737 256.246C123.983 255.879 125.219 255.475 126.506 255.274C125.782 258.251 124.929 261.251 124.356 264.261C125.735 266.51 127.115 268.314 126.455 271.063C126.233 271.99 125.881 272.887 125.536 273.772L154.015 302.344C156.807 301.523 159.461 300.928 162.181 302.457C163.766 303.349 164.783 304.8 165.279 306.528C165.931 308.797 165.428 310.982 164.706 313.148C169.794 318.843 170.073 316.262 174.51 319.921C179.966 324.421 184.788 329.966 189.686 335.072C211.994 335.147 234.297 335.645 256.606 336.069C268.985 336.305 281.718 335.952 294.062 336.991L398.416 441.242C400.624 442.139 406.305 443.182 408.45 442.219C408.721 442.098 408.959 441.931 409.205 441.769C405.238 437.954 401.36 434.069 397.52 430.127C402.15 433.695 405.867 438.344 410.234 442.222C415.109 446.466 439.729 469.924 441.762 473.757C437.519 470.9 434.96 465.65 430.586 463.061L430.153 463.176C430.16 463.273 430.154 463.37 430.169 463.465C430.559 465.849 434.029 468.888 435.845 470.365C441.173 473.508 449.241 483.402 454.075 488.24C461.984 496.156 471.152 503.774 478.033 512.594C479.56 513.763 480.079 514.303 480.37 516.286C480.627 518.042 481.101 521.245 480.535 522.916L481.371 522.697C482.12 519.791 481.539 516.526 480.751 513.65C483.105 517.526 483.841 523.935 482.753 528.369C482.511 529.345 482.003 529.541 481.169 530.05C479.33 531.993 477.607 532.327 474.991 532.708C471.788 528.615 467.328 524.845 463.628 521.146L440.22 497.757C428.721 486.266 417.057 474.901 405.735 463.24C398.075 455.349 390.78 447.105 382.986 439.34C381.298 437.657 379.639 435.808 377.53 434.656C377.529 434.619 377.537 434.584 377.529 434.547C377.256 433.286 376.396 433.094 375.36 432.474L375.582 432.07C375.526 431.885 375.449 431.586 375.355 431.4C373.998 428.723 362.714 418.239 360.072 417.198C360.169 416.406 359.879 415.656 359.346 415.046C358.48 414.054 357.457 413.882 356.228 413.831C356.53 413.087 356.37 412.468 356.243 411.698C355.276 410.892 355.191 410.951 353.926 410.942C353.929 410.121 353.821 409.788 353.323 409.103C352.556 408.051 351.405 407.202 350.116 407.022C350.123 406.99 350.132 406.954 350.132 406.922C350.069 405.543 348.987 404.891 348.061 403.952L344.834 400.689L344.196 400.054C343.17 398.846 341.747 397.923 340.475 396.973C340.395 396.417 340.162 396.378 339.752 396.014C334.757 397.033 301.224 437.562 294.884 439.069C293.49 439.477 291.583 438.908 290.148 438.654C290.822 437.344 290.43 436.69 290.013 435.379C290.085 435.398 290.156 435.418 290.227 435.432C291.492 435.68 292.735 435.853 293.859 435.145C294.962 434.698 295.93 433.99 296.829 433.227C303.399 427.664 309.181 420.59 315.284 414.487L328.352 401.503C330.399 399.508 332.758 397.655 334.602 395.48C335.422 394.511 335.944 393.631 336.044 392.336C335.498 391.102 335.288 391.001 334.142 390.257C327.629 391.026 310.295 417.241 302.825 418.988C302.739 419.009 302.653 419.023 302.565 419.039C299.79 421.211 259.37 419.394 252.727 419.352L229.274 442.759C229.689 444.592 230.149 446.49 229.86 448.364C229.559 450.321 228.398 451.826 226.82 452.95C225.465 453.915 223.808 454.455 222.128 454.121C220.197 453.74 218.678 452.498 217.59 450.89C216.385 449.111 215.772 446.757 216.182 444.649C216.455 443.248 217.174 442.087 218.375 441.3C220.994 439.586 224.237 440.269 227.127 440.849L251.481 416.225L280.292 416.816C286.225 416.99 292.953 417.92 298.784 417.007C300.162 416.792 300.613 416.379 301.625 415.497C298.026 416.706 288.955 415.52 284.842 415.391C273.538 415.04 262.23 414.948 250.925 414.922C244.708 414.909 237.852 414.425 231.759 415.514C230.978 414.96 230.366 414.899 229.433 414.796C227.695 415.255 226.47 416.867 225.272 418.128C225.658 417.68 226.053 417.23 226.38 416.738C226.932 415.908 227.169 415.754 226.969 414.761C225.664 414.655 224.379 414.582 223.071 414.574C217.619 412.718 184.893 413.685 176.744 413.688C173.935 413.69 169.174 414.29 166.661 413.318C167.783 411.927 176.16 413.204 178.571 411.971C178.657 411.927 178.74 411.876 178.824 411.828C182.986 410.928 194.639 411.687 199.513 411.687C217.187 411.685 234.863 411.452 252.54 411.775C268.209 412.061 284.032 412.946 299.68 412.629C301.18 412.597 303.387 412.787 304.566 411.803C305.148 411.669 305.758 411.416 306.25 411.074C310.138 408.362 329.203 389.791 329.892 385.73L325.111 380.942C324.993 381.327 324.862 381.718 324.679 382.076C322.662 386.1 304.499 403.983 300.708 405.189C299.598 405.961 298.079 405.798 296.759 405.819C274.512 406.161 252.103 405.237 229.833 405.134C209.565 405.04 188.899 405.882 168.665 404.62L134.238 369.99C137.015 368.612 138.427 366.661 140.065 364.138L171.689 395.732C186.678 395.817 295.413 397.044 297.529 395.525C299.625 394.663 301.839 393.379 302.757 391.181C302.95 390.715 303.083 390.231 303.206 389.744C303.443 389.832 303.55 389.881 303.818 389.925C304.199 389.986 304.694 389.972 305.003 389.76C306.868 388.499 307.024 386.439 307.377 384.372C307.673 384.817 307.957 384.994 308.411 385.267C308.997 385.045 309.57 384.784 310.09 384.433C312.873 382.553 317.98 377.375 318.523 374.005C314.881 370.508 311.599 366.462 307.775 363.187C307.581 362.393 307.242 361.712 306.704 361.082C305.492 359.662 303.262 359.656 301.528 359.434L301.487 357.352L301.855 356.694L301.417 355.738C300.379 354.857 299.665 354.599 298.372 354.323C296.963 351.279 292.646 347.966 290.206 345.559C277.151 344.913 264.022 344.993 250.957 344.814L186.994 343.884C180.389 337.213 173.587 330.869 167.29 323.89L166.894 319.985C165.481 318.41 163.908 316.953 162.401 315.466C160.009 316.34 157.62 316.929 155.097 316.066C153.467 315.508 152.206 314.471 151.428 312.921C150.008 310.092 150.645 307.481 151.59 304.656L123.102 276.162Z" fill="#05A0F5"/>
<defs>
<linearGradient id="paint0_linear_491_1600" x1="228.504" y1="381.151" x2="311.212" y2="206.152" gradientUnits="userSpaceOnUse">
<stop stop-color="#0149B7"/>
<stop offset="1" stop-color="#0080F1"/>
</linearGradient>
</defs>
</svg>
