<svg width="606" height="862" viewBox="0 0 606 862" fill="none" xmlns="http://www.w3.org/2000/svg">
<path d="M460.211 413.096L461.915 411.719L465.208 413.553L468.473 412.71C469.592 414.874 471.454 417.758 471.776 420.119C472.171 422.995 469.392 433.704 468.275 436.504C467.948 437.323 467.439 438.087 466.904 438.806L465.024 439.366C462.007 437.948 460.598 434.811 459.607 432.003C458.447 428.715 455.719 420.321 457.376 417.205C458.138 415.772 459.208 414.396 460.211 413.096Z" fill="#043CA5"/>
<path d="M479.529 297.884C482.353 298.344 484.26 298.549 487.092 297.747C489.534 299.989 492.229 301.988 492.895 305.224C492.379 308.9 489.37 311.699 486.602 314.248C486.532 329.177 487.868 345.704 485.647 360.417C486.218 363.919 487.478 418.684 486.729 421.765C486.265 423.671 482.934 426.505 481.14 427.51C479.135 428.633 478.444 428.913 476.208 428.411C475.812 425.326 477.596 423.693 479.267 421.041C477.629 388.243 479.362 354.533 479.881 321.657C478.806 313.801 476.96 305.598 479.529 297.884Z" fill="#0251C0"/>
<path d="M460.588 137.802C459.902 102.059 461.481 66.2224 460.192 30.501C460.055 26.6937 459.95 22.6544 459.045 18.9249C457.936 14.3627 453.447 11.3382 455.271 6.24536C455.69 5.0748 456.389 4.0346 457.347 3.16569C459.669 1.0583 463.554 -0.112464 466.808 0.0903976C468.53 0.197654 470.047 0.897663 471.55 1.62018C473.402 3.91947 474.569 5.36052 473.983 8.37924C473.275 12.0204 471.101 14.5828 468.933 17.5715L468.496 18.168C468.454 58.1687 469.712 98.4074 467.836 138.37C466.611 135.56 465.348 132.768 464.052 129.985L462.937 130.23C461.894 132.767 461.163 135.143 460.588 137.802Z" fill="#1FC4F8"/>
<path d="M479.529 297.884C480.195 278.678 479.382 259.345 479.283 240.128C479.078 200.797 479.012 161.338 480.255 122.024C480.47 115.217 480.963 108.311 480.347 101.516C479.833 95.843 474.627 81.6108 476.931 77.3733C479.383 75.3138 480.043 75.027 483.295 74.3179C486.47 75.1196 486.846 75.2839 488.991 77.5486C489.015 89.5898 486.476 101.707 486.615 114.696L487.754 242.905C487.869 260.268 490.907 280.819 487.092 297.747C484.26 298.549 482.353 298.344 479.529 297.884Z" fill="#0D84E2"/>
<path d="M460.588 137.802C461.163 135.143 461.894 132.767 462.937 130.23L464.052 129.985C465.348 132.768 466.611 135.56 467.836 138.37C470.203 205.104 468.015 271.959 468.113 338.717L468.386 387.558C468.384 395.812 467.438 404.545 468.473 412.71L465.208 413.553L461.915 411.719L460.211 413.096C455.949 393.294 460.179 345.205 460.238 321.905C460.394 260.611 457.377 199.041 460.588 137.802Z" fill="#0D70D7"/>
<path d="M572.82 46.484C570.106 44.3826 567.288 42.2564 564.88 39.8603C560.189 35.1926 557.433 29.9841 557.883 23.5706C558.276 17.9688 560.627 12.1807 565.384 8.44507C569.927 4.87691 576.15 3.39732 582.07 3.83671C589.128 4.36044 596.02 7.54707 600.461 12.599C603.817 16.4162 605.743 21.0829 605.076 26.0026C603.88 34.8122 596.323 40.5455 589.057 45.5488C587.893 119.31 588.961 193.116 589.35 266.881L582.295 272.974C565.104 291.186 546.058 308.097 526.315 323.999C528.745 349.282 527.146 374.496 527.149 399.822C527.153 424.847 528.712 449.882 526.891 474.886C519.345 485.157 508.108 492.236 499.669 501.749C499.334 499.951 498.18 498.329 497.237 496.736C503.503 491.656 509.109 485.647 514.84 480.061L510.888 479.372C503.658 485.895 496.545 492.598 489.063 498.878L488.911 606.073C488.991 621.913 490.847 655.924 487.677 670.341C487.41 664.39 487.997 656.844 486.106 651.214C485.433 656.655 483.795 663.475 484.507 668.861C483.762 685.031 483.95 701.858 481.232 717.843C479.826 728.392 480.663 739.701 480.595 750.364C480.506 764.551 479.881 778.727 479.718 792.912C479.627 800.863 480.619 809.349 479.277 817.192L478.206 817.891L476.808 815.972C476.172 749.165 477.058 682.347 477.154 615.539C477.208 577.475 475.215 538.784 477.226 500.8C477.389 497.732 477.119 495.888 479.271 493.509C484.635 483.788 498.786 474.106 507.456 466.585L507.805 319.639L572.714 260.736L572.82 46.484Z" fill="#0137A0" fill-opacity="0.5"/>
<path d="M418.013 296.047C415.884 293.633 414.852 292.301 414.639 289.107C415.733 285.955 417.467 284.839 420.276 282.943C421.824 286.31 421.08 289.556 419.613 292.854C419.13 293.939 418.577 294.994 418.013 296.047Z" fill="#0251C0"/>
<path d="M448.19 420.902C449.658 423.212 451.258 425.163 450.998 427.935L449.504 428.907C445.229 428.079 443.154 426.217 440.805 422.888C440.689 422.723 440.578 422.556 440.464 422.389C442.768 421.346 445.66 421.236 448.19 420.902Z" fill="#0137A0" fill-opacity="0.5"/>
<path d="M202.015 988.702C203.829 991.002 205.539 993.87 208.662 994.747C207.132 997.396 206.683 998.999 203.292 999.975C201.457 999.338 200.141 997.047 199.029 995.623L200.469 995.135L202.015 988.702Z" fill="#0D84E2"/>
<path d="M394.87 259.836C397.024 262.3 399.105 264.934 401.443 267.248L402.256 270.609C400.869 271.483 400.204 271.529 398.584 271.585C394.516 270.082 391.803 266.205 389.126 263.154C391.166 262.402 393.059 260.974 394.87 259.836Z" fill="#0251C0"/>
<path d="M193.283 981.551C195.72 984.18 198.235 987.646 202.015 988.702L200.469 995.135L199.029 995.623C193.431 994.448 191.517 989.15 185.624 987.367C187.304 987.756 189.108 987.706 190.833 987.766C193.297 985.714 192.897 984.499 193.283 981.551Z" fill="#0D70D7"/>
<path d="M140.6 565.02C139.455 561.613 135.81 559.075 133.192 556.519C130.648 554.034 129.042 552.106 129.189 548.687L130.947 548.073C136.451 549.923 140.695 554.82 145.336 558.083C142.475 559.305 142.279 559.541 141.275 562.395C140.975 563.246 140.789 564.144 140.6 565.02Z" fill="#0D70D7"/>
<path d="M146.403 558.629C146.609 558.557 146.818 558.489 147.022 558.411C153.06 556.115 159.202 548.085 165.819 548.881C166.516 551.673 165.269 554.315 163.651 556.68C160.678 561.027 160.249 561.623 159.771 566.822C159.471 564.84 159.132 562.864 158.795 560.886C155.78 558.541 151.28 559.458 147.286 558.783L146.403 558.629Z" fill="#0D70D7"/>
<path d="M405.554 94.8979C403.294 92.932 400.02 90.51 399.854 87.4387C399.702 84.6373 400.789 83.8296 402.708 81.8946C405.677 80.7205 408.821 79.9686 411.989 81.078C414.686 82.0221 415.264 82.8855 416.761 84.9849C417.267 87.622 416.574 90.1624 414.825 92.3195C414.057 93.2676 413.159 94.1281 412.262 94.9736C409.761 94.1629 408.113 94.3999 405.554 94.8979Z" fill="#05A0F5"/>
<path d="M441.255 320.995C441.076 315.421 437.1 312.706 435.768 307.583C436.156 304.77 438.087 303.389 440.198 301.53L449.573 301.538C453.146 310.803 447.994 320.937 447.354 330.496C445.348 325.936 447.277 320.384 444.798 315.465C442.411 317.548 442.153 318.084 441.255 320.995Z" fill="#0251C0"/>
<path d="M405.554 94.8979C408.113 94.3999 409.761 94.1629 412.262 94.9736C411.908 110.647 411.485 126.599 412.624 142.245L405.27 142.758C409.229 128.083 406.673 109.983 405.554 94.8979Z" fill="#09AEF5"/>
<path d="M428.058 623.785C418.776 614.73 395.33 596.667 390.094 587.277C389.089 585.474 389.325 585.232 389.904 583.369L392.173 583.321C404.802 590.35 417.685 605.706 427.042 616.264C427.821 618.367 429.024 619.859 430.505 621.604L428.058 623.785Z" fill="#0137A0" fill-opacity="0.5"/>
<path d="M252.091 686.591L253.952 687.367C265.797 698.974 277.858 710.126 291.064 720.471L286.798 725.883C273.485 713.01 259.524 700.698 245.691 688.291C247.611 687.393 249.998 687.06 252.091 686.591Z" fill="#0137A0" fill-opacity="0.5"/>
<path d="M76.0189 831.396C80.89 830.381 86.2392 829.656 90.7154 832.2C91.6889 832.752 92.2731 834.153 92.8496 835.061C93.2259 838.937 91.7338 842.035 89.0559 845.005C86.3015 848.059 83.6477 849.66 79.3421 850.315C76.7255 849.611 75.2379 849.316 73.8147 846.971C71.6663 843.43 71.1095 839.466 71.08 835.496C73.3848 834.671 74.5203 833.1 76.0189 831.396Z" fill="#043CA5"/>
<path d="M442.479 108.284C442.812 103.716 443.528 98.6265 442.652 94.1061C441.842 89.9254 439.243 84.3246 439.234 80.2116C439.233 79.3402 440.631 77.6143 441.308 77.0775C443.321 75.4811 445.411 75.1545 447.953 74.8447C450.995 75.7251 451.14 75.742 452.885 78.16C453.246 81.9822 452.501 84.0069 449.761 86.9895C449.325 87.4636 448.875 87.9237 448.424 88.3848L448.414 108.56C451.286 111.543 453.939 113.875 453.627 118.132C453.603 118.456 453.554 118.777 453.519 119.1C452.893 117.037 451.386 114.419 449.392 113.181C447.47 111.988 445.763 111.669 443.454 112.178C440.011 112.939 437.936 115.577 435.963 118.023C436.524 113.405 438.88 111.346 442.479 108.284Z" fill="#09AEF5"/>
<path d="M224.201 675.024L225.72 672.43L227.689 676.392L229.196 674.482C233.366 674.985 237.102 680.255 241.547 681.729C244.33 682.653 247.245 682.927 249.963 681.625C256.392 678.546 259.679 669 261.361 663.116L264.322 661.997C265.731 666.636 266.852 671.898 264.021 676.306C261.574 680.116 258.371 683.047 254.949 686.108C254.308 686.681 254.516 686.507 253.952 687.367L252.091 686.591C249.998 687.06 247.611 687.393 245.691 688.291C240.36 687.498 236.409 686.742 231.749 684.129C227.991 682.312 225.892 678.37 224.201 675.024Z" fill="#045AC6"/>
<path d="M388.537 156.081C386.854 154.192 384.119 151.539 383.663 149.113C383.154 146.401 383.942 145.143 385.335 142.905C387.399 141.739 389.008 141.079 391.493 141.32C394.786 141.639 396.807 142.966 398.812 145.26C399.214 147.17 399.604 147.708 398.669 149.494C398.243 150.309 397.859 151.126 397.266 151.855C391.885 158.481 394.628 186.644 394.69 196.352C394.042 194.003 393.74 191.362 391.616 189.752C389.977 192.488 389.157 195.565 388.182 198.536C388.251 184.407 389.742 170.176 388.537 156.081Z" fill="#05A0F5"/>
<path d="M369.888 171.041L376.029 172.356C378.931 174.464 381.162 176.014 382.613 179.224C382.928 182.176 382.212 184.392 380.138 186.656C378.999 187.898 377.748 189.063 376.494 190.21C375.946 196.543 375.261 202.89 375.133 209.242C373.814 202.521 373.738 195.667 371.97 189.039C369.564 205.975 370.633 223.449 370.761 240.511C370.81 247.191 371.521 254.912 370.236 261.48C367.56 252.808 369.698 202.6 369.447 189.554C368.74 189.056 368.039 188.553 367.351 188.033C365.005 186.262 362.754 184.286 362.665 181.291C362.542 177.126 366.965 173.822 369.888 171.041Z" fill="#0D70D7"/>
<path d="M423.121 255.378C427.442 245.86 422.536 232.884 428.508 223.576C428.528 229.571 428.793 235.654 428.553 241.639C428.548 247.525 426.94 264.893 429.383 269.46C430.335 276.727 433.999 288.844 428.878 295.001C426.157 296.854 423.683 296.948 420.453 296.498C419.631 296.383 418.822 296.22 418.013 296.047C418.577 294.994 419.13 293.939 419.613 292.854C421.08 289.556 421.824 286.31 420.276 282.943C420.739 282.69 420.897 282.637 421.304 282.218C423.968 279.474 422.972 271.014 423.093 267.362C422.812 263.336 422.916 259.405 423.121 255.378Z" fill="#043CA5"/>
<path d="M388.182 198.536C389.157 195.565 389.977 192.488 391.616 189.752C393.74 191.362 394.042 194.003 394.69 196.352C395.979 217.641 393.822 238.688 394.87 259.836C393.059 260.974 391.166 262.402 389.126 263.154C385.616 258.738 387.958 206.286 388.182 198.536Z" fill="#0D70D7"/>
<path d="M369.528 118.989C367.441 116.72 363.597 113.402 363.807 110.215C363.969 107.759 364.701 105.904 366.946 104.416C369.051 103.02 372.34 102.855 374.77 103.487C376.816 104.02 378.84 105.254 379.812 107.019C380.96 109.109 380.906 111.771 380.059 113.934C379.315 115.834 377.353 117.733 375.951 119.284C374.361 136.968 375.997 154.652 376.029 172.356L369.888 171.041C369.004 153.688 371.282 136.297 369.528 118.989Z" fill="#09AEF5"/>
<path d="M78.0065 443.79C80.738 443.546 83.616 443.614 86.3649 443.544C86.1659 449.048 85.8552 454.571 85.8278 460.078C101.918 477.408 120.087 493.564 138.431 508.929L138.686 509.436L130.999 512.848C121.524 497.978 92.6483 477.339 78.6016 463.341C78.8302 456.755 79.1529 450.326 78.0065 443.79Z" fill="#09AEF5"/>
<path d="M424.101 109.503C425.922 95.0273 427.739 76.4372 424.995 62.0895C424.1 57.4048 418.312 51.8637 421.224 47.5993C421.673 46.9421 421.887 46.714 422.55 46.219C425.179 44.2562 428.77 43.4136 432.11 43.8688C434.453 44.1884 435.252 44.785 437.108 46.1065C437.998 49.2575 437.445 51.4982 435.63 54.3196C434.398 56.2356 432.695 57.6289 430.88 59.0769C431.02 75.8735 434.744 112.852 430.149 126.916L429.96 127.509C429.849 127.85 429.717 128.185 429.586 128.52C429.169 123.188 430.251 119.595 427.269 114.65L425.692 114.746C423.499 118.308 423.329 122.705 422.807 126.701C421.085 123.218 417.96 118.527 419.614 114.72C420.514 112.649 422.386 111.034 424.101 109.503Z" fill="#09AEF5"/>
<path d="M273.227 553.511C276.743 554.774 279.797 555.955 282.821 558.051C278.058 563.611 280.09 626.785 281.415 636.647C281.654 638.423 282.25 640.005 283.516 641.382L280.008 645.366L273.661 639.853C273.759 611.066 273.812 582.295 273.227 553.511Z" fill="#05A0F5"/>
<path d="M107.387 422.333C121.634 435.774 136.636 448.602 150.717 462.17C150.084 475.874 146.992 494.582 151.441 507.834L147.943 508.874L143.011 508.452C143.499 494.028 143.158 479.548 143.059 465.118C131.192 452.827 118.075 441.321 105.477 429.652C105.974 427.196 106.73 424.759 107.387 422.333Z" fill="#09AEF5"/>
<path d="M441.255 320.995C442.153 318.084 442.411 317.548 444.798 315.465C447.277 320.384 445.348 325.936 447.354 330.496C448.883 344.548 448.204 359.038 448.3 373.174C448.408 388.999 449.17 405.106 448.19 420.902C445.66 421.236 442.768 421.346 440.464 422.389C439.825 416.222 441.263 409 441.193 402.652C440.889 375.422 441.692 348.217 441.255 320.995Z" fill="#043CA5"/>
<path d="M422.807 126.701C423.329 122.705 423.499 118.308 425.692 114.746L427.269 114.65C430.251 119.595 429.169 123.188 429.586 128.52C428.767 162.213 429.881 196.096 429.83 229.82C429.81 242.749 430.999 256.69 429.383 269.46C426.94 264.893 428.548 247.525 428.553 241.639C428.793 235.654 428.528 229.571 428.508 223.576C422.536 232.884 427.442 245.86 423.121 255.378C422.902 246.316 422.755 237.32 423.192 228.259C422.885 223.684 423.077 219.126 423.225 214.55C422.947 210.564 423.146 206.553 423.249 202.563C421.891 180.845 427.67 145.846 422.807 126.701Z" fill="#0D70D7"/>
<path d="M428.057 171.79C428.334 178.113 428.439 184.409 428.404 190.737C424.282 197.993 426.44 207.134 423.225 214.55C422.947 210.564 423.146 206.553 423.249 202.563C426.3 194.499 425.816 181.135 428.057 171.79Z" fill="#045AC6"/>
<path d="M423.225 214.55C426.44 207.134 424.282 197.993 428.404 190.737C428.517 195.231 429.193 200.326 428.488 204.753C428.656 210.771 429.511 217.659 428.508 223.576C422.536 232.884 427.442 245.86 423.121 255.378C422.902 246.316 422.755 237.32 423.192 228.259C422.885 223.684 423.077 219.126 423.225 214.55Z" fill="#045AC6"/>
<path d="M54.082 655.69C50.482 651.991 46.5735 646.792 45.5933 641.848C44.9939 638.826 45.5682 635.85 47.6346 633.358C50.6985 629.664 56.2107 627.759 61.1179 627.299C67.0719 626.742 73.7731 628.127 78.4353 631.664C81.0497 633.648 82.7945 636.265 83.0198 639.409C83.4803 645.822 78.4222 651.186 74.0564 655.651C66.9396 657.009 61.1879 657.834 54.082 655.69Z" fill="#0137A0" fill-opacity="0.5"/>
<path d="M250.889 437.085C256.075 441.463 261.875 446.394 262.021 453.373C262.114 457.768 259.465 461.464 256.33 464.596C256.275 464.651 256.208 464.695 256.148 464.744C254.489 465.572 252.442 466.351 250.952 467.386C246.229 468.767 241.865 468.907 237.049 467.971C234.502 466.306 231.699 465.031 228.94 463.684C227.03 460.274 225.143 456.24 225.333 452.349C225.646 445.957 230.885 442.033 235.704 438.059C240.772 437.82 245.829 437.445 250.889 437.085Z" fill="#0D70D7"/>
<path d="M412.624 142.245C414.585 144.28 416.423 145.825 416.54 148.695C413.915 153.759 412.427 158.094 411.823 163.718C411.024 171.163 411.212 248.358 413.103 253.237C414.412 256.614 417.239 261.032 416.278 264.643C414.534 267.07 413.547 268.298 410.25 268.935C407.65 269.436 404.592 269.418 402.256 270.609L401.443 267.248C401.54 265.79 400.956 264.117 400.796 262.63C400.38 258.746 402.956 256.486 405.527 253.704C406.967 227.274 407.632 199.404 406.012 173.013C405.443 163.747 400.673 151.174 405.27 142.758L412.624 142.245Z" fill="#0D70D7"/>
<path d="M249.586 648.721C255.745 651.302 261.72 654.892 264.015 661.073C264.128 661.378 264.22 661.688 264.322 661.997L261.361 663.116C259.679 669 256.392 678.546 249.963 681.625C247.245 682.927 244.33 682.653 241.547 681.729C237.102 680.255 233.366 674.985 229.196 674.482L227.689 676.392L225.72 672.43L224.201 675.024C223.163 672.07 222.701 669.3 222.928 666.187C223.364 660.152 226.999 655.99 231.753 652.1C237.992 649.994 242.84 648.982 249.586 648.721Z" fill="#0D70D7"/>
<path d="M239.914 657.56C244.554 657.427 248.15 657.398 251.862 660.205C254.142 661.928 255.399 664.173 255.494 666.88C255.672 671.97 252.399 675.129 248.664 678.495C243.749 678.493 239.732 678.477 236.038 675.132C233.915 673.209 232.987 670.844 233.13 668.128C233.39 663.202 236.214 660.792 239.914 657.56Z" fill="#0137A0" fill-opacity="0.5"/>
<path d="M5.02105 676.125C7.67768 676.883 9.11242 676.87 10.7491 679.09C13.2732 701.411 11.0986 726.527 11.0534 749.104C11.0393 756.157 10.0465 764.791 11.5464 771.664C27.846 791.29 56.6078 812.476 76.0189 831.396C74.5203 833.1 73.3848 834.671 71.08 835.496C50.3518 814.608 27.0967 795.032 5.10144 775.219C4.70578 742.198 5.15571 709.151 5.02105 676.125Z" fill="#0137A0" fill-opacity="0.5"/>
<path d="M43.3323 1044.01C53.3906 1040.44 103.331 991.7 111.522 981.442C123.887 983.832 182.235 984.619 193.283 981.551C192.897 984.499 193.297 985.714 190.833 987.766C189.108 987.706 187.304 987.756 185.624 987.367C178.435 991.849 128.818 990.146 118.633 988.453C117.421 988.244 116.656 987.895 115.628 987.308C110.361 995.095 55.0118 1047.79 48.42 1049.12C47.8949 1049.23 47.3895 1049.26 46.859 1049.31C45.2619 1049.62 45.2302 1049.61 43.7611 1048.96L43.3323 1044.01Z" fill="#0137A0" fill-opacity="0.5"/>
<path d="M151.441 507.834C157.953 510.199 163.375 512.748 166.206 518.909C168.488 523.878 169.221 529.782 166.797 534.817C164.71 539.151 160.39 542.357 155.597 544.011C149.614 546.077 142.559 545.885 136.742 543.443C132.198 541.535 128.603 538.331 126.981 533.961C124.681 527.77 126.501 521.152 129.69 515.517C130.039 514.9 130.406 514.292 130.776 513.685L130.999 512.848L138.686 509.436L138.431 508.929L143.011 508.452L147.943 508.874L151.441 507.834Z" fill="#0D84E2"/>
<path d="M143.011 508.452L147.943 508.874L149.875 511.517C155.011 514.665 160.289 519.328 161.67 525.066C162.216 527.334 161.46 528.957 160.364 530.961L157.805 532.657C157.772 528.873 158.071 524.884 155.681 521.593C154.07 519.375 151.337 517.342 148.399 516.919C146.055 516.581 143.616 517.324 141.705 518.536C136.665 521.734 135.824 525.999 134.784 531.225C131.567 526.456 131.806 519.184 130.776 513.685L130.999 512.848L138.686 509.436L138.431 508.929L143.011 508.452Z" fill="#0D70D7"/>
<path d="M143.011 508.452L147.943 508.874L149.875 511.517C147.441 511.956 145.495 512.282 142.997 511.856C141.777 510.536 141.028 510.12 139.22 509.585C139.042 509.533 138.864 509.485 138.686 509.436L138.431 508.929L143.011 508.452Z" fill="#097CDE"/>
<path d="M134.784 531.225C135.824 525.999 136.665 521.734 141.705 518.536C143.616 517.324 146.055 516.581 148.399 516.919C151.337 517.342 154.07 519.375 155.681 521.593C158.071 524.884 157.772 528.873 157.805 532.657C155.182 534.052 151.968 536.083 148.925 536.5C143.338 537.265 139.144 533.907 134.784 531.225Z" fill="#0137A0" fill-opacity="0.5"/>
<path d="M371.97 189.039C373.738 195.667 373.814 202.521 375.133 209.242C376.415 225.772 376.004 242.509 376.052 259.077C394.059 276.194 412.039 295.532 431.786 310.876C432.071 346.146 432.625 381.424 431.561 416.686C430.789 413.917 430.863 411.346 428.169 409.748L426.802 411.148L426.895 314.627C407.555 297.551 386.85 280.848 370.236 261.48C371.521 254.912 370.81 247.191 370.761 240.511C370.633 223.449 369.564 205.975 371.97 189.039Z" fill="#0137A0" fill-opacity="0.5"/>
<path d="M46.1337 874.552C37.3333 875.523 35.7822 882.471 28.7069 886.004C25.6374 887.537 22.0637 887.821 18.7251 886.909C14.8779 885.858 11.7984 883.075 9.90988 879.924C7.26484 875.512 6.26469 870.107 7.97423 865.252C9.17927 861.83 12.3469 858.472 15.9215 856.934C19.3913 855.443 23.2352 855.655 26.7598 856.872C34.2245 859.451 37.026 862.745 40.3339 869.184L115.338 869.373L127.444 869.049C131.649 868.951 136.5 868.359 140.259 870.32C141.678 871.909 142.621 872.94 143.008 874.986C119.315 875.485 67.5839 877.546 46.1337 874.552Z" fill="#0137A0" fill-opacity="0.5"/>
<path d="M276.441 206.243C268.739 203.041 263.439 199.161 260.322 191.769C258.444 187.317 258.337 182.599 260.516 178.226C263.29 172.658 269.149 168.599 275.399 166.641C281.752 164.651 288.979 164.695 295.073 167.4C299.863 169.525 303.257 173.307 304.875 177.904C306.747 183.223 306.754 190.157 303.9 195.198C300.894 200.505 295.555 203.641 289.742 206.011C285.308 205.797 280.871 206.055 276.441 206.243Z" fill="#0137A0" fill-opacity="0.5"/>
<path d="M277.432 171.12C279.855 170.984 282.368 170.823 284.79 171C289.07 171.315 293.765 173.665 296.418 176.726C299.085 179.803 299.883 183.564 299.255 187.402C298.23 193.671 293.921 197.052 288.661 200.723C285.998 200.898 283.184 200.941 280.531 200.608C276.208 200.064 271.77 197.555 269.202 194.363C266.86 191.452 265.959 187.755 266.59 184.205C267.719 177.861 271.93 174.648 277.432 171.12Z" fill="#FBF7F5"/>
<path d="M279.703 179.443C280.517 179.53 281.346 179.617 282.148 179.775C285.349 180.41 286.521 181.671 288.154 184.016C288.696 187.379 287.233 189.646 285.647 192.578C284.93 192.536 284.195 192.49 283.488 192.364C280.309 191.798 278.703 190.403 277.061 188.006C276.641 184.519 277.966 182.434 279.703 179.443Z" fill="#05A0F5"/>
<path d="M435.963 118.023C437.936 115.577 440.011 112.939 443.454 112.178C445.763 111.669 447.47 111.988 449.392 113.181C451.386 114.419 452.893 117.037 453.519 119.1C451.354 121.55 449.097 123.237 448.659 126.424C447.763 132.947 448.591 140.438 448.653 147.034L448.982 191.249L449.011 261.669C448.97 274.561 447.828 288.355 449.508 301.14C449.526 301.273 449.552 301.404 449.573 301.538L440.198 301.53C441.803 262.453 440.504 223.049 440.789 183.929C440.902 168.321 443.579 139.487 441.225 125.513C440.698 122.384 438.124 120.429 435.963 118.023Z" fill="#0D70D7"/>
<path d="M250.952 467.386C252.442 466.351 254.489 465.572 256.148 464.744C255.237 471.859 254.5 477.934 247.856 482.686C245.471 484.393 242.898 485.968 240.252 487.319L240.172 592.443C240.046 608.248 236.788 632.664 240.536 647.332C243.489 648.456 246.433 648.536 249.586 648.721C242.84 648.982 237.992 649.994 231.753 652.1C232.48 633.577 231.829 614.815 231.823 596.269L231.789 487.128C230.415 486.219 228.852 485.277 227.681 484.156C225.842 482.397 225.654 481.225 225.742 478.967L227.999 477.936C231.779 477.955 234.095 480.045 236.908 482.083C243.708 477.616 247.955 474.831 250.952 467.386Z" fill="#09AEF5"/>
<path d="M77.4519 398.66L85.2196 398.793C93.1033 400.869 99.5759 404.129 103.7 410.834C105.815 414.274 106.996 418.415 107.387 422.333C106.73 424.759 105.974 427.196 105.477 429.652C100.103 436.254 95.1763 440.791 86.3649 443.544C83.616 443.614 80.738 443.546 78.0065 443.79C77.1161 443.541 76.23 443.285 75.3483 443.01C68.5224 440.883 62.2796 436.661 59.1511 430.604C56.4634 425.402 56.2665 419.42 58.5757 414.071C62.1199 405.862 68.9097 401.97 77.4519 398.66Z" fill="#0137A0" fill-opacity="0.5"/>
<path d="M75.3648 405.154C78.2045 404.971 81.1602 404.742 83.9945 405.075C89.2069 405.687 94.3799 408.404 97.4538 412.311C100.079 415.649 101.021 419.518 100.238 423.558C98.9338 430.275 93.9642 433.894 88.078 437.496C85.317 437.793 82.4619 438.116 79.6911 437.772C74.6198 437.14 69.6973 434.923 66.607 431.129C63.8942 427.801 62.9633 423.431 63.7356 419.379C65.0461 412.515 69.4402 409.086 75.3648 405.154Z" fill="#EEFDFB"/>
<path d="M79.0752 410.011C79.376 410.027 79.678 410.037 79.9777 410.061C84.1903 410.393 88.6752 411.918 91.3859 414.976C93.2904 417.124 94.0627 419.754 93.6262 422.494C92.8331 427.469 89.3709 429.656 85.1956 432.325C84.3456 432.301 83.5 432.272 82.6523 432.203C78.3445 431.856 74.0138 430.28 71.3687 427.029C69.6426 424.908 69.0847 422.285 69.6196 419.705C70.6555 414.703 74.6734 412.489 79.0752 410.011Z" fill="#0137A0" fill-opacity="0.5"/>
<path d="M77.535 282.776C71.0307 280.044 64.044 276.043 61.4078 269.602C60.2832 266.854 60.4911 263.956 61.8628 261.315C64.1469 256.915 68.9042 253.41 73.912 251.843C79.0566 250.235 84.9177 250.315 89.7899 252.662C93.4709 254.435 95.9037 257.249 97.0774 260.861C98.3857 264.886 98.4875 269.562 96.1258 273.284C93.6175 277.235 89.1905 279.981 84.9079 282.176L84.746 354.715C84.7197 369.35 84.1728 384.193 85.2196 398.793L77.4519 398.66C79.842 360.385 77.5547 321.164 77.535 282.776Z" fill="#05A0F5"/>
<path d="M164.273 373.127C157.141 373.645 149.254 373.655 143.228 369.614C140.595 367.849 138.97 365.472 138.585 362.51C138.039 358.313 140.419 353.778 143.282 350.621C146.596 346.969 151.577 344.076 156.854 343.692C160.191 343.448 163.443 344.338 165.979 346.347C171.735 350.908 172.152 358.244 172.601 364.684C199.107 388.468 225.317 412.465 250.889 437.085C245.829 437.445 240.772 437.82 235.704 438.059L164.273 373.127Z" fill="#09AEF5"/>
<path d="M5.02105 676.125C2.22155 670.543 -0.318248 665.623 2.26597 659.54C4.19592 654.997 7.7642 651.376 12.7174 649.451C16.9902 647.789 21.8569 647.475 26.1691 649.176C29.6586 650.551 32.2806 653.134 33.5977 656.375C35.6411 661.404 33.5113 751.709 33.5003 765.145C41.9255 772.67 51.1175 780.027 58.7824 788.183C58.556 788.127 58.3274 788.079 58.1042 788.014C51.8723 786.208 39.7301 771.41 35.4322 771.821C38.0684 777.163 47.2364 783.542 52.044 787.847C65.9868 800.334 123.609 849.022 129.758 860.225C116.733 851.748 104.755 839.404 93.3998 829.131C70.9038 808.783 48.4265 788.241 26.8374 767.094C26.0061 737.307 26.3014 707.459 26.238 677.662L11.9168 677.532C11.9767 708.145 14.0411 741.267 11.5464 771.664C10.0465 764.791 11.0393 756.157 11.0534 749.104C11.0986 726.527 13.2732 701.411 10.7491 679.09C9.11242 676.87 7.67768 676.883 5.02105 676.125Z" fill="#0D70D7"/>
<path d="M16.5844 654.507C19.0642 655.102 22.522 656.187 24.2373 658.064C25.8868 659.868 26.5497 661.585 26.1931 663.944C25.7009 667.206 22.6347 669.262 20.0214 671.185C17.8708 670.597 14.7269 669.446 13.1681 667.946C11.3594 666.207 10.6759 664.561 10.8608 662.157C11.1017 659.025 14.2959 656.567 16.5844 654.507Z" fill="#FBF7F5"/>
<path d="M140.778 733.975C184.006 771.647 226.054 810.44 267.786 849.481C287.73 868.14 309.548 886.464 327.782 906.433C327.83 915.564 327.342 923.671 319.689 930.532C315.199 934.546 309.22 936.697 302.927 936.627C295.266 936.557 288.088 933.082 282.857 928.132C280.456 925.852 278.561 923.302 276.729 920.633L276.427 910.405C241.705 876.3 202.419 845.402 169.51 809.823L171.061 805.098C207.505 838.899 245.721 872.066 280.376 907.348C280.703 913.821 281.311 919.428 286.15 924.507C290.208 928.77 295.698 931.229 301.892 931.528C307.78 931.817 314.157 929.955 318.545 926.33C321.799 923.641 323.985 919.926 324.153 915.883C324.379 910.495 321.522 905.491 317.96 901.356C311.849 894.265 303.755 888.222 296.687 881.898C286.116 872.442 275.815 862.706 265.415 853.092C222.976 813.866 180.298 774.817 138.537 734.991L140.778 733.975Z" fill="#0137A0" fill-opacity="0.5"/>
<path d="M291.064 720.471C298.511 715.695 304.449 712.51 313.978 714.014C320.374 715.023 326.235 718.475 329.967 723.305C333.701 728.136 335.25 734.143 333.945 739.952C332.261 747.445 327.71 751.122 321.491 755.799L321.12 756.074C337.033 771.501 353.795 786.244 369.526 801.803C369.75 794.984 369.503 787.804 370.458 781.053C371.178 790.327 370.765 799.378 369.164 808.561C365.49 803.837 359.356 799.364 354.841 795.15C341.885 783.057 328.513 771.156 316.627 758.172C312.851 758.439 308.973 758.794 305.249 757.996C298.39 756.527 291.735 752.689 288.177 747.059C283.908 740.303 284.569 733.104 286.798 725.883L291.064 720.471Z" fill="#0D70D7"/>
<path d="M303.36 724.285C308.338 724.167 315.072 723.816 318.885 727.32C322.683 730.809 322.068 735.734 321.962 740.233L314.298 747.21C308.511 747.444 304.445 747.167 299.937 743.502C297.533 741.548 296.313 738.773 296.326 735.864C296.347 730.976 299.786 727.537 303.36 724.285Z" fill="#043CA5"/>
<path d="M127.776 639.079C120.306 641.782 112.342 642.712 104.723 639.858C98.1834 637.408 93.2685 632.386 90.5677 626.511C87.484 619.803 87.3834 612.119 90.4485 605.389C93.0344 599.71 97.8727 595.048 104.193 592.783C126.394 584.831 129.049 599.442 140.198 603.379C140.348 603.432 140.502 603.475 140.654 603.522L140.769 631.08C136.269 634.417 134.788 636.769 133.811 641.946C133.106 639.896 133.249 639.33 131.211 638.13L127.776 639.079Z" fill="#05A0F5"/>
<path d="M110.246 598.337C113.766 598.216 117.276 598.256 120.686 599.169C125.975 600.586 130.862 604.313 133.358 608.777C135.756 613.07 136.067 617.987 134.328 622.528C131.955 628.725 127.046 631.59 120.836 634.346C117.48 634.404 113.986 634.334 110.734 633.501C105.559 632.174 100.454 628.801 97.7885 624.516C95.2178 620.383 94.7015 615.697 96.2537 611.174C98.54 604.514 103.76 601.406 110.246 598.337Z" fill="#FBF7F5"/>
<path d="M109.331 604.286C110.602 604.221 111.872 604.167 113.146 604.152C117.794 604.101 122.195 605.165 125.534 608.291C127.651 610.274 128.753 612.885 128.652 615.652C128.444 621.31 124.977 624.501 120.679 628.192C118.933 628.316 117.183 628.422 115.432 628.438C111.5 628.475 107.683 627.196 104.908 624.602C102.477 622.329 101.368 619.434 101.557 616.291C101.879 610.934 105.217 607.765 109.331 604.286Z" fill="#1FC4F8"/>
<path d="M127.776 639.079L131.211 638.13C133.249 639.33 133.106 639.896 133.811 641.946C133.095 652.869 136.078 693.115 132.806 699.911C132.948 702.719 133.374 704.66 135.304 706.912C150.735 724.925 171.382 740.959 189.01 757.305L286.334 847.744C305.799 865.846 326.142 883.586 344.347 902.733C344.478 915.006 343.818 930.024 333.683 939.346C331.284 941.557 329.101 942.981 325.591 943.17C321.451 945.799 317.663 948.717 312.317 947.791C311.425 947.642 310.555 946.905 310.008 946.227C309.624 945.749 309.525 945.51 309.27 945.012C310.069 945.172 310.871 945.261 311.69 945.291C317.255 945.461 323.954 942.184 327.866 938.728C337.855 929.895 339.293 917.327 339.544 905.417C303.623 868.97 264.351 834.75 226.571 799.897C194.031 769.878 162.263 738.28 128.404 709.524C125.776 699.652 127.755 652.462 127.776 639.079Z" fill="#043CA5"/>
<path d="M105.477 429.652C118.075 441.321 131.192 452.827 143.059 465.118C143.158 479.548 143.499 494.028 143.011 508.452L138.431 508.929C120.087 493.564 101.918 477.408 85.8278 460.078C85.8552 454.571 86.1659 449.048 86.3649 443.544C95.1763 440.791 100.103 436.254 105.477 429.652Z" fill="#FBF7F5"/>
<path d="M426.802 411.148L428.169 409.748C430.863 411.346 430.789 413.917 431.561 416.686L431.907 425.739C442.485 435.2 452.968 444.772 463.673 454.112C475.288 444.458 488.983 434.442 496.298 421.526C496.931 417.867 496.47 416.381 499.688 413.977C499.856 418.391 500.126 422.824 500.046 427.239C488.593 438.118 477.207 449.067 465.537 459.753C465.541 517.908 467.024 1109.33 464.848 1113.82C462.683 1109.37 463.134 1104.36 461.788 1099.62C460.699 1076.81 461.732 1053.53 461.756 1030.66L462.425 460.734C450.739 449.181 438.63 437.983 426.609 426.721L426.802 411.148Z" fill="#043CA5"/>
<path d="M22.9268 931.379C25.9033 933.749 38.7696 938.34 42.852 938.579C44.086 943.439 46.5089 948.02 49.4756 952.183C50.0444 952.511 50.6242 952.8 51.2477 953.029C60.2264 956.336 193.389 955.011 200.655 951.695C204.644 959.363 213.204 964.243 218.951 970.796C221.749 973.993 224.98 979.48 223.981 983.742C223.637 985.216 222.798 986.411 221.468 987.258C217.973 989.499 213.457 989.04 209.467 988.513C208.197 987.696 206.852 987.228 206.435 985.804C205.266 981.79 208.59 977.1 210.584 973.744L209.324 970.378L207.83 970.218C203 967.46 200.076 963.028 197.652 958.467C196.407 959.094 194.975 959.652 193.584 959.921C181.115 962.371 55.2262 962.679 48.91 958.835C47.1259 963.157 44.0936 967.45 40.2103 970.437C35.2364 974.271 28.6314 976.014 22.1742 975.347C15.2848 974.62 8.92526 971.214 4.76355 966.195C1.34228 962.062 -0.117951 957.053 0.848723 951.934C3.07698 940.152 13.1671 937.882 22.3218 931.787L22.9268 931.379Z" fill="#0137A0" fill-opacity="0.5"/>
<path d="M18.2263 938.23C25.7468 941.587 32.8506 940.093 39.5649 946.596C41.6258 948.598 42.6398 950.998 42.4484 953.746C42.2121 957.132 39.869 962.679 36.9866 964.92C34.6982 966.703 33.7454 966.523 30.9297 966.374C29.4343 968.256 27.6239 969.481 25.0391 969.85C21.298 970.387 17.8763 969.661 14.8199 967.579C11.4927 965.309 9.70925 961.435 9.33984 957.75C8.47337 949.116 12.3658 944.425 18.2263 938.23Z" fill="#FBF7F5"/>
<path d="M133.811 641.946C134.788 636.769 136.269 634.417 140.769 631.08L140.979 703.42C189.543 750.217 240.375 794.95 289.862 840.922C314.529 863.837 339.938 886.649 362.502 911.302C363.441 922.187 362.136 933.42 362.383 944.365C355.69 948.697 338.102 948.807 330.125 947.423C328.637 947.164 327.211 946.686 325.829 946.128C325.52 945.012 325.336 944.305 325.591 943.17C329.101 942.981 331.284 941.557 333.683 939.346C343.818 930.024 344.478 915.006 344.347 902.733C326.142 883.586 305.799 865.846 286.334 847.744L189.01 757.305C171.382 740.959 150.735 724.925 135.304 706.912C133.374 704.66 132.948 702.719 132.806 699.911C136.078 693.115 133.095 652.869 133.811 641.946Z" fill="#FBF7F5"/>
<path d="M145.336 558.083L146.403 558.629L147.286 558.783C151.28 559.458 155.78 558.541 158.795 560.886C159.132 562.864 159.471 564.84 159.771 566.822L159.738 695.273C167.976 705.506 178.656 714.233 188.569 723.112L228.324 759.003L361.58 883.297C363.32 885.705 364.099 887.193 364.368 890.135L363.481 892.273L361.727 892.717C351.386 881.272 339.157 870.735 327.871 860.03C306.364 839.629 284.787 819.33 262.768 799.384L258.442 802.339L147.402 700.946L147.262 687.53C144.611 679.873 145.99 668.781 145.957 660.64C145.915 650.588 147.544 568.127 145.958 565.05C145.701 564.552 144.651 563.772 144.203 563.334L142.697 563.84C142.013 566.314 141.647 568.745 141.319 571.27L140.6 565.02C140.789 564.144 140.975 563.246 141.275 562.395C142.279 559.541 142.475 559.305 145.336 558.083Z" fill="#0137A0" fill-opacity="0.5"/>
<path d="M147.262 687.53C147.535 672.134 144.883 569.354 149.669 563.577C151.017 564.09 151.868 564.207 152.49 565.545C155.783 572.64 153.306 680.659 153.16 698.734L221.544 761.219C235.457 773.873 249.832 785.865 262.768 799.384L258.442 802.339L147.402 700.946L147.262 687.53Z" fill="#05A0F5"/>
<path d="M169.161 1035.17C166.847 1038.63 163.21 1040.59 159.056 1041.73C153.127 1043.38 147.077 1043.29 141.548 1040.56C136.347 1037.98 132.659 1033.55 131.149 1028.35C129.391 1022.3 130.603 1015.7 134.222 1010.41C137.333 1005.86 142.068 1002.53 147.853 1001.38C164.299 998.073 163.884 1008.58 173.832 1014.1C173.966 1014.18 174.107 1014.24 174.245 1014.31C174.816 1014.58 175.395 1014.84 176.014 1015.02C186.98 1018.21 333.357 1016.61 352.858 1015.15C355.745 1014.93 358.098 1014.53 360.645 1013.23C361.196 1016.64 362.05 1020.23 361.741 1023.66L361.744 1025.61L361.683 1035.56C360.559 1035.09 191.384 1036.52 169.161 1035.17Z" fill="#09AEF5"/>
<path d="M147.534 1007.04C150.804 1008.96 155.721 1009.13 159.459 1008.57C163.376 1014.66 166.773 1016.16 167.757 1023.9C168.139 1026.89 167.479 1029.55 165.448 1031.97C162.76 1033.4 161.088 1034.3 157.839 1033.99C157.735 1034.1 157.634 1034.22 157.528 1034.34C155.735 1036.25 153.658 1036.77 150.964 1036.95C147.963 1037.16 145.419 1036.44 143.151 1034.57C139.733 1031.73 138.526 1027.67 138.387 1023.6C138.128 1016 142.113 1012.17 147.534 1007.04Z" fill="#FBF7F5"/>
<path d="M141.319 571.27C141.647 568.745 142.013 566.314 142.697 563.84L144.203 563.334C144.651 563.772 145.701 564.552 145.958 565.05C147.544 568.127 145.915 650.588 145.957 660.64C145.99 668.781 144.611 679.873 147.262 687.53L147.402 700.946L258.442 802.339L262.768 799.384C284.787 819.33 306.364 839.629 327.871 860.03C339.157 870.735 351.386 881.272 361.727 892.717L358.237 895.972C360.823 898.971 364.626 902.398 364.271 906.434C364.113 908.224 363.527 909.788 362.502 911.302C339.938 886.649 314.529 863.837 289.862 840.922C240.375 794.95 189.543 750.217 140.979 703.42L140.769 631.08L140.654 603.522L140.596 584.279L82.3668 584.326C70.6446 595.096 30.5611 636.345 15.6272 637.681C12.6797 637.944 9.72818 637.331 7.48362 635.491C5.35086 633.743 3.51574 630.602 3.605 627.958C4.05722 614.552 41.0767 586.599 51.9478 577.539C80.273 577.984 110.415 579.754 138.562 577.362C140.902 575.66 140.718 573.86 141.319 571.27Z" fill="#043CA5"/>
<path d="M262.768 799.384C284.787 819.33 306.364 839.629 327.871 860.03C339.157 870.735 351.386 881.272 361.727 892.717L358.237 895.972C324.765 864.939 291.33 833.887 258.442 802.339L262.768 799.384Z" fill="#09AEF5"/>
<path d="M67.5139 583.882C69.496 583.783 69.8045 583.733 71.6236 584.646C69.9959 588.59 21.8974 630.574 16.2781 633.468C15.3669 632.916 14.3506 632.342 13.5794 631.633C12.0184 630.196 11.316 628.983 11.474 626.966C12.2653 616.867 45.3636 591.231 55.0249 583.982L67.5139 583.882Z" fill="#FBF7F5"/>
<path d="M206.752 157.391C203.081 155.352 199.5 153.16 196.602 150.232C192.757 146.345 190.661 141.706 191.025 136.448C191.404 131 193.76 125.288 198.406 121.679C202.959 118.143 208.976 116.783 214.87 117.24C221.82 117.776 228.665 120.906 233.122 125.817C236.54 129.583 238.371 134.214 237.668 139.124C236.494 147.318 229.309 152.965 222.561 157.695L221.995 301.133C252.201 329.364 283.028 357.074 313.863 384.736C326.468 396.043 350.266 414.498 359.395 427.18C356.943 426.732 354.498 426.361 352.024 426.026L346.91 427.325L346.346 426.931L342.442 427.846C328.925 420.177 297.377 387.883 284.37 376.085L241.963 337.884C230.342 327.544 216.494 317.267 207.587 304.876C205.64 285.411 206.376 265.357 206.422 245.81L206.752 157.391Z" fill="#0137A0" fill-opacity="0.5"/>
<path d="M208.5 123.345C210.57 123.173 212.693 122.994 214.772 123.071C219.11 123.236 223.995 125.396 226.818 128.396C229.35 131.087 230.423 134.63 230.052 138.129C229.396 144.336 225.521 147.584 220.483 151.365C218.337 151.456 216.157 151.55 214.011 151.393C209.011 151.028 204.066 148.904 200.924 145.28C198.563 142.558 197.639 139.222 198.242 135.799C199.276 129.927 203.514 126.705 208.5 123.345Z" fill="#FBF7F5"/>
<path d="M210.62 131.537C211.341 131.584 212.058 131.639 212.773 131.742C215.856 132.181 217.906 132.888 219.739 135.237C220.838 138.519 219.718 141.051 218.633 144.198C214.431 143.824 211.86 143.093 209.064 140.224C208.215 136.897 209.334 134.614 210.62 131.537Z" fill="#05A0F5"/>
<path d="M212.881 304.697L212.726 190.659C212.772 182.119 211.421 173.562 211.721 165.033C211.798 162.806 211.943 160.413 213.125 158.414C213.755 157.351 214.003 157.392 215.227 157.016C219.965 163.175 216.681 285.389 217.102 303.811L308.791 386.094C323.03 399.039 339.243 411.983 352.024 426.026L346.91 427.325L346.346 426.931L212.881 304.697Z" fill="#0D70D7"/>
<path d="M276.441 206.243C280.871 206.055 285.308 205.797 289.742 206.011L289.641 310.5C315.525 336.194 343.266 360.26 369.509 385.647L369.585 334.936C356.71 322.973 344.047 310.05 330.101 299.148C324.567 294.822 315.185 292.53 310.73 287.716C308.35 285.145 307.147 282.017 307.237 278.655C307.34 274.82 308.971 271.105 312.094 268.485C315.489 265.638 320.208 264.289 324.786 264.521C328.556 264.712 332.82 266.259 335.334 268.906C340.17 273.996 335.855 279.981 339.886 284.606C353.564 300.299 371.385 314.108 386.973 328.324L386.529 491.403C394.572 498.317 414.416 512.222 414.902 522.667C414.956 523.833 414.809 525.39 414.397 526.486C413.902 526.021 413.5 525.64 412.853 525.352C410.172 524.159 407.872 524.93 405.281 525.762C393.001 515.216 381.232 504.232 369.436 493.239L369.486 397.812C339.288 368.418 307.463 340.073 276.529 311.301C276.888 276.335 277.894 241.191 276.441 206.243Z" fill="#09AEF5"/>
<path d="M352.024 426.026C354.498 426.361 356.943 426.732 359.395 427.18C362.084 436.144 359.825 466.884 359.816 477.861L359.847 617.931C376.553 634.448 393.995 650.551 411.737 666.15L410.971 1042.06L410.907 1135.23C410.943 1151.6 413.214 1170.29 409.78 1186.3C408.915 1189.14 408.858 1191.03 406.391 1193.01C404.235 1191.92 403.889 1191.45 402.563 1189.54C401.726 1176.9 403.318 1164.08 401.505 1151.51C400.507 1132.97 401.266 1114.13 401.294 1095.56L401.349 994.329L401.096 675.204C379.671 660.527 361.537 640.651 343.313 622.81L343.351 497.103C343.501 474.815 346.812 449.754 342.442 427.846L346.346 426.931L346.91 427.325L352.024 426.026Z" fill="url(#paint0_linear_1621_98805)"/>
<path d="M339.423 45.6584C336.206 43.5411 333.048 41.4159 330.364 38.732C325.921 34.2884 321.987 28.6507 322.449 22.4015C322.812 17.4858 325.907 13.0481 329.931 9.88272C335.665 5.37226 343.423 3.09079 350.968 3.66343C356.606 4.09136 362.42 6.31058 366.026 10.3871C370.125 15.02 371.451 21.5779 370.6 27.3919C369.401 35.578 362.712 40.2935 355.963 44.9164L356.401 263.061C376.457 282.695 397.991 301.176 419.06 319.9L418.889 466.522C428.817 476.231 439.087 485.468 449.616 494.635C447.75 502.723 450.928 516.885 447.865 523.255L446.249 523.727C446.112 528.463 446.183 533.315 445.02 537.953L444.816 538.731L445.026 538.145L442.858 538.188L444.377 537.607C443.126 524.702 443.425 511.557 443.264 498.601C432.961 491.91 413.099 477.578 409.139 466.719L406.76 470.198L405.595 469.155C405.063 470.621 404.509 472.075 404.113 473.578C411.818 480.852 419.675 488.032 427.19 495.466L425.834 500.51C416.585 492.257 407.673 483.824 398.937 475.119L399.136 322.002C379.701 303.747 359.687 285.974 339.875 268.058L339.423 45.6584Z" fill="#0137A0" fill-opacity="0.5"/>
<path d="M345.611 144.329C344.889 128.733 342.3 58.4266 347.271 47.684L348.579 47.8612C350.896 54.5855 352.954 224.036 350.886 232.497C349.36 228.838 348.845 126.221 348.088 113.316L347.5 113.529C346.199 123.822 346.334 134.017 345.611 144.329Z" fill="#0D70D7"/>
<path d="M344.071 8.81116C346.491 8.8981 349.15 9.19984 351.484 9.77875C355.499 10.7745 359.362 13.4017 361.456 16.6801C363.561 19.9745 363.97 23.8375 362.83 27.4865C360.946 33.5165 356.266 36.3628 350.552 39.3036C347.97 39.0746 345.286 38.8973 342.764 38.3326C338.692 37.4234 334.488 34.3909 332.409 31.1115C330.43 27.9904 330.072 24.3494 331.179 20.9067C333.205 14.6077 338.029 11.7864 344.071 8.81116Z" fill="#FBF7F5"/>
<path d="M343.488 18.0465C344.221 18.1222 344.95 18.2058 345.674 18.3433C348.572 18.891 350.691 19.7873 352.281 22.1027C353.278 25.0983 352.018 27.5203 350.897 30.3118C347.404 29.7641 344.15 28.9574 341.988 26.2406C340.889 23.2978 342.327 20.7772 343.488 18.0465Z" fill="#045AC6"/>
<path d="M404.238 319.138C405.949 319.871 408.82 320.6 409.516 322.255C412.815 330.091 412.228 458.071 409.139 466.719L406.76 470.198L405.595 469.155C405.063 470.621 404.509 472.075 404.113 473.578C401.533 456.2 403.571 437.725 403.699 420.181L404.238 319.138Z" fill="#0D84E2"/>
<path d="M345.611 144.329C346.334 134.017 346.199 123.822 347.5 113.529L348.088 113.316C348.845 126.221 349.36 228.838 350.886 232.497L351.024 265.078C370.932 284.932 393.148 303.41 414.375 322.125L414.07 468.841C424.882 477.926 434.846 488.117 446.034 496.76L446.249 523.727C446.112 528.463 446.183 533.315 445.02 537.953L444.816 538.731L445.026 538.145L442.858 538.188L444.377 537.607C443.126 524.702 443.425 511.557 443.264 498.601C432.961 491.91 413.099 477.578 409.139 466.719C412.228 458.071 412.815 330.091 409.516 322.255C408.82 320.6 405.949 319.871 404.238 319.138C386.692 307.141 361.77 281.302 345.546 266.176L345.611 144.329Z" fill="#05A0F5"/>
<path d="M305.8 468.028C307.247 466.619 309.664 465.849 311.558 465.018L311.551 504.375C319.351 512.117 325.52 519.013 324.984 530.142C324.606 537.976 321.367 545.481 320.874 553.283C319.23 579.268 320.564 606.058 320.499 632.129C340.8 649.874 361.307 667.782 380.318 686.68L380.301 770.798C380.302 782.394 381.635 794.986 380.545 806.485C380.265 809.439 379.938 810.551 377.917 812.89C375.068 813.56 374.486 813.316 371.64 812.492C370.666 811.221 369.676 810.059 369.164 808.561C370.765 799.378 371.178 790.327 370.458 781.053C368.586 764.162 370.038 745.86 369.947 728.807C346.559 705.475 321.949 683.142 297.456 660.779C291.329 656.128 285.718 650.463 280.008 645.366L283.516 641.382C282.25 640.005 281.654 638.423 281.415 636.647C280.09 626.785 278.058 563.611 282.821 558.051C279.797 555.955 276.743 554.774 273.227 553.511C270.197 551.391 267.463 548.958 265.234 546.119C260.307 539.843 258.416 531.673 260.06 524.121C262.132 514.6 268.616 508.355 277.243 503.175C280.353 502.436 283.372 501.451 286.407 500.494C293.203 500.203 299.336 500.826 305.951 502.167C306.028 490.787 305.894 479.407 305.8 468.028Z" fill="#0137A0" fill-opacity="0.5"/>
<path d="M313.269 553.495L314.809 553.829C317.022 557.193 315.381 618.805 314.838 626.373L313.783 627.04L310.935 624.874L302.895 618.908C303.448 598.806 303.107 578.676 302.98 558.57L313.269 553.495Z" fill="#FBF7F5"/>
<path d="M286.226 505.882C291.881 505.617 297.052 505.425 302.39 507.392C309.469 510 315.095 514.889 317.952 521.37C320.538 527.235 320.457 534.021 317.58 539.787C313.773 547.419 307.037 550.852 298.793 553.689C294.385 553.847 289.604 553.68 285.381 552.465C278.134 550.377 271.809 545.87 268.44 539.606C265.524 534.185 265.036 527.746 267.305 522.057C270.725 513.479 277.611 509.549 286.226 505.882Z" fill="#FBF7F5"/>
<path d="M287.111 511.673C290.501 511.507 294.008 511.44 297.321 512.217C302.733 513.486 307.683 516.67 310.519 521.078C313.043 525.002 313.603 529.751 312.289 534.118C310.127 541.307 304.801 544.523 297.975 547.925C294.93 547.962 291.578 547.849 288.607 547.224C283.187 546.085 277.693 542.533 274.905 538.139C272.484 534.326 271.929 529.853 273.169 525.612C275.233 518.554 280.516 515.228 287.111 511.673Z" fill="#043CA5"/>
<path d="M288.968 516.54C290.662 516.574 292.335 516.74 294.003 517.007C298.467 517.719 302.438 519.771 304.964 523.266C306.79 525.793 307.265 528.935 306.58 531.868C305.355 537.122 301.307 539.781 296.585 542.495C295.65 542.484 294.751 542.431 293.822 542.332C288.635 541.777 284.068 540.504 280.876 536.484C278.984 534.102 278.502 531 279.029 528.141C280.078 522.459 284.13 519.783 288.968 516.54Z" fill="#05A0F5"/>
<path d="M282.821 558.051C286.877 558.781 290.903 559.491 295.01 559.943L295.003 621.671C320.434 644.502 346.341 666.99 370.052 691.332L370.254 722.164C348.156 700.405 325.977 678.253 301.978 658.221L297.456 660.779C291.329 656.128 285.718 650.463 280.008 645.366L283.516 641.382C282.25 640.005 281.654 638.423 281.415 636.647C280.09 626.785 278.058 563.611 282.821 558.051Z" fill="#FBF7F5"/>
<path d="M283.516 641.382C289.823 646.848 296.26 652.232 301.978 658.221L297.456 660.779C291.329 656.128 285.718 650.463 280.008 645.366L283.516 641.382Z" fill="#043CA5"/>
<path d="M92.4087 649.361L120.077 649.308C120.643 670.232 121.143 690.757 119.166 711.647C125.176 719.784 133.394 726.864 140.778 733.975L138.537 734.991C180.298 774.817 222.976 813.866 265.415 853.092C275.815 862.706 286.116 872.442 296.687 881.898C303.755 888.222 311.849 894.265 317.96 901.356C321.522 905.491 324.379 910.495 324.153 915.883C323.985 919.926 321.799 923.641 318.545 926.33C314.157 929.955 307.78 931.817 301.892 931.528C295.698 931.229 290.208 928.77 286.15 924.507C281.311 919.428 280.703 913.821 280.376 907.348C245.721 872.066 207.505 838.899 171.061 805.098L169.51 809.823C143.373 786.575 117.925 762.704 92.3901 738.912C91.9427 709.058 92.1801 679.216 92.4087 649.361Z" fill="#043CA5"/>
<path d="M298.183 906.126C301.707 906.072 303.812 906.143 306.963 907.766C308.503 909.828 309.378 910.893 308.67 913.552C308.195 915.335 306.278 917.177 304.917 918.482C301.384 918.163 299.66 917.894 296.976 915.604C295.956 913.523 295.248 911.78 296.114 909.529C296.563 908.354 297.467 907.159 298.183 906.126Z" fill="#FBF7F5"/>
<path d="M111.714 652.743C112.76 653.323 114.75 654.011 115.036 655.088C117.912 665.938 115.473 713.018 115.035 727.1L241.781 844.743C260.441 861.989 281.047 878.826 298.516 896.971C299.966 898.477 300.802 899.708 300.954 901.782C300.161 903.416 299.428 904.738 298.183 906.126C296.487 906.051 295.202 905.749 293.866 904.779C286.441 899.392 279.76 892.308 273.06 886.15L229.967 846.132C189.211 808.163 147.894 770.658 107.897 732.026C107.806 720.18 105.277 662.388 109.084 654.924L111.714 652.743Z" fill="#FBF7F5"/>
<path d="M96.2888 735.296C96.1476 721.507 93.0125 660.303 99.6798 653.608L102.008 654.538C103.545 656.035 104.308 657.416 104.629 659.425C106.138 668.872 104.745 679.34 104.584 688.881C104.33 703.881 104.552 718.908 104.609 733.91C123.191 753.62 143.824 771.769 163.861 790.242L249.19 869.597C262.289 881.932 278.583 893.101 289.642 906.919C292.398 910.366 291.276 913.204 292.735 916.809C293.684 919.159 296.083 921.061 298.596 921.998C301.29 922.993 304.424 922.645 307.035 921.579C309.671 920.494 312.159 918.233 313.147 915.743C314.449 912.447 313.135 909.011 311.201 906.184C297.739 886.486 268.897 863.754 250.235 846.688L163.335 766.761C147.516 752.303 127.592 736.926 117.088 718.691C125.283 723.075 131.78 728.992 138.537 734.991C180.298 774.817 222.976 813.866 265.415 853.092C275.815 862.706 286.116 872.442 296.687 881.898C303.755 888.222 311.849 894.265 317.96 901.356C321.522 905.491 324.379 910.495 324.153 915.883C323.985 919.926 321.799 923.641 318.545 926.33C314.157 929.955 307.78 931.817 301.892 931.528C295.698 931.229 290.208 928.77 286.15 924.507C281.311 919.428 280.703 913.821 280.376 907.348C245.721 872.066 207.505 838.899 171.061 805.098C145.714 782.177 120.18 759.493 96.2888 735.296Z" fill="#EEFDFB"/>
<path d="M146.35 212.835C145.425 212.494 144.504 212.148 143.594 211.775C136.429 208.83 129.847 203.652 127.179 196.734C124.989 191.055 126.441 185.798 129.219 180.557C132.221 174.892 136.821 169.962 143.55 167.945C149.558 166.145 156.085 167.093 161.631 169.689C168.408 172.86 173.662 178.739 175.818 185.383C177.499 190.563 177.261 196.365 174.217 201.093C169.616 208.237 161.45 210.756 153.154 212.612L153.043 294.61C157.328 295.595 162.341 296.606 165.952 299.051C172.332 303.37 176.931 311.158 182.76 316.297L264.588 389.625C276.66 400.632 288.27 413.531 301.183 423.552C304.16 425.861 308.067 427.071 311.52 428.675C316.942 431.195 320.834 434.571 322.631 440.016C324.524 445.751 323.571 452.777 320.421 458.005C318.441 461.291 315.574 463.965 311.558 465.018C309.664 465.849 307.247 466.619 305.8 468.028C305.894 479.407 306.028 490.787 305.951 502.167C299.336 500.826 293.203 500.203 286.407 500.494C283.372 501.451 280.353 502.436 277.243 503.175C278.012 482.929 277.386 464.143 273.875 444.114C249.23 420.657 222.928 398.705 198.114 375.418C185.086 363.19 174.411 348.713 159.627 338.123C153.585 337.675 147.491 337.476 141.436 337.161C136.217 334.429 132.055 331.131 129.32 326.145C126.655 321.288 126.164 315.88 128.105 310.721C131.201 302.492 138.19 298.422 146.306 294.809L146.35 212.835Z" fill="#09AEF5"/>
<path d="M285.259 465.698C292.49 468.638 297.994 469.364 305.8 468.028C305.894 479.407 306.028 490.787 305.951 502.167C299.336 500.826 293.203 500.203 286.407 500.494C281.298 492.905 284.633 474.616 285.259 465.698Z" fill="#FBF7F5"/>
<path d="M146.647 301.626C149.542 301.396 152.489 301.212 155.319 301.95C159.853 303.132 164.211 306.168 166.52 309.922C168.761 313.564 169.214 317.981 167.825 321.955C165.907 327.443 161.622 329.834 156.269 332.357C153.822 332.486 151.223 332.484 148.8 332.095C144.536 331.411 140.17 328.702 137.716 325.483C135.166 322.139 134.505 318.145 135.351 314.189C136.668 308.023 141.167 304.911 146.647 301.626Z" fill="#FBF7F5"/>
<path d="M148.09 306.585C148.274 306.576 148.458 306.566 148.641 306.559C152.996 306.409 157.83 307.157 160.995 310.155C163.081 312.13 164.263 314.578 164.159 317.348C163.98 322.171 160.728 325.099 157 328.125C154.942 328.128 152.794 328.161 150.761 327.839C146.936 327.233 143.527 325.215 141.352 322.284C139.686 320.04 139.056 317.426 139.832 314.771C141.089 310.474 143.934 308.543 148.09 306.585Z" fill="#0D84E2"/>
<path d="M147.718 174.209C150.55 174.023 153.306 173.951 156.079 174.614C160.501 175.674 164.593 178.631 166.8 182.261C169.097 186.036 169.496 190.267 168.184 194.401C166.307 200.31 161.817 203.11 156.136 205.889C153.387 206.049 150.566 206.239 147.858 205.669C143.296 204.708 138.865 201.884 136.435 198.231C133.962 194.515 133.618 190.168 134.901 186.033C136.831 179.815 141.808 177.101 147.718 174.209Z" fill="#FBF7F5"/>
<path d="M148.203 179.073C149.961 179.018 151.829 178.934 153.564 179.234C157.104 179.849 160.23 181.801 162.159 184.561C163.809 186.923 164.322 189.736 163.619 192.461C162.576 196.501 159.855 198.755 156.077 200.786C153.448 200.897 150.356 201.175 147.835 200.389C144.614 199.383 141.45 196.859 140.084 194.008C138.923 191.584 138.914 188.686 139.954 186.23C141.604 182.33 144.218 180.853 148.203 179.073Z" fill="#05A0F5"/>
<path d="M295.154 431.031C298.915 431.084 302.575 431.07 306.037 432.581C310.672 434.605 314.394 438.334 316.092 442.754C317.494 446.4 317.385 450.492 315.459 453.961C312.662 458.998 308.674 461.069 302.944 462.734C300.082 462.967 296.688 463.432 293.913 462.608C289.163 461.199 284.599 457.358 282.574 453.226C280.603 449.207 280.576 444.575 282.457 440.517C284.906 435.239 289.602 433.075 295.154 431.031Z" fill="#FBF7F5"/>
<path d="M294.756 435.875C295.47 435.87 296.179 435.879 296.892 435.928C301.185 436.231 305.918 437.465 308.634 440.743C310.451 442.935 311.193 445.601 310.724 448.327C309.911 453.056 306.474 455.533 302.595 458.387C302.018 458.384 301.441 458.383 300.865 458.342C296.251 458.014 291.868 456.969 288.865 453.515C287.042 451.416 286.394 448.967 286.747 446.334C287.421 441.287 290.68 438.896 294.756 435.875Z" fill="#0D84E2"/>
<path d="M173.907 325.181C182.625 330.716 199.542 348.382 208.156 356.155L255.764 398.977C265.47 407.682 276.28 416.252 284.616 426.073C285.248 429.012 284.18 429.855 282.623 432.379C276.809 431.438 183.346 344.889 171.966 332.954C171.087 330.085 172.658 327.776 173.907 325.181Z" fill="#FBF7F5"/>
<path d="M406.76 470.198L409.139 466.719C413.099 477.578 432.961 491.91 443.264 498.601C443.425 511.557 443.126 524.702 444.377 537.607L442.858 538.188L445.026 538.145L444.816 538.731L445.02 537.953C446.183 533.315 446.112 528.463 446.249 523.727L447.865 523.255C450.928 516.885 447.75 502.723 449.616 494.635C453.223 517.673 450.533 541.364 450.474 564.531L450.519 1027.89C450.524 1042.55 451.114 1057.43 450.327 1072.07C451.151 1099.1 450.312 1126.28 450.326 1153.33C450.338 1176.92 451.309 1200.86 450.22 1224.42L450.474 1427.57C447.131 1434.3 425.568 1455.94 417.763 1458.86C416.948 1458.42 414.606 1459.78 413.021 1459.74L416.031 1456.16L414.455 1453.67C410.297 1458.39 391.049 1478.04 386.068 1479.64C380.798 1485.78 342.074 1523.49 336.921 1525.52C329.74 1534.89 276.083 1585.59 266.6 1590.27C265.526 1590.18 264.328 1590.18 263.3 1589.9L262.703 1588.7C267.91 1575.81 298.136 1558.61 303.945 1546.23C304.362 1546.18 305.101 1546.14 305.539 1545.98C309.886 1544.45 365.156 1490.77 367.372 1486.42C368.267 1484.19 370.587 1483.8 370.644 1481.17L367.438 1479.73C367.583 1479.66 367.735 1479.59 367.875 1479.5C372.658 1476.56 381.669 1467.46 382.907 1462.26C383.09 1461.5 381.144 1459.23 380.599 1458.47C375.411 1457.1 371.643 1452.23 368.442 1448.35C363.781 1455.99 355.339 1463.06 348.335 1469.04L346.43 1469.48C347.31 1464.61 358.002 1456.23 361.89 1452.37C356.601 1455.24 352.857 1459.72 347.581 1462.69L345.303 1461.58C354.622 1455.26 366.88 1445.88 373.047 1436.86C372.87 1436.88 372.694 1436.92 372.515 1436.94C368.062 1437.43 363.336 1433.67 359.219 1435.59C352.18 1438.84 339.498 1453.79 333.547 1459.53C307.17 1484.95 280.157 1509.9 252.674 1534.34C245.863 1540.39 238.349 1549.21 230.692 1553.97C230.25 1576.98 230.504 1600 230.579 1623.01C232.515 1625.91 234.781 1628.5 238.243 1629.99L236.048 1632.76C235.45 1632.7 234.86 1632.59 234.281 1632.43C230.25 1631.37 228.009 1627.71 226.128 1624.57L226.097 1550.74C226.427 1550.68 226.762 1550.65 227.087 1550.57C231.222 1549.63 352.599 1437.23 358.561 1427.54C363.686 1430.96 367.202 1433.1 373.671 1432.94L376.146 1434.93L378.468 1434.66L377.156 1438.89L378.25 1440.4L379.56 1440.64C377.653 1442.33 375.807 1443.24 375.68 1445.82C375.528 1448.92 377.475 1450.92 379.711 1452.97C380.975 1454.13 382.093 1454.94 383.723 1455.64C385.793 1457.42 385.886 1457.74 388.685 1457.93C399.098 1453.21 423.326 1429.02 428.281 1419.58L427.571 653.701C427.574 646.377 430.052 629.343 428.058 623.785L430.505 621.604C429.024 619.859 427.821 618.367 427.042 616.264C431.052 610.496 428.82 587.637 428.657 580.067C415.784 567.144 402.565 554.511 389.401 541.836L405.281 525.762C407.872 524.93 410.172 524.159 412.853 525.352C413.5 525.64 413.902 526.021 414.397 526.486C414.301 526.617 414.208 526.748 414.111 526.876C409.603 532.802 404.155 537.671 398.591 542.766C408.093 552.902 418.416 562.391 428.552 571.998C428.51 559.766 431.359 511.648 428.032 503.271C427.712 502.466 426.421 501.249 425.834 500.51L427.19 495.466C419.675 488.032 411.818 480.852 404.113 473.578C404.509 472.075 405.063 470.621 405.595 469.155L406.76 470.198Z" fill="#043CA5"/>
<path d="M404.113 473.578C404.509 472.075 405.063 470.621 405.595 469.155L406.76 470.198C417.218 480.098 427.542 490.151 438.656 499.449C438.674 529.434 437.938 559.593 438.78 589.557C439.321 608.812 439.534 628.041 439.647 647.303C439.693 655.08 440.698 663.979 439.548 671.644C439.72 675.093 439.19 680.51 440.508 683.642C438.842 712.851 441.505 742.367 441.615 771.608L441.697 843.798C441.695 856.287 441.062 869.099 441.881 881.555C441.196 927.355 441.884 973.166 441.703 1018.98C441.642 1034.58 443.505 1056.05 441.537 1071.11C441.635 1082.5 439.09 1144.76 441.869 1150.52C440.343 1198.87 441.273 1247.06 441.582 1295.41L441.613 1425.88C438.607 1431.79 421.125 1450.27 414.455 1453.67C410.297 1458.39 391.049 1478.04 386.068 1479.64C380.798 1485.78 342.074 1523.49 336.921 1525.52C329.74 1534.89 276.083 1585.59 266.6 1590.27C265.526 1590.18 264.328 1590.18 263.3 1589.9L262.703 1588.7C267.91 1575.81 298.136 1558.61 303.945 1546.23C304.362 1546.18 305.101 1546.14 305.539 1545.98C309.886 1544.45 365.156 1490.77 367.372 1486.42C367.648 1486.39 367.929 1486.38 368.199 1486.32C370.944 1485.67 424.65 1434.53 430.227 1428.62C432.78 1425.92 434.889 1423.25 436.414 1419.95L436.172 1285C436.26 1265.74 437.195 1246.44 437.005 1227.18L436.285 1023.37C436.196 980.317 435.237 937.255 436.327 894.201C434.79 865.01 435.977 835.677 436.12 806.465L436.159 677.322C434.58 670.657 435.068 663.202 434.956 656.381C436.388 636.048 435.443 615.357 435.21 594.993L434.218 501.983L427.19 495.466C419.675 488.032 411.818 480.852 404.113 473.578Z" fill="#1FC4F8"/>
<path d="M404.113 473.578C404.509 472.075 405.063 470.621 405.595 469.155L406.76 470.198C417.218 480.098 427.542 490.151 438.656 499.449C438.674 529.434 437.938 559.593 438.78 589.557C439.321 608.812 439.534 628.041 439.647 647.303C439.693 655.08 440.698 663.979 439.548 671.644C439.72 675.093 439.19 680.51 440.508 683.642C438.842 712.851 441.505 742.367 441.615 771.608L441.697 843.798C441.695 856.287 441.062 869.099 441.881 881.555C441.196 927.355 441.884 973.166 441.703 1018.98C441.642 1034.58 443.505 1056.05 441.537 1071.11C438.394 1066.38 440.174 1035.88 440.199 1028.29C442.803 954.932 440.654 881.054 439.607 807.663C439.392 792.546 441.625 756.571 438.172 744.542C435.926 761.711 437.505 780.534 437.519 797.87C437.544 826.481 436.939 855.149 437.16 883.742C436.917 887.176 436.917 890.812 436.327 894.201C434.79 865.01 435.977 835.677 436.12 806.465L436.159 677.322C434.58 670.657 435.068 663.202 434.956 656.381C436.388 636.048 435.443 615.357 435.21 594.993L434.218 501.983L427.19 495.466C419.675 488.032 411.818 480.852 404.113 473.578Z" fill="#05A0F5"/>
<path d="M406.76 470.198L409.139 466.719C413.099 477.578 432.961 491.91 443.264 498.601C443.425 511.557 443.126 524.702 444.377 537.607L442.858 538.188L445.026 538.145L444.816 538.731L445.02 537.953C446.183 533.315 446.112 528.463 446.249 523.727L447.865 523.255C450.928 516.885 447.75 502.723 449.616 494.635C453.223 517.673 450.533 541.364 450.474 564.531L450.519 1027.89C450.524 1042.55 451.114 1057.43 450.327 1072.07C451.151 1099.1 450.312 1126.28 450.326 1153.33C450.338 1176.92 451.309 1200.86 450.22 1224.42L450.474 1427.57C447.131 1434.3 425.568 1455.94 417.763 1458.86C416.948 1458.42 414.606 1459.78 413.021 1459.74L416.031 1456.16L414.455 1453.67C421.125 1450.27 438.607 1431.79 441.613 1425.88L441.582 1295.41C441.273 1247.06 440.343 1198.87 441.869 1150.52C439.09 1144.76 441.635 1082.5 441.537 1071.11C443.505 1056.05 441.642 1034.58 441.703 1018.98C441.884 973.166 441.196 927.355 441.881 881.555C441.062 869.099 441.695 856.287 441.697 843.798L441.615 771.608C441.505 742.367 438.842 712.851 440.508 683.642C439.19 680.51 439.72 675.093 439.548 671.644C440.698 663.979 439.693 655.08 439.647 647.303C439.534 628.041 439.321 608.812 438.78 589.557C437.938 559.593 438.674 529.434 438.656 499.449C427.542 490.151 417.218 480.098 406.76 470.198Z" fill="#0251C0"/>
<path d="M441.881 881.555C444.906 846.713 443.086 810.81 442.96 775.84C442.918 764.449 440.642 741.268 444.082 731.203C446.463 757.381 444.793 784.229 445.313 810.54C446.886 890.255 445.934 970.059 445.768 1049.78L445.631 1134.5C445.648 1145.38 447.516 1162.25 445.132 1172.58C441.578 1169.96 443.457 1155.63 441.869 1150.52C439.09 1144.76 441.635 1082.5 441.537 1071.11C443.505 1056.05 441.642 1034.58 441.703 1018.98C441.884 973.166 441.196 927.355 441.881 881.555Z" fill="#043CA5"/>
<path d="M406.76 470.198L409.139 466.719C413.099 477.578 432.961 491.91 443.264 498.601C443.425 511.557 443.126 524.702 444.377 537.607L442.858 538.188L445.026 538.145L444.816 538.731L445.02 537.953C446.183 533.315 446.112 528.463 446.249 523.727L447.865 523.255C450.928 516.885 447.75 502.723 449.616 494.635C453.223 517.673 450.533 541.364 450.474 564.531L450.519 1027.89C450.524 1042.55 451.114 1057.43 450.327 1072.07C448.978 1070.65 449.111 1069.59 449.03 1067.78C447.572 1034.99 449.039 1001.54 449.045 968.695L449.056 767.485C449.054 746.985 450.964 718.382 448.647 699.184C446.901 699.638 446.923 699.512 445.259 698.796C444.968 700.875 444.948 702.904 444.937 704.995C438.797 698.104 446.45 610.049 442.368 591.431L441.635 591.721C439.83 597.731 440.751 604.538 440.75 610.737C440.748 627.117 443.465 669.908 440.652 683.033C440.608 683.236 440.556 683.438 440.508 683.642C439.19 680.51 439.72 675.093 439.548 671.644C440.698 663.979 439.693 655.08 439.647 647.303C439.534 628.041 439.321 608.812 438.78 589.557C437.938 559.593 438.674 529.434 438.656 499.449C427.542 490.151 417.218 480.098 406.76 470.198Z" fill="#045AC6"/>
<path d="M195.504 494.774C190.161 491.803 185.84 488.756 183.369 483.334C181.558 479.36 180.907 475.012 182.866 470.981C189.486 457.36 201.592 464.357 207.549 460.899C210.692 459.075 213.594 455.099 217.232 454.142C219.194 453.626 219.956 454.262 221.654 455.053L221.682 457.119C219.468 460.337 215.929 462.467 212.656 464.727L219.035 472.054C222.683 469.465 225.842 466.812 228.94 463.684C231.699 465.031 234.502 466.306 237.049 467.971C230.717 471.425 224.129 474.716 218.001 478.452C216.513 484.014 215.788 488.895 209.957 492.099C207.994 493.179 205.856 494.015 203.754 494.842L203.594 582.303C209.774 585.326 215.33 588.482 217.365 594.997C218.552 598.795 217.809 602.579 215.704 605.988C212.937 610.466 208.34 613.043 203.401 615.257C202.363 631.788 207.254 628.259 208.585 640.671C210.221 655.934 208.984 671.827 208.628 687.164C246.652 721.478 283.942 756.433 321.368 791.285C342.137 810.625 364.517 829.604 383.85 850.121L384.028 1169.92C386.269 1174.68 394.202 1184.99 399.515 1186.8C400.187 1187.03 400.878 1187.14 401.577 1187.27C401.315 1175.34 401.328 1163.44 401.505 1151.51C403.318 1164.08 401.726 1176.9 402.563 1189.54C403.641 1203.52 405.629 1277.23 402.549 1286.22C400.18 1275.34 404.782 1263.37 401.728 1252.69L400.793 1252.2C400.637 1252.36 400.462 1252.5 400.327 1252.67C396.914 1256.92 397.652 1266.9 398.232 1271.95C401.969 1284.94 398.844 1312.47 398.839 1327.3C398.828 1351.56 401.478 1377.3 398.161 1401.37C398.773 1405.5 398.737 1407.12 395.845 1410.61C393.28 1413.7 388.612 1419.33 384.788 1421.03L386.592 1421.97C392.843 1418.66 397.433 1412.77 401.004 1407.15C398.401 1416.7 388.699 1427.66 379.256 1432.79C377.171 1433.91 375.969 1433.43 373.671 1432.94C367.202 1433.1 363.686 1430.96 358.561 1427.54C360.082 1416.35 358.902 1403.74 358.899 1392.39L358.868 1320.65C358.854 1285.41 358.342 1250.1 358.924 1214.87C359.318 1191.03 360.94 1167.2 360.892 1143.35C360.882 1138.18 361.208 1132.81 359.57 1127.81C359.633 1127.75 359.707 1127.71 359.755 1127.64C361.445 1125.29 360.302 1123.67 359.592 1121.13L360.661 1120.86C360.883 1120.49 361.261 1119.91 361.419 1119.48C363.677 1113.3 362.308 1079.93 359.57 1074.28C361.092 1073.21 361.877 1071.62 362.01 1069.87C362.224 1067.02 360.77 1065.19 358.755 1063.22C360.544 1062.55 361.329 1061.35 362.429 1059.98C362.154 1057.26 361.906 1057.22 359.758 1055.27C361.169 1054.01 361.554 1053.33 361.872 1051.52C362.361 1048.73 361.843 1045.67 359.948 1043.42C360.013 1043.38 360.09 1043.34 360.146 1043.29C362.397 1041.08 361.661 1038.42 361.683 1035.56L361.744 1025.61L361.741 1023.66C362.05 1020.23 361.196 1016.64 360.645 1013.23C361.458 1012.25 361.127 1011.84 361.048 1010.65C350.763 1004.56 224.101 1015.28 210.682 1007.87C207.6 1006.36 205.311 1002.56 203.292 999.975C206.683 998.999 207.132 997.396 208.662 994.747C208.753 994.886 208.838 995.026 208.937 995.155C210.677 997.476 212.507 999.647 215.64 1000.28C218.29 1001.29 221.156 1001.69 224 1001.9C244.748 1003.44 266.736 1001.46 287.61 1001.46L332.165 1001.59C339.076 1001.67 346.281 1002.45 353.155 1001.94C356.214 1001.71 358.612 1001.16 360.998 999.328C362.173 996.599 361.988 996.121 361.3 993.223C348.846 984.42 274.369 998.033 258.604 989.26C258.422 989.16 258.251 989.05 258.073 988.941C249.612 988.015 183.593 923.262 172.305 913.015L92.1626 912.945C89.7396 916.391 87.2805 920.006 83.5799 922.436C79.7184 924.975 75.1591 925.503 70.5385 924.806C66.5709 924.208 62.8145 922.495 60.5119 919.408C57.8603 915.863 57.3877 911.63 58.2759 907.498C59.2572 902.923 62.2347 898.373 66.5403 895.772C69.4052 894.042 72.6202 893.365 76.0189 894C83.43 895.387 87.8078 901.407 91.7578 906.725L175.522 906.311L223.783 951.386C233.633 960.747 243.549 972.489 255.083 980.028C257.806 981.81 259.283 981.87 262.523 982.069C254.302 978.404 240.816 962.679 234.001 956.176C215.269 938.31 196.089 920.832 176.798 903.461C166.189 893.91 155.291 882.658 143.008 874.986C142.621 872.94 141.678 871.909 140.259 870.32C136.5 868.359 131.649 868.951 127.444 869.049C128.869 868.953 130.314 868.869 131.717 868.616C134.078 868.191 134.749 868.317 136.104 866.489C134.054 864.325 131.981 862.244 129.758 860.225C123.609 849.022 65.9868 800.334 52.044 787.847C47.2364 783.542 38.0684 777.163 35.4322 771.821C39.7301 771.41 51.8723 786.208 58.1042 788.014C58.3274 788.079 58.556 788.127 58.7824 788.183C67.4395 793.184 86.0707 812.212 94.4073 819.684C124.636 846.776 155.263 873.517 184.943 901.113C211.25 925.573 236.797 951.187 264.103 974.69C266.721 976.94 270.172 980.615 273.87 980.914C275.094 981.601 276.571 982.149 277.996 982.378C289.285 984.181 353.65 984.937 361.773 979.769L361.784 965.099C360.926 965.508 360.033 965.906 359.108 966.175C348.776 969.252 287.129 968.824 278.584 964.86C275.366 964.343 273.046 961.763 270.752 959.771C232.122 926.19 195.376 890.42 157.467 856.12C122.966 824.904 86.1812 794.513 53.7363 761.559L54.082 655.69C61.1879 657.834 66.9396 657.009 74.0564 655.651L74.1068 752.569C99.5967 775.677 283.458 944.256 289.674 945.172C294.733 947.064 300.716 948.488 306.046 946.526C307.171 946.108 308.227 945.57 309.27 945.012C309.525 945.51 309.624 945.749 310.008 946.227C310.555 946.905 311.425 947.642 312.317 947.791C317.663 948.717 321.451 945.799 325.591 943.17C325.336 944.305 325.52 945.012 325.829 946.128C327.211 946.686 328.637 947.164 330.125 947.423C338.102 948.807 355.69 948.697 362.383 944.365C362.136 933.42 363.441 922.187 362.502 911.302C363.527 909.788 364.113 908.224 364.271 906.434C364.626 902.398 360.823 898.971 358.237 895.972L361.727 892.717L363.481 892.273L364.368 890.135C364.099 887.193 363.32 885.705 361.58 883.297C364.377 876.472 362.658 864.775 362.603 857.345C341.381 836.341 318.79 816.335 296.753 796.03L188.954 696.546C189.065 676.193 188.283 656.04 189.449 635.686L195.451 629.094C195.728 624.513 195.529 619.868 195.495 615.278C189.91 612.95 184.816 610.191 181.978 605.001C180.143 601.646 179.76 598.122 181.081 594.554C183.491 588.041 189.045 585.012 195.493 582.13L195.504 494.774Z" fill="#05A0F5"/>
<defs>
<linearGradient id="paint0_linear_1621_98805" x1="196.21" y1="817.317" x2="625.025" y2="646" gradientUnits="userSpaceOnUse">
<stop stop-color="#0149B7"/>
<stop offset="1" stop-color="#0080F1"/>
</linearGradient>
</defs>
</svg>
