<?xml version="1.0" encoding="utf-8" ?>
<svg xmlns="http://www.w3.org/2000/svg" xmlns:xlink="http://www.w3.org/1999/xlink" width="682" height="758">
	<path transform="matrix(0.999662 0 0 1.00012 -827.542 -114.003)" d="M974.104 628.182C976.66 631.571 978.558 635.503 981.408 638.658C994.99 653.693 1036.33 641.985 1055.85 643.18C1061.39 643.518 1066.45 645.18 1070.99 648.384C1082.15 656.264 1096.63 679.295 1106.62 690.362C1114.22 698.784 1121.62 702.096 1132.82 702.67C1132.82 702.965 1132.83 703.435 1132.77 703.747C1131.9 708.169 1063.3 834.034 1055.72 846.967C1055 848.203 1054.1 849.106 1052.98 850C1053.08 849.588 1053.21 849.163 1053.23 848.735C1053.42 845.083 1050.11 835.503 1047.59 832.876C1047.67 832.456 1047.73 832.031 1047.77 831.605C1048.09 828.134 1018.5 737.397 1015.92 734.24C1008.06 737.916 990.813 741.29 981.746 743.774L899.355 766.222L974.104 628.182Z"/>
	<path transform="matrix(0.999662 0 0 1.00012 -827.542 -114.003)" d="M1348.21 608.014C1348.83 607.952 1349.49 607.861 1350.13 607.886C1351.95 607.961 1352.89 608.361 1354.02 609.841C1356.27 612.796 1357.79 617.344 1359.57 620.675L1376.68 652.274C1396.3 688.441 1416.8 724.346 1435.55 760.952C1436.52 762.839 1437.18 764.128 1436.94 766.285C1428.96 761.994 1410.24 758.389 1400.91 755.835C1373.91 748.434 1346.93 740.516 1319.74 733.864C1319.89 734.321 1320.08 734.791 1320.12 735.279C1320.41 738.604 1288.94 835.268 1285.76 844.209C1285.22 845.725 1284.66 846.813 1283.6 848.034C1280.86 846.885 1213.15 719.186 1205.65 705.331C1201.66 697.956 1190.46 674.227 1185.52 669.591C1189.47 667.716 1193.45 665.644 1197.83 665.062C1221.76 661.883 1251.29 689.457 1274.22 685.425C1279.6 684.477 1284.33 682.215 1288.22 678.348C1300.21 666.438 1307.73 636.775 1318.52 621.583C1326.12 610.888 1336.22 610.016 1348.21 608.014Z"/>
	<path transform="matrix(0.999662 0 0 1.00012 -827.542 -114.003)" d="M1198.96 130.373C1203.43 129.793 1207.86 129.354 1212.27 130.6C1233 136.465 1244.49 171.964 1263.51 181.938C1283.45 192.394 1320.82 173.924 1339.98 185.736C1355.74 195.453 1354.77 232.155 1358.91 249.114C1360.19 254.373 1362.36 259.546 1366.12 263.526C1376.4 274.426 1403.46 281.906 1417.22 290.626C1448.63 310.535 1410.88 348.792 1410.13 374.696C1409.56 394.435 1440.45 418.252 1444.66 438.611C1450.3 465.916 1404.54 479.918 1393.23 500.677C1381.89 521.482 1401.66 559.071 1388.49 578.55C1379.53 591.801 1344.67 592.767 1329.07 595.653C1323.54 596.675 1317.9 598.181 1313.36 601.657C1300.96 611.171 1293.48 641.675 1283.65 655.704C1263.27 684.796 1226.34 648.664 1200.73 647.663C1179.68 646.841 1156.81 678.369 1136.42 681.942C1112.64 688.988 1093.45 642.012 1075.75 631C1058.22 620.088 1024.06 635.023 1003.9 629.099C976.144 620.945 987.272 574.095 975.456 553.608C964.455 534.536 920.989 530.925 910.567 511.241C908.47 507.28 907.575 502.62 907.942 498.168C909.072 484.437 921.102 461.979 925.586 447.694C927.061 442.994 928.019 438.328 927.229 433.413C924.604 417.068 903.771 396.813 895.935 381.259C879.683 349.002 930.583 334.52 944.137 312.934C955.467 294.889 939.34 259.715 946.508 239.451C951.888 224.242 966.062 223.418 979.803 221.461C989.825 220.034 1014.37 216.947 1022.29 212.135C1041.41 200.515 1044.12 156.492 1065.24 147.08C1079.95 140.526 1106.9 155.302 1121.65 160.844C1127.68 163.111 1133.97 165.329 1140.51 164.681C1155.77 163.172 1182.55 137.819 1198.96 130.373ZM1162.79 211.708C1108.62 214.887 1059.99 235.994 1023.55 276.882C989.852 314.696 971.502 365.922 974.515 416.594C977.605 468.575 1000.88 517.188 1039.87 551.802C1076.49 584.308 1123.84 601.538 1172.72 600.453C1223.47 599.577 1272.87 578.668 1308.19 542.066C1344.27 504.679 1364.65 454.082 1363.53 401.979C1362.42 350.727 1340.91 301.255 1303.75 265.894C1266.38 230.338 1216.34 210.068 1164.49 211.634C1163.92 211.651 1163.35 211.676 1162.79 211.708Z"/>
	<path transform="matrix(0.999662 0 0 1.00012 -827.542 -114.003)" d="M1152.04 236.428C1154.12 236.282 1156.19 236.151 1158.27 236.046C1204.4 233.72 1249.01 248.539 1283.36 279.77C1316.96 310.329 1337.06 353.256 1339.17 398.618C1341.21 442.618 1325.58 487.723 1295.68 520.267C1267.28 551.172 1225.61 574.068 1183.09 575.82C1182.57 575.905 1182.05 575.984 1181.53 576.057C1143.26 581.427 1096.51 565.043 1066.26 542.067C1030.41 514.837 1006.08 474.068 1000.16 429.357C994.066 383.354 1006.26 337.978 1034.57 301.224C1063.79 263.286 1105.16 242.598 1152.04 236.428ZM1267.78 348.062C1262.8 353.03 1129.29 437.662 1125.41 438.955C1123.88 434.918 1073.79 385.385 1069.29 383.19C1067.23 387.808 1057.15 397.459 1052.62 400.241C1055.72 401.973 1065.56 410.641 1066.55 413.892C1066.58 414.015 1066.59 414.146 1066.61 414.273C1071.43 417.194 1121.24 467.037 1122.01 469.667C1129.65 466.423 1278.53 371.315 1281.44 367.711C1281.24 363.583 1273.53 352.238 1270.4 349.089C1269.71 348.39 1268.74 348.121 1267.78 348.062Z"/>
</svg>
