<?xml version="1.0" encoding="utf-8" ?>
<svg xmlns="http://www.w3.org/2000/svg" xmlns:xlink="http://www.w3.org/1999/xlink" width="883" height="879">
	<path fill="#047C91" transform="scale(3.92444 3.92411)" d="M0 0L224.562 0C224.85 0.454429 224.946 0.831738 224.97 1.36223C225.398 10.6798 225.005 20.1696 225.007 29.5094L225.01 85.7531L225.008 109.597C225.008 112.34 225.435 116.733 224.918 119.256C224.862 119.528 224.773 119.788 224.683 120.05C224.911 120.57 224.971 121.005 224.986 121.573C225.17 128.585 225.009 135.645 225.01 142.661L225.01 183.676C225.009 187.768 225.418 221.945 224.814 223.505C224.747 223.679 224.659 223.841 224.562 224L119.7 224L42.8746 224L0 224L0 223.695L0 0ZM48.5103 47.5364L96.5672 166.534L111.349 203.455C114.065 210.251 116.587 217.39 119.7 224L224.562 224C224.659 223.841 224.747 223.679 224.814 223.505C225.418 221.945 225.009 187.768 225.01 183.676L225.01 142.661C225.009 135.645 225.17 128.585 224.986 121.573C224.971 121.005 224.911 120.57 224.683 120.05C219.603 117.755 214.332 115.773 209.171 113.661L180.652 101.971L95.3427 66.9486L64.5179 54.3203C59.2422 52.1524 53.5349 50.1971 48.5103 47.5364Z"/>
	<path fill="#2B8BA3" transform="scale(3.92444 3.92411)" d="M0 223.695L29.0849 223.64C32.4966 223.639 39.8107 223.121 42.8746 224L0 224L0 223.695Z"/>
	<path fill="#EC691D" transform="scale(3.92444 3.92411)" d="M65.9318 65.0726C69.5908 66.0376 75.9833 69.2396 79.8188 70.8738L109.766 83.5449L218.084 129.455C204.964 134.004 192.046 139.548 179.108 144.614L164.583 150.305C161.486 151.521 158.218 152.616 155.308 154.236C152.91 157.878 149.649 167.06 147.798 171.516L136.793 197.943C134.14 204.345 131.603 210.825 128.623 217.083C126.994 211.525 124.222 206.021 122.005 200.648L108.732 168.521L65.9318 65.0726Z"/>
</svg>
