<?xml version="1.0" encoding="utf-8" ?>
<svg xmlns="http://www.w3.org/2000/svg" xmlns:xlink="http://www.w3.org/1999/xlink" width="526" height="1101">
	<path fill="#FBF7F5" transform="matrix(1.00061 0 0 0.999588 0 -1.52588e-05)" d="M0 0L1024 0L1024 2046.25C1022.96 2046.85 1021.98 2047.36 1020.8 2047.62C1011.74 2049.66 967.073 2048.01 954.147 2048.01L767.612 2048.02L14.1208 2047.99C9.76244 2047.99 3.75313 2048.75 0 2046.25L0 0Z"/>
	<path fill="#0251C0" transform="matrix(1.00061 0 0 0.999588 0 -1.52588e-05)" d="M470.312 386.482C468.366 384.059 467.423 382.721 467.228 379.514C468.228 376.349 469.813 375.228 472.381 373.324C473.796 376.705 473.116 379.965 471.775 383.276C471.333 384.366 470.828 385.425 470.312 386.482Z"/>
	<path fill="#0137A0" transform="matrix(1.00061 0 0 0.999588 0 -1.52588e-05)" d="M497.899 511.853C499.241 514.173 500.704 516.132 500.466 518.916L499.1 519.892C495.192 519.06 493.295 517.19 491.148 513.848C491.042 513.682 490.94 513.514 490.836 513.347C492.942 512.299 495.586 512.189 497.899 511.853Z"/>
	<path fill="#0D84E2" transform="matrix(1.00061 0 0 0.999588 0 -1.52588e-05)" d="M272.854 1082C274.513 1084.31 276.076 1087.19 278.931 1088.07C277.532 1090.73 277.122 1092.34 274.022 1093.32C272.344 1092.68 271.141 1090.38 270.125 1088.95L271.441 1088.46L272.854 1082Z"/>
	<path fill="#0251C0" transform="matrix(1.00061 0 0 0.999588 0 -1.52588e-05)" d="M449.156 350.122C451.125 352.596 453.027 355.241 455.165 357.564L455.908 360.939C454.64 361.817 454.032 361.863 452.551 361.919C448.832 360.41 446.352 356.517 443.905 353.453C445.77 352.698 447.5 351.265 449.156 350.122Z"/>
	<path fill="#0D70D7" transform="matrix(1.00061 0 0 0.999588 0 -1.52588e-05)" d="M264.872 1074.82C267.1 1077.46 269.399 1080.94 272.854 1082L271.441 1088.46L270.125 1088.95C265.007 1087.77 263.257 1082.45 257.87 1080.66C259.406 1081.05 261.055 1081 262.632 1081.06C264.885 1079 264.519 1077.78 264.872 1074.82Z"/>
	<path fill="#0D70D7" transform="matrix(1.00061 0 0 0.999588 0 -1.52588e-05)" d="M216.711 656.567C215.664 653.146 212.332 650.597 209.939 648.031C207.613 645.536 206.145 643.6 206.279 640.167L207.886 639.55C212.918 641.408 216.798 646.325 221.04 649.601C218.425 650.829 218.246 651.065 217.328 653.931C217.054 654.786 216.884 655.687 216.711 656.567Z"/>
	<path fill="#0D70D7" transform="matrix(1.00061 0 0 0.999588 0 -1.52588e-05)" d="M222.016 650.15C222.204 650.077 222.395 650.009 222.582 649.931C228.101 647.625 233.716 639.562 239.765 640.361C240.402 643.165 239.262 645.818 237.783 648.193C235.065 652.558 234.673 653.156 234.236 658.377C233.962 656.386 233.652 654.402 233.344 652.416C230.588 650.061 226.474 650.982 222.823 650.304L222.016 650.15Z"/>
	<path fill="#05A0F5" transform="matrix(1.00061 0 0 0.999588 0 -1.52588e-05)" d="M458.923 184.502C456.857 182.528 453.864 180.096 453.712 177.012C453.573 174.199 454.567 173.388 456.321 171.445C459.035 170.266 461.909 169.511 464.805 170.625C467.271 171.573 467.799 172.44 469.168 174.548C469.63 177.196 468.997 179.747 467.398 181.913C466.696 182.865 465.875 183.729 465.055 184.578C462.769 183.764 461.262 184.002 458.923 184.502Z"/>
	<path fill="#0251C0" transform="matrix(1.00061 0 0 0.999588 0 -1.52588e-05)" d="M491.559 411.534C491.396 405.937 487.761 403.21 486.543 398.066C486.898 395.242 488.663 393.855 490.593 391.988L499.163 391.996C502.43 401.299 497.72 411.475 497.135 421.074C495.301 416.495 497.064 410.92 494.798 405.981C492.616 408.072 492.38 408.611 491.559 411.534Z"/>
	<path fill="#09AEF5" transform="matrix(1.00061 0 0 0.999588 0 -1.52588e-05)" d="M458.923 184.502C461.262 184.002 462.769 183.764 465.055 184.578C464.731 200.316 464.345 216.334 465.386 232.045L458.663 232.56C462.282 217.824 459.946 199.649 458.923 184.502Z"/>
	<path fill="#043CA5" transform="matrix(1.00061 0 0 0.999588 0 -1.52588e-05)" d="M508.888 504.015L510.446 502.633L513.456 504.474L516.441 503.628C517.464 505.801 519.166 508.697 519.461 511.067C519.822 513.955 517.281 524.708 516.26 527.52C515.961 528.342 515.496 529.11 515.007 529.831L513.288 530.394C510.53 528.97 509.242 525.82 508.336 523C507.276 519.699 504.782 511.27 506.297 508.141C506.993 506.702 507.971 505.321 508.888 504.015Z"/>
	<path fill="#0137A0" transform="matrix(1.00061 0 0 0.999588 0 -1.52588e-05)" d="M479.495 715.575C471.01 706.482 449.576 688.345 444.79 678.916C443.871 677.106 444.087 676.863 444.616 674.992L446.69 674.944C458.235 682.002 470.012 697.421 478.566 708.023C479.278 710.135 480.378 711.633 481.732 713.385L479.495 715.575Z"/>
	<path fill="#0137A0" transform="matrix(1.00061 0 0 0.999588 0 -1.52588e-05)" d="M318.632 778.641L320.333 779.42C331.162 791.075 342.187 802.273 354.26 812.661L350.36 818.095C338.19 805.169 325.427 792.806 312.781 780.348C314.537 779.446 316.719 779.111 318.632 778.641Z"/>
	<path fill="#043CA5" transform="matrix(1.00061 0 0 0.999588 0 -1.52588e-05)" d="M157.673 924.044C162.126 923.025 167.016 922.297 171.108 924.851C171.998 925.406 172.532 926.812 173.059 927.724C173.403 931.616 172.039 934.727 169.591 937.709C167.073 940.776 164.647 942.383 160.711 943.041C158.319 942.334 156.959 942.038 155.658 939.683C153.694 936.128 153.185 932.147 153.158 928.161C155.265 927.333 156.303 925.755 157.673 924.044Z"/>
	<path fill="#09AEF5" transform="matrix(1.00061 0 0 0.999588 0 -1.52588e-05)" d="M492.678 197.943C492.983 193.357 493.637 188.246 492.836 183.707C492.096 179.509 489.72 173.885 489.712 169.755C489.711 168.88 490.989 167.147 491.608 166.608C493.448 165.005 495.359 164.677 497.682 164.366C500.463 165.25 500.596 165.267 502.191 167.695C502.521 171.533 501.84 173.566 499.335 176.561C498.937 177.037 498.525 177.499 498.113 177.962L498.104 198.221C500.729 201.216 503.155 203.558 502.869 207.832C502.847 208.157 502.803 208.48 502.771 208.804C502.198 206.733 500.821 204.104 498.998 202.861C497.241 201.663 495.68 201.342 493.57 201.854C490.422 202.618 488.525 205.267 486.722 207.723C487.234 203.086 489.388 201.018 492.678 197.943Z"/>
	<path fill="#045AC6" transform="matrix(1.00061 0 0 0.999588 0 -1.52588e-05)" d="M293.136 767.026L294.525 764.421L296.325 768.399L297.702 766.482C301.514 766.987 304.93 772.278 308.993 773.759C311.537 774.686 314.202 774.961 316.687 773.654C322.564 770.562 325.569 760.977 327.106 755.069L329.813 753.945C331.101 758.603 332.126 763.887 329.538 768.313C327.301 772.139 324.373 775.082 321.245 778.156C320.659 778.731 320.849 778.556 320.333 779.42L318.632 778.641C316.719 779.111 314.537 779.446 312.781 780.348C307.908 779.551 304.296 778.792 300.036 776.168C296.601 774.344 294.682 770.386 293.136 767.026Z"/>
	<path fill="#05A0F5" transform="matrix(1.00061 0 0 0.999588 0 -1.52588e-05)" d="M443.366 245.938C441.828 244.041 439.328 241.377 438.911 238.941C438.445 236.218 439.166 234.955 440.439 232.708C442.326 231.537 443.797 230.874 446.069 231.116C449.079 231.436 450.926 232.769 452.759 235.072C453.127 236.99 453.483 237.53 452.629 239.324C452.239 240.142 451.888 240.963 451.346 241.695C446.427 248.348 448.935 276.627 448.991 286.375C448.399 284.017 448.123 281.365 446.181 279.748C444.683 282.495 443.933 285.585 443.042 288.568C443.105 274.381 444.468 260.091 443.366 245.938Z"/>
	<path fill="#0D70D7" transform="matrix(1.00061 0 0 0.999588 0 -1.52588e-05)" d="M426.318 260.96L431.932 262.28C434.585 264.397 436.624 265.953 437.951 269.177C438.239 272.141 437.584 274.366 435.688 276.639C434.647 277.887 433.503 279.056 432.357 280.208C431.856 286.567 431.23 292.94 431.113 299.319C429.907 292.57 429.838 285.688 428.221 279.032C426.022 296.038 426.999 313.584 427.116 330.717C427.161 337.425 427.811 345.177 426.636 351.773C424.19 343.065 426.144 292.649 425.915 279.549C425.269 279.049 424.628 278.544 423.999 278.022C421.854 276.244 419.796 274.26 419.715 271.252C419.603 267.07 423.646 263.752 426.318 260.96Z"/>
	<path fill="#043CA5" transform="matrix(1.00061 0 0 0.999588 0 -1.52588e-05)" d="M474.982 345.645C478.932 336.088 474.447 323.058 479.906 313.712C479.925 319.732 480.167 325.84 479.948 331.85C479.943 337.76 478.473 355.2 480.706 359.786C481.577 367.083 484.926 379.25 480.245 385.432C477.757 387.293 475.496 387.387 472.543 386.935C471.791 386.82 471.052 386.656 470.312 386.482C470.828 385.425 471.333 384.366 471.775 383.276C473.116 379.965 473.796 376.705 472.381 373.324C472.804 373.07 472.949 373.017 473.321 372.596C475.756 369.841 474.846 361.346 474.956 357.679C474.699 353.636 474.794 349.689 474.982 345.645Z"/>
	<path fill="#0D70D7" transform="matrix(1.00061 0 0 0.999588 0 -1.52588e-05)" d="M443.042 288.568C443.933 285.585 444.683 282.495 446.181 279.748C448.123 281.365 448.399 284.017 448.991 286.375C450.17 307.752 448.198 328.886 449.156 350.122C447.5 351.265 445.77 352.698 443.905 353.453C440.696 349.019 442.837 296.35 443.042 288.568Z"/>
	<path fill="#09AEF5" transform="matrix(1.00061 0 0 0.999588 0 -1.52588e-05)" d="M425.989 208.693C424.081 206.414 420.567 203.083 420.759 199.882C420.907 197.416 421.576 195.554 423.629 194.059C425.553 192.658 428.56 192.492 430.781 193.127C432.651 193.662 434.502 194.901 435.39 196.673C436.44 198.772 436.39 201.445 435.616 203.617C434.936 205.525 433.142 207.432 431.861 208.989C430.407 226.746 431.903 244.503 431.932 262.28L426.318 260.96C425.51 243.535 427.592 226.072 425.989 208.693Z"/>
	<path fill="#09AEF5" transform="matrix(1.00061 0 0 0.999588 0 -1.52588e-05)" d="M159.49 534.836C161.987 534.591 164.618 534.659 167.131 534.589C166.949 540.116 166.665 545.662 166.64 551.191C181.349 568.593 197.959 584.816 214.728 600.244L214.961 600.753L207.934 604.18C199.272 589.248 172.875 568.524 160.034 554.468C160.243 547.855 160.538 541.399 159.49 534.836Z"/>
	<path fill="#09AEF5" transform="matrix(1.00061 0 0 0.999588 0 -1.52588e-05)" d="M475.878 199.167C477.542 184.632 479.203 165.965 476.695 151.558C475.877 146.854 470.586 141.29 473.248 137.008C473.658 136.348 473.854 136.119 474.46 135.622C476.863 133.651 480.146 132.805 483.199 133.262C485.341 133.583 486.072 134.182 487.768 135.509C488.582 138.673 488.076 140.923 486.417 143.756C485.291 145.68 483.734 147.079 482.075 148.533C482.203 165.399 485.607 202.53 481.407 216.652L481.234 217.248C481.132 217.59 481.012 217.927 480.892 218.263C480.511 212.909 481.5 209.301 478.774 204.336L477.332 204.432C475.327 208.009 475.172 212.424 474.695 216.437C473.121 212.939 470.264 208.229 471.776 204.406C472.599 202.326 474.31 200.705 475.878 199.167Z"/>
	<path fill="#05A0F5" transform="matrix(1.00061 0 0 0.999588 0 -1.52588e-05)" d="M337.954 645.011C341.168 646.279 343.96 647.465 346.724 649.569C342.37 655.152 344.228 718.587 345.439 728.49C345.658 730.273 346.202 731.862 347.36 733.245L344.153 737.245L338.351 731.709C338.44 702.803 338.489 673.914 337.954 645.011Z"/>
	<path fill="#09AEF5" transform="matrix(1.00061 0 0 0.999588 0 -1.52588e-05)" d="M186.349 513.29C199.373 526.787 213.087 539.668 225.959 553.292C225.381 567.053 222.554 585.838 226.621 599.145L223.424 600.189L218.915 599.765C219.361 585.282 219.049 570.742 218.959 556.252C208.11 543.91 196.119 532.357 184.603 520.64C185.057 518.173 185.748 515.726 186.349 513.29Z"/>
	<path fill="#043CA5" transform="matrix(1.00061 0 0 0.999588 0 -1.52588e-05)" d="M491.559 411.534C492.38 408.611 492.616 408.072 494.798 405.981C497.064 410.92 495.301 416.495 497.135 421.074C498.533 435.184 497.912 449.734 498 463.928C498.098 479.819 498.795 495.992 497.899 511.853C495.586 512.189 492.942 512.299 490.836 513.347C490.252 507.154 491.567 499.902 491.503 493.528C491.225 466.186 491.959 438.868 491.559 411.534Z"/>
	<path fill="#0D70D7" transform="matrix(1.00061 0 0 0.999588 0 -1.52588e-05)" d="M474.695 216.437C475.172 212.424 475.327 208.009 477.332 204.432L478.774 204.336C481.5 209.301 480.511 212.909 480.892 218.263C480.143 252.095 481.162 286.118 481.115 319.982C481.097 332.964 482.184 346.963 480.706 359.786C478.473 355.2 479.943 337.76 479.948 331.85C480.167 325.84 479.925 319.732 479.906 313.712C474.447 323.058 478.932 336.088 474.982 345.645C474.782 336.546 474.647 327.513 475.047 318.414C474.766 313.82 474.942 309.244 475.077 304.649C474.823 300.646 475.005 296.619 475.099 292.612C473.857 270.804 479.14 235.661 474.695 216.437Z"/>
	<path fill="#045AC6" transform="matrix(1.00061 0 0 0.999588 0 -1.52588e-05)" d="M479.494 261.712C479.747 268.061 479.843 274.383 479.811 280.737C476.043 288.023 478.016 297.202 475.077 304.649C474.823 300.646 475.005 296.619 475.099 292.612C477.888 284.515 477.446 271.096 479.494 261.712Z"/>
	<path fill="#045AC6" transform="matrix(1.00061 0 0 0.999588 0 -1.52588e-05)" d="M475.077 304.649C478.016 297.202 476.043 288.023 479.811 280.737C479.915 285.25 480.533 290.366 479.888 294.811C480.042 300.854 480.823 307.77 479.906 313.712C474.447 323.058 478.932 336.088 474.982 345.645C474.782 336.546 474.647 327.513 475.047 318.414C474.766 313.82 474.942 309.244 475.077 304.649Z"/>
	<path fill="#0137A0" transform="matrix(1.00061 0 0 0.999588 0 -1.52588e-05)" d="M137.619 747.612C134.328 743.898 130.755 738.677 129.859 733.713C129.311 730.678 129.836 727.69 131.725 725.188C134.526 721.478 139.565 719.565 144.051 719.104C149.494 718.544 155.62 719.935 159.882 723.487C162.272 725.479 163.867 728.107 164.073 731.264C164.494 737.703 159.87 743.089 155.879 747.573C149.373 748.936 144.115 749.765 137.619 747.612Z"/>
	<path fill="#0D70D7" transform="matrix(1.00061 0 0 0.999588 0 -1.52588e-05)" d="M317.533 528.103C322.274 532.499 327.576 537.451 327.71 544.459C327.795 548.872 325.373 552.583 322.507 555.728C322.457 555.783 322.396 555.827 322.341 555.877C320.824 556.708 318.953 557.49 317.591 558.53C313.273 559.916 309.284 560.057 304.881 559.117C302.553 557.445 299.99 556.165 297.468 554.812C295.722 551.388 293.997 547.338 294.171 543.43C294.457 537.012 299.246 533.072 303.652 529.081C308.285 528.841 312.908 528.465 317.533 528.103Z"/>
	<path fill="#0D70D7" transform="matrix(1.00061 0 0 0.999588 0 -1.52588e-05)" d="M465.386 232.045C467.179 234.088 468.859 235.64 468.966 238.521C466.566 243.606 465.206 247.959 464.654 253.607C463.923 261.082 464.095 338.596 465.824 343.496C467.02 346.886 469.605 351.323 468.726 354.949C467.132 357.386 466.23 358.619 463.216 359.258C460.839 359.762 458.043 359.743 455.908 360.939L455.165 357.564C455.253 356.1 454.719 354.42 454.573 352.927C454.193 349.027 456.548 346.758 458.898 343.964C460.214 317.425 460.822 289.44 459.341 262.94C458.821 253.636 454.461 241.011 458.663 232.56L465.386 232.045Z"/>
	<path fill="#0251C0" transform="matrix(1.00061 0 0 0.999588 0 -1.52588e-05)" d="M526.548 388.327C529.13 388.789 530.873 388.995 533.462 388.189C535.694 390.441 538.158 392.448 538.767 395.697C538.295 399.389 535.544 402.199 533.014 404.759C532.95 419.749 534.171 436.345 532.141 451.119C532.663 454.635 533.815 509.626 533.13 512.72C532.706 514.634 529.661 517.48 528.021 518.489C526.188 519.616 525.556 519.898 523.512 519.393C523.15 516.296 524.781 514.656 526.309 511.993C524.811 479.059 526.395 445.21 526.87 412.198C525.887 404.31 524.2 396.073 526.548 388.327Z"/>
	<path fill="#0D70D7" transform="matrix(1.00061 0 0 0.999588 0 -1.52588e-05)" d="M316.342 740.614C321.972 743.206 327.435 746.811 329.533 753.017C329.636 753.323 329.72 753.635 329.813 753.945L327.106 755.069C325.569 760.977 322.564 770.562 316.687 773.654C314.202 774.961 311.537 774.686 308.993 773.759C304.93 772.278 301.514 766.987 297.702 766.482L296.325 768.399L294.525 764.421L293.136 767.026C292.187 764.06 291.765 761.278 291.972 758.152C292.371 752.092 295.694 747.913 300.04 744.007C305.743 741.892 310.175 740.876 316.342 740.614Z"/>
	<path fill="#0137A0" transform="matrix(1.00061 0 0 0.999588 0 -1.52588e-05)" d="M307.5 749.49C311.742 749.356 315.029 749.327 318.423 752.145C320.507 753.876 321.656 756.13 321.743 758.848C321.906 763.959 318.914 767.131 315.499 770.511C311.006 770.509 307.334 770.493 303.957 767.134C302.016 765.203 301.168 762.828 301.299 760.101C301.536 755.155 304.118 752.735 307.5 749.49Z"/>
	<path fill="#0137A0" transform="matrix(1.00061 0 0 0.999588 0 -1.52588e-05)" d="M92.7692 768.131C95.1978 768.892 96.5094 768.879 98.0056 771.109C100.313 793.522 98.3251 818.742 98.2838 841.412C98.2709 848.494 97.3633 857.164 98.7345 864.065C113.635 883.772 139.928 905.046 157.673 924.044C156.303 925.755 155.265 927.333 153.158 928.161C134.209 907.187 112.95 887.53 92.8427 867.635C92.481 834.477 92.8923 801.294 92.7692 768.131Z"/>
	<path fill="#0137A0" transform="matrix(1.00061 0 0 0.999588 0 -1.52588e-05)" d="M127.792 1137.54C136.987 1133.95 182.641 1085.01 190.129 1074.71C201.432 1077.11 254.772 1077.9 264.872 1074.82C264.519 1077.78 264.885 1079 262.632 1081.06C261.055 1081 259.406 1081.05 257.87 1080.66C251.298 1085.16 205.94 1083.45 196.629 1081.75C195.521 1081.54 194.822 1081.19 193.882 1080.6C189.067 1088.42 138.469 1141.33 132.443 1142.67C131.963 1142.78 131.501 1142.81 131.016 1142.86C129.556 1143.17 129.527 1143.16 128.184 1142.51L127.792 1137.54Z"/>
	<path fill="#1FC4F8" transform="matrix(1.00061 0 0 0.999588 0 -1.52588e-05)" d="M509.233 227.583C508.606 191.693 510.049 155.708 508.871 119.839C508.746 116.016 508.65 111.96 507.822 108.215C506.809 103.634 502.705 100.597 504.372 95.4831C504.755 94.3077 505.394 93.2632 506.27 92.3907C508.393 90.2746 511.944 89.099 514.919 89.3027C516.493 89.4104 517.88 90.1133 519.254 90.8388C520.947 93.1476 522.014 94.5946 521.478 97.6258C520.831 101.282 518.844 103.855 516.862 106.856L516.462 107.455C516.424 147.621 517.574 188.026 515.859 228.154C514.739 225.332 513.584 222.529 512.4 219.734L511.38 219.98C510.427 222.528 509.759 224.913 509.233 227.583Z"/>
	<path fill="#0D84E2" transform="matrix(1.00061 0 0 0.999588 0 -1.52588e-05)" d="M226.621 599.145C232.574 601.52 237.531 604.079 240.119 610.266C242.205 615.255 242.875 621.184 240.659 626.239C238.751 630.591 234.802 633.81 230.421 635.471C224.951 637.546 218.502 637.353 213.184 634.901C209.03 632.985 205.744 629.768 204.261 625.38C202.158 619.163 203.822 612.518 206.737 606.86C207.056 606.24 207.392 605.63 207.73 605.02L207.934 604.18L214.961 600.753L214.728 600.244L218.915 599.765L223.424 600.189L226.621 599.145Z"/>
	<path fill="#0D70D7" transform="matrix(1.00061 0 0 0.999588 0 -1.52588e-05)" d="M218.915 599.765L223.424 600.189L225.19 602.843C229.885 606.004 234.71 610.686 235.972 616.448C236.471 618.725 235.78 620.355 234.778 622.367L232.439 624.07C232.409 620.271 232.682 616.265 230.497 612.961C229.025 610.734 226.526 608.692 223.84 608.267C221.698 607.928 219.468 608.674 217.721 609.891C213.114 613.102 212.345 617.385 211.394 622.632C208.453 617.844 208.672 610.542 207.73 605.02L207.934 604.18L214.961 600.753L214.728 600.244L218.915 599.765Z"/>
	<path fill="#097CDE" transform="matrix(1.00061 0 0 0.999588 0 -1.52588e-05)" d="M218.915 599.765L223.424 600.189L225.19 602.843C222.965 603.284 221.186 603.611 218.902 603.183C217.787 601.858 217.102 601.44 215.449 600.903C215.287 600.851 215.124 600.803 214.961 600.753L214.728 600.244L218.915 599.765Z"/>
	<path fill="#0137A0" transform="matrix(1.00061 0 0 0.999588 0 -1.52588e-05)" d="M211.394 622.632C212.345 617.385 213.114 613.102 217.721 609.891C219.468 608.674 221.698 607.928 223.84 608.267C226.526 608.692 229.025 610.734 230.497 612.961C232.682 616.265 232.409 620.271 232.439 624.07C230.041 625.471 227.103 627.511 224.321 627.929C219.214 628.697 215.38 625.326 211.394 622.632Z"/>
	<path fill="#0137A0" transform="matrix(1.00061 0 0 0.999588 0 -1.52588e-05)" d="M428.221 279.032C429.838 285.688 429.907 292.57 431.113 299.319C432.285 315.917 431.909 332.723 431.953 349.36C448.414 366.547 464.851 385.965 482.903 401.373C483.164 436.789 483.67 472.212 482.697 507.62C481.992 504.84 482.059 502.258 479.597 500.653L478.347 502.059L478.432 405.139C460.752 387.993 441.824 371.221 426.636 351.773C427.811 345.177 427.161 337.425 427.116 330.717C426.999 313.584 426.022 296.038 428.221 279.032Z"/>
	<path fill="#0137A0" transform="matrix(1.00061 0 0 0.999588 0 -1.52588e-05)" d="M130.353 967.378C122.308 968.353 120.89 975.33 114.422 978.878C111.616 980.417 108.349 980.702 105.297 979.786C101.78 978.731 98.9648 975.937 97.2384 972.773C94.8204 968.342 93.9061 962.915 95.4689 958.04C96.5705 954.604 99.4662 951.232 102.734 949.688C105.906 948.19 109.42 948.403 112.642 949.625C119.466 952.215 122.027 955.523 125.051 961.988L193.617 962.178L204.684 961.853C208.528 961.754 212.963 961.16 216.399 963.129C217.696 964.724 218.558 965.76 218.912 967.814C197.253 968.315 149.962 970.385 130.353 967.378Z"/>
	<path fill="#0137A0" transform="matrix(1.00061 0 0 0.999588 0 -1.52588e-05)" d="M340.892 296.307C333.851 293.092 329.006 289.196 326.157 281.773C324.44 277.303 324.342 272.566 326.334 268.175C328.87 262.584 334.226 258.508 339.939 256.542C345.747 254.543 352.354 254.588 357.925 257.304C362.304 259.438 365.406 263.235 366.885 267.851C368.597 273.192 368.603 280.155 365.994 285.217C363.246 290.546 358.365 293.695 353.051 296.074C348.998 295.859 344.942 296.119 340.892 296.307Z"/>
	<path fill="#FBF7F5" transform="matrix(1.00061 0 0 0.999588 0 -1.52588e-05)" d="M341.798 261.039C344.013 260.903 346.31 260.741 348.524 260.919C352.437 261.235 356.729 263.595 359.154 266.668C361.592 269.758 362.322 273.535 361.748 277.388C360.811 283.683 356.872 287.078 352.063 290.764C349.629 290.94 347.056 290.983 344.631 290.649C340.679 290.103 336.622 287.583 334.274 284.378C332.133 281.455 331.31 277.743 331.887 274.178C332.919 267.808 336.768 264.582 341.798 261.039Z"/>
	<path fill="#05A0F5" transform="matrix(1.00061 0 0 0.999588 0 -1.52588e-05)" d="M343.874 269.397C344.618 269.484 345.376 269.571 346.109 269.73C349.035 270.368 350.107 271.634 351.6 273.988C352.095 277.365 350.758 279.642 349.308 282.586C348.652 282.544 347.98 282.497 347.334 282.371C344.428 281.803 342.96 280.402 341.459 277.995C341.075 274.494 342.286 272.4 343.874 269.397Z"/>
	<path fill="#0D70D7" transform="matrix(1.00061 0 0 0.999588 0 -1.52588e-05)" d="M486.722 207.723C488.525 205.267 490.422 202.618 493.57 201.854C495.68 201.342 497.241 201.663 498.998 202.861C500.821 204.104 502.198 206.733 502.771 208.804C500.791 211.264 498.728 212.958 498.328 216.158C497.509 222.708 498.266 230.23 498.322 236.854L498.623 281.251L498.65 351.962C498.612 364.908 497.568 378.759 499.104 391.596C499.12 391.73 499.144 391.862 499.163 391.996L490.593 391.988C492.06 352.75 490.873 313.183 491.133 273.901C491.237 258.229 493.684 229.275 491.532 215.244C491.05 212.102 488.697 210.139 486.722 207.723Z"/>
	<path fill="#09AEF5" transform="matrix(1.00061 0 0 0.999588 0 -1.52588e-05)" d="M317.591 558.53C318.953 557.49 320.824 556.708 322.341 555.877C321.508 563.021 320.834 569.121 314.761 573.893C312.58 575.607 310.228 577.188 307.809 578.545L307.736 684.103C307.621 699.974 304.643 724.491 308.069 739.219C310.768 740.348 313.46 740.428 316.342 740.614C310.175 740.876 305.743 741.892 300.04 744.007C300.704 725.407 300.109 706.568 300.104 687.945L300.073 578.353C298.817 577.44 297.388 576.495 296.317 575.369C294.636 573.603 294.464 572.426 294.545 570.158L296.608 569.123C300.064 569.142 302.181 571.241 304.752 573.287C310.969 568.802 314.851 566.005 317.591 558.53Z"/>
	<path fill="#0137A0" transform="matrix(1.00061 0 0 0.999588 0 -1.52588e-05)" d="M158.983 489.52L166.084 489.653C173.291 491.738 179.208 495.011 182.978 501.744C184.912 505.198 185.991 509.356 186.349 513.29C185.748 515.726 185.057 518.173 184.603 520.64C179.69 527.269 175.186 531.825 167.131 534.589C164.618 534.659 161.987 534.591 159.49 534.836C158.676 534.586 157.866 534.329 157.06 534.053C150.82 531.917 145.113 527.678 142.253 521.596C139.796 516.372 139.616 510.365 141.727 504.994C144.967 496.751 151.174 492.843 158.983 489.52Z"/>
	<path fill="#EEFDFB" transform="matrix(1.00061 0 0 0.999588 0 -1.52588e-05)" d="M157.075 496.04C159.671 495.857 162.373 495.627 164.964 495.961C169.729 496.576 174.458 499.304 177.268 503.227C179.668 506.579 180.529 510.464 179.813 514.521C178.621 521.265 174.078 524.899 168.697 528.516C166.173 528.814 163.563 529.139 161.03 528.793C156.394 528.159 151.894 525.932 149.069 522.123C146.589 518.781 145.738 514.393 146.444 510.324C147.642 503.432 151.659 499.989 157.075 496.04Z"/>
	<path fill="#0137A0" transform="matrix(1.00061 0 0 0.999588 0 -1.52588e-05)" d="M160.467 500.917C160.742 500.934 161.018 500.944 161.292 500.968C165.143 501.301 169.243 502.832 171.721 505.903C173.462 508.06 174.168 510.701 173.769 513.452C173.044 518.448 169.879 520.644 166.062 523.324C165.285 523.3 164.512 523.27 163.737 523.201C159.799 522.853 155.84 521.27 153.422 518.006C151.844 515.876 151.334 513.242 151.823 510.652C152.77 505.629 156.443 503.406 160.467 500.917Z"/>
	<path fill="#05A0F5" transform="matrix(1.00061 0 0 0.999588 0 -1.52588e-05)" d="M159.059 373.157C153.113 370.413 146.726 366.396 144.316 359.928C143.288 357.169 143.478 354.259 144.732 351.607C146.82 347.189 151.169 343.669 155.747 342.096C160.45 340.481 165.808 340.561 170.262 342.918C173.627 344.698 175.851 347.524 176.924 351.151C178.12 355.193 178.213 359.888 176.054 363.625C173.761 367.593 169.714 370.35 165.799 372.554L165.651 445.393C165.627 460.088 165.127 474.993 166.084 489.653L158.983 489.52C161.168 451.086 159.077 411.703 159.059 373.157Z"/>
	<path fill="#0D84E2" transform="matrix(1.00061 0 0 0.999588 0 -1.52588e-05)" d="M526.548 388.327C527.157 369.042 526.414 349.629 526.323 330.332C526.136 290.839 526.076 251.217 527.212 211.74C527.408 204.905 527.859 197.971 527.296 191.147C526.826 185.451 522.067 171.16 524.173 166.905C526.415 164.837 527.018 164.549 529.991 163.837C532.893 164.642 533.237 164.807 535.198 167.081C535.22 179.172 532.899 191.339 533.026 204.382L534.067 333.121C534.172 350.556 536.95 371.192 533.462 388.189C530.873 388.995 529.13 388.789 526.548 388.327Z"/>
	<path fill="#09AEF5" transform="matrix(1.00061 0 0 0.999588 0 -1.52588e-05)" d="M238.352 463.881C231.832 464.401 224.622 464.411 219.113 460.354C216.706 458.581 215.221 456.194 214.869 453.22C214.37 449.006 216.545 444.452 219.163 441.282C222.192 437.615 226.746 434.71 231.57 434.324C234.62 434.079 237.593 434.973 239.911 436.99C245.173 441.57 245.555 448.937 245.965 455.403C270.196 479.285 294.156 503.382 317.533 528.103C312.908 528.465 308.285 528.841 303.652 529.081L238.352 463.881Z"/>
	<path fill="#0D70D7" transform="matrix(1.00061 0 0 0.999588 0 -1.52588e-05)" d="M92.7692 768.131C90.21 762.526 87.8882 757.586 90.2506 751.478C92.0149 746.916 95.2769 743.28 99.8049 741.347C103.711 739.678 108.16 739.363 112.102 741.071C115.292 742.452 117.689 745.045 118.893 748.3C120.761 753.349 118.814 844.028 118.804 857.519C126.506 865.075 134.909 872.463 141.916 880.652C141.709 880.596 141.5 880.548 141.296 880.483C135.599 878.669 124.499 863.81 120.57 864.223C122.98 869.587 131.361 875.992 135.756 880.315C148.502 892.854 201.178 941.743 206.799 952.992C194.892 944.48 183.943 932.085 173.562 921.77C152.997 901.338 132.449 880.711 112.713 859.476C111.953 829.566 112.223 799.595 112.165 769.675L99.0731 769.544C99.1278 800.284 101.015 833.542 98.7345 864.065C97.3633 857.164 98.2709 848.494 98.2838 841.412C98.3251 818.742 100.313 793.522 98.0056 771.109C96.5094 768.879 95.1978 768.892 92.7692 768.131Z"/>
	<path fill="#FBF7F5" transform="matrix(1.00061 0 0 0.999588 0 -1.52588e-05)" d="M103.34 746.424C105.607 747.021 108.768 748.111 110.336 749.996C111.844 751.807 112.45 753.531 112.124 755.9C111.674 759.175 108.871 761.24 106.482 763.171C104.516 762.58 101.642 761.425 100.217 759.919C98.5635 758.172 97.9387 756.52 98.1077 754.106C98.3279 750.961 101.248 748.492 103.34 746.424Z"/>
	<path fill="#0137A0" transform="matrix(1.00061 0 0 0.999588 0 -1.52588e-05)" d="M216.874 826.22C256.391 864.048 294.83 903.001 332.98 942.204C351.212 960.94 371.157 979.34 387.826 999.391C387.87 1008.56 387.424 1016.7 380.428 1023.59C376.323 1027.62 370.857 1029.78 365.105 1029.71C358.101 1029.64 351.539 1026.15 346.757 1021.18C344.562 1018.89 342.83 1016.33 341.155 1013.65L340.879 1003.38C309.138 969.134 273.224 938.108 243.139 902.382L244.557 897.637C277.873 931.578 312.809 964.882 344.489 1000.31C344.788 1006.81 345.344 1012.44 349.768 1017.54C353.477 1021.82 358.496 1024.29 364.158 1024.59C369.541 1024.88 375.371 1023.01 379.382 1019.37C382.357 1016.67 384.355 1012.94 384.509 1008.88C384.715 1003.47 382.104 998.445 378.847 994.293C373.261 987.173 365.862 981.105 359.4 974.755C349.737 965.26 340.32 955.483 330.812 945.83C292.016 906.442 253.001 867.231 214.825 827.241L216.874 826.22Z"/>
	<path fill="#0D70D7" transform="matrix(1.00061 0 0 0.999588 0 -1.52588e-05)" d="M354.26 812.661C361.068 807.865 366.496 804.667 375.207 806.177C381.054 807.19 386.412 810.656 389.824 815.506C393.237 820.357 394.653 826.389 393.46 832.222C391.921 839.746 387.76 843.438 382.075 848.135L381.736 848.411C396.283 863.901 411.606 878.706 425.987 894.329C426.192 887.482 425.966 880.272 426.839 873.493C427.497 882.805 427.12 891.894 425.656 901.115C422.298 896.371 416.69 891.88 412.563 887.648C400.719 875.505 388.494 863.555 377.629 850.517C374.177 850.785 370.632 851.142 367.227 850.341C360.957 848.866 354.873 845.012 351.621 839.359C347.718 832.575 348.322 825.346 350.36 818.095L354.26 812.661Z"/>
	<path fill="#043CA5" transform="matrix(1.00061 0 0 0.999588 0 -1.52588e-05)" d="M365.5 816.49C370.051 816.372 376.207 816.019 379.693 819.538C383.165 823.041 382.603 827.987 382.506 832.504L375.5 839.51C370.209 839.745 366.492 839.467 362.371 835.787C360.174 833.825 359.058 831.038 359.07 828.117C359.089 823.209 362.233 819.756 365.5 816.49Z"/>
	<path fill="#05A0F5" transform="matrix(1.00061 0 0 0.999588 0 -1.52588e-05)" d="M204.988 730.932C198.159 733.646 190.878 734.58 183.913 731.714C177.935 729.254 173.442 724.212 170.973 718.312C168.154 711.577 168.062 703.861 170.864 697.103C173.228 691.401 177.651 686.719 183.429 684.445C203.724 676.46 206.151 691.131 216.343 695.085C216.48 695.138 216.621 695.181 216.76 695.228L216.865 722.9C212.752 726.251 211.398 728.613 210.505 733.811C209.86 731.753 209.991 731.184 208.128 729.979L204.988 730.932Z"/>
	<path fill="#FBF7F5" transform="matrix(1.00061 0 0 0.999588 0 -1.52588e-05)" d="M188.962 690.022C192.18 689.9 195.389 689.94 198.506 690.857C203.341 692.28 207.809 696.022 210.09 700.505C212.283 704.816 212.567 709.753 210.977 714.313C208.808 720.535 204.32 723.412 198.643 726.18C195.575 726.238 192.381 726.168 189.408 725.331C184.678 723.999 180.011 720.612 177.574 716.309C175.224 712.159 174.752 707.454 176.171 702.912C178.261 696.224 183.033 693.104 188.962 690.022Z"/>
	<path fill="#1FC4F8" transform="matrix(1.00061 0 0 0.999588 0 -1.52588e-05)" d="M188.126 695.995C189.288 695.93 190.449 695.876 191.613 695.861C195.862 695.81 199.886 696.878 202.938 700.017C204.873 702.008 205.881 704.63 205.788 707.408C205.598 713.09 202.429 716.294 198.5 720C196.904 720.125 195.304 720.231 193.703 720.247C190.109 720.284 186.619 719 184.082 716.395C181.86 714.113 180.846 711.206 181.019 708.05C181.313 702.671 184.365 699.489 188.126 695.995Z"/>
	<path fill="#043CA5" transform="matrix(1.00061 0 0 0.999588 0 -1.52588e-05)" d="M204.988 730.932L208.128 729.979C209.991 731.184 209.86 731.753 210.505 733.811C209.85 744.779 212.577 785.192 209.586 792.016C209.716 794.835 210.105 796.784 211.869 799.046C225.976 817.133 244.851 833.233 260.966 849.647L349.936 940.46C367.73 958.636 386.327 976.45 402.969 995.676C403.089 1008 402.486 1023.08 393.221 1032.44C391.028 1034.66 389.032 1036.09 385.823 1036.28C382.039 1038.92 378.576 1041.85 373.689 1040.92C372.873 1040.77 372.078 1040.03 371.578 1039.35C371.227 1038.87 371.136 1038.63 370.903 1038.13C371.634 1038.29 372.367 1038.38 373.115 1038.41C378.203 1038.58 384.327 1035.29 387.903 1031.82C397.035 1022.95 398.349 1010.33 398.579 998.371C365.741 961.773 329.84 927.412 295.303 892.415C265.556 862.272 236.514 830.543 205.562 801.668C203.159 791.756 204.968 744.371 204.988 730.932Z"/>
	<path fill="#0D70D7" transform="matrix(1.00061 0 0 0.999588 0 -1.52588e-05)" d="M509.233 227.583C509.759 224.913 510.427 222.528 511.38 219.98L512.4 219.734C513.584 222.529 514.739 225.332 515.859 228.154C518.023 295.164 516.022 362.295 516.112 429.329L516.362 478.372C516.36 486.66 515.495 495.429 516.441 503.628L513.456 504.474L510.446 502.633L508.888 504.015C504.992 484.131 508.859 435.844 508.913 412.447C509.056 350.9 506.298 289.076 509.233 227.583Z"/>
	<path fill="#FBF7F5" transform="matrix(1.00061 0 0 0.999588 0 -1.52588e-05)" d="M184.603 520.64C196.119 532.357 208.11 543.91 218.959 556.252C219.049 570.742 219.361 585.282 218.915 599.765L214.728 600.244C197.959 584.816 181.349 568.593 166.64 551.191C166.665 545.662 166.949 540.116 167.131 534.589C175.186 531.825 179.69 527.269 184.603 520.64Z"/>
	<path fill="#043CA5" transform="matrix(1.00061 0 0 0.999588 0 -1.52588e-05)" d="M478.347 502.059L479.597 500.653C482.059 502.258 481.992 504.84 482.697 507.62L483.014 516.71C492.684 526.211 502.267 535.822 512.053 545.201C522.671 535.507 535.191 525.449 541.878 512.48C542.456 508.806 542.035 507.314 544.977 504.9C545.13 509.332 545.377 513.783 545.304 518.217C534.834 529.141 524.425 540.135 513.757 550.865C513.761 609.26 515.116 1203.13 513.127 1207.64C511.148 1203.17 511.56 1198.14 510.33 1193.38C509.334 1170.47 510.279 1147.1 510.301 1124.13L510.408 987.506L510.912 551.85C500.229 540.249 489.16 529.005 478.17 517.697L478.347 502.059Z"/>
	<path fill="#0137A0" transform="matrix(1.00061 0 0 0.999588 0 -1.52588e-05)" d="M109.138 1024.44C111.859 1026.82 123.621 1031.43 127.353 1031.67C128.481 1036.55 130.696 1041.15 133.408 1045.33C133.928 1045.66 134.458 1045.95 135.028 1046.18C143.236 1049.5 264.969 1048.17 271.611 1044.84C275.258 1052.54 283.083 1057.44 288.337 1064.02C290.894 1067.23 293.848 1072.74 292.935 1077.02C292.62 1078.5 291.853 1079.7 290.638 1080.55C287.443 1082.8 283.314 1082.34 279.667 1081.81C278.506 1080.99 277.276 1080.52 276.895 1079.09C275.826 1075.06 278.865 1070.35 280.688 1066.98L279.536 1063.6L278.17 1063.44C273.755 1060.67 271.082 1056.22 268.866 1051.64C267.728 1052.27 266.419 1052.83 265.147 1053.1C253.748 1055.56 138.665 1055.87 132.891 1052.01C131.26 1056.35 128.488 1060.66 124.938 1063.66C120.391 1067.51 114.353 1069.26 108.45 1068.59C102.152 1067.86 96.3383 1064.44 92.5338 1059.4C89.4062 1055.25 88.0713 1050.22 88.955 1045.08C90.992 1033.25 100.216 1030.97 108.585 1024.85L109.138 1024.44Z"/>
	<path fill="#FBF7F5" transform="matrix(1.00061 0 0 0.999588 0 -1.52588e-05)" d="M104.841 1031.32C111.716 1034.69 118.21 1033.19 124.348 1039.72C126.232 1041.73 127.159 1044.14 126.984 1046.9C126.768 1050.3 124.626 1055.87 121.991 1058.12C119.899 1059.91 119.028 1059.73 116.454 1059.58C115.087 1061.47 113.432 1062.7 111.069 1063.07C107.649 1063.61 104.521 1062.88 101.727 1060.79C98.6854 1058.51 97.055 1054.62 96.7173 1050.92C95.9252 1042.25 99.4835 1037.54 104.841 1031.32Z"/>
	<path fill="#FBF7F5" transform="matrix(1.00061 0 0 0.999588 0 -1.52588e-05)" d="M210.505 733.811C211.398 728.613 212.752 726.251 216.865 722.9L217.057 795.539C261.453 842.529 307.922 887.447 353.161 933.609C375.711 956.619 398.939 979.525 419.566 1004.28C420.424 1015.21 419.231 1026.49 419.457 1037.48C413.339 1041.83 397.26 1041.94 389.968 1040.55C388.608 1040.29 387.304 1039.81 386.041 1039.25C385.758 1038.13 385.59 1037.42 385.823 1036.28C389.032 1036.09 391.028 1034.66 393.221 1032.44C402.486 1023.08 403.089 1008 402.969 995.676C386.327 976.45 367.73 958.636 349.936 940.46L260.966 849.647C244.851 833.233 225.976 817.133 211.869 799.046C210.105 796.784 209.716 794.835 209.586 792.016C212.577 785.192 209.85 744.779 210.505 733.811Z"/>
	<path fill="#0137A0" transform="matrix(1.00061 0 0 0.999588 0 -1.52588e-05)" d="M221.04 649.601L222.016 650.15L222.823 650.304C226.474 650.982 230.588 650.061 233.344 652.416C233.652 654.402 233.962 656.386 234.236 658.377L234.206 787.358C241.737 797.634 251.5 806.397 260.562 815.313L296.905 851.352L418.723 976.16C420.314 978.577 421.026 980.072 421.272 983.026L420.461 985.173L418.858 985.618C409.404 974.126 398.225 963.546 387.908 952.796C368.247 932.311 348.522 911.928 328.393 891.9L324.438 894.867L222.929 793.055L222.801 779.583C220.378 771.895 221.638 760.757 221.608 752.582C221.57 742.489 223.059 659.687 221.609 656.597C221.374 656.097 220.414 655.314 220.005 654.874L218.628 655.382C218.003 657.866 217.668 660.307 217.368 662.843L216.711 656.567C216.884 655.687 217.054 654.786 217.328 653.931C218.246 651.065 218.425 650.829 221.04 649.601Z"/>
	<path fill="#05A0F5" transform="matrix(1.00061 0 0 0.999588 0 -1.52588e-05)" d="M222.801 779.583C223.051 764.124 220.626 660.919 225.001 655.118C226.234 655.633 227.012 655.751 227.58 657.094C230.591 664.219 228.326 772.684 228.193 790.834L290.707 853.577C303.426 866.283 316.567 878.325 328.393 891.9L324.438 894.867L222.929 793.055L222.801 779.583Z"/>
	<path fill="#09AEF5" transform="matrix(1.00061 0 0 0.999588 0 -1.52588e-05)" d="M242.82 1128.66C240.705 1132.13 237.38 1134.1 233.583 1135.25C228.163 1136.9 222.632 1136.81 217.577 1134.07C212.823 1131.48 209.451 1127.03 208.071 1121.81C206.464 1115.74 207.572 1109.11 210.88 1103.8C213.724 1099.23 218.053 1095.89 223.341 1094.73C238.376 1091.41 237.996 1101.96 247.09 1107.5C247.213 1107.58 247.342 1107.64 247.468 1107.71C247.99 1107.99 248.519 1108.25 249.085 1108.43C259.11 1111.63 392.923 1110.02 410.75 1108.56C413.389 1108.34 415.54 1107.93 417.868 1106.63C418.372 1110.05 419.153 1113.66 418.87 1117.1L418.873 1119.06L418.817 1129.05C417.79 1128.58 263.136 1130.02 242.82 1128.66Z"/>
	<path fill="#FBF7F5" transform="matrix(1.00061 0 0 0.999588 0 -1.52588e-05)" d="M223.05 1100.41C226.039 1102.34 230.534 1102.51 233.951 1101.95C237.532 1108.07 240.637 1109.57 241.537 1117.34C241.886 1120.35 241.283 1123.02 239.426 1125.45C236.969 1126.88 235.44 1127.79 232.47 1127.48C232.375 1127.59 232.283 1127.71 232.186 1127.83C230.547 1129.74 228.648 1130.27 226.185 1130.45C223.442 1130.66 221.116 1129.94 219.043 1128.06C215.918 1125.21 214.815 1121.13 214.688 1117.04C214.451 1109.41 218.094 1105.57 223.05 1100.41Z"/>
	<path fill="#043CA5" transform="matrix(1.00061 0 0 0.999588 0 -1.52588e-05)" d="M217.368 662.843C217.668 660.307 218.003 657.866 218.628 655.382L220.005 654.874C220.414 655.314 221.374 656.097 221.609 656.597C223.059 659.687 221.57 742.489 221.608 752.582C221.638 760.757 220.378 771.895 222.801 779.583L222.929 793.055L324.438 894.867L328.393 891.9C348.522 911.928 368.247 932.311 387.908 952.796C398.225 963.546 409.404 974.126 418.858 985.618L415.667 988.887C418.031 991.898 421.508 995.339 421.183 999.392C421.039 1001.19 420.503 1002.76 419.566 1004.28C398.939 979.525 375.711 956.619 353.161 933.609C307.922 887.447 261.453 842.529 217.057 795.539L216.865 722.9L216.76 695.228L216.707 675.906L163.476 675.953C152.76 686.767 116.117 728.187 102.465 729.528C99.7705 729.793 97.0723 729.177 95.0204 727.329C93.0707 725.574 91.3931 722.42 91.4747 719.765C91.8881 706.304 125.73 678.235 135.668 669.138C161.562 669.585 189.117 671.362 214.848 668.96C216.987 667.251 216.819 665.444 217.368 662.843Z"/>
	<path fill="#09AEF5" transform="matrix(1.00061 0 0 0.999588 0 -1.52588e-05)" d="M328.393 891.9C348.522 911.928 368.247 932.311 387.908 952.796C398.225 963.546 409.404 974.126 418.858 985.618L415.667 988.887C385.068 957.726 354.503 926.545 324.438 894.867L328.393 891.9Z"/>
	<path fill="#FBF7F5" transform="matrix(1.00061 0 0 0.999588 0 -1.52588e-05)" d="M149.898 675.507C151.71 675.408 151.992 675.358 153.655 676.274C152.167 680.235 108.197 722.392 103.06 725.298C102.227 724.744 101.298 724.167 100.593 723.455C99.1659 722.013 98.5238 720.795 98.6683 718.769C99.3917 708.628 129.649 682.886 138.481 675.607L149.898 675.507Z"/>
	<path fill="#0137A0" transform="matrix(1.00061 0 0 0.999588 0 -1.52588e-05)" d="M277.185 247.253C273.829 245.206 270.555 243.005 267.906 240.065C264.391 236.162 262.475 231.504 262.808 226.224C263.154 220.753 265.308 215.018 269.555 211.394C273.717 207.843 279.218 206.478 284.606 206.936C290.959 207.475 297.217 210.618 301.291 215.549C304.416 219.33 306.09 223.981 305.447 228.911C304.374 237.139 297.806 242.809 291.637 247.559L291.119 391.59C318.733 419.937 346.914 447.762 375.102 475.538C386.625 486.892 408.38 505.423 416.726 518.157C414.484 517.708 412.249 517.335 409.987 516.999L405.312 518.303L404.797 517.907L401.228 518.826C388.871 511.126 360.031 478.698 348.14 466.851L309.373 428.492C298.75 418.11 286.091 407.79 277.948 395.348C276.168 375.803 276.841 355.666 276.883 336.038L277.185 247.253Z"/>
	<path fill="#FBF7F5" transform="matrix(1.00061 0 0 0.999588 0 -1.52588e-05)" d="M278.783 213.067C280.675 212.894 282.616 212.714 284.516 212.792C288.482 212.957 292.948 215.126 295.528 218.139C297.843 220.841 298.824 224.398 298.485 227.912C297.885 234.144 294.343 237.406 289.737 241.203C287.775 241.294 285.782 241.388 283.821 241.231C279.25 240.864 274.729 238.731 271.857 235.092C269.699 232.359 268.854 229.009 269.405 225.572C270.35 219.676 274.225 216.441 278.783 213.067Z"/>
	<path fill="#05A0F5" transform="matrix(1.00061 0 0 0.999588 0 -1.52588e-05)" d="M280.721 221.293C281.38 221.34 282.035 221.395 282.689 221.498C285.507 221.939 287.381 222.649 289.057 225.008C290.062 228.303 289.038 230.846 288.046 234.006C284.205 233.63 281.854 232.896 279.298 230.015C278.522 226.675 279.545 224.382 280.721 221.293Z"/>
	<path fill="#0D70D7" transform="matrix(1.00061 0 0 0.999588 0 -1.52588e-05)" d="M282.788 395.168L282.646 280.659C282.688 272.084 281.453 263.491 281.727 254.927C281.798 252.691 281.93 250.288 283.011 248.281C283.587 247.213 283.813 247.254 284.932 246.877C289.264 253.061 286.261 375.78 286.646 394.279L370.465 476.902C383.482 489.9 398.303 502.898 409.987 516.999L405.312 518.303L404.797 517.907L282.788 395.168Z"/>
	<path fill="#09AEF5" transform="matrix(1.00061 0 0 0.999588 0 -1.52588e-05)" d="M340.892 296.307C344.942 296.119 348.998 295.859 353.051 296.074L352.959 400.995C376.621 426.795 401.981 450.961 425.972 476.453L426.041 425.532C414.271 413.52 402.695 400.543 389.946 389.596C384.887 385.252 376.31 382.951 372.238 378.117C370.062 375.535 368.962 372.395 369.045 369.019C369.139 365.168 370.63 361.437 373.485 358.807C376.588 355.948 380.902 354.593 385.087 354.826C388.534 355.018 392.432 356.571 394.73 359.229C399.151 364.34 395.206 370.35 398.891 374.994C411.395 390.752 427.687 404.618 441.937 418.893L441.531 582.646C448.883 589.588 467.024 603.551 467.468 614.039C467.518 615.21 467.383 616.773 467.007 617.874C466.554 617.407 466.187 617.024 465.595 616.735C463.144 615.537 461.042 616.312 458.673 617.147C447.447 606.557 436.688 595.528 425.905 584.49L425.951 488.668C398.345 459.153 369.251 430.69 340.972 401.8C341.301 366.689 342.22 331.4 340.892 296.307Z"/>
	<defs>
		<linearGradient id="gradient_0" gradientUnits="userSpaceOnUse" x1="421.72589" y1="902.50037" x2="473.41476" y2="897.91394">
			<stop offset="0" stop-color="#0149B7"/>
			<stop offset="1" stop-color="#0080F1"/>
		</linearGradient>
	</defs>
	<path fill="url(#gradient_0)" transform="matrix(1.00061 0 0 0.999588 0 -1.52588e-05)" d="M409.987 516.999C412.249 517.335 414.484 517.708 416.726 518.157C419.184 527.158 417.119 558.026 417.111 569.048L417.139 709.697C432.411 726.282 448.356 742.452 464.575 758.115L463.875 1135.58L463.816 1229.13C463.849 1245.57 465.925 1264.34 462.786 1280.41C461.995 1283.27 461.943 1285.16 459.688 1287.15C457.717 1286.06 457.401 1285.59 456.188 1283.67C455.423 1270.98 456.879 1258.1 455.221 1245.48C454.309 1226.86 455.003 1207.95 455.028 1189.3L455.079 1087.65L454.847 767.207C435.261 752.469 418.684 732.511 402.024 714.596L402.059 588.369C402.196 565.989 405.223 540.825 401.228 518.826L404.797 517.907L405.312 518.303L409.987 516.999Z"/>
	<path fill="#0137A0" transform="matrix(1.00061 0 0 0.999588 0 -1.52588e-05)" d="M398.468 135.059C395.527 132.933 392.64 130.799 390.187 128.104C386.125 123.642 382.529 117.981 382.951 111.706C383.283 106.77 386.112 102.314 389.791 99.1355C395.033 94.6064 402.125 92.3155 409.022 92.8905C414.176 93.3202 419.491 95.5486 422.788 99.642C426.535 104.294 427.747 110.879 426.969 116.717C425.873 124.937 419.758 129.672 413.588 134.314L413.989 353.36C432.323 373.075 452.009 391.633 471.269 410.434L471.113 557.662C480.189 567.411 489.577 576.686 499.203 585.891C497.497 594.013 500.402 608.233 497.602 614.629L496.125 615.104C495.999 619.859 496.064 624.731 495.001 629.388L494.815 630.169L495.007 629.581L493.025 629.624L494.413 629.041C493.27 616.083 493.543 602.883 493.396 589.874C483.977 583.155 465.82 568.764 462.2 557.86L460.025 561.353L458.96 560.306C458.474 561.778 457.967 563.238 457.605 564.747C464.649 572.051 471.832 579.261 478.702 586.726L477.462 591.791C469.007 583.503 460.86 575.036 452.874 566.295L453.056 412.545C435.289 394.214 416.993 376.368 398.881 358.378L398.468 135.059Z"/>
	<path fill="#0D70D7" transform="matrix(1.00061 0 0 0.999588 0 -1.52588e-05)" d="M404.125 234.137C403.465 218.477 401.098 147.88 405.642 137.093L406.838 137.271C408.956 144.023 410.838 314.174 408.947 322.67C407.552 318.996 407.081 215.955 406.389 202.996L405.852 203.21C404.662 213.546 404.786 223.783 404.125 234.137Z"/>
	<path fill="#FBF7F5" transform="matrix(1.00061 0 0 0.999588 0 -1.52588e-05)" d="M402.717 98.0595C404.929 98.1468 407.36 98.4498 409.494 99.0311C413.164 100.031 416.696 102.669 418.61 105.961C420.534 109.269 420.908 113.148 419.866 116.812C418.144 122.867 413.865 125.725 408.642 128.678C406.281 128.448 403.828 128.27 401.522 127.703C397.8 126.79 393.957 123.745 392.056 120.452C390.247 117.318 389.92 113.662 390.932 110.205C392.784 103.88 397.194 101.047 402.717 98.0595Z"/>
	<path fill="#045AC6" transform="matrix(1.00061 0 0 0.999588 0 -1.52588e-05)" d="M402.184 107.333C402.854 107.409 403.521 107.493 404.182 107.631C406.832 108.181 408.769 109.081 410.222 111.406C411.134 114.414 409.982 116.846 408.957 119.649C405.764 119.099 402.789 118.289 400.813 115.561C399.808 112.606 401.123 110.075 402.184 107.333Z"/>
	<path fill="#0D84E2" transform="matrix(1.00061 0 0 0.999588 0 -1.52588e-05)" d="M457.72 409.669C459.284 410.405 461.908 411.137 462.545 412.799C465.56 420.667 465.024 549.176 462.2 557.86L460.025 561.353L458.96 560.306C458.474 561.778 457.967 563.238 457.605 564.747C455.247 547.297 457.11 528.746 457.227 511.13L457.72 409.669Z"/>
	<path fill="#05A0F5" transform="matrix(1.00061 0 0 0.999588 0 -1.52588e-05)" d="M404.125 234.137C404.786 223.783 404.662 213.546 405.852 203.21L406.389 202.996C407.081 215.955 407.552 318.996 408.947 322.67L409.073 355.385C427.272 375.322 447.582 393.876 466.987 412.668L466.708 559.991C476.592 569.113 485.7 579.346 495.928 588.025L496.125 615.104C495.999 619.859 496.064 624.731 495.001 629.388L494.815 630.169L495.007 629.581L493.025 629.624L494.413 629.041C493.27 616.083 493.543 602.883 493.396 589.874C483.977 583.155 465.82 568.764 462.2 557.86C465.024 549.176 465.56 420.667 462.545 412.799C461.908 411.137 459.284 410.405 457.72 409.669C441.68 397.622 418.897 371.677 404.065 356.488L404.125 234.137Z"/>
	<path fill="#0137A0" transform="matrix(1.00061 0 0 0.999588 0 -1.52588e-05)" d="M367.731 559.174C369.054 557.759 371.263 556.986 372.995 556.152L372.988 595.671C380.119 603.445 385.758 610.37 385.268 621.545C384.923 629.411 381.962 636.947 381.511 644.782C380.008 670.874 381.228 697.775 381.168 723.954C399.727 741.772 418.474 759.754 435.853 778.73L435.837 863.196C435.838 874.84 437.057 887.484 436.06 899.03C435.804 901.996 435.505 903.113 433.658 905.462C431.053 906.134 430.521 905.889 427.92 905.062C427.029 903.786 426.124 902.619 425.656 901.115C427.12 891.894 427.497 882.805 426.839 873.493C425.128 856.532 426.455 838.154 426.372 821.031C404.991 797.603 382.494 775.177 360.103 752.722C354.502 748.052 349.373 742.363 344.153 737.245L347.36 733.245C346.202 731.862 345.658 730.273 345.439 728.49C344.228 718.587 342.37 655.152 346.724 649.569C343.96 647.465 341.168 646.279 337.954 645.011C335.184 642.882 332.685 640.439 330.647 637.588C326.143 631.286 324.414 623.082 325.917 615.499C327.811 605.939 333.739 599.668 341.625 594.467C344.468 593.724 347.228 592.735 350.003 591.774C356.215 591.482 361.822 592.108 367.869 593.454C367.939 582.027 367.817 570.6 367.731 559.174Z"/>
	<path fill="#FBF7F5" transform="matrix(1.00061 0 0 0.999588 0 -1.52588e-05)" d="M374.559 644.995L375.967 645.33C377.99 648.708 376.49 710.574 375.993 718.174L375.029 718.843L372.425 716.668L365.075 710.678C365.581 690.493 365.269 670.28 365.153 650.09L374.559 644.995Z"/>
	<path fill="#FBF7F5" transform="matrix(1.00061 0 0 0.999588 0 -1.52588e-05)" d="M349.837 597.185C355.007 596.919 359.734 596.726 364.614 598.701C371.085 601.32 376.228 606.229 378.84 612.737C381.204 618.626 381.13 625.44 378.5 631.23C375.02 638.893 368.862 642.341 361.325 645.189C357.296 645.348 352.925 645.18 349.065 643.96C342.44 641.864 336.658 637.338 333.578 631.048C330.912 625.605 330.466 619.139 332.54 613.427C335.667 604.813 341.962 600.867 349.837 597.185Z"/>
	<path fill="#043CA5" transform="matrix(1.00061 0 0 0.999588 0 -1.52588e-05)" d="M350.646 603C353.745 602.833 356.951 602.766 359.98 603.546C364.927 604.82 369.452 608.017 372.045 612.444C374.352 616.384 374.864 621.152 373.663 625.537C371.687 632.756 366.818 635.985 360.578 639.402C357.794 639.439 354.73 639.325 352.014 638.698C347.059 637.554 342.037 633.987 339.488 629.575C337.275 625.746 336.767 621.255 337.901 616.996C339.788 609.909 344.617 606.569 350.646 603Z"/>
	<path fill="#05A0F5" transform="matrix(1.00061 0 0 0.999588 0 -1.52588e-05)" d="M352.344 607.887C353.892 607.921 355.422 608.088 356.947 608.356C361.027 609.071 364.658 611.131 366.967 614.641C368.636 617.178 369.07 620.333 368.444 623.278C367.324 628.554 363.624 631.224 359.307 633.949C358.452 633.938 357.63 633.885 356.781 633.785C352.039 633.228 347.864 631.95 344.946 627.913C343.217 625.521 342.776 622.407 343.258 619.536C344.217 613.83 347.921 611.143 352.344 607.887Z"/>
	<path fill="#FBF7F5" transform="matrix(1.00061 0 0 0.999588 0 -1.52588e-05)" d="M346.724 649.569C350.432 650.302 354.113 651.015 357.867 651.469L357.861 713.452C381.109 736.378 404.792 758.959 426.468 783.401L426.653 814.361C406.451 792.512 386.176 770.268 364.237 750.153L360.103 752.722C354.502 748.052 349.373 742.363 344.153 737.245L347.36 733.245C346.202 731.862 345.658 730.273 345.439 728.49C344.228 718.587 342.37 655.152 346.724 649.569Z"/>
	<path fill="#043CA5" transform="matrix(1.00061 0 0 0.999588 0 -1.52588e-05)" d="M347.36 733.245C353.125 738.733 359.01 744.14 364.237 750.153L360.103 752.722C354.502 748.052 349.373 742.363 344.153 737.245L347.36 733.245Z"/>
	<path fill="#043CA5" transform="matrix(1.00061 0 0 0.999588 0 -1.52588e-05)" d="M172.656 741.257L197.949 741.203C198.467 762.214 198.924 782.824 197.117 803.8C202.611 811.971 210.123 819.08 216.874 826.22L214.825 827.241C253.001 867.231 292.016 906.442 330.812 945.83C340.32 955.483 349.737 965.26 359.4 974.755C365.862 981.105 373.261 987.173 378.847 994.293C382.104 998.445 384.715 1003.47 384.509 1008.88C384.355 1012.94 382.357 1016.67 379.382 1019.37C375.371 1023.01 369.541 1024.88 364.158 1024.59C358.496 1024.29 353.477 1021.82 349.768 1017.54C345.344 1012.44 344.788 1006.81 344.489 1000.31C312.809 964.882 277.873 931.578 244.557 897.637L243.139 902.382C219.246 879.038 195.982 855.068 172.639 831.178C172.23 801.201 172.447 771.235 172.656 741.257Z"/>
	<path fill="#FBF7F5" transform="matrix(1.00061 0 0 0.999588 0 -1.52588e-05)" d="M360.768 999.083C363.989 999.029 365.914 999.1 368.794 1000.73C370.202 1002.8 371.002 1003.87 370.355 1006.54C369.92 1008.33 368.168 1010.18 366.924 1011.49C363.694 1011.17 362.118 1010.9 359.664 1008.6C358.732 1006.51 358.085 1004.76 358.876 1002.5C359.287 1001.32 360.113 1000.12 360.768 999.083Z"/>
	<path fill="#FBF7F5" transform="matrix(1.00061 0 0 0.999588 0 -1.52588e-05)" d="M190.304 744.653C191.26 745.235 193.08 745.926 193.341 747.007C195.97 757.902 193.741 805.177 193.34 819.317L309.207 937.446C326.265 954.763 345.103 971.67 361.072 989.89C362.398 991.402 363.162 992.638 363.301 994.721C362.576 996.362 361.906 997.689 360.768 999.083C359.217 999.008 358.043 998.704 356.821 997.73C350.034 992.321 343.926 985.208 337.801 979.024L298.407 938.841C261.149 900.715 223.379 863.055 186.815 824.263C186.732 812.368 184.42 754.338 187.9 746.843L190.304 744.653Z"/>
	<path fill="#EEFDFB" transform="matrix(1.00061 0 0 0.999588 0 -1.52588e-05)" d="M176.203 827.547C176.074 813.701 173.208 752.244 179.303 745.521L181.431 746.455C182.836 747.958 183.534 749.345 183.827 751.362C185.207 760.848 183.933 771.36 183.786 780.94C183.554 796.002 183.757 811.091 183.809 826.155C200.796 845.947 219.658 864.171 237.975 882.72L315.98 962.403C327.955 974.789 342.85 986.004 352.96 999.879C355.479 1003.34 354.454 1006.19 355.787 1009.81C356.655 1012.17 358.848 1014.08 361.145 1015.02C363.608 1016.02 366.473 1015.67 368.86 1014.6C371.27 1013.51 373.544 1011.24 374.447 1008.74C375.638 1005.43 374.436 1001.98 372.668 999.141C360.362 979.362 333.996 956.536 316.935 939.399L237.494 859.142C223.033 844.624 204.819 829.184 195.217 810.873C202.709 815.275 208.648 821.217 214.825 827.241C253.001 867.231 292.016 906.442 330.812 945.83C340.32 955.483 349.737 965.26 359.4 974.755C365.862 981.105 373.261 987.173 378.847 994.293C382.104 998.445 384.715 1003.47 384.509 1008.88C384.355 1012.94 382.357 1016.67 379.382 1019.37C375.371 1023.01 369.541 1024.88 364.158 1024.59C358.496 1024.29 353.477 1021.82 349.768 1017.54C345.344 1012.44 344.788 1006.81 344.489 1000.31C312.809 964.882 277.873 931.578 244.557 897.637C221.386 874.622 198.044 851.844 176.203 827.547Z"/>
	<path fill="#09AEF5" transform="matrix(1.00061 0 0 0.999588 0 -1.52588e-05)" d="M221.967 302.927C221.122 302.584 220.28 302.237 219.448 301.862C212.898 298.905 206.881 293.706 204.442 286.759C202.44 281.057 203.767 275.778 206.307 270.515C209.051 264.827 213.256 259.876 219.408 257.851C224.9 256.044 230.867 256.996 235.937 259.602C242.132 262.786 246.935 268.69 248.906 275.361C250.443 280.563 250.225 286.388 247.442 291.136C243.236 298.31 235.771 300.839 228.187 302.703L228.086 385.04C232.003 386.029 236.586 387.044 239.887 389.499C245.719 393.836 249.923 401.656 255.252 406.816L330.056 480.447C341.092 491.5 351.706 504.452 363.51 514.514C366.232 516.833 369.803 518.048 372.96 519.659C377.917 522.189 381.475 525.579 383.117 531.046C384.848 536.805 383.977 543.86 381.097 549.11C379.287 552.409 376.666 555.094 372.995 556.152C371.263 556.986 369.054 557.759 367.731 559.174C367.817 570.6 367.939 582.027 367.869 593.454C361.822 592.108 356.215 591.482 350.003 591.774C347.228 592.735 344.468 593.724 341.625 594.467C342.328 574.137 341.756 555.273 338.546 535.161C316.017 511.607 291.972 489.565 269.288 466.181C257.378 453.903 247.62 439.366 234.105 428.732C228.581 428.283 223.01 428.083 217.475 427.766C212.704 425.023 208.899 421.711 206.399 416.705C203.963 411.828 203.514 406.397 205.288 401.217C208.119 392.954 214.508 388.867 221.927 385.239L221.967 302.927Z"/>
	<path fill="#FBF7F5" transform="matrix(1.00061 0 0 0.999588 0 -1.52588e-05)" d="M348.953 556.835C355.563 559.787 360.595 560.516 367.731 559.174C367.817 570.6 367.939 582.027 367.869 593.454C361.822 592.108 356.215 591.482 350.003 591.774C345.332 584.154 348.381 565.789 348.953 556.835Z"/>
	<path fill="#FBF7F5" transform="matrix(1.00061 0 0 0.999588 0 -1.52588e-05)" d="M222.239 392.085C224.885 391.854 227.579 391.669 230.166 392.41C234.311 393.597 238.295 396.645 240.406 400.415C242.455 404.072 242.869 408.507 241.599 412.498C239.846 418.008 235.928 420.409 231.035 422.943C228.798 423.072 226.422 423.07 224.207 422.679C220.309 421.993 216.318 419.272 214.074 416.04C211.743 412.682 211.139 408.672 211.912 404.699C213.116 398.508 217.229 395.383 222.239 392.085Z"/>
	<path fill="#0D84E2" transform="matrix(1.00061 0 0 0.999588 0 -1.52588e-05)" d="M223.558 397.064C223.726 397.055 223.894 397.045 224.062 397.038C228.043 396.887 232.462 397.638 235.355 400.649C237.262 402.632 238.343 405.09 238.248 407.871C238.084 412.714 235.111 415.655 231.703 418.693C229.822 418.696 227.858 418.729 226 418.406C222.503 417.797 219.387 415.771 217.398 412.828C215.875 410.575 215.299 407.95 216.009 405.284C217.158 400.969 219.759 399.03 223.558 397.064Z"/>
	<path fill="#FBF7F5" transform="matrix(1.00061 0 0 0.999588 0 -1.52588e-05)" d="M223.218 264.141C225.807 263.954 228.326 263.882 230.861 264.548C234.904 265.612 238.644 268.581 240.662 272.226C242.762 276.017 243.127 280.265 241.927 284.416C240.211 290.35 236.107 293.161 230.913 295.952C228.4 296.113 225.821 296.303 223.346 295.731C219.175 294.766 215.125 291.93 212.903 288.262C210.643 284.531 210.328 280.166 211.501 276.014C213.265 269.77 217.815 267.045 223.218 264.141Z"/>
	<path fill="#05A0F5" transform="matrix(1.00061 0 0 0.999588 0 -1.52588e-05)" d="M223.661 269.025C225.268 268.97 226.976 268.885 228.562 269.187C231.798 269.804 234.656 271.764 236.419 274.536C237.928 276.907 238.397 279.732 237.754 282.468C236.801 286.525 234.313 288.788 230.859 290.828C228.456 290.939 225.629 291.218 223.325 290.429C220.38 289.419 217.488 286.885 216.239 284.022C215.178 281.588 215.17 278.678 216.12 276.212C217.629 272.295 220.018 270.812 223.661 269.025Z"/>
	<path fill="#FBF7F5" transform="matrix(1.00061 0 0 0.999588 0 -1.52588e-05)" d="M357.999 522.024C361.437 522.078 364.783 522.064 367.948 523.581C372.185 525.613 375.587 529.358 377.14 533.796C378.421 537.457 378.322 541.566 376.561 545.049C374.004 550.107 370.358 552.187 365.12 553.858C362.504 554.092 359.401 554.559 356.864 553.732C352.522 552.317 348.35 548.46 346.499 544.311C344.697 540.275 344.672 535.624 346.392 531.55C348.63 526.25 352.923 524.077 357.999 522.024Z"/>
	<path fill="#0D84E2" transform="matrix(1.00061 0 0 0.999588 0 -1.52588e-05)" d="M357.635 526.888C358.288 526.883 358.936 526.892 359.588 526.942C363.512 527.246 367.839 528.485 370.322 531.776C371.983 533.978 372.661 536.655 372.232 539.392C371.489 544.14 368.347 546.628 364.801 549.493C364.274 549.49 363.746 549.489 363.22 549.448C359.002 549.119 354.995 548.07 352.25 544.601C350.583 542.494 349.991 540.035 350.313 537.391C350.93 532.323 353.909 529.922 357.635 526.888Z"/>
	<path fill="#FBF7F5" transform="matrix(1.00061 0 0 0.999588 0 -1.52588e-05)" d="M247.159 415.737C255.129 421.295 270.594 439.034 278.468 446.839L321.99 489.838C330.863 498.579 340.745 507.184 348.365 517.046C348.943 519.997 347.967 520.843 346.543 523.378C341.228 522.433 255.788 435.526 245.385 423.542C244.581 420.661 246.017 418.343 247.159 415.737Z"/>
	<path fill="#0137A0" transform="matrix(1.00061 0 0 0.999588 0 -1.52588e-05)" d="M611.832 135.888C609.351 133.778 606.774 131.643 604.573 129.237C600.285 124.55 597.765 119.32 598.177 112.88C598.536 107.255 600.685 101.443 605.034 97.6919C609.187 94.109 614.876 92.6233 620.288 93.0645C626.74 93.5904 633.04 96.7902 637.1 101.863C640.168 105.696 641.929 110.382 641.319 115.322C640.226 124.168 633.317 129.925 626.675 134.949C625.611 209.015 626.587 283.126 626.943 357.196L620.493 363.314C604.778 381.601 587.367 398.582 569.318 414.55C571.54 439.937 570.078 465.256 570.081 490.686C570.084 515.815 571.51 540.953 569.845 566.061C562.947 576.374 552.674 583.482 544.959 593.035C544.653 591.229 543.598 589.601 542.736 588.001C548.464 582.9 553.589 576.866 558.828 571.257L555.215 570.565C548.606 577.115 542.104 583.846 535.264 590.152L535.125 697.79C535.198 713.695 536.895 747.847 533.997 762.323C533.753 756.348 534.289 748.771 532.561 743.117C531.945 748.581 530.448 755.429 531.099 760.837C530.418 777.074 530.59 793.971 528.105 810.022C526.82 820.614 527.585 831.97 527.523 842.677C527.441 856.923 526.87 871.157 526.721 885.401C526.638 893.385 527.545 901.906 526.318 909.781L525.339 910.483L524.061 908.556C523.479 841.473 524.289 774.379 524.377 707.295C524.426 669.074 522.604 630.223 524.443 592.082C524.592 589.001 524.345 587.149 526.312 584.761C531.216 574.999 544.152 565.277 552.078 557.725L552.397 410.172L611.735 351.026L611.832 135.888Z"/>
	<path fill="#043CA5" transform="matrix(1.00061 0 0 0.999588 0 -1.52588e-05)" d="M460.025 561.353L462.2 557.86C465.82 568.764 483.977 583.155 493.396 589.874C493.543 602.883 493.27 616.083 494.413 629.041L493.025 629.624L495.007 629.581L494.815 630.169L495.001 629.388C496.064 624.731 495.999 619.859 496.125 615.104L497.602 614.629C500.402 608.233 497.497 594.013 499.203 585.891C502.5 609.024 500.041 632.813 499.987 656.076L500.006 791.163L500.014 1040.49L500.028 1121.35C500.033 1136.07 500.572 1151.01 499.853 1165.71C500.606 1192.85 499.839 1220.15 499.852 1247.31C499.863 1271 500.75 1295.04 499.755 1318.69L499.987 1522.68C496.931 1529.44 477.219 1551.17 470.084 1554.1C469.339 1553.66 467.198 1555.03 465.749 1554.98L468.5 1551.39L467.06 1548.89C463.259 1553.63 445.663 1573.36 441.109 1574.97C436.292 1581.13 400.891 1619 396.181 1621.04C389.616 1630.45 340.565 1681.36 331.896 1686.05C330.914 1685.96 329.819 1685.96 328.879 1685.68L328.333 1684.48C333.093 1671.53 360.725 1654.26 366.035 1641.83C366.416 1641.78 367.092 1641.74 367.492 1641.58C371.466 1640.04 421.992 1586.14 424.018 1581.78C424.836 1579.54 426.957 1579.14 427.009 1576.5L424.078 1575.06C424.211 1574.99 424.35 1574.92 424.478 1574.83C428.85 1571.87 437.088 1562.74 438.22 1557.52C438.387 1556.75 436.608 1554.47 436.11 1553.71C431.367 1552.33 427.922 1547.44 424.996 1543.55C420.735 1551.22 413.018 1558.32 406.615 1564.32L404.874 1564.77C405.678 1559.87 415.452 1551.46 419.007 1547.58C414.172 1550.47 410.749 1554.96 405.926 1557.95L403.843 1556.83C412.362 1550.49 423.568 1541.07 429.206 1532.01C429.044 1532.03 428.883 1532.07 428.72 1532.09C424.649 1532.58 420.328 1528.81 416.565 1530.73C410.13 1534 398.537 1549.01 393.096 1554.77C368.983 1580.3 344.289 1605.35 319.165 1629.89C312.939 1635.97 306.07 1644.82 299.07 1649.6C298.666 1672.71 298.898 1695.82 298.967 1718.93C300.736 1721.84 302.808 1724.44 305.973 1725.94L303.966 1728.72C303.419 1728.66 302.88 1728.55 302.351 1728.39C298.666 1727.32 296.617 1723.65 294.898 1720.5L294.869 1646.36C295.171 1646.3 295.477 1646.27 295.774 1646.19C299.554 1645.25 410.513 1532.38 415.963 1522.65C420.648 1526.09 423.863 1528.23 429.776 1528.07L432.039 1530.07L434.162 1529.8L432.962 1534.05L433.962 1535.57L435.16 1535.81C433.417 1537.5 431.729 1538.42 431.613 1541.01C431.474 1544.12 433.254 1546.13 435.298 1548.19C436.453 1549.35 437.475 1550.16 438.966 1550.87C440.858 1552.66 440.943 1552.98 443.502 1553.17C453.021 1548.43 475.169 1524.14 479.699 1514.66L479.266 884.156L479.05 745.615C479.053 738.26 481.318 721.156 479.495 715.575L481.732 713.385C480.378 711.633 479.278 710.135 478.566 708.023C482.232 702.231 480.192 679.278 480.043 671.676C468.275 658.7 456.19 646.015 444.156 633.287L458.673 617.147C461.042 616.312 463.144 615.537 465.595 616.735C466.187 617.024 466.554 617.407 467.007 617.874C466.919 618.005 466.834 618.137 466.745 618.266C462.624 624.216 457.644 629.105 452.557 634.221C461.244 644.399 470.681 653.927 479.947 663.574C479.908 651.291 482.513 602.975 479.471 594.563C479.179 593.755 477.999 592.533 477.462 591.791L478.702 586.726C471.832 579.261 464.649 572.051 457.605 564.747C457.967 563.238 458.474 561.778 458.96 560.306L460.025 561.353Z"/>
	<path fill="#1FC4F8" transform="matrix(1.00061 0 0 0.999588 0 -1.52588e-05)" d="M457.605 564.747C457.967 563.238 458.474 561.778 458.96 560.306L460.025 561.353C469.586 571.294 479.023 581.389 489.183 590.725C489.2 620.834 488.527 651.118 489.297 681.205C489.791 700.54 489.986 719.849 490.089 739.19C490.131 746.999 491.05 755.935 489.999 763.632C490.156 767.095 489.672 772.534 490.876 775.679C489.353 805.009 491.788 834.647 491.888 864.009L491.963 936.497C491.962 949.038 491.383 961.903 492.132 974.41C491.505 1020.4 492.134 1066.4 491.969 1112.4C491.913 1128.07 493.616 1149.63 491.817 1164.75C491.907 1176.19 489.58 1238.7 492.121 1244.49C490.726 1293.04 491.576 1341.43 491.858 1389.98L491.887 1520.99C489.139 1526.92 473.157 1545.48 467.06 1548.89C463.259 1553.63 445.663 1573.36 441.109 1574.97C436.292 1581.13 400.891 1619 396.181 1621.04C389.616 1630.45 340.565 1681.36 331.896 1686.05C330.914 1685.96 329.819 1685.96 328.879 1685.68L328.333 1684.48C333.093 1671.53 360.725 1654.26 366.035 1641.83C366.416 1641.78 367.092 1641.74 367.492 1641.58C371.466 1640.04 421.992 1586.14 424.018 1581.78C424.27 1581.75 424.527 1581.73 424.774 1581.67C427.283 1581.02 476.38 1529.67 481.478 1523.74C483.812 1521.03 485.74 1518.34 487.134 1515.03L486.913 1379.52C486.993 1360.18 487.848 1340.8 487.674 1321.46L487.016 1116.81C486.935 1073.58 486.058 1030.34 487.054 987.109C485.649 957.797 486.734 928.343 486.865 899.01L486.901 769.333C485.457 762.641 485.903 755.155 485.801 748.306C487.11 727.889 486.246 707.112 486.033 686.664L485.126 593.27L478.702 586.726C471.832 579.261 464.649 572.051 457.605 564.747Z"/>
	<path fill="#05A0F5" transform="matrix(1.00061 0 0 0.999588 0 -1.52588e-05)" d="M457.605 564.747C457.967 563.238 458.474 561.778 458.96 560.306L460.025 561.353C469.586 571.294 479.023 581.389 489.183 590.725C489.2 620.834 488.527 651.118 489.297 681.205C489.791 700.54 489.986 719.849 490.089 739.19C490.131 746.999 491.05 755.935 489.999 763.632C490.156 767.095 489.672 772.534 490.876 775.679C489.353 805.009 491.788 834.647 491.888 864.009L491.963 936.497C491.962 949.038 491.383 961.903 492.132 974.41C491.505 1020.4 492.134 1066.4 491.969 1112.4C491.913 1128.07 493.616 1149.63 491.817 1164.75C488.944 1160 490.571 1129.37 490.594 1121.75C492.974 1048.09 491.01 973.907 490.053 900.213C489.856 885.033 491.898 848.91 488.741 836.831C486.688 854.071 488.131 872.972 488.144 890.379C488.167 919.109 487.614 947.895 487.816 976.606C487.594 980.054 487.594 983.706 487.054 987.109C485.649 957.797 486.734 928.343 486.865 899.01L486.901 769.333C485.457 762.641 485.903 755.155 485.801 748.306C487.11 727.889 486.246 707.112 486.033 686.664L485.126 593.27L478.702 586.726C471.832 579.261 464.649 572.051 457.605 564.747Z"/>
	<path fill="#0251C0" transform="matrix(1.00061 0 0 0.999588 0 -1.52588e-05)" d="M460.025 561.353L462.2 557.86C465.82 568.764 483.977 583.155 493.396 589.874C493.543 602.883 493.27 616.083 494.413 629.041L493.025 629.624L495.007 629.581L494.815 630.169L495.001 629.388C496.064 624.731 495.999 619.859 496.125 615.104L497.602 614.629C500.402 608.233 497.497 594.013 499.203 585.891C502.5 609.024 500.041 632.813 499.987 656.076L500.006 791.163L500.014 1040.49L500.028 1121.35C500.033 1136.07 500.572 1151.01 499.853 1165.71C500.606 1192.85 499.839 1220.15 499.852 1247.31C499.863 1271 500.75 1295.04 499.755 1318.69L499.987 1522.68C496.931 1529.44 477.219 1551.17 470.084 1554.1C469.339 1553.66 467.198 1555.03 465.749 1554.98L468.5 1551.39L467.06 1548.89C473.157 1545.48 489.139 1526.92 491.887 1520.99L491.858 1389.98C491.576 1341.43 490.726 1293.04 492.121 1244.49C489.58 1238.7 491.907 1176.19 491.817 1164.75C493.616 1149.63 491.913 1128.07 491.969 1112.4C492.134 1066.4 491.505 1020.4 492.132 974.41C491.383 961.903 491.962 949.038 491.963 936.497L491.888 864.009C491.788 834.647 489.353 805.009 490.876 775.679C489.672 772.534 490.156 767.095 489.999 763.632C491.05 755.935 490.131 746.999 490.089 739.19C489.986 719.849 489.791 700.54 489.297 681.205C488.527 651.118 489.2 620.834 489.183 590.725C479.023 581.389 469.586 571.294 460.025 561.353Z"/>
	<path fill="#043CA5" transform="matrix(1.00061 0 0 0.999588 0 -1.52588e-05)" d="M492.132 974.41C494.897 939.424 493.233 903.373 493.118 868.259C493.08 856.82 490.999 833.544 494.144 823.437C496.32 849.723 494.794 876.682 495.269 903.102C496.707 983.146 495.837 1063.28 495.685 1143.33L495.56 1228.4C495.575 1239.33 497.283 1256.27 495.104 1266.64C491.855 1264.01 493.572 1249.62 492.121 1244.49C489.58 1238.7 491.907 1176.19 491.817 1164.75C493.616 1149.63 491.913 1128.07 491.969 1112.4C492.134 1066.4 491.505 1020.4 492.132 974.41Z"/>
	<path fill="#045AC6" transform="matrix(1.00061 0 0 0.999588 0 -1.52588e-05)" d="M460.025 561.353L462.2 557.86C465.82 568.764 483.977 583.155 493.396 589.874C493.543 602.883 493.27 616.083 494.413 629.041L493.025 629.624L495.007 629.581L494.815 630.169L495.001 629.388C496.064 624.731 495.999 619.859 496.125 615.104L497.602 614.629C500.402 608.233 497.497 594.013 499.203 585.891C502.5 609.024 500.041 632.813 499.987 656.076L500.006 791.163L500.014 1040.49L500.028 1121.35C500.033 1136.07 500.572 1151.01 499.853 1165.71C498.619 1164.29 498.741 1163.22 498.667 1161.4C497.334 1128.48 498.675 1094.89 498.681 1061.91L498.691 859.869C498.689 839.284 500.435 810.563 498.317 791.286C496.721 791.741 496.741 791.615 495.22 790.896C494.954 792.984 494.935 795.021 494.925 797.121C489.312 790.201 496.308 701.782 492.577 683.087L491.907 683.378C490.257 689.413 491.099 696.248 491.098 702.473C491.096 718.921 493.58 761.889 491.008 775.068C490.968 775.272 490.92 775.475 490.876 775.679C489.672 772.534 490.156 767.095 489.999 763.632C491.05 755.935 490.131 746.999 490.089 739.19C489.986 719.849 489.791 700.54 489.297 681.205C488.527 651.118 489.2 620.834 489.183 590.725C479.023 581.389 469.586 571.294 460.025 561.353Z"/>
	<path fill="#043CA5" transform="matrix(1.00061 0 0 0.999588 0 -1.52588e-05)" d="M555.215 570.565L558.828 571.257C553.589 576.866 548.464 582.9 542.736 588.001C543.598 589.601 544.653 591.229 544.959 593.035C544.159 595.023 543.361 597.099 543.206 599.254C542.722 605.974 543.184 658.845 544.52 664.001C543.725 667.116 543.517 667.958 544.513 671.15C541.787 674.973 542.741 705.666 543.785 711.616C543.938 712.487 544.161 713.336 544.427 714.179C544.8 716.09 545.26 717.412 546.33 719.045C543.896 722.205 543.966 725.538 543.869 729.358C541.83 809.406 544.926 889.883 544.921 969.977L544.51 1518.3C547.669 1525.07 573.396 1553.99 580.35 1556.32C580.893 1556.5 581 1556.46 581.497 1556.45C587.589 1553.71 593.964 1547.63 596.51 1541.38C590.214 1540.31 568.913 1518.1 564.794 1512.11C564.086 1511.08 563.51 1510 562.974 1508.87C565.825 1507.97 567.077 1507.27 569.073 1504.97C573.156 1512.3 636.745 1576.15 646.961 1585.29C646.677 1591.6 657.915 1597.48 659.066 1604.66L660.104 1604.88C657.123 1608.62 650.044 1619.28 645.11 1620.05C644.777 1620.1 644.438 1620.11 644.102 1620.14C653.341 1636.96 700.721 1675.34 704.138 1683.5C703.057 1685.5 702.838 1685.66 700.817 1686.7C700.062 1686.02 700.075 1684.81 700.009 1683.83L699.949 1682.86C698.972 1681.32 697.852 1679.28 696.371 1678.2C694.368 1676.73 693.285 1676.6 690.93 1676.89C686.178 1675.94 619.792 1607.64 609.977 1597.52C601.802 1589.1 591.59 1575.25 581.508 1569.54C577.603 1570.11 576.105 1573.04 572.657 1574.75C572.517 1574.82 572.374 1574.89 572.233 1574.95C578.344 1580.85 575.774 1582.59 577.805 1589.68C578.164 1619.01 578.664 1648.35 578.204 1677.68C577.894 1682.45 577.881 1687.48 576.89 1692.15C571.801 1690.61 569.643 1687.12 567.049 1682.73L564.921 1684.9L561.727 1683.56C561.288 1682.94 560.442 1682.05 560.176 1681.37C557.806 1675.35 559.72 1600.52 559.799 1587.08C556.093 1584.38 553.763 1581.51 551.241 1577.7L550.871 1593.73C551.834 1624.46 551.791 1655.1 551.296 1685.83C555.493 1693.84 566.54 1706.17 573.914 1711.3C580.001 1718.05 619.032 1759.54 624.158 1759.93C625.673 1773.59 627.176 1799.24 624.894 1812.35L623.938 1815.61L623.63 1814.89L623.525 1816.75L623.208 1816.74C618.885 1811.8 622.867 1793.9 622.363 1786.77C621.836 1779.32 620.346 1770.78 617.991 1763.69L616.103 1763.33C603.248 1753.5 545.803 1696.76 540.542 1685.34C538.513 1671.08 539.671 1654.92 539.717 1640.49L540.102 1558.41C542.285 1563.86 549.222 1572.42 554.182 1575.33C556.328 1576.59 558.685 1577.39 561.159 1576.67C564.592 1575.68 566.404 1571.62 567.915 1568.71C567.338 1568.56 567.386 1568.6 566.733 1568.31C559.346 1565.12 528.933 1533.56 525.924 1525.99L524.86 1525.52C522.509 1516.18 524.283 1492.62 524.304 1481.8L524.334 1382.74L524.061 908.556L525.339 910.483L526.318 909.781C527.545 901.906 526.638 893.385 526.721 885.401C526.87 871.157 527.441 856.923 527.523 842.677C527.585 831.97 526.82 820.614 528.105 810.022C530.59 793.971 530.418 777.074 531.099 760.837C530.448 755.429 531.945 748.581 532.561 743.117C534.289 748.771 533.753 756.348 533.997 762.323C536.895 747.847 535.198 713.695 535.125 697.79L535.264 590.152C542.104 583.846 548.606 577.115 555.215 570.565Z"/>
	<path fill="#0251C0" transform="matrix(1.00061 0 0 0.999588 0 -1.52588e-05)" d="M531.099 760.837C530.448 755.429 531.945 748.581 532.561 743.117C534.289 748.771 533.753 756.348 533.997 762.323C533.881 775.21 534.512 788.666 533.099 801.459C533.554 833.055 531.901 864.802 533.11 896.389L532.884 1057.87C532.88 1082.81 534.348 1108.88 532.706 1133.71C529.916 1130.02 531.683 1073.69 531.082 1063.43C529.742 1068.78 531.384 1076.26 529.43 1080.93C529.309 1081.22 529.171 1081.5 529.042 1081.79C528.907 1087.69 529.258 1117.95 527.108 1120.62C525.203 1214.96 526.13 1309.43 526.162 1403.8L526.202 1485.1C526.209 1498.47 527.202 1512.73 525.924 1525.99L524.86 1525.52C522.509 1516.18 524.283 1492.62 524.304 1481.8L524.334 1382.74L524.061 908.556L525.339 910.483L526.318 909.781C527.545 901.906 526.638 893.385 526.721 885.401C526.87 871.157 527.441 856.923 527.523 842.677C527.585 831.97 526.82 820.614 528.105 810.022C530.59 793.971 530.418 777.074 531.099 760.837Z"/>
	<path fill="#045AC6" transform="matrix(1.00061 0 0 0.999588 0 -1.52588e-05)" d="M527.108 1120.62C525.127 1108.95 526.849 1087.92 526.831 1075.45L526.766 1002.84C526.777 989.319 525.529 974.033 528.05 960.808L528.504 961.59L527.911 961.488C530.783 964.928 528.96 1069.38 529.042 1081.79C528.907 1087.69 529.258 1117.95 527.108 1120.62Z"/>
	<path fill="#05A0F5" transform="matrix(1.00061 0 0 0.999588 0 -1.52588e-05)" d="M266.902 586.031C262.018 583.048 258.068 579.988 255.809 574.543C254.153 570.553 253.558 566.187 255.349 562.139C261.401 548.462 272.468 555.488 277.913 552.016C280.787 550.184 283.439 546.192 286.765 545.231C288.559 544.713 289.255 545.351 290.808 546.146L290.833 548.22C288.809 551.451 285.574 553.59 282.582 555.86L288.413 563.217C291.748 560.617 294.636 557.953 297.468 554.812C299.99 556.165 302.553 557.445 304.881 559.117C299.093 562.585 293.07 565.89 287.468 569.641C286.108 575.226 285.445 580.128 280.115 583.345C278.32 584.429 276.366 585.269 274.444 586.099L274.298 673.922C279.947 676.957 285.026 680.126 286.887 686.668C287.972 690.482 287.293 694.281 285.368 697.704C282.839 702.201 278.636 704.789 274.121 707.012C273.172 723.611 277.644 720.067 278.86 732.531C280.356 747.857 279.225 763.816 278.9 779.216C313.66 813.672 347.749 848.771 381.963 883.767C400.949 903.187 421.408 922.245 439.082 942.846L439.244 1263.97C441.293 1268.75 448.545 1279.1 453.402 1280.92C454.016 1281.15 454.648 1281.26 455.287 1281.39C455.048 1269.41 455.059 1257.46 455.221 1245.48C456.879 1258.1 455.423 1270.98 456.188 1283.67C457.174 1297.71 458.991 1371.72 456.176 1380.75C454.01 1369.82 458.217 1357.8 455.425 1347.08L454.57 1346.59C454.428 1346.75 454.268 1346.89 454.144 1347.06C451.024 1351.33 451.699 1361.35 452.229 1366.42C455.645 1379.46 452.789 1407.11 452.784 1422C452.774 1446.36 455.197 1472.2 452.164 1496.37C452.724 1500.52 452.691 1502.15 450.047 1505.65C447.702 1508.75 443.435 1514.41 439.939 1516.11L441.588 1517.06C447.303 1513.74 451.499 1507.82 454.763 1502.18C452.384 1511.77 443.514 1522.77 434.882 1527.92C432.976 1529.05 431.877 1528.57 429.776 1528.07C423.863 1528.23 420.648 1526.09 415.963 1522.65C417.354 1511.42 416.275 1498.75 416.272 1487.36L416.244 1415.32C416.231 1379.93 415.763 1344.48 416.295 1309.1C416.655 1285.16 418.138 1261.24 418.094 1237.29C418.085 1232.1 418.383 1226.7 416.886 1221.68C416.943 1221.62 417.011 1221.58 417.055 1221.51C418.6 1219.15 417.555 1217.53 416.906 1214.98L417.883 1214.7C418.086 1214.33 418.432 1213.75 418.576 1213.32C420.64 1207.11 419.389 1173.6 416.886 1167.93C418.277 1166.86 418.995 1165.26 419.116 1163.5C419.312 1160.64 417.983 1158.8 416.141 1156.83C417.776 1156.15 418.494 1154.95 419.499 1153.57C419.248 1150.84 419.021 1150.8 417.058 1148.84C418.347 1147.58 418.699 1146.9 418.99 1145.08C419.437 1142.28 418.964 1139.2 417.231 1136.94C417.291 1136.9 417.361 1136.86 417.412 1136.81C419.47 1134.59 418.797 1131.92 418.817 1129.05L418.873 1119.06L418.87 1117.1C419.153 1113.66 418.372 1110.05 417.868 1106.63C418.612 1105.65 418.309 1105.23 418.237 1104.04C408.835 1097.92 293.045 1108.69 280.777 1101.25C277.96 1099.73 275.867 1095.92 274.022 1093.32C277.122 1092.34 277.532 1090.73 278.931 1088.07C279.014 1088.21 279.092 1088.35 279.182 1088.48C280.773 1090.81 282.446 1092.99 285.31 1093.63C287.732 1094.64 290.352 1095.04 292.952 1095.25C311.919 1096.8 332.02 1094.81 351.102 1094.81L391.833 1094.94C398.151 1095.02 404.737 1095.8 411.021 1095.29C413.818 1095.06 416.01 1094.51 418.191 1092.67C419.265 1089.93 419.096 1089.45 418.467 1086.54C407.082 1077.7 338.998 1091.37 324.586 1082.56C324.42 1082.46 324.263 1082.35 324.101 1082.24C316.366 1081.31 256.014 1016.29 245.694 1006L172.431 1005.93C170.216 1009.39 167.968 1013.02 164.585 1015.46C161.055 1018.01 156.887 1018.54 152.663 1017.84C149.036 1017.24 145.602 1015.52 143.497 1012.42C141.073 1008.86 140.641 1004.61 141.453 1000.46C142.35 995.867 145.072 991.298 149.008 988.686C151.627 986.949 154.566 986.269 157.673 986.907C164.448 988.299 168.45 994.344 172.061 999.684L248.635 999.269L292.754 1044.53C301.758 1053.93 310.823 1065.72 321.367 1073.29C323.857 1075.08 325.207 1075.14 328.169 1075.34C320.653 1071.66 308.325 1055.87 302.095 1049.34C284.971 1031.4 267.437 1013.85 249.802 996.407C240.103 986.816 230.141 975.518 218.912 967.814C218.558 965.76 217.696 964.724 216.399 963.129C212.963 961.16 208.528 961.754 204.684 961.853C205.987 961.756 207.308 961.672 208.59 961.418C210.749 960.991 211.362 961.118 212.601 959.282C210.727 957.109 208.832 955.019 206.799 952.992C201.178 941.743 148.502 892.854 135.756 880.315C131.361 875.992 122.98 869.587 120.57 864.223C124.499 863.81 135.599 878.669 141.296 880.483C141.5 880.548 141.709 880.596 141.916 880.652C149.83 885.674 166.862 904.781 174.483 912.284C202.117 939.488 230.115 966.339 257.248 994.049C281.297 1018.61 304.651 1044.33 329.613 1067.93C332.006 1070.19 335.161 1073.88 338.542 1074.18C339.661 1074.87 341.011 1075.42 342.314 1075.65C352.634 1077.46 411.474 1078.22 418.9 1073.03L418.91 1058.3C418.125 1058.71 417.309 1059.11 416.463 1059.38C407.018 1062.47 350.663 1062.04 342.851 1058.06C339.909 1057.54 337.788 1054.95 335.691 1052.95C300.377 1019.23 266.785 983.312 232.13 948.87C200.59 917.525 166.963 887.009 137.303 853.918L137.619 747.612C144.115 749.765 149.373 748.936 155.879 747.573L155.925 844.891C179.227 868.095 347.307 1037.37 352.989 1038.29C357.614 1040.19 363.083 1041.62 367.956 1039.65C368.984 1039.23 369.95 1038.69 370.903 1038.13C371.136 1038.63 371.227 1038.87 371.578 1039.35C372.078 1040.03 372.873 1040.77 373.689 1040.92C378.576 1041.85 382.039 1038.92 385.823 1036.28C385.59 1037.42 385.758 1038.13 386.041 1039.25C387.304 1039.81 388.608 1040.29 389.968 1040.55C397.26 1041.94 413.339 1041.83 419.457 1037.48C419.231 1026.49 420.424 1015.21 419.566 1004.28C420.503 1002.76 421.039 1001.19 421.183 999.392C421.508 995.339 418.031 991.898 415.667 988.887L418.858 985.618L420.461 985.173L421.272 983.026C421.026 980.072 420.314 978.577 418.723 976.16C421.28 969.306 419.709 957.561 419.658 950.1C400.258 929.009 379.606 908.921 359.461 888.532L260.914 788.637C261.016 768.2 260.301 747.963 261.367 727.525L266.854 720.906C267.107 716.306 266.925 711.642 266.894 707.033C261.788 704.695 257.132 701.925 254.537 696.713C252.86 693.345 252.51 689.806 253.717 686.223C255.92 679.683 260.998 676.642 266.892 673.748L266.902 586.031Z"/>
	<path fill="#FBF7F5" transform="matrix(1.00061 0 0 0.999588 0 -1.52588e-05)" d="M267.011 558.794C271.382 558.649 275.171 558.484 278.636 561.595C280.664 563.416 281.549 565.64 281.545 568.339C281.539 572.835 278.768 575.917 275.798 578.936C271.85 578.887 268.185 578.603 264.959 576.075C262.901 574.462 261.654 572.353 261.523 569.709C261.293 565.033 264.087 562.046 267.011 558.794Z"/>
</svg>
