<?xml version="1.0" encoding="utf-8" ?>
<svg xmlns="http://www.w3.org/2000/svg" xmlns:xlink="http://www.w3.org/1999/xlink" width="1370" height="1370">
	<path fill="#0D62AC" transform="matrix(1.33789 0 0 1.33789 0 -7.45058e-09)" d="M606.017 567.266C625.302 582.687 643.311 601.28 655.819 622.667C661.489 632.363 666.103 642.363 671.173 652.349C666.728 646.627 662.415 640.748 657.525 635.394C645.586 622.325 631.625 611.741 616.753 602.243C611.755 599.05 606.423 596.424 601.437 593.24C602.223 593.304 602.934 593.333 603.677 593.625L604.247 593.875C606.057 594.572 607.281 595.624 608.968 596.445L612.748 598.58C613.773 599.404 613.123 599.096 614.055 599.512L614.625 599.753C615.738 600.321 617.155 600.884 618.039 601.764C618.844 602.564 619.526 603.022 620.648 603.297L621.248 603.413C622.127 604.346 622.954 605.348 624.099 605.957C625.141 606.51 624.379 605.968 625.284 606.63L627.75 608.411L628.5 608.878L629.625 609.753L630.747 610.375C632.253 611.511 634.144 612.492 635.5 613.755C636.165 614.374 636.458 614.798 637.287 615.223C639.14 616.172 640.317 618.029 642.125 618.875C643.056 619.311 642.852 619.032 643.379 619.666C644.791 621.366 646.471 623.609 648.305 624.864C650.112 626.102 651.322 627.336 652.75 629L653.253 629.007L651.804 627L652.127 626.167L653.66 627.171L654.667 626.819C655.949 626.637 655.867 626.936 656.727 627.686L657.375 627.253L653.753 621.125L650.899 616.556L646.862 610.763L645.755 609.25L644.175 607.014C643.105 605.675 642.188 604.001 640.955 602.831C639.973 601.898 639.752 600.964 638.84 600.123L625.753 586.625L615.355 576.85C613.048 575.119 611.288 572.977 609.018 571.159C607.629 570.046 607 569.382 606.225 567.728L606.017 567.266Z"/>
	<path fill="#10A1E1" transform="matrix(1.33789 0 0 1.33789 0 -7.45058e-09)" d="M601.437 593.24C597.441 592.145 593.068 589.22 589.287 587.404C583.485 584.618 577.508 582.109 571.496 579.819C559.264 575.161 546.716 571.285 534.259 567.286C514.264 560.867 493.489 555.859 480.876 537.505C474.678 528.485 472.618 517.372 474.719 506.659C476.572 497.217 483.912 487.295 491.86 482.028C501.177 475.854 511.745 474.746 522.574 476.78C527.889 477.779 532.324 479.934 536.74 482.996C542.394 486.916 546.925 492.195 549.87 498.434C552.968 504.998 554.183 512.31 556.809 519.065C558.599 523.667 561.729 528.754 564.95 532.48C569.451 537.688 574.737 541.738 580.087 545.984C588.847 552.935 597.751 559.724 606.017 567.266L606.225 567.728C607 569.382 607.629 570.046 609.018 571.159C611.288 572.977 613.048 575.119 615.355 576.85L625.753 586.625L638.84 600.123C639.752 600.964 639.973 601.898 640.955 602.831C642.188 604.001 643.105 605.675 644.175 607.014L645.755 609.25L646.862 610.763L650.899 616.556L653.753 621.125L657.375 627.253L656.727 627.686C655.867 626.936 655.949 626.637 654.667 626.819L653.66 627.171L652.127 626.167L651.804 627L653.253 629.007L652.75 629C651.322 627.336 650.112 626.102 648.305 624.864C646.471 623.609 644.791 621.366 643.379 619.666C642.852 619.032 643.056 619.311 642.125 618.875C640.317 618.029 639.14 616.172 637.287 615.223C636.458 614.798 636.165 614.374 635.5 613.755C634.144 612.492 632.253 611.511 630.747 610.375L629.625 609.753L628.5 608.878L627.75 608.411L625.284 606.63C624.379 605.968 625.141 606.51 624.099 605.957C622.954 605.348 622.127 604.346 621.248 603.413L620.648 603.297C619.526 603.022 618.844 602.564 618.039 601.764C617.155 600.884 615.738 600.321 614.625 599.753L614.055 599.512C613.123 599.096 613.773 599.404 612.748 598.58L608.968 596.445C607.281 595.624 606.057 594.572 604.247 593.875L603.677 593.625C602.934 593.333 602.223 593.304 601.437 593.24Z"/>
	<defs>
		<linearGradient id="gradient_0" gradientUnits="userSpaceOnUse" x1="482.36047" y1="673.62372" x2="579.84692" y2="280.5462">
			<stop offset="0" stop-color="#0E1D2A"/>
			<stop offset="1" stop-color="#324756"/>
		</linearGradient>
	</defs>
	<path fill="url(#gradient_0)" transform="matrix(1.33789 0 0 1.33789 0 -7.45058e-09)" d="M508.832 269.728C545.868 269.268 580.856 277.559 612.859 296.521C657.147 322.762 688.501 364.765 701.169 414.569C711.283 454.331 708.61 497.096 693.67 535.334C689.277 546.578 683.32 557.67 677.099 568.005C674.205 572.813 671.027 577.186 667.437 581.497C665.984 583.242 664.995 585.037 662.75 585.595C661.862 585.392 661.219 585.232 660.562 584.561C658.06 582.002 655.902 578.986 653.474 576.332C648.291 570.666 642.685 565.175 637.115 559.884C629.568 552.713 621.377 546.283 613.218 539.844C607.067 534.99 601.018 529.919 594.535 525.512L603.824 506.775C614.646 480.044 614.165 447.998 602.914 421.503C592.266 396.43 573.339 377.715 548.014 367.72C525.486 358.829 499.229 359.427 477.061 369.208C453.149 379.758 434.747 399.509 425.439 423.899C414.109 453.586 415.243 485.847 428.329 514.797C442.152 545.378 469.283 565.048 499.878 576.623C517.012 582.695 534.598 587.336 551.79 593.204C573.589 600.644 594.475 610.409 614.042 622.553C646.148 642.481 679.273 672.835 688.713 710.75C690.255 716.945 689.816 723.498 689.441 729.816C681.893 718.596 673.19 707.199 663.142 698.102C638.72 675.991 607.421 661.869 574.461 659.657C563.69 658.935 552.67 659.519 541.902 660.031C529.286 660.631 516.447 661.353 503.837 660.345C460.523 656.88 418.042 638.366 385.981 609.005C348.257 574.458 324.823 525.718 322.601 474.44C321.978 460.042 322.321 445.753 324.526 431.5C330.363 393.771 347.381 359.253 373.129 331.229C407.898 293.385 457.755 271.811 508.832 269.728Z"/>
</svg>
