<?xml version="1.0" encoding="utf-8" ?>
<svg xmlns="http://www.w3.org/2000/svg" xmlns:xlink="http://www.w3.org/1999/xlink" width="1024" height="763">
	<path fill="#04245F" transform="matrix(2.18764 0 0 2.18625 -140.201 1.52588e-05)" d="M451.009 147.653C455.104 147.161 459.56 147.519 463.694 147.516C473.767 147.508 483.862 147.717 493.932 147.536C494.247 148.134 494.336 148.668 494.391 149.332C494.729 153.419 494.85 188.177 494.279 189.965C494.225 190.133 493.825 190.509 493.694 190.665C491.492 190.094 484.987 190.534 482.432 190.533L450.918 190.543C450.961 190.46 451.005 190.378 451.046 190.294C451.89 188.558 451.092 182.155 451.063 179.807C450.967 172.29 451.045 164.685 451.098 157.167C451.118 154.405 451.407 151.568 451.294 148.815C451.277 148.416 451.149 148.024 451.009 147.653Z"/>
	<path fill="#FDFDFD" transform="matrix(2.18764 0 0 2.18625 -140.201 1.52588e-05)" d="M457.402 154.004C467.384 153.574 477.502 153.952 487.501 153.922C487.65 154.164 487.758 154.382 487.824 154.661C488.323 156.804 488.179 179.678 487.91 182.753C487.868 183.231 487.724 183.612 487.483 184.027C486.145 184.629 460.236 184.215 457.041 184.217C457.29 183.818 457.466 183.404 457.517 182.934C457.993 178.561 457.586 173.671 457.581 169.242C457.575 164.343 458.071 158.831 457.402 154.004Z"/>
	<path fill="#04245F" transform="matrix(2.18764 0 0 2.18625 -140.201 1.52588e-05)" d="M460.507 156.602C468.626 156.567 476.767 156.409 484.883 156.599C485.058 156.88 485.184 157.146 485.25 157.475C485.624 159.32 485.597 179.252 485.219 180.691C485.169 180.882 484.846 181.248 484.725 181.428C482.252 182.152 464.247 181.543 460.02 181.54C461.123 179.783 460.501 160.204 460.507 156.602Z"/>
	<path fill="#04245F" transform="matrix(2.18764 0 0 2.18625 -140.201 1.52588e-05)" d="M451.263 203.078C456.264 202.72 461.39 202.956 466.409 202.956L493.904 202.956C494.403 203.96 494.402 204.828 494.426 205.921C494.6 214.141 494.428 222.395 494.42 230.619L494.422 276.615L494.43 299.964C494.43 303.822 494.794 308.115 494.231 311.915C494.177 312.276 493.797 312.423 493.509 312.631C488.983 312.163 484.067 312.502 479.511 312.497L450.949 312.556C451.325 311.984 451.384 311.556 451.403 310.882C451.623 302.989 451.433 295.045 451.435 287.146L451.444 239.923L451.469 215.34C451.462 211.387 451.814 206.978 451.263 203.078Z"/>
	<path fill="#04245F" transform="matrix(2.18764 0 0 2.18625 -140.201 1.52588e-05)" d="M395.885 3.31903C413.847 2.77916 432.205 3.37022 449.863 6.92472C474.283 11.8405 500.257 21.62 514.604 43.302C524.989 58.9951 528.333 78.6703 524.555 97.0615C523.155 103.877 516.81 124.065 511.081 127.855C511.397 127.352 511.682 126.828 511.867 126.262C512.636 123.904 512.98 121.23 513.44 118.788C516.668 101.646 515.559 81.8741 507.401 66.1704C496.853 45.8665 476.017 33.834 454.87 27.1801C436.386 21.364 417.01 19.575 397.712 19.5528C330.674 19.4757 259.134 42.4425 200.085 73.2282C161.103 93.7684 124.262 118.49 92.5906 149.267C86.4258 155.257 80.6154 161.565 75.1038 168.16C72.4731 171.308 69.0949 176.42 66.2509 178.969L65.8341 178.806C65.8893 174.678 85.2197 152.136 88.9674 147.808C100.471 134.523 113.449 122.366 126.888 111.07C186.198 61.2164 262.288 25.3938 338.186 10.2464C352.141 7.46136 366.264 5.39599 380.446 4.19234C385.582 3.7564 390.744 3.68889 395.885 3.31903Z"/>
	<path fill="#04245F" transform="matrix(2.18764 0 0 2.18625 -140.201 1.52588e-05)" d="M375.815 147.653C390.796 146.909 405.918 148.147 420.91 147.488C421.055 147.736 421.175 147.946 421.244 148.228C421.768 150.366 421.554 177.869 421.303 181.138C421.254 181.776 421.125 182.273 420.816 182.839C420.569 182.807 420.334 182.799 420.086 182.791C412.359 182.539 404.571 182.711 396.837 182.713C380.165 182.718 364.286 181.914 351.221 194.233C341.543 203.357 338.097 215.748 337.774 228.706C337.458 241.335 340.903 254.705 349.797 264.01C362.439 277.236 377.643 276.856 394.475 276.836C403.293 276.826 412.128 276.692 420.943 276.873C421.022 277.021 421.064 277.094 421.135 277.257C421.736 278.627 421.694 310.565 421.016 312.197C420.908 312.365 420.592 312.545 420.428 312.666L420.357 312.436L419.532 312.274L419.437 312.847C419.081 312.426 415.742 312.543 414.97 312.529C380.562 311.919 345.237 316.979 317.159 292.088C301.511 278.215 294.156 258.207 292.938 237.699C291.626 215.603 297.603 192.402 312.535 175.661C328.631 157.616 352.096 149.009 375.815 147.653Z"/>
	<path fill="#04245F" transform="matrix(2.18764 0 0 2.18625 -140.201 1.52588e-05)" d="M134.813 150.459L177.701 150.47C177.19 158.785 177.574 167.339 177.568 175.682L177.547 222.516C177.547 233.386 176.762 245.075 178.869 255.767C180.089 261.959 182.32 268.452 186.904 272.977C191.344 277.359 196.856 279.048 202.974 279.026C209.116 279.004 214.897 277.358 219.31 272.858C223.906 268.17 226.107 261.435 227.194 255.095C229.02 244.446 228.204 228.285 228.216 217.079L228.169 150.524L270.935 150.506C270.575 162.018 270.832 173.592 270.919 185.109L270.94 222.744C270.935 232.555 271.318 242.626 270.403 252.397C268.968 267.717 263.557 283.688 252.594 294.824C239.338 308.292 220.979 312.589 202.68 312.691C184.995 312.79 166.959 309.51 153.924 296.545C136.196 278.914 134.921 253.092 134.899 229.611L134.89 206.468L134.813 150.459Z"/>
</svg>
